G04 #@! TF.GenerationSoftware,KiCad,Pcbnew,8.0.5*
G04 #@! TF.CreationDate,2024-09-11T06:58:09-04:00*
G04 #@! TF.ProjectId,t41_2_main_board,7434315f-325f-46d6-9169-6e5f626f6172,1.0*
G04 #@! TF.SameCoordinates,Original*
G04 #@! TF.FileFunction,Soldermask,Bot*
G04 #@! TF.FilePolarity,Negative*
%FSLAX46Y46*%
G04 Gerber Fmt 4.6, Leading zero omitted, Abs format (unit mm)*
G04 Created by KiCad (PCBNEW 8.0.5) date 2024-09-11 06:58:09*
%MOMM*%
%LPD*%
G01*
G04 APERTURE LIST*
G04 Aperture macros list*
%AMRoundRect*
0 Rectangle with rounded corners*
0 $1 Rounding radius*
0 $2 $3 $4 $5 $6 $7 $8 $9 X,Y pos of 4 corners*
0 Add a 4 corners polygon primitive as box body*
4,1,4,$2,$3,$4,$5,$6,$7,$8,$9,$2,$3,0*
0 Add four circle primitives for the rounded corners*
1,1,$1+$1,$2,$3*
1,1,$1+$1,$4,$5*
1,1,$1+$1,$6,$7*
1,1,$1+$1,$8,$9*
0 Add four rect primitives between the rounded corners*
20,1,$1+$1,$2,$3,$4,$5,0*
20,1,$1+$1,$4,$5,$6,$7,0*
20,1,$1+$1,$6,$7,$8,$9,0*
20,1,$1+$1,$8,$9,$2,$3,0*%
G04 Aperture macros list end*
%ADD10C,1.700000*%
%ADD11C,2.100000*%
%ADD12RoundRect,0.250000X-0.600000X-0.600000X0.600000X-0.600000X0.600000X0.600000X-0.600000X0.600000X0*%
%ADD13R,1.600000X1.600000*%
%ADD14C,1.600000*%
%ADD15R,1.300000X1.300000*%
%ADD16C,1.300000*%
%ADD17RoundRect,0.250000X0.275000X0.700000X-0.275000X0.700000X-0.275000X-0.700000X0.275000X-0.700000X0*%
%ADD18RoundRect,0.250000X0.312500X0.625000X-0.312500X0.625000X-0.312500X-0.625000X0.312500X-0.625000X0*%
%ADD19RoundRect,0.250000X-0.325000X-0.650000X0.325000X-0.650000X0.325000X0.650000X-0.325000X0.650000X0*%
%ADD20RoundRect,0.250000X-0.600000X0.600000X-0.600000X-0.600000X0.600000X-0.600000X0.600000X0.600000X0*%
%ADD21RoundRect,0.250000X-0.275000X-0.700000X0.275000X-0.700000X0.275000X0.700000X-0.275000X0.700000X0*%
%ADD22RoundRect,0.250000X-0.625000X0.312500X-0.625000X-0.312500X0.625000X-0.312500X0.625000X0.312500X0*%
%ADD23RoundRect,0.250000X0.600000X0.600000X-0.600000X0.600000X-0.600000X-0.600000X0.600000X-0.600000X0*%
%ADD24RoundRect,0.250000X0.325000X0.650000X-0.325000X0.650000X-0.325000X-0.650000X0.325000X-0.650000X0*%
%ADD25RoundRect,0.250000X0.600000X-0.600000X0.600000X0.600000X-0.600000X0.600000X-0.600000X-0.600000X0*%
G04 APERTURE END LIST*
D10*
X100611400Y-71251400D03*
X107611400Y-71251400D03*
X100620000Y-94120000D03*
X107620000Y-94120000D03*
D11*
X131399400Y-134618400D03*
X131399400Y-132118400D03*
X131399400Y-129618400D03*
D10*
X100611400Y-59821400D03*
X107611400Y-59821400D03*
D11*
X125323800Y-67348400D03*
X125323800Y-69888400D03*
X125323800Y-72428400D03*
X125323800Y-74968400D03*
X125323800Y-77508400D03*
X125323800Y-80048400D03*
X150723800Y-80048400D03*
X150723800Y-77508400D03*
X150723800Y-74968400D03*
X150723800Y-72428400D03*
X150723800Y-69888400D03*
X150723800Y-67348400D03*
X140563800Y-57696400D03*
X138023800Y-57696400D03*
X135483800Y-57696400D03*
D10*
X100611400Y-82681400D03*
X107611400Y-82681400D03*
D11*
X139988800Y-131564600D03*
X142488800Y-131564600D03*
X144988800Y-131564600D03*
X147488800Y-131564600D03*
X118415000Y-72958000D03*
X118415000Y-70458000D03*
X118415000Y-67958000D03*
D12*
X100000000Y-120790000D03*
D10*
X102540000Y-120790000D03*
X100000000Y-123330000D03*
X102540000Y-123330000D03*
X100000000Y-125870000D03*
X102540000Y-125870000D03*
X100000000Y-128410000D03*
X102540000Y-128410000D03*
X100000000Y-130950000D03*
X102540000Y-130950000D03*
X100000000Y-133490000D03*
X102540000Y-133490000D03*
X100000000Y-136030000D03*
X102540000Y-136030000D03*
X100000000Y-138570000D03*
X102540000Y-138570000D03*
D13*
X172288400Y-126124000D03*
D14*
X172288400Y-123584000D03*
X172288400Y-121044000D03*
X172288400Y-118504000D03*
X172288400Y-115964000D03*
X172288400Y-113424000D03*
X172288400Y-110884000D03*
X172288400Y-108344000D03*
X172288400Y-105804000D03*
X172288400Y-103264000D03*
X172288400Y-100724000D03*
X172288400Y-98184000D03*
X172288400Y-95644000D03*
X172288400Y-93104000D03*
X172288400Y-90564000D03*
X172288400Y-88024000D03*
X172288400Y-85484000D03*
X172288400Y-82944000D03*
X172288400Y-80404000D03*
X172288400Y-77864000D03*
X172288400Y-75324000D03*
X172288400Y-72784000D03*
X172288400Y-70244000D03*
X172288400Y-67704000D03*
X157048400Y-67704000D03*
X157048400Y-70244000D03*
X157048400Y-72784000D03*
X157048400Y-75324000D03*
X157048400Y-77864000D03*
X157048400Y-80404000D03*
X157048400Y-82944000D03*
X157048400Y-85484000D03*
X157048400Y-88024000D03*
X157048400Y-90564000D03*
X157048400Y-93104000D03*
X157048400Y-95644000D03*
X157048400Y-98184000D03*
X157048400Y-100724000D03*
X157048400Y-103264000D03*
X157048400Y-105804000D03*
X157048400Y-108344000D03*
X157048400Y-110884000D03*
X157048400Y-113424000D03*
X157048400Y-115964000D03*
X157048400Y-118504000D03*
X157048400Y-121044000D03*
X157048400Y-123584000D03*
X157048400Y-126124000D03*
X159588400Y-123584000D03*
X169748400Y-80404000D03*
X167208400Y-80404000D03*
X164668400Y-80404000D03*
X162128400Y-80404000D03*
X159588400Y-80404000D03*
D13*
X169237600Y-119824800D03*
D14*
X169237600Y-117284800D03*
X169237600Y-114744800D03*
X169237600Y-112204800D03*
X169237600Y-109664800D03*
D15*
X159486800Y-113154000D03*
D16*
X161486800Y-113154000D03*
X163486800Y-113154000D03*
X163486800Y-111154000D03*
X161486800Y-111154000D03*
X159486800Y-111154000D03*
X163398400Y-125394000D03*
X165938400Y-125394000D03*
D11*
X117551400Y-79946800D03*
X120051400Y-79946800D03*
X150723800Y-122669600D03*
X150723800Y-120129600D03*
X150723800Y-117589600D03*
X150723800Y-115049600D03*
X150723800Y-112509600D03*
X150723800Y-109969600D03*
X150723800Y-107429600D03*
X150723800Y-104889600D03*
X150723800Y-102349600D03*
X149707800Y-95872600D03*
X147167800Y-95872600D03*
X144627800Y-95872600D03*
X142087800Y-95872600D03*
X139547800Y-95872600D03*
X137007800Y-95872600D03*
D17*
X123114000Y-105550000D03*
X119964000Y-105550000D03*
X123165000Y-109360000D03*
X120015000Y-109360000D03*
D18*
X103378200Y-113576400D03*
X100453200Y-113576400D03*
D19*
X120193000Y-112662000D03*
X123143000Y-112662000D03*
D20*
X180568800Y-57655100D03*
D10*
X180568800Y-60195100D03*
X183108800Y-57655100D03*
X183108800Y-60195100D03*
X185648800Y-57655100D03*
X185648800Y-60195100D03*
X188188800Y-57655100D03*
X188188800Y-60195100D03*
X190728800Y-57655100D03*
X190728800Y-60195100D03*
D12*
X190068400Y-101333600D03*
D10*
X192608400Y-101333600D03*
X190068400Y-98793600D03*
X192608400Y-98793600D03*
X190068400Y-96253600D03*
X192608400Y-96253600D03*
X190068400Y-93713600D03*
X192608400Y-93713600D03*
X190068400Y-91173600D03*
X192608400Y-91173600D03*
D21*
X102489000Y-100470000D03*
X105639000Y-100470000D03*
D11*
X192075000Y-121247200D03*
X189575000Y-121247200D03*
X187075000Y-121247200D03*
D22*
X106248400Y-113703400D03*
X106248400Y-116628400D03*
D23*
X192573500Y-69558200D03*
D10*
X190033500Y-69558200D03*
X192573500Y-72098200D03*
X190033500Y-72098200D03*
X192573500Y-74638200D03*
X190033500Y-74638200D03*
X192573500Y-77178200D03*
X190033500Y-77178200D03*
X192573500Y-79718200D03*
X190033500Y-79718200D03*
D24*
X123065000Y-101980000D03*
X120115000Y-101980000D03*
X105617000Y-96914000D03*
X102667000Y-96914000D03*
D25*
X112700000Y-108090000D03*
D10*
X112700000Y-105550000D03*
X110160000Y-108090000D03*
X110160000Y-105550000D03*
X107620000Y-108090000D03*
X107620000Y-105550000D03*
X105080000Y-108090000D03*
X105080000Y-105550000D03*
X102540000Y-108090000D03*
X102540000Y-105550000D03*
M02*
