M48
; DRILL file {KiCad 8.0.4} date 2024-09-01T18:40:37-0400
; FORMAT={-:-/ absolute / metric / decimal}
; #@! TF.CreationDate,2024-09-01T18:40:37-04:00
; #@! TF.GenerationSoftware,Kicad,Pcbnew,8.0.4
; #@! TF.FileFunction,Plated,1,2,PTH
FMAT,2
METRIC
; #@! TA.AperFunction,Plated,PTH,ViaDrill
T1C0.500
; #@! TA.AperFunction,Plated,PTH,ComponentDrill
T2C0.800
; #@! TA.AperFunction,Plated,PTH,ComponentDrill
T3C1.000
; #@! TA.AperFunction,Plated,PTH,ComponentDrill
T4C1.100
%
G90
G05
T1
X98.425Y-55.715
X98.501Y-78.448
X98.527Y-89.624
X98.578Y-66.79
X99.416Y-118.25
X99.517Y-100.8
X101.778Y-76.213
X102.464Y-63.513
X104.064Y-54.902
X104.42Y-119.368
X104.801Y-110.224
X107.595Y-112.408
X107.747Y-119.418
X109.398Y-91.834
X110.389Y-70.346
X111.049Y-100.978
X111.354Y-95.898
X112.014Y-84.544
X112.37Y-123.279
X112.725Y-119.418
X114.986Y-105.296
X114.986Y-141.034
X115.24Y-111.138
X117.17Y-126.403
X117.272Y-93.104
X117.678Y-75.68
X117.907Y-115.456
X117.983Y-131.636
X119.558Y-99.835
X120.371Y-77.712
X122.622Y-64.721
X124.105Y-122.695
X124.155Y-127.521
X124.206Y-114.491
X125.324Y-83.858
X125.4Y-88.684
X125.591Y-133.09
X126.543Y-62.243
X127.051Y-110.173
X127.127Y-122.695
X127.178Y-134.201
X127.203Y-127.521
X129.159Y-98.362
X129.312Y-103.264
X130.099Y-86.779
X130.734Y-62.116
X131.115Y-57.544
X131.369Y-91.58
X131.471Y-105.575
X132.868Y-136.335
X134.95Y-102.299
X136.17Y-133.439
X136.271Y-84.316
X136.474Y-63.513
X137.236Y-99.708
X140.589Y-99.403
X140.589Y-102.146
X141.173Y-88.227
X141.732Y-127.546
X142.418Y-140.958
X142.469Y-78.524
X142.57Y-102.248
X142.621Y-65.977
X142.774Y-57.569
X144.043Y-73.707
X145.575Y-73.465
X145.644Y-78.626
X145.745Y-84.265
X146.078Y-71.174
X146.736Y-122.822
X148.311Y-86.957
X150.546Y-84.417
X151.003Y-135.014
X152.705Y-57.62
X152.984Y-87.16
X154.102Y-55.131
X154.102Y-131.61
X154.275Y-101.898
X155.016Y-67.856
X155.499Y-127.623
X157.003Y-128.549
X158.649Y-119.723
X158.674Y-135.37
X158.953Y-82.258
X159.055Y-70.422
X159.106Y-87.973
X159.36Y-76.238
X159.436Y-125.514
X159.461Y-129.02
X160.534Y-67.861
X161.519Y-78.601
X161.747Y-73.775
X163.119Y-67.907
X163.957Y-120.866
X164.567Y-141.059
X164.618Y-138.113
X164.821Y-93.104
X165.1Y-101.816
X165.253Y-70.32
X165.481Y-106.464
X165.811Y-96.635
X166.294Y-109.614
X166.675Y-67.882
X166.922Y-86.038
X167.107Y-71.692
X167.158Y-82.461
X168.123Y-78.423
X168.348Y-86.7
X169.698Y-74.486
X170.333Y-71.463
X170.333Y-87.668
X173.406Y-128.969
X173.508Y-131.56
X174.219Y-91.199
X174.295Y-84.544
X174.295Y-120.942
X175.159Y-72.251
X175.159Y-77.254
X176.2Y-110.249
X176.225Y-106.464
X179.019Y-91.631
X179.832Y-108.039
X180.315Y-97.366
X180.315Y-99.403
X182.22Y-106.795
X182.22Y-110.325
X182.906Y-63.284
X183.998Y-108.598
X184.125Y-91.936
X184.43Y-138.062
X185.674Y-67.272
X185.903Y-100.114
X186.919Y-61.786
X187.986Y-77.331
X189.179Y-81.623
X189.967Y-127.343
X192.532Y-81.776
X193.32Y-103.213
X193.37Y-117.894
X193.751Y-56.553
X193.853Y-128.181
X194.742Y-142.405
T2
X159.487Y-111.154
X159.487Y-113.154
X161.487Y-111.154
X161.487Y-113.154
X163.398Y-125.394
X163.487Y-111.154
X163.487Y-113.154
X165.938Y-125.394
T3
X100.0Y-120.79
X100.0Y-123.33
X100.0Y-125.87
X100.0Y-128.41
X100.0Y-130.95
X100.0Y-133.49
X100.0Y-136.03
X100.0Y-138.57
X102.54Y-105.55
X102.54Y-108.09
X102.54Y-120.79
X102.54Y-123.33
X102.54Y-125.87
X102.54Y-128.41
X102.54Y-130.95
X102.54Y-133.49
X102.54Y-136.03
X102.54Y-138.57
X105.08Y-105.55
X105.08Y-108.09
X107.62Y-105.55
X107.62Y-108.09
X110.16Y-105.55
X110.16Y-108.09
X112.7Y-105.55
X112.7Y-108.09
X180.569Y-57.655
X180.569Y-60.195
X183.109Y-57.655
X183.109Y-60.195
X185.649Y-57.655
X185.649Y-60.195
X188.189Y-57.655
X188.189Y-60.195
X190.034Y-69.558
X190.034Y-72.098
X190.034Y-74.638
X190.034Y-77.178
X190.034Y-79.718
X190.068Y-91.174
X190.068Y-93.714
X190.068Y-96.254
X190.068Y-98.794
X190.068Y-101.334
X190.729Y-57.655
X190.729Y-60.195
X192.573Y-69.558
X192.573Y-72.098
X192.573Y-74.638
X192.573Y-77.178
X192.573Y-79.718
X192.608Y-91.174
X192.608Y-93.714
X192.608Y-96.254
X192.608Y-98.794
X192.608Y-101.334
T4
X117.551Y-79.947
X118.415Y-67.958
X118.415Y-70.458
X118.415Y-72.958
X120.051Y-79.947
X125.324Y-67.348
X125.324Y-69.888
X125.324Y-72.428
X125.324Y-74.968
X125.324Y-77.508
X125.324Y-80.048
X131.399Y-129.618
X131.399Y-132.118
X131.399Y-134.618
X135.484Y-57.696
X137.008Y-95.873
X138.024Y-57.696
X139.548Y-95.873
X139.989Y-131.565
X140.564Y-57.696
X142.088Y-95.873
X142.489Y-131.565
X144.628Y-95.873
X144.989Y-131.565
X147.168Y-95.873
X147.489Y-131.565
X149.708Y-95.873
X150.724Y-67.348
X150.724Y-69.888
X150.724Y-72.428
X150.724Y-74.968
X150.724Y-77.508
X150.724Y-80.048
X150.724Y-102.35
X150.724Y-104.89
X150.724Y-107.43
X150.724Y-109.97
X150.724Y-112.51
X150.724Y-115.05
X150.724Y-117.59
X150.724Y-120.13
X150.724Y-122.67
X157.048Y-67.704
X157.048Y-70.244
X157.048Y-72.784
X157.048Y-75.324
X157.048Y-77.864
X157.048Y-80.404
X157.048Y-82.944
X157.048Y-85.484
X157.048Y-88.024
X157.048Y-90.564
X157.048Y-93.104
X157.048Y-95.644
X157.048Y-98.184
X157.048Y-100.724
X157.048Y-103.264
X157.048Y-105.804
X157.048Y-108.344
X157.048Y-110.884
X157.048Y-113.424
X157.048Y-115.964
X157.048Y-118.504
X157.048Y-121.044
X157.048Y-123.584
X157.048Y-126.124
X159.588Y-80.404
X159.588Y-123.584
X162.128Y-80.404
X164.668Y-80.404
X167.208Y-80.404
X169.238Y-109.665
X169.238Y-112.205
X169.238Y-114.745
X169.238Y-117.285
X169.238Y-119.825
X169.748Y-80.404
X172.288Y-67.704
X172.288Y-70.244
X172.288Y-72.784
X172.288Y-75.324
X172.288Y-77.864
X172.288Y-80.404
X172.288Y-82.944
X172.288Y-85.484
X172.288Y-88.024
X172.288Y-90.564
X172.288Y-93.104
X172.288Y-95.644
X172.288Y-98.184
X172.288Y-100.724
X172.288Y-103.264
X172.288Y-105.804
X172.288Y-108.344
X172.288Y-110.884
X172.288Y-113.424
X172.288Y-115.964
X172.288Y-118.504
X172.288Y-121.044
X172.288Y-123.584
X172.288Y-126.124
X181.148Y-70.497
X181.148Y-72.997
X187.942Y-121.247
X190.442Y-121.247
X192.942Y-121.247
M30
