G04 #@! TF.GenerationSoftware,KiCad,Pcbnew,8.0.4*
G04 #@! TF.CreationDate,2024-09-01T18:39:43-04:00*
G04 #@! TF.ProjectId,t41_2_main_board,7434315f-325f-46d6-9169-6e5f626f6172,1.0*
G04 #@! TF.SameCoordinates,Original*
G04 #@! TF.FileFunction,Legend,Top*
G04 #@! TF.FilePolarity,Positive*
%FSLAX46Y46*%
G04 Gerber Fmt 4.6, Leading zero omitted, Abs format (unit mm)*
G04 Created by KiCad (PCBNEW 8.0.4) date 2024-09-01 18:39:43*
%MOMM*%
%LPD*%
G01*
G04 APERTURE LIST*
G04 Aperture macros list*
%AMRoundRect*
0 Rectangle with rounded corners*
0 $1 Rounding radius*
0 $2 $3 $4 $5 $6 $7 $8 $9 X,Y pos of 4 corners*
0 Add a 4 corners polygon primitive as box body*
4,1,4,$2,$3,$4,$5,$6,$7,$8,$9,$2,$3,0*
0 Add four circle primitives for the rounded corners*
1,1,$1+$1,$2,$3*
1,1,$1+$1,$4,$5*
1,1,$1+$1,$6,$7*
1,1,$1+$1,$8,$9*
0 Add four rect primitives between the rounded corners*
20,1,$1+$1,$2,$3,$4,$5,0*
20,1,$1+$1,$4,$5,$6,$7,0*
20,1,$1+$1,$6,$7,$8,$9,0*
20,1,$1+$1,$8,$9,$2,$3,0*%
G04 Aperture macros list end*
%ADD10C,0.150000*%
%ADD11C,0.187500*%
%ADD12C,0.200000*%
%ADD13C,0.100000*%
%ADD14C,0.120000*%
%ADD15C,0.127000*%
%ADD16RoundRect,0.250000X-0.625000X0.312500X-0.625000X-0.312500X0.625000X-0.312500X0.625000X0.312500X0*%
%ADD17C,2.100000*%
%ADD18RoundRect,0.250000X-0.650000X0.325000X-0.650000X-0.325000X0.650000X-0.325000X0.650000X0.325000X0*%
%ADD19RoundRect,0.250000X0.275000X0.700000X-0.275000X0.700000X-0.275000X-0.700000X0.275000X-0.700000X0*%
%ADD20RoundRect,0.250000X0.312500X0.625000X-0.312500X0.625000X-0.312500X-0.625000X0.312500X-0.625000X0*%
%ADD21RoundRect,0.250000X-0.325000X-0.650000X0.325000X-0.650000X0.325000X0.650000X-0.325000X0.650000X0*%
%ADD22RoundRect,0.250000X0.325000X0.650000X-0.325000X0.650000X-0.325000X-0.650000X0.325000X-0.650000X0*%
%ADD23RoundRect,0.250000X-0.275000X-0.700000X0.275000X-0.700000X0.275000X0.700000X-0.275000X0.700000X0*%
%ADD24C,1.700000*%
%ADD25R,2.200000X2.800000*%
%ADD26R,2.800000X2.800000*%
%ADD27R,2.600000X2.800000*%
%ADD28RoundRect,0.150000X0.825000X0.150000X-0.825000X0.150000X-0.825000X-0.150000X0.825000X-0.150000X0*%
%ADD29RoundRect,0.250000X0.650000X-0.325000X0.650000X0.325000X-0.650000X0.325000X-0.650000X-0.325000X0*%
%ADD30RoundRect,0.250000X-0.600000X-0.600000X0.600000X-0.600000X0.600000X0.600000X-0.600000X0.600000X0*%
%ADD31R,1.600000X1.600000*%
%ADD32C,1.600000*%
%ADD33R,1.300000X1.300000*%
%ADD34C,1.300000*%
%ADD35RoundRect,0.250000X-0.600000X0.600000X-0.600000X-0.600000X0.600000X-0.600000X0.600000X0.600000X0*%
%ADD36RoundRect,0.250000X0.600000X0.600000X-0.600000X0.600000X-0.600000X-0.600000X0.600000X-0.600000X0*%
%ADD37RoundRect,0.250000X0.600000X-0.600000X0.600000X0.600000X-0.600000X0.600000X-0.600000X-0.600000X0*%
G04 APERTURE END LIST*
D10*
X163211274Y-133897838D02*
X163211274Y-131897838D01*
X164354131Y-133897838D02*
X163496988Y-132754980D01*
X164354131Y-131897838D02*
X163211274Y-133040695D01*
X165877941Y-132850219D02*
X165211274Y-132850219D01*
X165211274Y-133897838D02*
X165211274Y-131897838D01*
X165211274Y-131897838D02*
X166163655Y-131897838D01*
X167877941Y-131897838D02*
X166925560Y-131897838D01*
X166925560Y-131897838D02*
X166830322Y-132850219D01*
X166830322Y-132850219D02*
X166925560Y-132754980D01*
X166925560Y-132754980D02*
X167116036Y-132659742D01*
X167116036Y-132659742D02*
X167592227Y-132659742D01*
X167592227Y-132659742D02*
X167782703Y-132754980D01*
X167782703Y-132754980D02*
X167877941Y-132850219D01*
X167877941Y-132850219D02*
X167973179Y-133040695D01*
X167973179Y-133040695D02*
X167973179Y-133516885D01*
X167973179Y-133516885D02*
X167877941Y-133707361D01*
X167877941Y-133707361D02*
X167782703Y-133802600D01*
X167782703Y-133802600D02*
X167592227Y-133897838D01*
X167592227Y-133897838D02*
X167116036Y-133897838D01*
X167116036Y-133897838D02*
X166925560Y-133802600D01*
X166925560Y-133802600D02*
X166830322Y-133707361D01*
X168830322Y-133897838D02*
X168830322Y-131897838D01*
X168830322Y-131897838D02*
X169973179Y-133897838D01*
X169973179Y-133897838D02*
X169973179Y-131897838D01*
X177848036Y-142165609D02*
X178800417Y-142165609D01*
X177657560Y-142737038D02*
X178324226Y-140737038D01*
X178324226Y-140737038D02*
X178990893Y-142737038D01*
X179657560Y-140737038D02*
X179657560Y-142356085D01*
X179657560Y-142356085D02*
X179752798Y-142546561D01*
X179752798Y-142546561D02*
X179848036Y-142641800D01*
X179848036Y-142641800D02*
X180038512Y-142737038D01*
X180038512Y-142737038D02*
X180419465Y-142737038D01*
X180419465Y-142737038D02*
X180609941Y-142641800D01*
X180609941Y-142641800D02*
X180705179Y-142546561D01*
X180705179Y-142546561D02*
X180800417Y-142356085D01*
X180800417Y-142356085D02*
X180800417Y-140737038D01*
X181752798Y-142737038D02*
X181752798Y-140737038D01*
X181752798Y-140737038D02*
X182228988Y-140737038D01*
X182228988Y-140737038D02*
X182514703Y-140832276D01*
X182514703Y-140832276D02*
X182705179Y-141022752D01*
X182705179Y-141022752D02*
X182800417Y-141213228D01*
X182800417Y-141213228D02*
X182895655Y-141594180D01*
X182895655Y-141594180D02*
X182895655Y-141879895D01*
X182895655Y-141879895D02*
X182800417Y-142260847D01*
X182800417Y-142260847D02*
X182705179Y-142451323D01*
X182705179Y-142451323D02*
X182514703Y-142641800D01*
X182514703Y-142641800D02*
X182228988Y-142737038D01*
X182228988Y-142737038D02*
X181752798Y-142737038D01*
X183752798Y-142737038D02*
X183752798Y-140737038D01*
X185086131Y-140737038D02*
X185467084Y-140737038D01*
X185467084Y-140737038D02*
X185657560Y-140832276D01*
X185657560Y-140832276D02*
X185848036Y-141022752D01*
X185848036Y-141022752D02*
X185943274Y-141403704D01*
X185943274Y-141403704D02*
X185943274Y-142070371D01*
X185943274Y-142070371D02*
X185848036Y-142451323D01*
X185848036Y-142451323D02*
X185657560Y-142641800D01*
X185657560Y-142641800D02*
X185467084Y-142737038D01*
X185467084Y-142737038D02*
X185086131Y-142737038D01*
X185086131Y-142737038D02*
X184895655Y-142641800D01*
X184895655Y-142641800D02*
X184705179Y-142451323D01*
X184705179Y-142451323D02*
X184609941Y-142070371D01*
X184609941Y-142070371D02*
X184609941Y-141403704D01*
X184609941Y-141403704D02*
X184705179Y-141022752D01*
X184705179Y-141022752D02*
X184895655Y-140832276D01*
X184895655Y-140832276D02*
X185086131Y-140737038D01*
X188705179Y-140737038D02*
X189086132Y-140737038D01*
X189086132Y-140737038D02*
X189276608Y-140832276D01*
X189276608Y-140832276D02*
X189467084Y-141022752D01*
X189467084Y-141022752D02*
X189562322Y-141403704D01*
X189562322Y-141403704D02*
X189562322Y-142070371D01*
X189562322Y-142070371D02*
X189467084Y-142451323D01*
X189467084Y-142451323D02*
X189276608Y-142641800D01*
X189276608Y-142641800D02*
X189086132Y-142737038D01*
X189086132Y-142737038D02*
X188705179Y-142737038D01*
X188705179Y-142737038D02*
X188514703Y-142641800D01*
X188514703Y-142641800D02*
X188324227Y-142451323D01*
X188324227Y-142451323D02*
X188228989Y-142070371D01*
X188228989Y-142070371D02*
X188228989Y-141403704D01*
X188228989Y-141403704D02*
X188324227Y-141022752D01*
X188324227Y-141022752D02*
X188514703Y-140832276D01*
X188514703Y-140832276D02*
X188705179Y-140737038D01*
X190419465Y-140737038D02*
X190419465Y-142356085D01*
X190419465Y-142356085D02*
X190514703Y-142546561D01*
X190514703Y-142546561D02*
X190609941Y-142641800D01*
X190609941Y-142641800D02*
X190800417Y-142737038D01*
X190800417Y-142737038D02*
X191181370Y-142737038D01*
X191181370Y-142737038D02*
X191371846Y-142641800D01*
X191371846Y-142641800D02*
X191467084Y-142546561D01*
X191467084Y-142546561D02*
X191562322Y-142356085D01*
X191562322Y-142356085D02*
X191562322Y-140737038D01*
X192228989Y-140737038D02*
X193371846Y-140737038D01*
X192800417Y-142737038D02*
X192800417Y-140737038D01*
X138023198Y-127944657D02*
X138737484Y-127944657D01*
X137880341Y-128373228D02*
X138380341Y-126873228D01*
X138380341Y-126873228D02*
X138880341Y-128373228D01*
X139380340Y-126873228D02*
X139380340Y-128087514D01*
X139380340Y-128087514D02*
X139451769Y-128230371D01*
X139451769Y-128230371D02*
X139523198Y-128301800D01*
X139523198Y-128301800D02*
X139666055Y-128373228D01*
X139666055Y-128373228D02*
X139951769Y-128373228D01*
X139951769Y-128373228D02*
X140094626Y-128301800D01*
X140094626Y-128301800D02*
X140166055Y-128230371D01*
X140166055Y-128230371D02*
X140237483Y-128087514D01*
X140237483Y-128087514D02*
X140237483Y-126873228D01*
X140951769Y-128373228D02*
X140951769Y-126873228D01*
X140951769Y-126873228D02*
X141308912Y-126873228D01*
X141308912Y-126873228D02*
X141523198Y-126944657D01*
X141523198Y-126944657D02*
X141666055Y-127087514D01*
X141666055Y-127087514D02*
X141737484Y-127230371D01*
X141737484Y-127230371D02*
X141808912Y-127516085D01*
X141808912Y-127516085D02*
X141808912Y-127730371D01*
X141808912Y-127730371D02*
X141737484Y-128016085D01*
X141737484Y-128016085D02*
X141666055Y-128158942D01*
X141666055Y-128158942D02*
X141523198Y-128301800D01*
X141523198Y-128301800D02*
X141308912Y-128373228D01*
X141308912Y-128373228D02*
X140951769Y-128373228D01*
X142451769Y-128373228D02*
X142451769Y-126873228D01*
X143451770Y-126873228D02*
X143737484Y-126873228D01*
X143737484Y-126873228D02*
X143880341Y-126944657D01*
X143880341Y-126944657D02*
X144023198Y-127087514D01*
X144023198Y-127087514D02*
X144094627Y-127373228D01*
X144094627Y-127373228D02*
X144094627Y-127873228D01*
X144094627Y-127873228D02*
X144023198Y-128158942D01*
X144023198Y-128158942D02*
X143880341Y-128301800D01*
X143880341Y-128301800D02*
X143737484Y-128373228D01*
X143737484Y-128373228D02*
X143451770Y-128373228D01*
X143451770Y-128373228D02*
X143308913Y-128301800D01*
X143308913Y-128301800D02*
X143166055Y-128158942D01*
X143166055Y-128158942D02*
X143094627Y-127873228D01*
X143094627Y-127873228D02*
X143094627Y-127373228D01*
X143094627Y-127373228D02*
X143166055Y-127087514D01*
X143166055Y-127087514D02*
X143308913Y-126944657D01*
X143308913Y-126944657D02*
X143451770Y-126873228D01*
X146166056Y-126873228D02*
X146451770Y-126873228D01*
X146451770Y-126873228D02*
X146594627Y-126944657D01*
X146594627Y-126944657D02*
X146737484Y-127087514D01*
X146737484Y-127087514D02*
X146808913Y-127373228D01*
X146808913Y-127373228D02*
X146808913Y-127873228D01*
X146808913Y-127873228D02*
X146737484Y-128158942D01*
X146737484Y-128158942D02*
X146594627Y-128301800D01*
X146594627Y-128301800D02*
X146451770Y-128373228D01*
X146451770Y-128373228D02*
X146166056Y-128373228D01*
X146166056Y-128373228D02*
X146023199Y-128301800D01*
X146023199Y-128301800D02*
X145880341Y-128158942D01*
X145880341Y-128158942D02*
X145808913Y-127873228D01*
X145808913Y-127873228D02*
X145808913Y-127373228D01*
X145808913Y-127373228D02*
X145880341Y-127087514D01*
X145880341Y-127087514D02*
X146023199Y-126944657D01*
X146023199Y-126944657D02*
X146166056Y-126873228D01*
X147451770Y-126873228D02*
X147451770Y-128087514D01*
X147451770Y-128087514D02*
X147523199Y-128230371D01*
X147523199Y-128230371D02*
X147594628Y-128301800D01*
X147594628Y-128301800D02*
X147737485Y-128373228D01*
X147737485Y-128373228D02*
X148023199Y-128373228D01*
X148023199Y-128373228D02*
X148166056Y-128301800D01*
X148166056Y-128301800D02*
X148237485Y-128230371D01*
X148237485Y-128230371D02*
X148308913Y-128087514D01*
X148308913Y-128087514D02*
X148308913Y-126873228D01*
X148808914Y-126873228D02*
X149666057Y-126873228D01*
X149237485Y-128373228D02*
X149237485Y-126873228D01*
D11*
X129344440Y-137740278D02*
X130273012Y-137740278D01*
X130273012Y-137740278D02*
X129773012Y-138311707D01*
X129773012Y-138311707D02*
X129987297Y-138311707D01*
X129987297Y-138311707D02*
X130130155Y-138383135D01*
X130130155Y-138383135D02*
X130201583Y-138454564D01*
X130201583Y-138454564D02*
X130273012Y-138597421D01*
X130273012Y-138597421D02*
X130273012Y-138954564D01*
X130273012Y-138954564D02*
X130201583Y-139097421D01*
X130201583Y-139097421D02*
X130130155Y-139168850D01*
X130130155Y-139168850D02*
X129987297Y-139240278D01*
X129987297Y-139240278D02*
X129558726Y-139240278D01*
X129558726Y-139240278D02*
X129415869Y-139168850D01*
X129415869Y-139168850D02*
X129344440Y-139097421D01*
X130915868Y-139097421D02*
X130987297Y-139168850D01*
X130987297Y-139168850D02*
X130915868Y-139240278D01*
X130915868Y-139240278D02*
X130844440Y-139168850D01*
X130844440Y-139168850D02*
X130915868Y-139097421D01*
X130915868Y-139097421D02*
X130915868Y-139240278D01*
X131487297Y-137740278D02*
X132415869Y-137740278D01*
X132415869Y-137740278D02*
X131915869Y-138311707D01*
X131915869Y-138311707D02*
X132130154Y-138311707D01*
X132130154Y-138311707D02*
X132273012Y-138383135D01*
X132273012Y-138383135D02*
X132344440Y-138454564D01*
X132344440Y-138454564D02*
X132415869Y-138597421D01*
X132415869Y-138597421D02*
X132415869Y-138954564D01*
X132415869Y-138954564D02*
X132344440Y-139097421D01*
X132344440Y-139097421D02*
X132273012Y-139168850D01*
X132273012Y-139168850D02*
X132130154Y-139240278D01*
X132130154Y-139240278D02*
X131701583Y-139240278D01*
X131701583Y-139240278D02*
X131558726Y-139168850D01*
X131558726Y-139168850D02*
X131487297Y-139097421D01*
X132844440Y-137740278D02*
X133344440Y-139240278D01*
X133344440Y-139240278D02*
X133844440Y-137740278D01*
X131014383Y-125192678D02*
X130300097Y-125192678D01*
X130300097Y-125192678D02*
X130228669Y-125906964D01*
X130228669Y-125906964D02*
X130300097Y-125835535D01*
X130300097Y-125835535D02*
X130442955Y-125764107D01*
X130442955Y-125764107D02*
X130800097Y-125764107D01*
X130800097Y-125764107D02*
X130942955Y-125835535D01*
X130942955Y-125835535D02*
X131014383Y-125906964D01*
X131014383Y-125906964D02*
X131085812Y-126049821D01*
X131085812Y-126049821D02*
X131085812Y-126406964D01*
X131085812Y-126406964D02*
X131014383Y-126549821D01*
X131014383Y-126549821D02*
X130942955Y-126621250D01*
X130942955Y-126621250D02*
X130800097Y-126692678D01*
X130800097Y-126692678D02*
X130442955Y-126692678D01*
X130442955Y-126692678D02*
X130300097Y-126621250D01*
X130300097Y-126621250D02*
X130228669Y-126549821D01*
X131514383Y-125192678D02*
X132014383Y-126692678D01*
X132014383Y-126692678D02*
X132514383Y-125192678D01*
D10*
X178209998Y-78261600D02*
X178424284Y-78333028D01*
X178424284Y-78333028D02*
X178781426Y-78333028D01*
X178781426Y-78333028D02*
X178924284Y-78261600D01*
X178924284Y-78261600D02*
X178995712Y-78190171D01*
X178995712Y-78190171D02*
X179067141Y-78047314D01*
X179067141Y-78047314D02*
X179067141Y-77904457D01*
X179067141Y-77904457D02*
X178995712Y-77761600D01*
X178995712Y-77761600D02*
X178924284Y-77690171D01*
X178924284Y-77690171D02*
X178781426Y-77618742D01*
X178781426Y-77618742D02*
X178495712Y-77547314D01*
X178495712Y-77547314D02*
X178352855Y-77475885D01*
X178352855Y-77475885D02*
X178281426Y-77404457D01*
X178281426Y-77404457D02*
X178209998Y-77261600D01*
X178209998Y-77261600D02*
X178209998Y-77118742D01*
X178209998Y-77118742D02*
X178281426Y-76975885D01*
X178281426Y-76975885D02*
X178352855Y-76904457D01*
X178352855Y-76904457D02*
X178495712Y-76833028D01*
X178495712Y-76833028D02*
X178852855Y-76833028D01*
X178852855Y-76833028D02*
X179067141Y-76904457D01*
X179709997Y-78333028D02*
X179709997Y-76833028D01*
X179709997Y-76833028D02*
X180281426Y-76833028D01*
X180281426Y-76833028D02*
X180424283Y-76904457D01*
X180424283Y-76904457D02*
X180495712Y-76975885D01*
X180495712Y-76975885D02*
X180567140Y-77118742D01*
X180567140Y-77118742D02*
X180567140Y-77333028D01*
X180567140Y-77333028D02*
X180495712Y-77475885D01*
X180495712Y-77475885D02*
X180424283Y-77547314D01*
X180424283Y-77547314D02*
X180281426Y-77618742D01*
X180281426Y-77618742D02*
X179709997Y-77618742D01*
X181209997Y-78333028D02*
X181209997Y-76833028D01*
X181209997Y-76833028D02*
X181567140Y-76833028D01*
X181567140Y-76833028D02*
X181781426Y-76904457D01*
X181781426Y-76904457D02*
X181924283Y-77047314D01*
X181924283Y-77047314D02*
X181995712Y-77190171D01*
X181995712Y-77190171D02*
X182067140Y-77475885D01*
X182067140Y-77475885D02*
X182067140Y-77690171D01*
X182067140Y-77690171D02*
X181995712Y-77975885D01*
X181995712Y-77975885D02*
X181924283Y-78118742D01*
X181924283Y-78118742D02*
X181781426Y-78261600D01*
X181781426Y-78261600D02*
X181567140Y-78333028D01*
X181567140Y-78333028D02*
X181209997Y-78333028D01*
X182709997Y-78333028D02*
X182709997Y-76833028D01*
X183924283Y-77547314D02*
X183424283Y-77547314D01*
X183424283Y-78333028D02*
X183424283Y-76833028D01*
X183424283Y-76833028D02*
X184138569Y-76833028D01*
D12*
X134459654Y-142004438D02*
X135602511Y-142004438D01*
X135031082Y-144004438D02*
X135031082Y-142004438D01*
X137126321Y-142671104D02*
X137126321Y-144004438D01*
X136650130Y-141909200D02*
X136173940Y-143337771D01*
X136173940Y-143337771D02*
X137412035Y-143337771D01*
X139221559Y-144004438D02*
X138078702Y-144004438D01*
X138650130Y-144004438D02*
X138650130Y-142004438D01*
X138650130Y-142004438D02*
X138459654Y-142290152D01*
X138459654Y-142290152D02*
X138269178Y-142480628D01*
X138269178Y-142480628D02*
X138078702Y-142575866D01*
X140078702Y-143242533D02*
X141602512Y-143242533D01*
X142459654Y-142194914D02*
X142554892Y-142099676D01*
X142554892Y-142099676D02*
X142745368Y-142004438D01*
X142745368Y-142004438D02*
X143221559Y-142004438D01*
X143221559Y-142004438D02*
X143412035Y-142099676D01*
X143412035Y-142099676D02*
X143507273Y-142194914D01*
X143507273Y-142194914D02*
X143602511Y-142385390D01*
X143602511Y-142385390D02*
X143602511Y-142575866D01*
X143602511Y-142575866D02*
X143507273Y-142861580D01*
X143507273Y-142861580D02*
X142364416Y-144004438D01*
X142364416Y-144004438D02*
X143602511Y-144004438D01*
X145983464Y-144004438D02*
X145983464Y-142004438D01*
X145983464Y-142004438D02*
X146650131Y-143433009D01*
X146650131Y-143433009D02*
X147316797Y-142004438D01*
X147316797Y-142004438D02*
X147316797Y-144004438D01*
X148173940Y-143433009D02*
X149126321Y-143433009D01*
X147983464Y-144004438D02*
X148650130Y-142004438D01*
X148650130Y-142004438D02*
X149316797Y-144004438D01*
X149983464Y-144004438D02*
X149983464Y-142004438D01*
X150935845Y-144004438D02*
X150935845Y-142004438D01*
X150935845Y-142004438D02*
X152078702Y-144004438D01*
X152078702Y-144004438D02*
X152078702Y-142004438D01*
X155221560Y-142956819D02*
X155507274Y-143052057D01*
X155507274Y-143052057D02*
X155602512Y-143147295D01*
X155602512Y-143147295D02*
X155697750Y-143337771D01*
X155697750Y-143337771D02*
X155697750Y-143623485D01*
X155697750Y-143623485D02*
X155602512Y-143813961D01*
X155602512Y-143813961D02*
X155507274Y-143909200D01*
X155507274Y-143909200D02*
X155316798Y-144004438D01*
X155316798Y-144004438D02*
X154554893Y-144004438D01*
X154554893Y-144004438D02*
X154554893Y-142004438D01*
X154554893Y-142004438D02*
X155221560Y-142004438D01*
X155221560Y-142004438D02*
X155412036Y-142099676D01*
X155412036Y-142099676D02*
X155507274Y-142194914D01*
X155507274Y-142194914D02*
X155602512Y-142385390D01*
X155602512Y-142385390D02*
X155602512Y-142575866D01*
X155602512Y-142575866D02*
X155507274Y-142766342D01*
X155507274Y-142766342D02*
X155412036Y-142861580D01*
X155412036Y-142861580D02*
X155221560Y-142956819D01*
X155221560Y-142956819D02*
X154554893Y-142956819D01*
X156935845Y-142004438D02*
X157316798Y-142004438D01*
X157316798Y-142004438D02*
X157507274Y-142099676D01*
X157507274Y-142099676D02*
X157697750Y-142290152D01*
X157697750Y-142290152D02*
X157792988Y-142671104D01*
X157792988Y-142671104D02*
X157792988Y-143337771D01*
X157792988Y-143337771D02*
X157697750Y-143718723D01*
X157697750Y-143718723D02*
X157507274Y-143909200D01*
X157507274Y-143909200D02*
X157316798Y-144004438D01*
X157316798Y-144004438D02*
X156935845Y-144004438D01*
X156935845Y-144004438D02*
X156745369Y-143909200D01*
X156745369Y-143909200D02*
X156554893Y-143718723D01*
X156554893Y-143718723D02*
X156459655Y-143337771D01*
X156459655Y-143337771D02*
X156459655Y-142671104D01*
X156459655Y-142671104D02*
X156554893Y-142290152D01*
X156554893Y-142290152D02*
X156745369Y-142099676D01*
X156745369Y-142099676D02*
X156935845Y-142004438D01*
X158554893Y-143433009D02*
X159507274Y-143433009D01*
X158364417Y-144004438D02*
X159031083Y-142004438D01*
X159031083Y-142004438D02*
X159697750Y-144004438D01*
X161507274Y-144004438D02*
X160840607Y-143052057D01*
X160364417Y-144004438D02*
X160364417Y-142004438D01*
X160364417Y-142004438D02*
X161126322Y-142004438D01*
X161126322Y-142004438D02*
X161316798Y-142099676D01*
X161316798Y-142099676D02*
X161412036Y-142194914D01*
X161412036Y-142194914D02*
X161507274Y-142385390D01*
X161507274Y-142385390D02*
X161507274Y-142671104D01*
X161507274Y-142671104D02*
X161412036Y-142861580D01*
X161412036Y-142861580D02*
X161316798Y-142956819D01*
X161316798Y-142956819D02*
X161126322Y-143052057D01*
X161126322Y-143052057D02*
X160364417Y-143052057D01*
X162364417Y-144004438D02*
X162364417Y-142004438D01*
X162364417Y-142004438D02*
X162840607Y-142004438D01*
X162840607Y-142004438D02*
X163126322Y-142099676D01*
X163126322Y-142099676D02*
X163316798Y-142290152D01*
X163316798Y-142290152D02*
X163412036Y-142480628D01*
X163412036Y-142480628D02*
X163507274Y-142861580D01*
X163507274Y-142861580D02*
X163507274Y-143147295D01*
X163507274Y-143147295D02*
X163412036Y-143528247D01*
X163412036Y-143528247D02*
X163316798Y-143718723D01*
X163316798Y-143718723D02*
X163126322Y-143909200D01*
X163126322Y-143909200D02*
X162840607Y-144004438D01*
X162840607Y-144004438D02*
X162364417Y-144004438D01*
D10*
X159167733Y-131506419D02*
X158834400Y-131030228D01*
X158596305Y-131506419D02*
X158596305Y-130506419D01*
X158596305Y-130506419D02*
X158977257Y-130506419D01*
X158977257Y-130506419D02*
X159072495Y-130554038D01*
X159072495Y-130554038D02*
X159120114Y-130601657D01*
X159120114Y-130601657D02*
X159167733Y-130696895D01*
X159167733Y-130696895D02*
X159167733Y-130839752D01*
X159167733Y-130839752D02*
X159120114Y-130934990D01*
X159120114Y-130934990D02*
X159072495Y-130982609D01*
X159072495Y-130982609D02*
X158977257Y-131030228D01*
X158977257Y-131030228D02*
X158596305Y-131030228D01*
X160120114Y-131506419D02*
X159548686Y-131506419D01*
X159834400Y-131506419D02*
X159834400Y-130506419D01*
X159834400Y-130506419D02*
X159739162Y-130649276D01*
X159739162Y-130649276D02*
X159643924Y-130744514D01*
X159643924Y-130744514D02*
X159548686Y-130792133D01*
X126063676Y-129998419D02*
X126063676Y-130712704D01*
X126063676Y-130712704D02*
X126016057Y-130855561D01*
X126016057Y-130855561D02*
X125920819Y-130950800D01*
X125920819Y-130950800D02*
X125777962Y-130998419D01*
X125777962Y-130998419D02*
X125682724Y-130998419D01*
X127063676Y-130998419D02*
X126492248Y-130998419D01*
X126777962Y-130998419D02*
X126777962Y-129998419D01*
X126777962Y-129998419D02*
X126682724Y-130141276D01*
X126682724Y-130141276D02*
X126587486Y-130236514D01*
X126587486Y-130236514D02*
X126492248Y-130284133D01*
X127920819Y-129998419D02*
X127730343Y-129998419D01*
X127730343Y-129998419D02*
X127635105Y-130046038D01*
X127635105Y-130046038D02*
X127587486Y-130093657D01*
X127587486Y-130093657D02*
X127492248Y-130236514D01*
X127492248Y-130236514D02*
X127444629Y-130426990D01*
X127444629Y-130426990D02*
X127444629Y-130807942D01*
X127444629Y-130807942D02*
X127492248Y-130903180D01*
X127492248Y-130903180D02*
X127539867Y-130950800D01*
X127539867Y-130950800D02*
X127635105Y-130998419D01*
X127635105Y-130998419D02*
X127825581Y-130998419D01*
X127825581Y-130998419D02*
X127920819Y-130950800D01*
X127920819Y-130950800D02*
X127968438Y-130903180D01*
X127968438Y-130903180D02*
X128016057Y-130807942D01*
X128016057Y-130807942D02*
X128016057Y-130569847D01*
X128016057Y-130569847D02*
X127968438Y-130474609D01*
X127968438Y-130474609D02*
X127920819Y-130426990D01*
X127920819Y-130426990D02*
X127825581Y-130379371D01*
X127825581Y-130379371D02*
X127635105Y-130379371D01*
X127635105Y-130379371D02*
X127539867Y-130426990D01*
X127539867Y-130426990D02*
X127492248Y-130474609D01*
X127492248Y-130474609D02*
X127444629Y-130569847D01*
X155186342Y-135576780D02*
X155138723Y-135624400D01*
X155138723Y-135624400D02*
X154995866Y-135672019D01*
X154995866Y-135672019D02*
X154900628Y-135672019D01*
X154900628Y-135672019D02*
X154757771Y-135624400D01*
X154757771Y-135624400D02*
X154662533Y-135529161D01*
X154662533Y-135529161D02*
X154614914Y-135433923D01*
X154614914Y-135433923D02*
X154567295Y-135243447D01*
X154567295Y-135243447D02*
X154567295Y-135100590D01*
X154567295Y-135100590D02*
X154614914Y-134910114D01*
X154614914Y-134910114D02*
X154662533Y-134814876D01*
X154662533Y-134814876D02*
X154757771Y-134719638D01*
X154757771Y-134719638D02*
X154900628Y-134672019D01*
X154900628Y-134672019D02*
X154995866Y-134672019D01*
X154995866Y-134672019D02*
X155138723Y-134719638D01*
X155138723Y-134719638D02*
X155186342Y-134767257D01*
X156138723Y-135672019D02*
X155567295Y-135672019D01*
X155853009Y-135672019D02*
X155853009Y-134672019D01*
X155853009Y-134672019D02*
X155757771Y-134814876D01*
X155757771Y-134814876D02*
X155662533Y-134910114D01*
X155662533Y-134910114D02*
X155567295Y-134957733D01*
X156995866Y-135005352D02*
X156995866Y-135672019D01*
X156757771Y-134624400D02*
X156519676Y-135338685D01*
X156519676Y-135338685D02*
X157138723Y-135338685D01*
X145807333Y-64602819D02*
X145474000Y-64126628D01*
X145235905Y-64602819D02*
X145235905Y-63602819D01*
X145235905Y-63602819D02*
X145616857Y-63602819D01*
X145616857Y-63602819D02*
X145712095Y-63650438D01*
X145712095Y-63650438D02*
X145759714Y-63698057D01*
X145759714Y-63698057D02*
X145807333Y-63793295D01*
X145807333Y-63793295D02*
X145807333Y-63936152D01*
X145807333Y-63936152D02*
X145759714Y-64031390D01*
X145759714Y-64031390D02*
X145712095Y-64079009D01*
X145712095Y-64079009D02*
X145616857Y-64126628D01*
X145616857Y-64126628D02*
X145235905Y-64126628D01*
X146664476Y-63936152D02*
X146664476Y-64602819D01*
X146426381Y-63555200D02*
X146188286Y-64269485D01*
X146188286Y-64269485D02*
X146807333Y-64269485D01*
X109466342Y-116552180D02*
X109418723Y-116599800D01*
X109418723Y-116599800D02*
X109275866Y-116647419D01*
X109275866Y-116647419D02*
X109180628Y-116647419D01*
X109180628Y-116647419D02*
X109037771Y-116599800D01*
X109037771Y-116599800D02*
X108942533Y-116504561D01*
X108942533Y-116504561D02*
X108894914Y-116409323D01*
X108894914Y-116409323D02*
X108847295Y-116218847D01*
X108847295Y-116218847D02*
X108847295Y-116075990D01*
X108847295Y-116075990D02*
X108894914Y-115885514D01*
X108894914Y-115885514D02*
X108942533Y-115790276D01*
X108942533Y-115790276D02*
X109037771Y-115695038D01*
X109037771Y-115695038D02*
X109180628Y-115647419D01*
X109180628Y-115647419D02*
X109275866Y-115647419D01*
X109275866Y-115647419D02*
X109418723Y-115695038D01*
X109418723Y-115695038D02*
X109466342Y-115742657D01*
X110418723Y-116647419D02*
X109847295Y-116647419D01*
X110133009Y-116647419D02*
X110133009Y-115647419D01*
X110133009Y-115647419D02*
X110037771Y-115790276D01*
X110037771Y-115790276D02*
X109942533Y-115885514D01*
X109942533Y-115885514D02*
X109847295Y-115933133D01*
X111037771Y-115647419D02*
X111133009Y-115647419D01*
X111133009Y-115647419D02*
X111228247Y-115695038D01*
X111228247Y-115695038D02*
X111275866Y-115742657D01*
X111275866Y-115742657D02*
X111323485Y-115837895D01*
X111323485Y-115837895D02*
X111371104Y-116028371D01*
X111371104Y-116028371D02*
X111371104Y-116266466D01*
X111371104Y-116266466D02*
X111323485Y-116456942D01*
X111323485Y-116456942D02*
X111275866Y-116552180D01*
X111275866Y-116552180D02*
X111228247Y-116599800D01*
X111228247Y-116599800D02*
X111133009Y-116647419D01*
X111133009Y-116647419D02*
X111037771Y-116647419D01*
X111037771Y-116647419D02*
X110942533Y-116599800D01*
X110942533Y-116599800D02*
X110894914Y-116552180D01*
X110894914Y-116552180D02*
X110847295Y-116456942D01*
X110847295Y-116456942D02*
X110799676Y-116266466D01*
X110799676Y-116266466D02*
X110799676Y-116028371D01*
X110799676Y-116028371D02*
X110847295Y-115837895D01*
X110847295Y-115837895D02*
X110894914Y-115742657D01*
X110894914Y-115742657D02*
X110942533Y-115695038D01*
X110942533Y-115695038D02*
X111037771Y-115647419D01*
X117460933Y-84878380D02*
X117413314Y-84926000D01*
X117413314Y-84926000D02*
X117270457Y-84973619D01*
X117270457Y-84973619D02*
X117175219Y-84973619D01*
X117175219Y-84973619D02*
X117032362Y-84926000D01*
X117032362Y-84926000D02*
X116937124Y-84830761D01*
X116937124Y-84830761D02*
X116889505Y-84735523D01*
X116889505Y-84735523D02*
X116841886Y-84545047D01*
X116841886Y-84545047D02*
X116841886Y-84402190D01*
X116841886Y-84402190D02*
X116889505Y-84211714D01*
X116889505Y-84211714D02*
X116937124Y-84116476D01*
X116937124Y-84116476D02*
X117032362Y-84021238D01*
X117032362Y-84021238D02*
X117175219Y-83973619D01*
X117175219Y-83973619D02*
X117270457Y-83973619D01*
X117270457Y-83973619D02*
X117413314Y-84021238D01*
X117413314Y-84021238D02*
X117460933Y-84068857D01*
X118032362Y-84402190D02*
X117937124Y-84354571D01*
X117937124Y-84354571D02*
X117889505Y-84306952D01*
X117889505Y-84306952D02*
X117841886Y-84211714D01*
X117841886Y-84211714D02*
X117841886Y-84164095D01*
X117841886Y-84164095D02*
X117889505Y-84068857D01*
X117889505Y-84068857D02*
X117937124Y-84021238D01*
X117937124Y-84021238D02*
X118032362Y-83973619D01*
X118032362Y-83973619D02*
X118222838Y-83973619D01*
X118222838Y-83973619D02*
X118318076Y-84021238D01*
X118318076Y-84021238D02*
X118365695Y-84068857D01*
X118365695Y-84068857D02*
X118413314Y-84164095D01*
X118413314Y-84164095D02*
X118413314Y-84211714D01*
X118413314Y-84211714D02*
X118365695Y-84306952D01*
X118365695Y-84306952D02*
X118318076Y-84354571D01*
X118318076Y-84354571D02*
X118222838Y-84402190D01*
X118222838Y-84402190D02*
X118032362Y-84402190D01*
X118032362Y-84402190D02*
X117937124Y-84449809D01*
X117937124Y-84449809D02*
X117889505Y-84497428D01*
X117889505Y-84497428D02*
X117841886Y-84592666D01*
X117841886Y-84592666D02*
X117841886Y-84783142D01*
X117841886Y-84783142D02*
X117889505Y-84878380D01*
X117889505Y-84878380D02*
X117937124Y-84926000D01*
X117937124Y-84926000D02*
X118032362Y-84973619D01*
X118032362Y-84973619D02*
X118222838Y-84973619D01*
X118222838Y-84973619D02*
X118318076Y-84926000D01*
X118318076Y-84926000D02*
X118365695Y-84878380D01*
X118365695Y-84878380D02*
X118413314Y-84783142D01*
X118413314Y-84783142D02*
X118413314Y-84592666D01*
X118413314Y-84592666D02*
X118365695Y-84497428D01*
X118365695Y-84497428D02*
X118318076Y-84449809D01*
X118318076Y-84449809D02*
X118222838Y-84402190D01*
X109377666Y-134061009D02*
X109044333Y-134061009D01*
X109044333Y-134584819D02*
X109044333Y-133584819D01*
X109044333Y-133584819D02*
X109520523Y-133584819D01*
X110234809Y-134061009D02*
X110377666Y-134108628D01*
X110377666Y-134108628D02*
X110425285Y-134156247D01*
X110425285Y-134156247D02*
X110472904Y-134251485D01*
X110472904Y-134251485D02*
X110472904Y-134394342D01*
X110472904Y-134394342D02*
X110425285Y-134489580D01*
X110425285Y-134489580D02*
X110377666Y-134537200D01*
X110377666Y-134537200D02*
X110282428Y-134584819D01*
X110282428Y-134584819D02*
X109901476Y-134584819D01*
X109901476Y-134584819D02*
X109901476Y-133584819D01*
X109901476Y-133584819D02*
X110234809Y-133584819D01*
X110234809Y-133584819D02*
X110330047Y-133632438D01*
X110330047Y-133632438D02*
X110377666Y-133680057D01*
X110377666Y-133680057D02*
X110425285Y-133775295D01*
X110425285Y-133775295D02*
X110425285Y-133870533D01*
X110425285Y-133870533D02*
X110377666Y-133965771D01*
X110377666Y-133965771D02*
X110330047Y-134013390D01*
X110330047Y-134013390D02*
X110234809Y-134061009D01*
X110234809Y-134061009D02*
X109901476Y-134061009D01*
X110806238Y-133584819D02*
X111425285Y-133584819D01*
X111425285Y-133584819D02*
X111091952Y-133965771D01*
X111091952Y-133965771D02*
X111234809Y-133965771D01*
X111234809Y-133965771D02*
X111330047Y-134013390D01*
X111330047Y-134013390D02*
X111377666Y-134061009D01*
X111377666Y-134061009D02*
X111425285Y-134156247D01*
X111425285Y-134156247D02*
X111425285Y-134394342D01*
X111425285Y-134394342D02*
X111377666Y-134489580D01*
X111377666Y-134489580D02*
X111330047Y-134537200D01*
X111330047Y-134537200D02*
X111234809Y-134584819D01*
X111234809Y-134584819D02*
X110949095Y-134584819D01*
X110949095Y-134584819D02*
X110853857Y-134537200D01*
X110853857Y-134537200D02*
X110806238Y-134489580D01*
X180986333Y-126966180D02*
X180938714Y-127013800D01*
X180938714Y-127013800D02*
X180795857Y-127061419D01*
X180795857Y-127061419D02*
X180700619Y-127061419D01*
X180700619Y-127061419D02*
X180557762Y-127013800D01*
X180557762Y-127013800D02*
X180462524Y-126918561D01*
X180462524Y-126918561D02*
X180414905Y-126823323D01*
X180414905Y-126823323D02*
X180367286Y-126632847D01*
X180367286Y-126632847D02*
X180367286Y-126489990D01*
X180367286Y-126489990D02*
X180414905Y-126299514D01*
X180414905Y-126299514D02*
X180462524Y-126204276D01*
X180462524Y-126204276D02*
X180557762Y-126109038D01*
X180557762Y-126109038D02*
X180700619Y-126061419D01*
X180700619Y-126061419D02*
X180795857Y-126061419D01*
X180795857Y-126061419D02*
X180938714Y-126109038D01*
X180938714Y-126109038D02*
X180986333Y-126156657D01*
X181462524Y-127061419D02*
X181653000Y-127061419D01*
X181653000Y-127061419D02*
X181748238Y-127013800D01*
X181748238Y-127013800D02*
X181795857Y-126966180D01*
X181795857Y-126966180D02*
X181891095Y-126823323D01*
X181891095Y-126823323D02*
X181938714Y-126632847D01*
X181938714Y-126632847D02*
X181938714Y-126251895D01*
X181938714Y-126251895D02*
X181891095Y-126156657D01*
X181891095Y-126156657D02*
X181843476Y-126109038D01*
X181843476Y-126109038D02*
X181748238Y-126061419D01*
X181748238Y-126061419D02*
X181557762Y-126061419D01*
X181557762Y-126061419D02*
X181462524Y-126109038D01*
X181462524Y-126109038D02*
X181414905Y-126156657D01*
X181414905Y-126156657D02*
X181367286Y-126251895D01*
X181367286Y-126251895D02*
X181367286Y-126489990D01*
X181367286Y-126489990D02*
X181414905Y-126585228D01*
X181414905Y-126585228D02*
X181462524Y-126632847D01*
X181462524Y-126632847D02*
X181557762Y-126680466D01*
X181557762Y-126680466D02*
X181748238Y-126680466D01*
X181748238Y-126680466D02*
X181843476Y-126632847D01*
X181843476Y-126632847D02*
X181891095Y-126585228D01*
X181891095Y-126585228D02*
X181938714Y-126489990D01*
X118597666Y-98623009D02*
X118264333Y-98623009D01*
X118264333Y-99146819D02*
X118264333Y-98146819D01*
X118264333Y-98146819D02*
X118740523Y-98146819D01*
X119454809Y-98623009D02*
X119597666Y-98670628D01*
X119597666Y-98670628D02*
X119645285Y-98718247D01*
X119645285Y-98718247D02*
X119692904Y-98813485D01*
X119692904Y-98813485D02*
X119692904Y-98956342D01*
X119692904Y-98956342D02*
X119645285Y-99051580D01*
X119645285Y-99051580D02*
X119597666Y-99099200D01*
X119597666Y-99099200D02*
X119502428Y-99146819D01*
X119502428Y-99146819D02*
X119121476Y-99146819D01*
X119121476Y-99146819D02*
X119121476Y-98146819D01*
X119121476Y-98146819D02*
X119454809Y-98146819D01*
X119454809Y-98146819D02*
X119550047Y-98194438D01*
X119550047Y-98194438D02*
X119597666Y-98242057D01*
X119597666Y-98242057D02*
X119645285Y-98337295D01*
X119645285Y-98337295D02*
X119645285Y-98432533D01*
X119645285Y-98432533D02*
X119597666Y-98527771D01*
X119597666Y-98527771D02*
X119550047Y-98575390D01*
X119550047Y-98575390D02*
X119454809Y-98623009D01*
X119454809Y-98623009D02*
X119121476Y-98623009D01*
X120264333Y-98575390D02*
X120169095Y-98527771D01*
X120169095Y-98527771D02*
X120121476Y-98480152D01*
X120121476Y-98480152D02*
X120073857Y-98384914D01*
X120073857Y-98384914D02*
X120073857Y-98337295D01*
X120073857Y-98337295D02*
X120121476Y-98242057D01*
X120121476Y-98242057D02*
X120169095Y-98194438D01*
X120169095Y-98194438D02*
X120264333Y-98146819D01*
X120264333Y-98146819D02*
X120454809Y-98146819D01*
X120454809Y-98146819D02*
X120550047Y-98194438D01*
X120550047Y-98194438D02*
X120597666Y-98242057D01*
X120597666Y-98242057D02*
X120645285Y-98337295D01*
X120645285Y-98337295D02*
X120645285Y-98384914D01*
X120645285Y-98384914D02*
X120597666Y-98480152D01*
X120597666Y-98480152D02*
X120550047Y-98527771D01*
X120550047Y-98527771D02*
X120454809Y-98575390D01*
X120454809Y-98575390D02*
X120264333Y-98575390D01*
X120264333Y-98575390D02*
X120169095Y-98623009D01*
X120169095Y-98623009D02*
X120121476Y-98670628D01*
X120121476Y-98670628D02*
X120073857Y-98765866D01*
X120073857Y-98765866D02*
X120073857Y-98956342D01*
X120073857Y-98956342D02*
X120121476Y-99051580D01*
X120121476Y-99051580D02*
X120169095Y-99099200D01*
X120169095Y-99099200D02*
X120264333Y-99146819D01*
X120264333Y-99146819D02*
X120454809Y-99146819D01*
X120454809Y-99146819D02*
X120550047Y-99099200D01*
X120550047Y-99099200D02*
X120597666Y-99051580D01*
X120597666Y-99051580D02*
X120645285Y-98956342D01*
X120645285Y-98956342D02*
X120645285Y-98765866D01*
X120645285Y-98765866D02*
X120597666Y-98670628D01*
X120597666Y-98670628D02*
X120550047Y-98623009D01*
X120550047Y-98623009D02*
X120454809Y-98575390D01*
X112493102Y-72872909D02*
X112493102Y-73588404D01*
X112493102Y-73588404D02*
X112445402Y-73731503D01*
X112445402Y-73731503D02*
X112350003Y-73826903D01*
X112350003Y-73826903D02*
X112206904Y-73874602D01*
X112206904Y-73874602D02*
X112111505Y-73874602D01*
X112874700Y-72872909D02*
X113542495Y-72872909D01*
X113542495Y-72872909D02*
X113113198Y-73874602D01*
X117181533Y-136999180D02*
X117133914Y-137046800D01*
X117133914Y-137046800D02*
X116991057Y-137094419D01*
X116991057Y-137094419D02*
X116895819Y-137094419D01*
X116895819Y-137094419D02*
X116752962Y-137046800D01*
X116752962Y-137046800D02*
X116657724Y-136951561D01*
X116657724Y-136951561D02*
X116610105Y-136856323D01*
X116610105Y-136856323D02*
X116562486Y-136665847D01*
X116562486Y-136665847D02*
X116562486Y-136522990D01*
X116562486Y-136522990D02*
X116610105Y-136332514D01*
X116610105Y-136332514D02*
X116657724Y-136237276D01*
X116657724Y-136237276D02*
X116752962Y-136142038D01*
X116752962Y-136142038D02*
X116895819Y-136094419D01*
X116895819Y-136094419D02*
X116991057Y-136094419D01*
X116991057Y-136094419D02*
X117133914Y-136142038D01*
X117133914Y-136142038D02*
X117181533Y-136189657D01*
X118038676Y-136094419D02*
X117848200Y-136094419D01*
X117848200Y-136094419D02*
X117752962Y-136142038D01*
X117752962Y-136142038D02*
X117705343Y-136189657D01*
X117705343Y-136189657D02*
X117610105Y-136332514D01*
X117610105Y-136332514D02*
X117562486Y-136522990D01*
X117562486Y-136522990D02*
X117562486Y-136903942D01*
X117562486Y-136903942D02*
X117610105Y-136999180D01*
X117610105Y-136999180D02*
X117657724Y-137046800D01*
X117657724Y-137046800D02*
X117752962Y-137094419D01*
X117752962Y-137094419D02*
X117943438Y-137094419D01*
X117943438Y-137094419D02*
X118038676Y-137046800D01*
X118038676Y-137046800D02*
X118086295Y-136999180D01*
X118086295Y-136999180D02*
X118133914Y-136903942D01*
X118133914Y-136903942D02*
X118133914Y-136665847D01*
X118133914Y-136665847D02*
X118086295Y-136570609D01*
X118086295Y-136570609D02*
X118038676Y-136522990D01*
X118038676Y-136522990D02*
X117943438Y-136475371D01*
X117943438Y-136475371D02*
X117752962Y-136475371D01*
X117752962Y-136475371D02*
X117657724Y-136522990D01*
X117657724Y-136522990D02*
X117610105Y-136570609D01*
X117610105Y-136570609D02*
X117562486Y-136665847D01*
X109479066Y-113888409D02*
X109145733Y-113888409D01*
X109145733Y-114412219D02*
X109145733Y-113412219D01*
X109145733Y-113412219D02*
X109621923Y-113412219D01*
X110336209Y-113888409D02*
X110479066Y-113936028D01*
X110479066Y-113936028D02*
X110526685Y-113983647D01*
X110526685Y-113983647D02*
X110574304Y-114078885D01*
X110574304Y-114078885D02*
X110574304Y-114221742D01*
X110574304Y-114221742D02*
X110526685Y-114316980D01*
X110526685Y-114316980D02*
X110479066Y-114364600D01*
X110479066Y-114364600D02*
X110383828Y-114412219D01*
X110383828Y-114412219D02*
X110002876Y-114412219D01*
X110002876Y-114412219D02*
X110002876Y-113412219D01*
X110002876Y-113412219D02*
X110336209Y-113412219D01*
X110336209Y-113412219D02*
X110431447Y-113459838D01*
X110431447Y-113459838D02*
X110479066Y-113507457D01*
X110479066Y-113507457D02*
X110526685Y-113602695D01*
X110526685Y-113602695D02*
X110526685Y-113697933D01*
X110526685Y-113697933D02*
X110479066Y-113793171D01*
X110479066Y-113793171D02*
X110431447Y-113840790D01*
X110431447Y-113840790D02*
X110336209Y-113888409D01*
X110336209Y-113888409D02*
X110002876Y-113888409D01*
X111431447Y-113412219D02*
X111240971Y-113412219D01*
X111240971Y-113412219D02*
X111145733Y-113459838D01*
X111145733Y-113459838D02*
X111098114Y-113507457D01*
X111098114Y-113507457D02*
X111002876Y-113650314D01*
X111002876Y-113650314D02*
X110955257Y-113840790D01*
X110955257Y-113840790D02*
X110955257Y-114221742D01*
X110955257Y-114221742D02*
X111002876Y-114316980D01*
X111002876Y-114316980D02*
X111050495Y-114364600D01*
X111050495Y-114364600D02*
X111145733Y-114412219D01*
X111145733Y-114412219D02*
X111336209Y-114412219D01*
X111336209Y-114412219D02*
X111431447Y-114364600D01*
X111431447Y-114364600D02*
X111479066Y-114316980D01*
X111479066Y-114316980D02*
X111526685Y-114221742D01*
X111526685Y-114221742D02*
X111526685Y-113983647D01*
X111526685Y-113983647D02*
X111479066Y-113888409D01*
X111479066Y-113888409D02*
X111431447Y-113840790D01*
X111431447Y-113840790D02*
X111336209Y-113793171D01*
X111336209Y-113793171D02*
X111145733Y-113793171D01*
X111145733Y-113793171D02*
X111050495Y-113840790D01*
X111050495Y-113840790D02*
X111002876Y-113888409D01*
X111002876Y-113888409D02*
X110955257Y-113983647D01*
X179821210Y-103233019D02*
X179821210Y-102233019D01*
X180868828Y-103137780D02*
X180821209Y-103185400D01*
X180821209Y-103185400D02*
X180678352Y-103233019D01*
X180678352Y-103233019D02*
X180583114Y-103233019D01*
X180583114Y-103233019D02*
X180440257Y-103185400D01*
X180440257Y-103185400D02*
X180345019Y-103090161D01*
X180345019Y-103090161D02*
X180297400Y-102994923D01*
X180297400Y-102994923D02*
X180249781Y-102804447D01*
X180249781Y-102804447D02*
X180249781Y-102661590D01*
X180249781Y-102661590D02*
X180297400Y-102471114D01*
X180297400Y-102471114D02*
X180345019Y-102375876D01*
X180345019Y-102375876D02*
X180440257Y-102280638D01*
X180440257Y-102280638D02*
X180583114Y-102233019D01*
X180583114Y-102233019D02*
X180678352Y-102233019D01*
X180678352Y-102233019D02*
X180821209Y-102280638D01*
X180821209Y-102280638D02*
X180868828Y-102328257D01*
X181821209Y-103233019D02*
X181249781Y-103233019D01*
X181535495Y-103233019D02*
X181535495Y-102233019D01*
X181535495Y-102233019D02*
X181440257Y-102375876D01*
X181440257Y-102375876D02*
X181345019Y-102471114D01*
X181345019Y-102471114D02*
X181249781Y-102518733D01*
X117130733Y-123638780D02*
X117083114Y-123686400D01*
X117083114Y-123686400D02*
X116940257Y-123734019D01*
X116940257Y-123734019D02*
X116845019Y-123734019D01*
X116845019Y-123734019D02*
X116702162Y-123686400D01*
X116702162Y-123686400D02*
X116606924Y-123591161D01*
X116606924Y-123591161D02*
X116559305Y-123495923D01*
X116559305Y-123495923D02*
X116511686Y-123305447D01*
X116511686Y-123305447D02*
X116511686Y-123162590D01*
X116511686Y-123162590D02*
X116559305Y-122972114D01*
X116559305Y-122972114D02*
X116606924Y-122876876D01*
X116606924Y-122876876D02*
X116702162Y-122781638D01*
X116702162Y-122781638D02*
X116845019Y-122734019D01*
X116845019Y-122734019D02*
X116940257Y-122734019D01*
X116940257Y-122734019D02*
X117083114Y-122781638D01*
X117083114Y-122781638D02*
X117130733Y-122829257D01*
X117987876Y-123067352D02*
X117987876Y-123734019D01*
X117749781Y-122686400D02*
X117511686Y-123400685D01*
X117511686Y-123400685D02*
X118130733Y-123400685D01*
X112397106Y-95605909D02*
X112397106Y-96321404D01*
X112397106Y-96321404D02*
X112349406Y-96464503D01*
X112349406Y-96464503D02*
X112254007Y-96559903D01*
X112254007Y-96559903D02*
X112110908Y-96607602D01*
X112110908Y-96607602D02*
X112015509Y-96607602D01*
X113398799Y-96607602D02*
X112826403Y-96607602D01*
X113112601Y-96607602D02*
X113112601Y-95605909D01*
X113112601Y-95605909D02*
X113017202Y-95749008D01*
X113017202Y-95749008D02*
X112921803Y-95844408D01*
X112921803Y-95844408D02*
X112826403Y-95892107D01*
X114018895Y-95605909D02*
X114114294Y-95605909D01*
X114114294Y-95605909D02*
X114209693Y-95653609D01*
X114209693Y-95653609D02*
X114257393Y-95701309D01*
X114257393Y-95701309D02*
X114305093Y-95796708D01*
X114305093Y-95796708D02*
X114352792Y-95987507D01*
X114352792Y-95987507D02*
X114352792Y-96226005D01*
X114352792Y-96226005D02*
X114305093Y-96416804D01*
X114305093Y-96416804D02*
X114257393Y-96512203D01*
X114257393Y-96512203D02*
X114209693Y-96559903D01*
X114209693Y-96559903D02*
X114114294Y-96607602D01*
X114114294Y-96607602D02*
X114018895Y-96607602D01*
X114018895Y-96607602D02*
X113923495Y-96559903D01*
X113923495Y-96559903D02*
X113875796Y-96512203D01*
X113875796Y-96512203D02*
X113828096Y-96416804D01*
X113828096Y-96416804D02*
X113780396Y-96226005D01*
X113780396Y-96226005D02*
X113780396Y-95987507D01*
X113780396Y-95987507D02*
X113828096Y-95796708D01*
X113828096Y-95796708D02*
X113875796Y-95701309D01*
X113875796Y-95701309D02*
X113923495Y-95653609D01*
X113923495Y-95653609D02*
X114018895Y-95605909D01*
X178843506Y-132181909D02*
X178843506Y-132897404D01*
X178843506Y-132897404D02*
X178795806Y-133040503D01*
X178795806Y-133040503D02*
X178700407Y-133135903D01*
X178700407Y-133135903D02*
X178557308Y-133183602D01*
X178557308Y-133183602D02*
X178461909Y-133183602D01*
X179845199Y-133183602D02*
X179272803Y-133183602D01*
X179559001Y-133183602D02*
X179559001Y-132181909D01*
X179559001Y-132181909D02*
X179463602Y-132325008D01*
X179463602Y-132325008D02*
X179368203Y-132420408D01*
X179368203Y-132420408D02*
X179272803Y-132468107D01*
X180226796Y-132277309D02*
X180274496Y-132229609D01*
X180274496Y-132229609D02*
X180369895Y-132181909D01*
X180369895Y-132181909D02*
X180608394Y-132181909D01*
X180608394Y-132181909D02*
X180703793Y-132229609D01*
X180703793Y-132229609D02*
X180751493Y-132277309D01*
X180751493Y-132277309D02*
X180799192Y-132372708D01*
X180799192Y-132372708D02*
X180799192Y-132468107D01*
X180799192Y-132468107D02*
X180751493Y-132611206D01*
X180751493Y-132611206D02*
X180179097Y-133183602D01*
X180179097Y-133183602D02*
X180799192Y-133183602D01*
X141743333Y-74762819D02*
X141410000Y-74286628D01*
X141171905Y-74762819D02*
X141171905Y-73762819D01*
X141171905Y-73762819D02*
X141552857Y-73762819D01*
X141552857Y-73762819D02*
X141648095Y-73810438D01*
X141648095Y-73810438D02*
X141695714Y-73858057D01*
X141695714Y-73858057D02*
X141743333Y-73953295D01*
X141743333Y-73953295D02*
X141743333Y-74096152D01*
X141743333Y-74096152D02*
X141695714Y-74191390D01*
X141695714Y-74191390D02*
X141648095Y-74239009D01*
X141648095Y-74239009D02*
X141552857Y-74286628D01*
X141552857Y-74286628D02*
X141171905Y-74286628D01*
X142076667Y-73762819D02*
X142695714Y-73762819D01*
X142695714Y-73762819D02*
X142362381Y-74143771D01*
X142362381Y-74143771D02*
X142505238Y-74143771D01*
X142505238Y-74143771D02*
X142600476Y-74191390D01*
X142600476Y-74191390D02*
X142648095Y-74239009D01*
X142648095Y-74239009D02*
X142695714Y-74334247D01*
X142695714Y-74334247D02*
X142695714Y-74572342D01*
X142695714Y-74572342D02*
X142648095Y-74667580D01*
X142648095Y-74667580D02*
X142600476Y-74715200D01*
X142600476Y-74715200D02*
X142505238Y-74762819D01*
X142505238Y-74762819D02*
X142219524Y-74762819D01*
X142219524Y-74762819D02*
X142124286Y-74715200D01*
X142124286Y-74715200D02*
X142076667Y-74667580D01*
X137919742Y-138929580D02*
X137872123Y-138977200D01*
X137872123Y-138977200D02*
X137729266Y-139024819D01*
X137729266Y-139024819D02*
X137634028Y-139024819D01*
X137634028Y-139024819D02*
X137491171Y-138977200D01*
X137491171Y-138977200D02*
X137395933Y-138881961D01*
X137395933Y-138881961D02*
X137348314Y-138786723D01*
X137348314Y-138786723D02*
X137300695Y-138596247D01*
X137300695Y-138596247D02*
X137300695Y-138453390D01*
X137300695Y-138453390D02*
X137348314Y-138262914D01*
X137348314Y-138262914D02*
X137395933Y-138167676D01*
X137395933Y-138167676D02*
X137491171Y-138072438D01*
X137491171Y-138072438D02*
X137634028Y-138024819D01*
X137634028Y-138024819D02*
X137729266Y-138024819D01*
X137729266Y-138024819D02*
X137872123Y-138072438D01*
X137872123Y-138072438D02*
X137919742Y-138120057D01*
X138872123Y-139024819D02*
X138300695Y-139024819D01*
X138586409Y-139024819D02*
X138586409Y-138024819D01*
X138586409Y-138024819D02*
X138491171Y-138167676D01*
X138491171Y-138167676D02*
X138395933Y-138262914D01*
X138395933Y-138262914D02*
X138300695Y-138310533D01*
X139729266Y-138024819D02*
X139538790Y-138024819D01*
X139538790Y-138024819D02*
X139443552Y-138072438D01*
X139443552Y-138072438D02*
X139395933Y-138120057D01*
X139395933Y-138120057D02*
X139300695Y-138262914D01*
X139300695Y-138262914D02*
X139253076Y-138453390D01*
X139253076Y-138453390D02*
X139253076Y-138834342D01*
X139253076Y-138834342D02*
X139300695Y-138929580D01*
X139300695Y-138929580D02*
X139348314Y-138977200D01*
X139348314Y-138977200D02*
X139443552Y-139024819D01*
X139443552Y-139024819D02*
X139634028Y-139024819D01*
X139634028Y-139024819D02*
X139729266Y-138977200D01*
X139729266Y-138977200D02*
X139776885Y-138929580D01*
X139776885Y-138929580D02*
X139824504Y-138834342D01*
X139824504Y-138834342D02*
X139824504Y-138596247D01*
X139824504Y-138596247D02*
X139776885Y-138501009D01*
X139776885Y-138501009D02*
X139729266Y-138453390D01*
X139729266Y-138453390D02*
X139634028Y-138405771D01*
X139634028Y-138405771D02*
X139443552Y-138405771D01*
X139443552Y-138405771D02*
X139348314Y-138453390D01*
X139348314Y-138453390D02*
X139300695Y-138501009D01*
X139300695Y-138501009D02*
X139253076Y-138596247D01*
X112620102Y-61442909D02*
X112620102Y-62158404D01*
X112620102Y-62158404D02*
X112572402Y-62301503D01*
X112572402Y-62301503D02*
X112477003Y-62396903D01*
X112477003Y-62396903D02*
X112333904Y-62444602D01*
X112333904Y-62444602D02*
X112238505Y-62444602D01*
X113526396Y-61442909D02*
X113335597Y-61442909D01*
X113335597Y-61442909D02*
X113240198Y-61490609D01*
X113240198Y-61490609D02*
X113192498Y-61538309D01*
X113192498Y-61538309D02*
X113097099Y-61681408D01*
X113097099Y-61681408D02*
X113049399Y-61872206D01*
X113049399Y-61872206D02*
X113049399Y-62253804D01*
X113049399Y-62253804D02*
X113097099Y-62349203D01*
X113097099Y-62349203D02*
X113144799Y-62396903D01*
X113144799Y-62396903D02*
X113240198Y-62444602D01*
X113240198Y-62444602D02*
X113430997Y-62444602D01*
X113430997Y-62444602D02*
X113526396Y-62396903D01*
X113526396Y-62396903D02*
X113574096Y-62349203D01*
X113574096Y-62349203D02*
X113621795Y-62253804D01*
X113621795Y-62253804D02*
X113621795Y-62015305D01*
X113621795Y-62015305D02*
X113574096Y-61919906D01*
X113574096Y-61919906D02*
X113526396Y-61872206D01*
X113526396Y-61872206D02*
X113430997Y-61824507D01*
X113430997Y-61824507D02*
X113240198Y-61824507D01*
X113240198Y-61824507D02*
X113144799Y-61872206D01*
X113144799Y-61872206D02*
X113097099Y-61919906D01*
X113097099Y-61919906D02*
X113049399Y-62015305D01*
D13*
X122047295Y-59185819D02*
X122047295Y-59995342D01*
X122047295Y-59995342D02*
X122094914Y-60090580D01*
X122094914Y-60090580D02*
X122142533Y-60138200D01*
X122142533Y-60138200D02*
X122237771Y-60185819D01*
X122237771Y-60185819D02*
X122428247Y-60185819D01*
X122428247Y-60185819D02*
X122523485Y-60138200D01*
X122523485Y-60138200D02*
X122571104Y-60090580D01*
X122571104Y-60090580D02*
X122618723Y-59995342D01*
X122618723Y-59995342D02*
X122618723Y-59185819D01*
X123047295Y-59281057D02*
X123094914Y-59233438D01*
X123094914Y-59233438D02*
X123190152Y-59185819D01*
X123190152Y-59185819D02*
X123428247Y-59185819D01*
X123428247Y-59185819D02*
X123523485Y-59233438D01*
X123523485Y-59233438D02*
X123571104Y-59281057D01*
X123571104Y-59281057D02*
X123618723Y-59376295D01*
X123618723Y-59376295D02*
X123618723Y-59471533D01*
X123618723Y-59471533D02*
X123571104Y-59614390D01*
X123571104Y-59614390D02*
X122999676Y-60185819D01*
X122999676Y-60185819D02*
X123618723Y-60185819D01*
X132215779Y-87418438D02*
X132215779Y-85418438D01*
X132215779Y-85418438D02*
X132977684Y-85418438D01*
X132977684Y-85418438D02*
X133168160Y-85513676D01*
X133168160Y-85513676D02*
X133263398Y-85608914D01*
X133263398Y-85608914D02*
X133358636Y-85799390D01*
X133358636Y-85799390D02*
X133358636Y-86085104D01*
X133358636Y-86085104D02*
X133263398Y-86275580D01*
X133263398Y-86275580D02*
X133168160Y-86370819D01*
X133168160Y-86370819D02*
X132977684Y-86466057D01*
X132977684Y-86466057D02*
X132215779Y-86466057D01*
X135358636Y-87227961D02*
X135263398Y-87323200D01*
X135263398Y-87323200D02*
X134977684Y-87418438D01*
X134977684Y-87418438D02*
X134787208Y-87418438D01*
X134787208Y-87418438D02*
X134501493Y-87323200D01*
X134501493Y-87323200D02*
X134311017Y-87132723D01*
X134311017Y-87132723D02*
X134215779Y-86942247D01*
X134215779Y-86942247D02*
X134120541Y-86561295D01*
X134120541Y-86561295D02*
X134120541Y-86275580D01*
X134120541Y-86275580D02*
X134215779Y-85894628D01*
X134215779Y-85894628D02*
X134311017Y-85704152D01*
X134311017Y-85704152D02*
X134501493Y-85513676D01*
X134501493Y-85513676D02*
X134787208Y-85418438D01*
X134787208Y-85418438D02*
X134977684Y-85418438D01*
X134977684Y-85418438D02*
X135263398Y-85513676D01*
X135263398Y-85513676D02*
X135358636Y-85608914D01*
X136215779Y-87418438D02*
X136215779Y-85418438D01*
X136215779Y-85418438D02*
X136882446Y-86847009D01*
X136882446Y-86847009D02*
X137549112Y-85418438D01*
X137549112Y-85418438D02*
X137549112Y-87418438D01*
X139549112Y-87418438D02*
X138406255Y-87418438D01*
X138977683Y-87418438D02*
X138977683Y-85418438D01*
X138977683Y-85418438D02*
X138787207Y-85704152D01*
X138787207Y-85704152D02*
X138596731Y-85894628D01*
X138596731Y-85894628D02*
X138406255Y-85989866D01*
X140691969Y-86275580D02*
X140501493Y-86180342D01*
X140501493Y-86180342D02*
X140406255Y-86085104D01*
X140406255Y-86085104D02*
X140311017Y-85894628D01*
X140311017Y-85894628D02*
X140311017Y-85799390D01*
X140311017Y-85799390D02*
X140406255Y-85608914D01*
X140406255Y-85608914D02*
X140501493Y-85513676D01*
X140501493Y-85513676D02*
X140691969Y-85418438D01*
X140691969Y-85418438D02*
X141072922Y-85418438D01*
X141072922Y-85418438D02*
X141263398Y-85513676D01*
X141263398Y-85513676D02*
X141358636Y-85608914D01*
X141358636Y-85608914D02*
X141453874Y-85799390D01*
X141453874Y-85799390D02*
X141453874Y-85894628D01*
X141453874Y-85894628D02*
X141358636Y-86085104D01*
X141358636Y-86085104D02*
X141263398Y-86180342D01*
X141263398Y-86180342D02*
X141072922Y-86275580D01*
X141072922Y-86275580D02*
X140691969Y-86275580D01*
X140691969Y-86275580D02*
X140501493Y-86370819D01*
X140501493Y-86370819D02*
X140406255Y-86466057D01*
X140406255Y-86466057D02*
X140311017Y-86656533D01*
X140311017Y-86656533D02*
X140311017Y-87037485D01*
X140311017Y-87037485D02*
X140406255Y-87227961D01*
X140406255Y-87227961D02*
X140501493Y-87323200D01*
X140501493Y-87323200D02*
X140691969Y-87418438D01*
X140691969Y-87418438D02*
X141072922Y-87418438D01*
X141072922Y-87418438D02*
X141263398Y-87323200D01*
X141263398Y-87323200D02*
X141358636Y-87227961D01*
X141358636Y-87227961D02*
X141453874Y-87037485D01*
X141453874Y-87037485D02*
X141453874Y-86656533D01*
X141453874Y-86656533D02*
X141358636Y-86466057D01*
X141358636Y-86466057D02*
X141263398Y-86370819D01*
X141263398Y-86370819D02*
X141072922Y-86275580D01*
X142691969Y-85418438D02*
X142882446Y-85418438D01*
X142882446Y-85418438D02*
X143072922Y-85513676D01*
X143072922Y-85513676D02*
X143168160Y-85608914D01*
X143168160Y-85608914D02*
X143263398Y-85799390D01*
X143263398Y-85799390D02*
X143358636Y-86180342D01*
X143358636Y-86180342D02*
X143358636Y-86656533D01*
X143358636Y-86656533D02*
X143263398Y-87037485D01*
X143263398Y-87037485D02*
X143168160Y-87227961D01*
X143168160Y-87227961D02*
X143072922Y-87323200D01*
X143072922Y-87323200D02*
X142882446Y-87418438D01*
X142882446Y-87418438D02*
X142691969Y-87418438D01*
X142691969Y-87418438D02*
X142501493Y-87323200D01*
X142501493Y-87323200D02*
X142406255Y-87227961D01*
X142406255Y-87227961D02*
X142311017Y-87037485D01*
X142311017Y-87037485D02*
X142215779Y-86656533D01*
X142215779Y-86656533D02*
X142215779Y-86180342D01*
X142215779Y-86180342D02*
X142311017Y-85799390D01*
X142311017Y-85799390D02*
X142406255Y-85608914D01*
X142406255Y-85608914D02*
X142501493Y-85513676D01*
X142501493Y-85513676D02*
X142691969Y-85418438D01*
X144501493Y-86275580D02*
X144311017Y-86180342D01*
X144311017Y-86180342D02*
X144215779Y-86085104D01*
X144215779Y-86085104D02*
X144120541Y-85894628D01*
X144120541Y-85894628D02*
X144120541Y-85799390D01*
X144120541Y-85799390D02*
X144215779Y-85608914D01*
X144215779Y-85608914D02*
X144311017Y-85513676D01*
X144311017Y-85513676D02*
X144501493Y-85418438D01*
X144501493Y-85418438D02*
X144882446Y-85418438D01*
X144882446Y-85418438D02*
X145072922Y-85513676D01*
X145072922Y-85513676D02*
X145168160Y-85608914D01*
X145168160Y-85608914D02*
X145263398Y-85799390D01*
X145263398Y-85799390D02*
X145263398Y-85894628D01*
X145263398Y-85894628D02*
X145168160Y-86085104D01*
X145168160Y-86085104D02*
X145072922Y-86180342D01*
X145072922Y-86180342D02*
X144882446Y-86275580D01*
X144882446Y-86275580D02*
X144501493Y-86275580D01*
X144501493Y-86275580D02*
X144311017Y-86370819D01*
X144311017Y-86370819D02*
X144215779Y-86466057D01*
X144215779Y-86466057D02*
X144120541Y-86656533D01*
X144120541Y-86656533D02*
X144120541Y-87037485D01*
X144120541Y-87037485D02*
X144215779Y-87227961D01*
X144215779Y-87227961D02*
X144311017Y-87323200D01*
X144311017Y-87323200D02*
X144501493Y-87418438D01*
X144501493Y-87418438D02*
X144882446Y-87418438D01*
X144882446Y-87418438D02*
X145072922Y-87323200D01*
X145072922Y-87323200D02*
X145168160Y-87227961D01*
X145168160Y-87227961D02*
X145263398Y-87037485D01*
X145263398Y-87037485D02*
X145263398Y-86656533D01*
X145263398Y-86656533D02*
X145168160Y-86466057D01*
X145168160Y-86466057D02*
X145072922Y-86370819D01*
X145072922Y-86370819D02*
X144882446Y-86275580D01*
D10*
X186550733Y-124324580D02*
X186503114Y-124372200D01*
X186503114Y-124372200D02*
X186360257Y-124419819D01*
X186360257Y-124419819D02*
X186265019Y-124419819D01*
X186265019Y-124419819D02*
X186122162Y-124372200D01*
X186122162Y-124372200D02*
X186026924Y-124276961D01*
X186026924Y-124276961D02*
X185979305Y-124181723D01*
X185979305Y-124181723D02*
X185931686Y-123991247D01*
X185931686Y-123991247D02*
X185931686Y-123848390D01*
X185931686Y-123848390D02*
X185979305Y-123657914D01*
X185979305Y-123657914D02*
X186026924Y-123562676D01*
X186026924Y-123562676D02*
X186122162Y-123467438D01*
X186122162Y-123467438D02*
X186265019Y-123419819D01*
X186265019Y-123419819D02*
X186360257Y-123419819D01*
X186360257Y-123419819D02*
X186503114Y-123467438D01*
X186503114Y-123467438D02*
X186550733Y-123515057D01*
X186884067Y-123419819D02*
X187503114Y-123419819D01*
X187503114Y-123419819D02*
X187169781Y-123800771D01*
X187169781Y-123800771D02*
X187312638Y-123800771D01*
X187312638Y-123800771D02*
X187407876Y-123848390D01*
X187407876Y-123848390D02*
X187455495Y-123896009D01*
X187455495Y-123896009D02*
X187503114Y-123991247D01*
X187503114Y-123991247D02*
X187503114Y-124229342D01*
X187503114Y-124229342D02*
X187455495Y-124324580D01*
X187455495Y-124324580D02*
X187407876Y-124372200D01*
X187407876Y-124372200D02*
X187312638Y-124419819D01*
X187312638Y-124419819D02*
X187026924Y-124419819D01*
X187026924Y-124419819D02*
X186931686Y-124372200D01*
X186931686Y-124372200D02*
X186884067Y-124324580D01*
X122090142Y-95241580D02*
X122042523Y-95289200D01*
X122042523Y-95289200D02*
X121899666Y-95336819D01*
X121899666Y-95336819D02*
X121804428Y-95336819D01*
X121804428Y-95336819D02*
X121661571Y-95289200D01*
X121661571Y-95289200D02*
X121566333Y-95193961D01*
X121566333Y-95193961D02*
X121518714Y-95098723D01*
X121518714Y-95098723D02*
X121471095Y-94908247D01*
X121471095Y-94908247D02*
X121471095Y-94765390D01*
X121471095Y-94765390D02*
X121518714Y-94574914D01*
X121518714Y-94574914D02*
X121566333Y-94479676D01*
X121566333Y-94479676D02*
X121661571Y-94384438D01*
X121661571Y-94384438D02*
X121804428Y-94336819D01*
X121804428Y-94336819D02*
X121899666Y-94336819D01*
X121899666Y-94336819D02*
X122042523Y-94384438D01*
X122042523Y-94384438D02*
X122090142Y-94432057D01*
X123042523Y-95336819D02*
X122471095Y-95336819D01*
X122756809Y-95336819D02*
X122756809Y-94336819D01*
X122756809Y-94336819D02*
X122661571Y-94479676D01*
X122661571Y-94479676D02*
X122566333Y-94574914D01*
X122566333Y-94574914D02*
X122471095Y-94622533D01*
X123423476Y-94432057D02*
X123471095Y-94384438D01*
X123471095Y-94384438D02*
X123566333Y-94336819D01*
X123566333Y-94336819D02*
X123804428Y-94336819D01*
X123804428Y-94336819D02*
X123899666Y-94384438D01*
X123899666Y-94384438D02*
X123947285Y-94432057D01*
X123947285Y-94432057D02*
X123994904Y-94527295D01*
X123994904Y-94527295D02*
X123994904Y-94622533D01*
X123994904Y-94622533D02*
X123947285Y-94765390D01*
X123947285Y-94765390D02*
X123375857Y-95336819D01*
X123375857Y-95336819D02*
X123994904Y-95336819D01*
X112620102Y-79070509D02*
X112620102Y-79786004D01*
X112620102Y-79786004D02*
X112572402Y-79929103D01*
X112572402Y-79929103D02*
X112477003Y-80024503D01*
X112477003Y-80024503D02*
X112333904Y-80072202D01*
X112333904Y-80072202D02*
X112238505Y-80072202D01*
X113240198Y-79499806D02*
X113144799Y-79452107D01*
X113144799Y-79452107D02*
X113097099Y-79404407D01*
X113097099Y-79404407D02*
X113049399Y-79309008D01*
X113049399Y-79309008D02*
X113049399Y-79261308D01*
X113049399Y-79261308D02*
X113097099Y-79165909D01*
X113097099Y-79165909D02*
X113144799Y-79118209D01*
X113144799Y-79118209D02*
X113240198Y-79070509D01*
X113240198Y-79070509D02*
X113430997Y-79070509D01*
X113430997Y-79070509D02*
X113526396Y-79118209D01*
X113526396Y-79118209D02*
X113574096Y-79165909D01*
X113574096Y-79165909D02*
X113621795Y-79261308D01*
X113621795Y-79261308D02*
X113621795Y-79309008D01*
X113621795Y-79309008D02*
X113574096Y-79404407D01*
X113574096Y-79404407D02*
X113526396Y-79452107D01*
X113526396Y-79452107D02*
X113430997Y-79499806D01*
X113430997Y-79499806D02*
X113240198Y-79499806D01*
X113240198Y-79499806D02*
X113144799Y-79547506D01*
X113144799Y-79547506D02*
X113097099Y-79595206D01*
X113097099Y-79595206D02*
X113049399Y-79690605D01*
X113049399Y-79690605D02*
X113049399Y-79881404D01*
X113049399Y-79881404D02*
X113097099Y-79976803D01*
X113097099Y-79976803D02*
X113144799Y-80024503D01*
X113144799Y-80024503D02*
X113240198Y-80072202D01*
X113240198Y-80072202D02*
X113430997Y-80072202D01*
X113430997Y-80072202D02*
X113526396Y-80024503D01*
X113526396Y-80024503D02*
X113574096Y-79976803D01*
X113574096Y-79976803D02*
X113621795Y-79881404D01*
X113621795Y-79881404D02*
X113621795Y-79690605D01*
X113621795Y-79690605D02*
X113574096Y-79595206D01*
X113574096Y-79595206D02*
X113526396Y-79547506D01*
X113526396Y-79547506D02*
X113430997Y-79499806D01*
X115295666Y-91942809D02*
X114962333Y-91942809D01*
X114962333Y-92466619D02*
X114962333Y-91466619D01*
X114962333Y-91466619D02*
X115438523Y-91466619D01*
X116152809Y-91942809D02*
X116295666Y-91990428D01*
X116295666Y-91990428D02*
X116343285Y-92038047D01*
X116343285Y-92038047D02*
X116390904Y-92133285D01*
X116390904Y-92133285D02*
X116390904Y-92276142D01*
X116390904Y-92276142D02*
X116343285Y-92371380D01*
X116343285Y-92371380D02*
X116295666Y-92419000D01*
X116295666Y-92419000D02*
X116200428Y-92466619D01*
X116200428Y-92466619D02*
X115819476Y-92466619D01*
X115819476Y-92466619D02*
X115819476Y-91466619D01*
X115819476Y-91466619D02*
X116152809Y-91466619D01*
X116152809Y-91466619D02*
X116248047Y-91514238D01*
X116248047Y-91514238D02*
X116295666Y-91561857D01*
X116295666Y-91561857D02*
X116343285Y-91657095D01*
X116343285Y-91657095D02*
X116343285Y-91752333D01*
X116343285Y-91752333D02*
X116295666Y-91847571D01*
X116295666Y-91847571D02*
X116248047Y-91895190D01*
X116248047Y-91895190D02*
X116152809Y-91942809D01*
X116152809Y-91942809D02*
X115819476Y-91942809D01*
X117248047Y-91799952D02*
X117248047Y-92466619D01*
X117009952Y-91419000D02*
X116771857Y-92133285D01*
X116771857Y-92133285D02*
X117390904Y-92133285D01*
X150935676Y-131070219D02*
X150935676Y-131784504D01*
X150935676Y-131784504D02*
X150888057Y-131927361D01*
X150888057Y-131927361D02*
X150792819Y-132022600D01*
X150792819Y-132022600D02*
X150649962Y-132070219D01*
X150649962Y-132070219D02*
X150554724Y-132070219D01*
X151935676Y-132070219D02*
X151364248Y-132070219D01*
X151649962Y-132070219D02*
X151649962Y-131070219D01*
X151649962Y-131070219D02*
X151554724Y-131213076D01*
X151554724Y-131213076D02*
X151459486Y-131308314D01*
X151459486Y-131308314D02*
X151364248Y-131355933D01*
X152840438Y-131070219D02*
X152364248Y-131070219D01*
X152364248Y-131070219D02*
X152316629Y-131546409D01*
X152316629Y-131546409D02*
X152364248Y-131498790D01*
X152364248Y-131498790D02*
X152459486Y-131451171D01*
X152459486Y-131451171D02*
X152697581Y-131451171D01*
X152697581Y-131451171D02*
X152792819Y-131498790D01*
X152792819Y-131498790D02*
X152840438Y-131546409D01*
X152840438Y-131546409D02*
X152888057Y-131641647D01*
X152888057Y-131641647D02*
X152888057Y-131879742D01*
X152888057Y-131879742D02*
X152840438Y-131974980D01*
X152840438Y-131974980D02*
X152792819Y-132022600D01*
X152792819Y-132022600D02*
X152697581Y-132070219D01*
X152697581Y-132070219D02*
X152459486Y-132070219D01*
X152459486Y-132070219D02*
X152364248Y-132022600D01*
X152364248Y-132022600D02*
X152316629Y-131974980D01*
X109326666Y-123901009D02*
X108993333Y-123901009D01*
X108993333Y-124424819D02*
X108993333Y-123424819D01*
X108993333Y-123424819D02*
X109469523Y-123424819D01*
X110183809Y-123901009D02*
X110326666Y-123948628D01*
X110326666Y-123948628D02*
X110374285Y-123996247D01*
X110374285Y-123996247D02*
X110421904Y-124091485D01*
X110421904Y-124091485D02*
X110421904Y-124234342D01*
X110421904Y-124234342D02*
X110374285Y-124329580D01*
X110374285Y-124329580D02*
X110326666Y-124377200D01*
X110326666Y-124377200D02*
X110231428Y-124424819D01*
X110231428Y-124424819D02*
X109850476Y-124424819D01*
X109850476Y-124424819D02*
X109850476Y-123424819D01*
X109850476Y-123424819D02*
X110183809Y-123424819D01*
X110183809Y-123424819D02*
X110279047Y-123472438D01*
X110279047Y-123472438D02*
X110326666Y-123520057D01*
X110326666Y-123520057D02*
X110374285Y-123615295D01*
X110374285Y-123615295D02*
X110374285Y-123710533D01*
X110374285Y-123710533D02*
X110326666Y-123805771D01*
X110326666Y-123805771D02*
X110279047Y-123853390D01*
X110279047Y-123853390D02*
X110183809Y-123901009D01*
X110183809Y-123901009D02*
X109850476Y-123901009D01*
X111374285Y-124424819D02*
X110802857Y-124424819D01*
X111088571Y-124424819D02*
X111088571Y-123424819D01*
X111088571Y-123424819D02*
X110993333Y-123567676D01*
X110993333Y-123567676D02*
X110898095Y-123662914D01*
X110898095Y-123662914D02*
X110802857Y-123710533D01*
X122185333Y-91050580D02*
X122137714Y-91098200D01*
X122137714Y-91098200D02*
X121994857Y-91145819D01*
X121994857Y-91145819D02*
X121899619Y-91145819D01*
X121899619Y-91145819D02*
X121756762Y-91098200D01*
X121756762Y-91098200D02*
X121661524Y-91002961D01*
X121661524Y-91002961D02*
X121613905Y-90907723D01*
X121613905Y-90907723D02*
X121566286Y-90717247D01*
X121566286Y-90717247D02*
X121566286Y-90574390D01*
X121566286Y-90574390D02*
X121613905Y-90383914D01*
X121613905Y-90383914D02*
X121661524Y-90288676D01*
X121661524Y-90288676D02*
X121756762Y-90193438D01*
X121756762Y-90193438D02*
X121899619Y-90145819D01*
X121899619Y-90145819D02*
X121994857Y-90145819D01*
X121994857Y-90145819D02*
X122137714Y-90193438D01*
X122137714Y-90193438D02*
X122185333Y-90241057D01*
X122518667Y-90145819D02*
X123185333Y-90145819D01*
X123185333Y-90145819D02*
X122756762Y-91145819D01*
X141743333Y-71333819D02*
X141410000Y-70857628D01*
X141171905Y-71333819D02*
X141171905Y-70333819D01*
X141171905Y-70333819D02*
X141552857Y-70333819D01*
X141552857Y-70333819D02*
X141648095Y-70381438D01*
X141648095Y-70381438D02*
X141695714Y-70429057D01*
X141695714Y-70429057D02*
X141743333Y-70524295D01*
X141743333Y-70524295D02*
X141743333Y-70667152D01*
X141743333Y-70667152D02*
X141695714Y-70762390D01*
X141695714Y-70762390D02*
X141648095Y-70810009D01*
X141648095Y-70810009D02*
X141552857Y-70857628D01*
X141552857Y-70857628D02*
X141171905Y-70857628D01*
X142124286Y-70429057D02*
X142171905Y-70381438D01*
X142171905Y-70381438D02*
X142267143Y-70333819D01*
X142267143Y-70333819D02*
X142505238Y-70333819D01*
X142505238Y-70333819D02*
X142600476Y-70381438D01*
X142600476Y-70381438D02*
X142648095Y-70429057D01*
X142648095Y-70429057D02*
X142695714Y-70524295D01*
X142695714Y-70524295D02*
X142695714Y-70619533D01*
X142695714Y-70619533D02*
X142648095Y-70762390D01*
X142648095Y-70762390D02*
X142076667Y-71333819D01*
X142076667Y-71333819D02*
X142695714Y-71333819D01*
X180318076Y-66396819D02*
X180318076Y-67111104D01*
X180318076Y-67111104D02*
X180270457Y-67253961D01*
X180270457Y-67253961D02*
X180175219Y-67349200D01*
X180175219Y-67349200D02*
X180032362Y-67396819D01*
X180032362Y-67396819D02*
X179937124Y-67396819D01*
X181318076Y-67396819D02*
X180746648Y-67396819D01*
X181032362Y-67396819D02*
X181032362Y-66396819D01*
X181032362Y-66396819D02*
X180937124Y-66539676D01*
X180937124Y-66539676D02*
X180841886Y-66634914D01*
X180841886Y-66634914D02*
X180746648Y-66682533D01*
X182175219Y-66730152D02*
X182175219Y-67396819D01*
X181937124Y-66349200D02*
X181699029Y-67063485D01*
X181699029Y-67063485D02*
X182318076Y-67063485D01*
X118081666Y-63958419D02*
X118081666Y-64672704D01*
X118081666Y-64672704D02*
X118034047Y-64815561D01*
X118034047Y-64815561D02*
X117938809Y-64910800D01*
X117938809Y-64910800D02*
X117795952Y-64958419D01*
X117795952Y-64958419D02*
X117700714Y-64958419D01*
X118605476Y-64958419D02*
X118795952Y-64958419D01*
X118795952Y-64958419D02*
X118891190Y-64910800D01*
X118891190Y-64910800D02*
X118938809Y-64863180D01*
X118938809Y-64863180D02*
X119034047Y-64720323D01*
X119034047Y-64720323D02*
X119081666Y-64529847D01*
X119081666Y-64529847D02*
X119081666Y-64148895D01*
X119081666Y-64148895D02*
X119034047Y-64053657D01*
X119034047Y-64053657D02*
X118986428Y-64006038D01*
X118986428Y-64006038D02*
X118891190Y-63958419D01*
X118891190Y-63958419D02*
X118700714Y-63958419D01*
X118700714Y-63958419D02*
X118605476Y-64006038D01*
X118605476Y-64006038D02*
X118557857Y-64053657D01*
X118557857Y-64053657D02*
X118510238Y-64148895D01*
X118510238Y-64148895D02*
X118510238Y-64386990D01*
X118510238Y-64386990D02*
X118557857Y-64482228D01*
X118557857Y-64482228D02*
X118605476Y-64529847D01*
X118605476Y-64529847D02*
X118700714Y-64577466D01*
X118700714Y-64577466D02*
X118891190Y-64577466D01*
X118891190Y-64577466D02*
X118986428Y-64529847D01*
X118986428Y-64529847D02*
X119034047Y-64482228D01*
X119034047Y-64482228D02*
X119081666Y-64386990D01*
X117105333Y-129302980D02*
X117057714Y-129350600D01*
X117057714Y-129350600D02*
X116914857Y-129398219D01*
X116914857Y-129398219D02*
X116819619Y-129398219D01*
X116819619Y-129398219D02*
X116676762Y-129350600D01*
X116676762Y-129350600D02*
X116581524Y-129255361D01*
X116581524Y-129255361D02*
X116533905Y-129160123D01*
X116533905Y-129160123D02*
X116486286Y-128969647D01*
X116486286Y-128969647D02*
X116486286Y-128826790D01*
X116486286Y-128826790D02*
X116533905Y-128636314D01*
X116533905Y-128636314D02*
X116581524Y-128541076D01*
X116581524Y-128541076D02*
X116676762Y-128445838D01*
X116676762Y-128445838D02*
X116819619Y-128398219D01*
X116819619Y-128398219D02*
X116914857Y-128398219D01*
X116914857Y-128398219D02*
X117057714Y-128445838D01*
X117057714Y-128445838D02*
X117105333Y-128493457D01*
X118010095Y-128398219D02*
X117533905Y-128398219D01*
X117533905Y-128398219D02*
X117486286Y-128874409D01*
X117486286Y-128874409D02*
X117533905Y-128826790D01*
X117533905Y-128826790D02*
X117629143Y-128779171D01*
X117629143Y-128779171D02*
X117867238Y-128779171D01*
X117867238Y-128779171D02*
X117962476Y-128826790D01*
X117962476Y-128826790D02*
X118010095Y-128874409D01*
X118010095Y-128874409D02*
X118057714Y-128969647D01*
X118057714Y-128969647D02*
X118057714Y-129207742D01*
X118057714Y-129207742D02*
X118010095Y-129302980D01*
X118010095Y-129302980D02*
X117962476Y-129350600D01*
X117962476Y-129350600D02*
X117867238Y-129398219D01*
X117867238Y-129398219D02*
X117629143Y-129398219D01*
X117629143Y-129398219D02*
X117533905Y-129350600D01*
X117533905Y-129350600D02*
X117486286Y-129302980D01*
X100936666Y-114144819D02*
X100936666Y-114859104D01*
X100936666Y-114859104D02*
X100889047Y-115001961D01*
X100889047Y-115001961D02*
X100793809Y-115097200D01*
X100793809Y-115097200D02*
X100650952Y-115144819D01*
X100650952Y-115144819D02*
X100555714Y-115144819D01*
X101936666Y-115144819D02*
X101365238Y-115144819D01*
X101650952Y-115144819D02*
X101650952Y-114144819D01*
X101650952Y-114144819D02*
X101555714Y-114287676D01*
X101555714Y-114287676D02*
X101460476Y-114382914D01*
X101460476Y-114382914D02*
X101365238Y-114430533D01*
X153797295Y-93270019D02*
X153797295Y-94079542D01*
X153797295Y-94079542D02*
X153844914Y-94174780D01*
X153844914Y-94174780D02*
X153892533Y-94222400D01*
X153892533Y-94222400D02*
X153987771Y-94270019D01*
X153987771Y-94270019D02*
X154178247Y-94270019D01*
X154178247Y-94270019D02*
X154273485Y-94222400D01*
X154273485Y-94222400D02*
X154321104Y-94174780D01*
X154321104Y-94174780D02*
X154368723Y-94079542D01*
X154368723Y-94079542D02*
X154368723Y-93270019D01*
X155368723Y-94270019D02*
X154797295Y-94270019D01*
X155083009Y-94270019D02*
X155083009Y-93270019D01*
X155083009Y-93270019D02*
X154987771Y-93412876D01*
X154987771Y-93412876D02*
X154892533Y-93508114D01*
X154892533Y-93508114D02*
X154797295Y-93555733D01*
X163406495Y-123038819D02*
X163406495Y-123848342D01*
X163406495Y-123848342D02*
X163454114Y-123943580D01*
X163454114Y-123943580D02*
X163501733Y-123991200D01*
X163501733Y-123991200D02*
X163596971Y-124038819D01*
X163596971Y-124038819D02*
X163787447Y-124038819D01*
X163787447Y-124038819D02*
X163882685Y-123991200D01*
X163882685Y-123991200D02*
X163930304Y-123943580D01*
X163930304Y-123943580D02*
X163977923Y-123848342D01*
X163977923Y-123848342D02*
X163977923Y-123038819D01*
X164406495Y-123991200D02*
X164549352Y-124038819D01*
X164549352Y-124038819D02*
X164787447Y-124038819D01*
X164787447Y-124038819D02*
X164882685Y-123991200D01*
X164882685Y-123991200D02*
X164930304Y-123943580D01*
X164930304Y-123943580D02*
X164977923Y-123848342D01*
X164977923Y-123848342D02*
X164977923Y-123753104D01*
X164977923Y-123753104D02*
X164930304Y-123657866D01*
X164930304Y-123657866D02*
X164882685Y-123610247D01*
X164882685Y-123610247D02*
X164787447Y-123562628D01*
X164787447Y-123562628D02*
X164596971Y-123515009D01*
X164596971Y-123515009D02*
X164501733Y-123467390D01*
X164501733Y-123467390D02*
X164454114Y-123419771D01*
X164454114Y-123419771D02*
X164406495Y-123324533D01*
X164406495Y-123324533D02*
X164406495Y-123229295D01*
X164406495Y-123229295D02*
X164454114Y-123134057D01*
X164454114Y-123134057D02*
X164501733Y-123086438D01*
X164501733Y-123086438D02*
X164596971Y-123038819D01*
X164596971Y-123038819D02*
X164835066Y-123038819D01*
X164835066Y-123038819D02*
X164977923Y-123086438D01*
X165739828Y-123515009D02*
X165882685Y-123562628D01*
X165882685Y-123562628D02*
X165930304Y-123610247D01*
X165930304Y-123610247D02*
X165977923Y-123705485D01*
X165977923Y-123705485D02*
X165977923Y-123848342D01*
X165977923Y-123848342D02*
X165930304Y-123943580D01*
X165930304Y-123943580D02*
X165882685Y-123991200D01*
X165882685Y-123991200D02*
X165787447Y-124038819D01*
X165787447Y-124038819D02*
X165406495Y-124038819D01*
X165406495Y-124038819D02*
X165406495Y-123038819D01*
X165406495Y-123038819D02*
X165739828Y-123038819D01*
X165739828Y-123038819D02*
X165835066Y-123086438D01*
X165835066Y-123086438D02*
X165882685Y-123134057D01*
X165882685Y-123134057D02*
X165930304Y-123229295D01*
X165930304Y-123229295D02*
X165930304Y-123324533D01*
X165930304Y-123324533D02*
X165882685Y-123419771D01*
X165882685Y-123419771D02*
X165835066Y-123467390D01*
X165835066Y-123467390D02*
X165739828Y-123515009D01*
X165739828Y-123515009D02*
X165406495Y-123515009D01*
X158534656Y-108910009D02*
X158867989Y-108910009D01*
X159010846Y-109433819D02*
X158534656Y-109433819D01*
X158534656Y-109433819D02*
X158534656Y-108433819D01*
X158534656Y-108433819D02*
X159010846Y-108433819D01*
X159296561Y-108767152D02*
X159677513Y-108767152D01*
X159439418Y-108433819D02*
X159439418Y-109290961D01*
X159439418Y-109290961D02*
X159487037Y-109386200D01*
X159487037Y-109386200D02*
X159582275Y-109433819D01*
X159582275Y-109433819D02*
X159677513Y-109433819D01*
X160010847Y-109433819D02*
X160010847Y-108433819D01*
X160439418Y-109433819D02*
X160439418Y-108910009D01*
X160439418Y-108910009D02*
X160391799Y-108814771D01*
X160391799Y-108814771D02*
X160296561Y-108767152D01*
X160296561Y-108767152D02*
X160153704Y-108767152D01*
X160153704Y-108767152D02*
X160058466Y-108814771D01*
X160058466Y-108814771D02*
X160010847Y-108862390D01*
X161296561Y-109386200D02*
X161201323Y-109433819D01*
X161201323Y-109433819D02*
X161010847Y-109433819D01*
X161010847Y-109433819D02*
X160915609Y-109386200D01*
X160915609Y-109386200D02*
X160867990Y-109290961D01*
X160867990Y-109290961D02*
X160867990Y-108910009D01*
X160867990Y-108910009D02*
X160915609Y-108814771D01*
X160915609Y-108814771D02*
X161010847Y-108767152D01*
X161010847Y-108767152D02*
X161201323Y-108767152D01*
X161201323Y-108767152D02*
X161296561Y-108814771D01*
X161296561Y-108814771D02*
X161344180Y-108910009D01*
X161344180Y-108910009D02*
X161344180Y-109005247D01*
X161344180Y-109005247D02*
X160867990Y-109100485D01*
X161772752Y-109433819D02*
X161772752Y-108767152D01*
X161772752Y-108957628D02*
X161820371Y-108862390D01*
X161820371Y-108862390D02*
X161867990Y-108814771D01*
X161867990Y-108814771D02*
X161963228Y-108767152D01*
X161963228Y-108767152D02*
X162058466Y-108767152D01*
X162391800Y-108767152D02*
X162391800Y-109433819D01*
X162391800Y-108862390D02*
X162439419Y-108814771D01*
X162439419Y-108814771D02*
X162534657Y-108767152D01*
X162534657Y-108767152D02*
X162677514Y-108767152D01*
X162677514Y-108767152D02*
X162772752Y-108814771D01*
X162772752Y-108814771D02*
X162820371Y-108910009D01*
X162820371Y-108910009D02*
X162820371Y-109433819D01*
X163677514Y-109386200D02*
X163582276Y-109433819D01*
X163582276Y-109433819D02*
X163391800Y-109433819D01*
X163391800Y-109433819D02*
X163296562Y-109386200D01*
X163296562Y-109386200D02*
X163248943Y-109290961D01*
X163248943Y-109290961D02*
X163248943Y-108910009D01*
X163248943Y-108910009D02*
X163296562Y-108814771D01*
X163296562Y-108814771D02*
X163391800Y-108767152D01*
X163391800Y-108767152D02*
X163582276Y-108767152D01*
X163582276Y-108767152D02*
X163677514Y-108814771D01*
X163677514Y-108814771D02*
X163725133Y-108910009D01*
X163725133Y-108910009D02*
X163725133Y-109005247D01*
X163725133Y-109005247D02*
X163248943Y-109100485D01*
X164010848Y-108767152D02*
X164391800Y-108767152D01*
X164153705Y-108433819D02*
X164153705Y-109290961D01*
X164153705Y-109290961D02*
X164201324Y-109386200D01*
X164201324Y-109386200D02*
X164296562Y-109433819D01*
X164296562Y-109433819D02*
X164391800Y-109433819D01*
X165123219Y-75903047D02*
X164123219Y-75903047D01*
X164123219Y-75903047D02*
X164837504Y-75569714D01*
X164837504Y-75569714D02*
X164123219Y-75236381D01*
X164123219Y-75236381D02*
X165123219Y-75236381D01*
X165123219Y-74760190D02*
X164456552Y-74760190D01*
X164123219Y-74760190D02*
X164170838Y-74807809D01*
X164170838Y-74807809D02*
X164218457Y-74760190D01*
X164218457Y-74760190D02*
X164170838Y-74712571D01*
X164170838Y-74712571D02*
X164123219Y-74760190D01*
X164123219Y-74760190D02*
X164218457Y-74760190D01*
X165075600Y-73855429D02*
X165123219Y-73950667D01*
X165123219Y-73950667D02*
X165123219Y-74141143D01*
X165123219Y-74141143D02*
X165075600Y-74236381D01*
X165075600Y-74236381D02*
X165027980Y-74284000D01*
X165027980Y-74284000D02*
X164932742Y-74331619D01*
X164932742Y-74331619D02*
X164647028Y-74331619D01*
X164647028Y-74331619D02*
X164551790Y-74284000D01*
X164551790Y-74284000D02*
X164504171Y-74236381D01*
X164504171Y-74236381D02*
X164456552Y-74141143D01*
X164456552Y-74141143D02*
X164456552Y-73950667D01*
X164456552Y-73950667D02*
X164504171Y-73855429D01*
X165123219Y-73426857D02*
X164456552Y-73426857D01*
X164647028Y-73426857D02*
X164551790Y-73379238D01*
X164551790Y-73379238D02*
X164504171Y-73331619D01*
X164504171Y-73331619D02*
X164456552Y-73236381D01*
X164456552Y-73236381D02*
X164456552Y-73141143D01*
X165123219Y-72664952D02*
X165075600Y-72760190D01*
X165075600Y-72760190D02*
X165027980Y-72807809D01*
X165027980Y-72807809D02*
X164932742Y-72855428D01*
X164932742Y-72855428D02*
X164647028Y-72855428D01*
X164647028Y-72855428D02*
X164551790Y-72807809D01*
X164551790Y-72807809D02*
X164504171Y-72760190D01*
X164504171Y-72760190D02*
X164456552Y-72664952D01*
X164456552Y-72664952D02*
X164456552Y-72522095D01*
X164456552Y-72522095D02*
X164504171Y-72426857D01*
X164504171Y-72426857D02*
X164551790Y-72379238D01*
X164551790Y-72379238D02*
X164647028Y-72331619D01*
X164647028Y-72331619D02*
X164932742Y-72331619D01*
X164932742Y-72331619D02*
X165027980Y-72379238D01*
X165027980Y-72379238D02*
X165075600Y-72426857D01*
X165075600Y-72426857D02*
X165123219Y-72522095D01*
X165123219Y-72522095D02*
X165123219Y-72664952D01*
X165075600Y-71188761D02*
X165123219Y-71045904D01*
X165123219Y-71045904D02*
X165123219Y-70807809D01*
X165123219Y-70807809D02*
X165075600Y-70712571D01*
X165075600Y-70712571D02*
X165027980Y-70664952D01*
X165027980Y-70664952D02*
X164932742Y-70617333D01*
X164932742Y-70617333D02*
X164837504Y-70617333D01*
X164837504Y-70617333D02*
X164742266Y-70664952D01*
X164742266Y-70664952D02*
X164694647Y-70712571D01*
X164694647Y-70712571D02*
X164647028Y-70807809D01*
X164647028Y-70807809D02*
X164599409Y-70998285D01*
X164599409Y-70998285D02*
X164551790Y-71093523D01*
X164551790Y-71093523D02*
X164504171Y-71141142D01*
X164504171Y-71141142D02*
X164408933Y-71188761D01*
X164408933Y-71188761D02*
X164313695Y-71188761D01*
X164313695Y-71188761D02*
X164218457Y-71141142D01*
X164218457Y-71141142D02*
X164170838Y-71093523D01*
X164170838Y-71093523D02*
X164123219Y-70998285D01*
X164123219Y-70998285D02*
X164123219Y-70760190D01*
X164123219Y-70760190D02*
X164170838Y-70617333D01*
X165123219Y-70188761D02*
X164123219Y-70188761D01*
X164123219Y-70188761D02*
X164123219Y-69950666D01*
X164123219Y-69950666D02*
X164170838Y-69807809D01*
X164170838Y-69807809D02*
X164266076Y-69712571D01*
X164266076Y-69712571D02*
X164361314Y-69664952D01*
X164361314Y-69664952D02*
X164551790Y-69617333D01*
X164551790Y-69617333D02*
X164694647Y-69617333D01*
X164694647Y-69617333D02*
X164885123Y-69664952D01*
X164885123Y-69664952D02*
X164980361Y-69712571D01*
X164980361Y-69712571D02*
X165075600Y-69807809D01*
X165075600Y-69807809D02*
X165123219Y-69950666D01*
X165123219Y-69950666D02*
X165123219Y-70188761D01*
X166612419Y-118689323D02*
X167421942Y-118689323D01*
X167421942Y-118689323D02*
X167517180Y-118641704D01*
X167517180Y-118641704D02*
X167564800Y-118594085D01*
X167564800Y-118594085D02*
X167612419Y-118498847D01*
X167612419Y-118498847D02*
X167612419Y-118308371D01*
X167612419Y-118308371D02*
X167564800Y-118213133D01*
X167564800Y-118213133D02*
X167517180Y-118165514D01*
X167517180Y-118165514D02*
X167421942Y-118117895D01*
X167421942Y-118117895D02*
X166612419Y-118117895D01*
X167564800Y-117689323D02*
X167612419Y-117546466D01*
X167612419Y-117546466D02*
X167612419Y-117308371D01*
X167612419Y-117308371D02*
X167564800Y-117213133D01*
X167564800Y-117213133D02*
X167517180Y-117165514D01*
X167517180Y-117165514D02*
X167421942Y-117117895D01*
X167421942Y-117117895D02*
X167326704Y-117117895D01*
X167326704Y-117117895D02*
X167231466Y-117165514D01*
X167231466Y-117165514D02*
X167183847Y-117213133D01*
X167183847Y-117213133D02*
X167136228Y-117308371D01*
X167136228Y-117308371D02*
X167088609Y-117498847D01*
X167088609Y-117498847D02*
X167040990Y-117594085D01*
X167040990Y-117594085D02*
X166993371Y-117641704D01*
X166993371Y-117641704D02*
X166898133Y-117689323D01*
X166898133Y-117689323D02*
X166802895Y-117689323D01*
X166802895Y-117689323D02*
X166707657Y-117641704D01*
X166707657Y-117641704D02*
X166660038Y-117594085D01*
X166660038Y-117594085D02*
X166612419Y-117498847D01*
X166612419Y-117498847D02*
X166612419Y-117260752D01*
X166612419Y-117260752D02*
X166660038Y-117117895D01*
X167088609Y-116355990D02*
X167136228Y-116213133D01*
X167136228Y-116213133D02*
X167183847Y-116165514D01*
X167183847Y-116165514D02*
X167279085Y-116117895D01*
X167279085Y-116117895D02*
X167421942Y-116117895D01*
X167421942Y-116117895D02*
X167517180Y-116165514D01*
X167517180Y-116165514D02*
X167564800Y-116213133D01*
X167564800Y-116213133D02*
X167612419Y-116308371D01*
X167612419Y-116308371D02*
X167612419Y-116689323D01*
X167612419Y-116689323D02*
X166612419Y-116689323D01*
X166612419Y-116689323D02*
X166612419Y-116355990D01*
X166612419Y-116355990D02*
X166660038Y-116260752D01*
X166660038Y-116260752D02*
X166707657Y-116213133D01*
X166707657Y-116213133D02*
X166802895Y-116165514D01*
X166802895Y-116165514D02*
X166898133Y-116165514D01*
X166898133Y-116165514D02*
X166993371Y-116213133D01*
X166993371Y-116213133D02*
X167040990Y-116260752D01*
X167040990Y-116260752D02*
X167088609Y-116355990D01*
X167088609Y-116355990D02*
X167088609Y-116689323D01*
X167612419Y-114927418D02*
X166612419Y-114927418D01*
X167088609Y-114927418D02*
X167088609Y-114355990D01*
X167612419Y-114355990D02*
X166612419Y-114355990D01*
X167612419Y-113736942D02*
X167564800Y-113832180D01*
X167564800Y-113832180D02*
X167517180Y-113879799D01*
X167517180Y-113879799D02*
X167421942Y-113927418D01*
X167421942Y-113927418D02*
X167136228Y-113927418D01*
X167136228Y-113927418D02*
X167040990Y-113879799D01*
X167040990Y-113879799D02*
X166993371Y-113832180D01*
X166993371Y-113832180D02*
X166945752Y-113736942D01*
X166945752Y-113736942D02*
X166945752Y-113594085D01*
X166945752Y-113594085D02*
X166993371Y-113498847D01*
X166993371Y-113498847D02*
X167040990Y-113451228D01*
X167040990Y-113451228D02*
X167136228Y-113403609D01*
X167136228Y-113403609D02*
X167421942Y-113403609D01*
X167421942Y-113403609D02*
X167517180Y-113451228D01*
X167517180Y-113451228D02*
X167564800Y-113498847D01*
X167564800Y-113498847D02*
X167612419Y-113594085D01*
X167612419Y-113594085D02*
X167612419Y-113736942D01*
X167564800Y-113022656D02*
X167612419Y-112927418D01*
X167612419Y-112927418D02*
X167612419Y-112736942D01*
X167612419Y-112736942D02*
X167564800Y-112641704D01*
X167564800Y-112641704D02*
X167469561Y-112594085D01*
X167469561Y-112594085D02*
X167421942Y-112594085D01*
X167421942Y-112594085D02*
X167326704Y-112641704D01*
X167326704Y-112641704D02*
X167279085Y-112736942D01*
X167279085Y-112736942D02*
X167279085Y-112879799D01*
X167279085Y-112879799D02*
X167231466Y-112975037D01*
X167231466Y-112975037D02*
X167136228Y-113022656D01*
X167136228Y-113022656D02*
X167088609Y-113022656D01*
X167088609Y-113022656D02*
X166993371Y-112975037D01*
X166993371Y-112975037D02*
X166945752Y-112879799D01*
X166945752Y-112879799D02*
X166945752Y-112736942D01*
X166945752Y-112736942D02*
X166993371Y-112641704D01*
X166945752Y-112308370D02*
X166945752Y-111927418D01*
X166612419Y-112165513D02*
X167469561Y-112165513D01*
X167469561Y-112165513D02*
X167564800Y-112117894D01*
X167564800Y-112117894D02*
X167612419Y-112022656D01*
X167612419Y-112022656D02*
X167612419Y-111927418D01*
X146320733Y-138854180D02*
X146273114Y-138901800D01*
X146273114Y-138901800D02*
X146130257Y-138949419D01*
X146130257Y-138949419D02*
X146035019Y-138949419D01*
X146035019Y-138949419D02*
X145892162Y-138901800D01*
X145892162Y-138901800D02*
X145796924Y-138806561D01*
X145796924Y-138806561D02*
X145749305Y-138711323D01*
X145749305Y-138711323D02*
X145701686Y-138520847D01*
X145701686Y-138520847D02*
X145701686Y-138377990D01*
X145701686Y-138377990D02*
X145749305Y-138187514D01*
X145749305Y-138187514D02*
X145796924Y-138092276D01*
X145796924Y-138092276D02*
X145892162Y-137997038D01*
X145892162Y-137997038D02*
X146035019Y-137949419D01*
X146035019Y-137949419D02*
X146130257Y-137949419D01*
X146130257Y-137949419D02*
X146273114Y-137997038D01*
X146273114Y-137997038D02*
X146320733Y-138044657D01*
X146701686Y-138044657D02*
X146749305Y-137997038D01*
X146749305Y-137997038D02*
X146844543Y-137949419D01*
X146844543Y-137949419D02*
X147082638Y-137949419D01*
X147082638Y-137949419D02*
X147177876Y-137997038D01*
X147177876Y-137997038D02*
X147225495Y-138044657D01*
X147225495Y-138044657D02*
X147273114Y-138139895D01*
X147273114Y-138139895D02*
X147273114Y-138235133D01*
X147273114Y-138235133D02*
X147225495Y-138377990D01*
X147225495Y-138377990D02*
X146654067Y-138949419D01*
X146654067Y-138949419D02*
X147273114Y-138949419D01*
X109326666Y-128981009D02*
X108993333Y-128981009D01*
X108993333Y-129504819D02*
X108993333Y-128504819D01*
X108993333Y-128504819D02*
X109469523Y-128504819D01*
X110183809Y-128981009D02*
X110326666Y-129028628D01*
X110326666Y-129028628D02*
X110374285Y-129076247D01*
X110374285Y-129076247D02*
X110421904Y-129171485D01*
X110421904Y-129171485D02*
X110421904Y-129314342D01*
X110421904Y-129314342D02*
X110374285Y-129409580D01*
X110374285Y-129409580D02*
X110326666Y-129457200D01*
X110326666Y-129457200D02*
X110231428Y-129504819D01*
X110231428Y-129504819D02*
X109850476Y-129504819D01*
X109850476Y-129504819D02*
X109850476Y-128504819D01*
X109850476Y-128504819D02*
X110183809Y-128504819D01*
X110183809Y-128504819D02*
X110279047Y-128552438D01*
X110279047Y-128552438D02*
X110326666Y-128600057D01*
X110326666Y-128600057D02*
X110374285Y-128695295D01*
X110374285Y-128695295D02*
X110374285Y-128790533D01*
X110374285Y-128790533D02*
X110326666Y-128885771D01*
X110326666Y-128885771D02*
X110279047Y-128933390D01*
X110279047Y-128933390D02*
X110183809Y-128981009D01*
X110183809Y-128981009D02*
X109850476Y-128981009D01*
X110802857Y-128600057D02*
X110850476Y-128552438D01*
X110850476Y-128552438D02*
X110945714Y-128504819D01*
X110945714Y-128504819D02*
X111183809Y-128504819D01*
X111183809Y-128504819D02*
X111279047Y-128552438D01*
X111279047Y-128552438D02*
X111326666Y-128600057D01*
X111326666Y-128600057D02*
X111374285Y-128695295D01*
X111374285Y-128695295D02*
X111374285Y-128790533D01*
X111374285Y-128790533D02*
X111326666Y-128933390D01*
X111326666Y-128933390D02*
X110755238Y-129504819D01*
X110755238Y-129504819D02*
X111374285Y-129504819D01*
X118541876Y-75744019D02*
X118541876Y-76458304D01*
X118541876Y-76458304D02*
X118494257Y-76601161D01*
X118494257Y-76601161D02*
X118399019Y-76696400D01*
X118399019Y-76696400D02*
X118256162Y-76744019D01*
X118256162Y-76744019D02*
X118160924Y-76744019D01*
X119541876Y-76744019D02*
X118970448Y-76744019D01*
X119256162Y-76744019D02*
X119256162Y-75744019D01*
X119256162Y-75744019D02*
X119160924Y-75886876D01*
X119160924Y-75886876D02*
X119065686Y-75982114D01*
X119065686Y-75982114D02*
X118970448Y-76029733D01*
X120494257Y-76744019D02*
X119922829Y-76744019D01*
X120208543Y-76744019D02*
X120208543Y-75744019D01*
X120208543Y-75744019D02*
X120113305Y-75886876D01*
X120113305Y-75886876D02*
X120018067Y-75982114D01*
X120018067Y-75982114D02*
X119922829Y-76029733D01*
D13*
X132816895Y-111662219D02*
X132816895Y-112471742D01*
X132816895Y-112471742D02*
X132864514Y-112566980D01*
X132864514Y-112566980D02*
X132912133Y-112614600D01*
X132912133Y-112614600D02*
X133007371Y-112662219D01*
X133007371Y-112662219D02*
X133197847Y-112662219D01*
X133197847Y-112662219D02*
X133293085Y-112614600D01*
X133293085Y-112614600D02*
X133340704Y-112566980D01*
X133340704Y-112566980D02*
X133388323Y-112471742D01*
X133388323Y-112471742D02*
X133388323Y-111662219D01*
X133769276Y-111662219D02*
X134388323Y-111662219D01*
X134388323Y-111662219D02*
X134054990Y-112043171D01*
X134054990Y-112043171D02*
X134197847Y-112043171D01*
X134197847Y-112043171D02*
X134293085Y-112090790D01*
X134293085Y-112090790D02*
X134340704Y-112138409D01*
X134340704Y-112138409D02*
X134388323Y-112233647D01*
X134388323Y-112233647D02*
X134388323Y-112471742D01*
X134388323Y-112471742D02*
X134340704Y-112566980D01*
X134340704Y-112566980D02*
X134293085Y-112614600D01*
X134293085Y-112614600D02*
X134197847Y-112662219D01*
X134197847Y-112662219D02*
X133912133Y-112662219D01*
X133912133Y-112662219D02*
X133816895Y-112614600D01*
X133816895Y-112614600D02*
X133769276Y-112566980D01*
D10*
X138279238Y-116758725D02*
X136279238Y-116758725D01*
X136279238Y-116758725D02*
X136279238Y-115996820D01*
X136279238Y-115996820D02*
X136374476Y-115806344D01*
X136374476Y-115806344D02*
X136469714Y-115711106D01*
X136469714Y-115711106D02*
X136660190Y-115615868D01*
X136660190Y-115615868D02*
X136945904Y-115615868D01*
X136945904Y-115615868D02*
X137136380Y-115711106D01*
X137136380Y-115711106D02*
X137231619Y-115806344D01*
X137231619Y-115806344D02*
X137326857Y-115996820D01*
X137326857Y-115996820D02*
X137326857Y-116758725D01*
X138088761Y-113615868D02*
X138184000Y-113711106D01*
X138184000Y-113711106D02*
X138279238Y-113996820D01*
X138279238Y-113996820D02*
X138279238Y-114187296D01*
X138279238Y-114187296D02*
X138184000Y-114473011D01*
X138184000Y-114473011D02*
X137993523Y-114663487D01*
X137993523Y-114663487D02*
X137803047Y-114758725D01*
X137803047Y-114758725D02*
X137422095Y-114853963D01*
X137422095Y-114853963D02*
X137136380Y-114853963D01*
X137136380Y-114853963D02*
X136755428Y-114758725D01*
X136755428Y-114758725D02*
X136564952Y-114663487D01*
X136564952Y-114663487D02*
X136374476Y-114473011D01*
X136374476Y-114473011D02*
X136279238Y-114187296D01*
X136279238Y-114187296D02*
X136279238Y-113996820D01*
X136279238Y-113996820D02*
X136374476Y-113711106D01*
X136374476Y-113711106D02*
X136469714Y-113615868D01*
X138279238Y-112758725D02*
X136279238Y-112758725D01*
X136279238Y-112758725D02*
X137707809Y-112092058D01*
X137707809Y-112092058D02*
X136279238Y-111425392D01*
X136279238Y-111425392D02*
X138279238Y-111425392D01*
X136279238Y-109520630D02*
X136279238Y-110473011D01*
X136279238Y-110473011D02*
X137231619Y-110568249D01*
X137231619Y-110568249D02*
X137136380Y-110473011D01*
X137136380Y-110473011D02*
X137041142Y-110282535D01*
X137041142Y-110282535D02*
X137041142Y-109806344D01*
X137041142Y-109806344D02*
X137136380Y-109615868D01*
X137136380Y-109615868D02*
X137231619Y-109520630D01*
X137231619Y-109520630D02*
X137422095Y-109425392D01*
X137422095Y-109425392D02*
X137898285Y-109425392D01*
X137898285Y-109425392D02*
X138088761Y-109520630D01*
X138088761Y-109520630D02*
X138184000Y-109615868D01*
X138184000Y-109615868D02*
X138279238Y-109806344D01*
X138279238Y-109806344D02*
X138279238Y-110282535D01*
X138279238Y-110282535D02*
X138184000Y-110473011D01*
X138184000Y-110473011D02*
X138088761Y-110568249D01*
X138279238Y-107520630D02*
X138279238Y-108663487D01*
X138279238Y-108092059D02*
X136279238Y-108092059D01*
X136279238Y-108092059D02*
X136564952Y-108282535D01*
X136564952Y-108282535D02*
X136755428Y-108473011D01*
X136755428Y-108473011D02*
X136850666Y-108663487D01*
X136279238Y-106282535D02*
X136279238Y-106092058D01*
X136279238Y-106092058D02*
X136374476Y-105901582D01*
X136374476Y-105901582D02*
X136469714Y-105806344D01*
X136469714Y-105806344D02*
X136660190Y-105711106D01*
X136660190Y-105711106D02*
X137041142Y-105615868D01*
X137041142Y-105615868D02*
X137517333Y-105615868D01*
X137517333Y-105615868D02*
X137898285Y-105711106D01*
X137898285Y-105711106D02*
X138088761Y-105806344D01*
X138088761Y-105806344D02*
X138184000Y-105901582D01*
X138184000Y-105901582D02*
X138279238Y-106092058D01*
X138279238Y-106092058D02*
X138279238Y-106282535D01*
X138279238Y-106282535D02*
X138184000Y-106473011D01*
X138184000Y-106473011D02*
X138088761Y-106568249D01*
X138088761Y-106568249D02*
X137898285Y-106663487D01*
X137898285Y-106663487D02*
X137517333Y-106758725D01*
X137517333Y-106758725D02*
X137041142Y-106758725D01*
X137041142Y-106758725D02*
X136660190Y-106663487D01*
X136660190Y-106663487D02*
X136469714Y-106568249D01*
X136469714Y-106568249D02*
X136374476Y-106473011D01*
X136374476Y-106473011D02*
X136279238Y-106282535D01*
X136469714Y-104853963D02*
X136374476Y-104758725D01*
X136374476Y-104758725D02*
X136279238Y-104568249D01*
X136279238Y-104568249D02*
X136279238Y-104092058D01*
X136279238Y-104092058D02*
X136374476Y-103901582D01*
X136374476Y-103901582D02*
X136469714Y-103806344D01*
X136469714Y-103806344D02*
X136660190Y-103711106D01*
X136660190Y-103711106D02*
X136850666Y-103711106D01*
X136850666Y-103711106D02*
X137136380Y-103806344D01*
X137136380Y-103806344D02*
X138279238Y-104949201D01*
X138279238Y-104949201D02*
X138279238Y-103711106D01*
X180478333Y-104690380D02*
X180430714Y-104738000D01*
X180430714Y-104738000D02*
X180287857Y-104785619D01*
X180287857Y-104785619D02*
X180192619Y-104785619D01*
X180192619Y-104785619D02*
X180049762Y-104738000D01*
X180049762Y-104738000D02*
X179954524Y-104642761D01*
X179954524Y-104642761D02*
X179906905Y-104547523D01*
X179906905Y-104547523D02*
X179859286Y-104357047D01*
X179859286Y-104357047D02*
X179859286Y-104214190D01*
X179859286Y-104214190D02*
X179906905Y-104023714D01*
X179906905Y-104023714D02*
X179954524Y-103928476D01*
X179954524Y-103928476D02*
X180049762Y-103833238D01*
X180049762Y-103833238D02*
X180192619Y-103785619D01*
X180192619Y-103785619D02*
X180287857Y-103785619D01*
X180287857Y-103785619D02*
X180430714Y-103833238D01*
X180430714Y-103833238D02*
X180478333Y-103880857D01*
X181430714Y-104785619D02*
X180859286Y-104785619D01*
X181145000Y-104785619D02*
X181145000Y-103785619D01*
X181145000Y-103785619D02*
X181049762Y-103928476D01*
X181049762Y-103928476D02*
X180954524Y-104023714D01*
X180954524Y-104023714D02*
X180859286Y-104071333D01*
D14*
X157907600Y-131228236D02*
X157907600Y-132682364D01*
X156087600Y-131228236D02*
X156087600Y-132682364D01*
D13*
X134399400Y-127018400D02*
X134399400Y-127518400D01*
X134399400Y-127018400D02*
X133899400Y-127018400D01*
X128399400Y-127018400D02*
X128899400Y-127018400D01*
X128399400Y-127018400D02*
X128399400Y-127518400D01*
X128399400Y-137218400D02*
X128899400Y-137218400D01*
X128399400Y-137218400D02*
X128399400Y-136718400D01*
X134399400Y-137218400D02*
X133899400Y-137218400D01*
X134399400Y-137218400D02*
X134399400Y-136718400D01*
D14*
X153996000Y-134351748D02*
X153996000Y-135774252D01*
X152176000Y-134351748D02*
X152176000Y-135774252D01*
X116456242Y-85844000D02*
X114785758Y-85844000D01*
X116456242Y-87664000D02*
X114785758Y-87664000D01*
X146686364Y-66413000D02*
X145232236Y-66413000D01*
X146686364Y-68233000D02*
X145232236Y-68233000D01*
X113512748Y-116324000D02*
X114935252Y-116324000D01*
X113512748Y-118144000D02*
X114935252Y-118144000D01*
X121744252Y-85844000D02*
X120321748Y-85844000D01*
X121744252Y-87664000D02*
X120321748Y-87664000D01*
X109375758Y-135120000D02*
X111046242Y-135120000D01*
X109375758Y-136940000D02*
X111046242Y-136940000D01*
X186603152Y-126433200D02*
X185180648Y-126433200D01*
X186603152Y-128253200D02*
X185180648Y-128253200D01*
X114861758Y-98036000D02*
X116532242Y-98036000D01*
X114861758Y-99856000D02*
X116532242Y-99856000D01*
D15*
X97111400Y-68251400D02*
X100211400Y-68251400D01*
X97111400Y-68751400D02*
X97111400Y-68251400D01*
X97111400Y-73751400D02*
X97111400Y-68751400D01*
X97111400Y-74251400D02*
X97111400Y-73751400D01*
X97111400Y-74251400D02*
X98211400Y-74251400D01*
X100811400Y-74251400D02*
X107311400Y-74251400D01*
X102811400Y-68251400D02*
X111611400Y-68251400D01*
X110511400Y-74251400D02*
X111611400Y-74251400D01*
D14*
X111611400Y-68251400D02*
X111609600Y-68914600D01*
X111611400Y-74251400D02*
X111609600Y-72115000D01*
X114076000Y-136793748D02*
X114076000Y-138216252D01*
X115896000Y-136793748D02*
X115896000Y-138216252D01*
X115110242Y-113022000D02*
X113439758Y-113022000D01*
X115110242Y-114842000D02*
X113439758Y-114842000D01*
X180797400Y-93063200D02*
X178847400Y-93063200D01*
X180797400Y-93063200D02*
X182747400Y-93063200D01*
X180797400Y-101933200D02*
X178847400Y-101933200D01*
X180797400Y-101933200D02*
X182747400Y-101933200D01*
X183737400Y-102198200D02*
X183257400Y-102198200D01*
X183497400Y-101868200D01*
X183737400Y-102198200D01*
G36*
X183737400Y-102198200D02*
G01*
X183257400Y-102198200D01*
X183497400Y-101868200D01*
X183737400Y-102198200D01*
G37*
X114076000Y-124852252D02*
X114076000Y-123429748D01*
X115896000Y-124852252D02*
X115896000Y-123429748D01*
D15*
X97120000Y-91120000D02*
X100220000Y-91120000D01*
X97120000Y-91620000D02*
X97120000Y-91120000D01*
X97120000Y-96620000D02*
X97120000Y-91620000D01*
X97120000Y-97120000D02*
X97120000Y-96620000D01*
X97120000Y-97120000D02*
X98220000Y-97120000D01*
X100820000Y-97120000D02*
X107320000Y-97120000D01*
X102820000Y-91120000D02*
X111620000Y-91120000D01*
X110520000Y-97120000D02*
X111620000Y-97120000D01*
D14*
X111620000Y-91120000D02*
X111618200Y-91783200D01*
X111620000Y-97120000D02*
X111618200Y-94983600D01*
X181765700Y-131836200D02*
X181767500Y-133972600D01*
X181765700Y-137836200D02*
X181767500Y-137173000D01*
D15*
X182865700Y-131836200D02*
X181765700Y-131836200D01*
X190565700Y-137836200D02*
X181765700Y-137836200D01*
X192565700Y-131836200D02*
X186065700Y-131836200D01*
X196265700Y-131836200D02*
X195165700Y-131836200D01*
X196265700Y-131836200D02*
X196265700Y-132336200D01*
X196265700Y-132336200D02*
X196265700Y-137336200D01*
X196265700Y-137336200D02*
X196265700Y-137836200D01*
X196265700Y-137836200D02*
X193165700Y-137836200D01*
D14*
X146741164Y-74490200D02*
X145287036Y-74490200D01*
X146741164Y-76310200D02*
X145287036Y-76310200D01*
X137851348Y-135582200D02*
X139273852Y-135582200D01*
X137851348Y-137402200D02*
X139273852Y-137402200D01*
D15*
X97111400Y-56821400D02*
X100211400Y-56821400D01*
X97111400Y-57321400D02*
X97111400Y-56821400D01*
X97111400Y-62321400D02*
X97111400Y-57321400D01*
X97111400Y-62821400D02*
X97111400Y-62321400D01*
X97111400Y-62821400D02*
X98211400Y-62821400D01*
X100811400Y-62821400D02*
X107311400Y-62821400D01*
X102811400Y-56821400D02*
X111611400Y-56821400D01*
X110511400Y-62821400D02*
X111611400Y-62821400D01*
D14*
X111611400Y-56821400D02*
X111609600Y-57484600D01*
X111611400Y-62821400D02*
X111609600Y-60685000D01*
D10*
X124023800Y-56298400D02*
X152023800Y-56298400D01*
X152023800Y-91148400D01*
X124023800Y-91148400D01*
X124023800Y-56298400D01*
D14*
X192176652Y-123893200D02*
X190754148Y-123893200D01*
X192176652Y-125713200D02*
X190754148Y-125713200D01*
X119458252Y-94861000D02*
X118035748Y-94861000D01*
X119458252Y-96681000D02*
X118035748Y-96681000D01*
D15*
X97111400Y-79681400D02*
X100211400Y-79681400D01*
X97111400Y-80181400D02*
X97111400Y-79681400D01*
X97111400Y-85181400D02*
X97111400Y-80181400D01*
X97111400Y-85681400D02*
X97111400Y-85181400D01*
X97111400Y-85681400D02*
X98211400Y-85681400D01*
X100811400Y-85681400D02*
X107311400Y-85681400D01*
X102811400Y-79681400D02*
X111611400Y-79681400D01*
X110511400Y-85681400D02*
X111611400Y-85681400D01*
D14*
X111611400Y-79681400D02*
X111609600Y-80344600D01*
X111611400Y-85681400D02*
X111609600Y-83545000D01*
X116380242Y-89146000D02*
X114709758Y-89146000D01*
X116380242Y-90966000D02*
X114709758Y-90966000D01*
D13*
X137388800Y-128564600D02*
X137388800Y-129064600D01*
X137388800Y-128564600D02*
X137888800Y-128564600D01*
X137388800Y-134564600D02*
X137388800Y-134064600D01*
X137388800Y-134564600D02*
X137888800Y-134564600D01*
X150088800Y-128564600D02*
X149588800Y-128564600D01*
X150088800Y-128564600D02*
X150088800Y-129064600D01*
X150088800Y-134564600D02*
X149588800Y-134564600D01*
X150088800Y-134564600D02*
X150088800Y-134064600D01*
D14*
X109324758Y-124960000D02*
X110995242Y-124960000D01*
X109324758Y-126780000D02*
X110995242Y-126780000D01*
X119283000Y-92213252D02*
X119283000Y-90790748D01*
X121103000Y-92213252D02*
X121103000Y-90790748D01*
X146741164Y-71213600D02*
X145287036Y-71213600D01*
X146741164Y-73033600D02*
X145287036Y-73033600D01*
D13*
X178148000Y-67896600D02*
X178148000Y-68396600D01*
X178148000Y-67896600D02*
X178648000Y-67896600D01*
X178148000Y-76096600D02*
X178148000Y-75596600D01*
X178148000Y-76096600D02*
X178648000Y-76096600D01*
X184148000Y-67896600D02*
X183648000Y-67896600D01*
X184148000Y-67896600D02*
X184148000Y-68396600D01*
X184148000Y-76096600D02*
X183648000Y-76096600D01*
X184148000Y-76096600D02*
X184148000Y-75596600D01*
X115415000Y-65358000D02*
X115415000Y-65858000D01*
X115415000Y-65358000D02*
X115915000Y-65358000D01*
X115415000Y-75558000D02*
X115415000Y-75058000D01*
X115415000Y-75558000D02*
X115915000Y-75558000D01*
X121415000Y-65358000D02*
X120915000Y-65358000D01*
X121415000Y-65358000D02*
X121415000Y-65858000D01*
X121415000Y-75558000D02*
X120915000Y-75558000D01*
X121415000Y-75558000D02*
X121415000Y-75058000D01*
D14*
X114076000Y-130342252D02*
X114076000Y-128919748D01*
X115896000Y-130342252D02*
X115896000Y-128919748D01*
X95320000Y-120290000D02*
X95320000Y-121290000D01*
X95320000Y-121290000D02*
X96320000Y-120790000D01*
X96320000Y-120790000D02*
X95320000Y-120290000D01*
X96710000Y-115580000D02*
X105830000Y-115580000D01*
X96710000Y-127630000D02*
X98020000Y-127630000D01*
X96710000Y-143780000D02*
X96710000Y-115580000D01*
X98020000Y-116880000D02*
X104520000Y-116880000D01*
X98020000Y-127630000D02*
X98020000Y-116880000D01*
X98020000Y-131730000D02*
X96710000Y-131730000D01*
X98020000Y-131730000D02*
X98020000Y-131730000D01*
X98020000Y-142480000D02*
X98020000Y-131730000D01*
X104520000Y-116880000D02*
X104520000Y-142480000D01*
X104520000Y-142480000D02*
X98020000Y-142480000D01*
X105830000Y-115580000D02*
X105830000Y-143780000D01*
X105830000Y-143780000D02*
X96710000Y-143780000D01*
D10*
X155778400Y-66434000D02*
X173558400Y-66434000D01*
X155778400Y-127394000D02*
X155778400Y-66434000D01*
X158316800Y-110164000D02*
X158316800Y-114164000D01*
X158316800Y-114164000D02*
X158566800Y-114164000D01*
X158318400Y-66434000D02*
X158318400Y-79134000D01*
X158318400Y-79134000D02*
X171018400Y-79134000D01*
X158318400Y-91834000D02*
X158318400Y-104534000D01*
X158318400Y-104534000D02*
X171018400Y-104534000D01*
X158566800Y-114164000D02*
X164566800Y-114164000D01*
X159588400Y-66434000D02*
X159588400Y-67704000D01*
X159588400Y-67704000D02*
X169748400Y-67704000D01*
X160858400Y-122314000D02*
X160858400Y-127394000D01*
X160858400Y-128664000D02*
X160858400Y-127394000D01*
X163398400Y-82944000D02*
X165938400Y-82944000D01*
X163398400Y-86754000D02*
X163398400Y-82944000D01*
X164566800Y-110164000D02*
X158316800Y-110164000D01*
X164566800Y-114164000D02*
X164566800Y-110164000D01*
X165938400Y-82944000D02*
X165938400Y-86754000D01*
X165938400Y-86754000D02*
X163398400Y-86754000D01*
X167967600Y-108394800D02*
X170507600Y-108394800D01*
X167967600Y-118554800D02*
X170507600Y-118554800D01*
X167967600Y-121094800D02*
X167967600Y-108394800D01*
X167967600Y-121094800D02*
X167967600Y-118554800D01*
X168478400Y-122314000D02*
X160858400Y-122314000D01*
X168478400Y-122314000D02*
X168478400Y-127394000D01*
X168478400Y-127394000D02*
X168478400Y-128664000D01*
X168478400Y-128664000D02*
X160858400Y-128664000D01*
X169748400Y-67704000D02*
X169748400Y-66434000D01*
X170507600Y-108394800D02*
X170507600Y-121094800D01*
X170507600Y-121094800D02*
X167967600Y-121094800D01*
X171018400Y-79134000D02*
X171018400Y-66434000D01*
X171018400Y-91834000D02*
X158318400Y-91834000D01*
X171018400Y-104534000D02*
X171018400Y-91834000D01*
X173558400Y-66434000D02*
X173558400Y-127394000D01*
X173558400Y-127394000D02*
X155778400Y-127394000D01*
X165566426Y-84849000D02*
G75*
G02*
X163770374Y-84849000I-898026J0D01*
G01*
X163770374Y-84849000D02*
G75*
G02*
X165566426Y-84849000I898026J0D01*
G01*
D13*
X164234400Y-96257000D02*
X163853400Y-96511000D01*
X163599400Y-96257000D01*
X163980400Y-96003000D01*
X164234400Y-96257000D01*
G36*
X164234400Y-96257000D02*
G01*
X163853400Y-96511000D01*
X163599400Y-96257000D01*
X163980400Y-96003000D01*
X164234400Y-96257000D01*
G37*
X164361400Y-95495000D02*
X163980400Y-95749000D01*
X163726400Y-95495000D01*
X164107400Y-95241000D01*
X164361400Y-95495000D01*
G36*
X164361400Y-95495000D02*
G01*
X163980400Y-95749000D01*
X163726400Y-95495000D01*
X164107400Y-95241000D01*
X164361400Y-95495000D01*
G37*
X164615400Y-93971000D02*
X164234400Y-94225000D01*
X163980400Y-93971000D01*
X164361400Y-93717000D01*
X164615400Y-93971000D01*
G36*
X164615400Y-93971000D02*
G01*
X164234400Y-94225000D01*
X163980400Y-93971000D01*
X164361400Y-93717000D01*
X164615400Y-93971000D01*
G37*
X164742400Y-95876000D02*
X164361400Y-96130000D01*
X164107400Y-95876000D01*
X164488400Y-95622000D01*
X164742400Y-95876000D01*
G36*
X164742400Y-95876000D02*
G01*
X164361400Y-96130000D01*
X164107400Y-95876000D01*
X164488400Y-95622000D01*
X164742400Y-95876000D01*
G37*
X164869400Y-95114000D02*
X164488400Y-95368000D01*
X164234400Y-95114000D01*
X164615400Y-94860000D01*
X164869400Y-95114000D01*
G36*
X164869400Y-95114000D02*
G01*
X164488400Y-95368000D01*
X164234400Y-95114000D01*
X164615400Y-94860000D01*
X164869400Y-95114000D01*
G37*
X164996400Y-94352000D02*
X164615400Y-94606000D01*
X164361400Y-94352000D01*
X164742400Y-94098000D01*
X164996400Y-94352000D01*
G36*
X164996400Y-94352000D02*
G01*
X164615400Y-94606000D01*
X164361400Y-94352000D01*
X164742400Y-94098000D01*
X164996400Y-94352000D01*
G37*
X165250400Y-95495000D02*
X164869400Y-95749000D01*
X164615400Y-95495000D01*
X164996400Y-95241000D01*
X165250400Y-95495000D01*
G36*
X165250400Y-95495000D02*
G01*
X164869400Y-95749000D01*
X164615400Y-95495000D01*
X164996400Y-95241000D01*
X165250400Y-95495000D01*
G37*
X165377400Y-94733000D02*
X164996400Y-94987000D01*
X164742400Y-94733000D01*
X165123400Y-94479000D01*
X165377400Y-94733000D01*
G36*
X165377400Y-94733000D02*
G01*
X164996400Y-94987000D01*
X164742400Y-94733000D01*
X165123400Y-94479000D01*
X165377400Y-94733000D01*
G37*
D14*
X147198652Y-135734600D02*
X145776148Y-135734600D01*
X147198652Y-137554600D02*
X145776148Y-137554600D01*
X109324758Y-130040000D02*
X110995242Y-130040000D01*
X109324758Y-131860000D02*
X110995242Y-131860000D01*
D13*
X114951400Y-76946800D02*
X114951400Y-77446800D01*
X114951400Y-76946800D02*
X115451400Y-76946800D01*
X114951400Y-82946800D02*
X114951400Y-82446800D01*
X114951400Y-82946800D02*
X115451400Y-82946800D01*
X123151400Y-76946800D02*
X122651400Y-76946800D01*
X123151400Y-76946800D02*
X123151400Y-77446800D01*
X123151400Y-82946800D02*
X122651400Y-82946800D01*
X123151400Y-82946800D02*
X123151400Y-82446800D01*
X134721800Y-94604600D02*
X151993800Y-94604600D01*
X151993800Y-126350600D01*
X134721800Y-126350600D01*
X134721800Y-94604600D01*
D14*
X177423600Y-104279948D02*
X177423600Y-105702452D01*
X179243600Y-104279948D02*
X179243600Y-105702452D01*
%LPC*%
D16*
X156997600Y-130492800D03*
X156997600Y-133417800D03*
D17*
X131399400Y-134618400D03*
X131399400Y-132118400D03*
X131399400Y-129618400D03*
D18*
X153086000Y-133588000D03*
X153086000Y-136538000D03*
D19*
X117196000Y-86754000D03*
X114046000Y-86754000D03*
D20*
X147421800Y-67323000D03*
X144496800Y-67323000D03*
D21*
X112749000Y-117234000D03*
X115699000Y-117234000D03*
D22*
X122508000Y-86754000D03*
X119558000Y-86754000D03*
D23*
X108636000Y-136030000D03*
X111786000Y-136030000D03*
D22*
X187366900Y-127343200D03*
X184416900Y-127343200D03*
D23*
X114122000Y-98946000D03*
X117272000Y-98946000D03*
D24*
X100611400Y-71251400D03*
X107611400Y-71251400D03*
D25*
X99511400Y-74951400D03*
D26*
X108911400Y-74951400D03*
D25*
X101511400Y-67551400D03*
D27*
X112911400Y-70501400D03*
D18*
X114986000Y-136030000D03*
X114986000Y-138980000D03*
D19*
X115850000Y-113932000D03*
X112700000Y-113932000D03*
D28*
X183272400Y-101308200D03*
X183272400Y-100038200D03*
X183272400Y-98768200D03*
X183272400Y-97498200D03*
X183272400Y-96228200D03*
X183272400Y-94958200D03*
X183272400Y-93688200D03*
X178322400Y-93688200D03*
X178322400Y-94958200D03*
X178322400Y-96228200D03*
X178322400Y-97498200D03*
X178322400Y-98768200D03*
X178322400Y-100038200D03*
X178322400Y-101308200D03*
D29*
X114986000Y-125616000D03*
X114986000Y-122666000D03*
D24*
X100620000Y-94120000D03*
X107620000Y-94120000D03*
D25*
X99520000Y-97820000D03*
D26*
X108920000Y-97820000D03*
D25*
X101520000Y-90420000D03*
D27*
X112920000Y-93370000D03*
D24*
X192765700Y-134836200D03*
X185765700Y-134836200D03*
D25*
X193865700Y-131136200D03*
D26*
X184465700Y-131136200D03*
D25*
X191865700Y-138536200D03*
D27*
X180465700Y-135586200D03*
D20*
X147476600Y-75400200D03*
X144551600Y-75400200D03*
D21*
X137087600Y-136492200D03*
X140037600Y-136492200D03*
D24*
X100611400Y-59821400D03*
X107611400Y-59821400D03*
D25*
X99511400Y-63521400D03*
D26*
X108911400Y-63521400D03*
D25*
X101511400Y-56121400D03*
D27*
X112911400Y-59071400D03*
D17*
X125323800Y-67348400D03*
X125323800Y-69888400D03*
X125323800Y-72428400D03*
X125323800Y-74968400D03*
X125323800Y-77508400D03*
X125323800Y-80048400D03*
X150723800Y-80048400D03*
X150723800Y-77508400D03*
X150723800Y-74968400D03*
X150723800Y-72428400D03*
X150723800Y-69888400D03*
X150723800Y-67348400D03*
X140563800Y-57696400D03*
X138023800Y-57696400D03*
X135483800Y-57696400D03*
D22*
X192940400Y-124803200D03*
X189990400Y-124803200D03*
X120222000Y-95771000D03*
X117272000Y-95771000D03*
D24*
X100611400Y-82681400D03*
X107611400Y-82681400D03*
D25*
X99511400Y-86381400D03*
D26*
X108911400Y-86381400D03*
D25*
X101511400Y-78981400D03*
D27*
X112911400Y-81931400D03*
D19*
X117120000Y-90056000D03*
X113970000Y-90056000D03*
D17*
X139988800Y-131564600D03*
X142488800Y-131564600D03*
X144988800Y-131564600D03*
X147488800Y-131564600D03*
D23*
X108585000Y-125870000D03*
X111735000Y-125870000D03*
D29*
X120193000Y-92977000D03*
X120193000Y-90027000D03*
D20*
X147476600Y-72123600D03*
X144551600Y-72123600D03*
D17*
X181148000Y-70496600D03*
X181148000Y-72996600D03*
X118415000Y-72958000D03*
X118415000Y-70458000D03*
X118415000Y-67958000D03*
D29*
X114986000Y-131106000D03*
X114986000Y-128156000D03*
D30*
X100000000Y-120790000D03*
D24*
X102540000Y-120790000D03*
X100000000Y-123330000D03*
X102540000Y-123330000D03*
X100000000Y-125870000D03*
X102540000Y-125870000D03*
X100000000Y-128410000D03*
X102540000Y-128410000D03*
X100000000Y-130950000D03*
X102540000Y-130950000D03*
X100000000Y-133490000D03*
X102540000Y-133490000D03*
X100000000Y-136030000D03*
X102540000Y-136030000D03*
X100000000Y-138570000D03*
X102540000Y-138570000D03*
D31*
X172288400Y-126124000D03*
D32*
X172288400Y-123584000D03*
X172288400Y-121044000D03*
X172288400Y-118504000D03*
X172288400Y-115964000D03*
X172288400Y-113424000D03*
X172288400Y-110884000D03*
X172288400Y-108344000D03*
X172288400Y-105804000D03*
X172288400Y-103264000D03*
X172288400Y-100724000D03*
X172288400Y-98184000D03*
X172288400Y-95644000D03*
X172288400Y-93104000D03*
X172288400Y-90564000D03*
X172288400Y-88024000D03*
X172288400Y-85484000D03*
X172288400Y-82944000D03*
X172288400Y-80404000D03*
X172288400Y-77864000D03*
X172288400Y-75324000D03*
X172288400Y-72784000D03*
X172288400Y-70244000D03*
X172288400Y-67704000D03*
X157048400Y-67704000D03*
X157048400Y-70244000D03*
X157048400Y-72784000D03*
X157048400Y-75324000D03*
X157048400Y-77864000D03*
X157048400Y-80404000D03*
X157048400Y-82944000D03*
X157048400Y-85484000D03*
X157048400Y-88024000D03*
X157048400Y-90564000D03*
X157048400Y-93104000D03*
X157048400Y-95644000D03*
X157048400Y-98184000D03*
X157048400Y-100724000D03*
X157048400Y-103264000D03*
X157048400Y-105804000D03*
X157048400Y-108344000D03*
X157048400Y-110884000D03*
X157048400Y-113424000D03*
X157048400Y-115964000D03*
X157048400Y-118504000D03*
X157048400Y-121044000D03*
X157048400Y-123584000D03*
X157048400Y-126124000D03*
X159588400Y-123584000D03*
X169748400Y-80404000D03*
X167208400Y-80404000D03*
X164668400Y-80404000D03*
X162128400Y-80404000D03*
X159588400Y-80404000D03*
D31*
X169237600Y-119824800D03*
D32*
X169237600Y-117284800D03*
X169237600Y-114744800D03*
X169237600Y-112204800D03*
X169237600Y-109664800D03*
D33*
X159486800Y-113154000D03*
D34*
X161486800Y-113154000D03*
X163486800Y-113154000D03*
X163486800Y-111154000D03*
X161486800Y-111154000D03*
X159486800Y-111154000D03*
X163398400Y-125394000D03*
X165938400Y-125394000D03*
D22*
X147962400Y-136644600D03*
X145012400Y-136644600D03*
D23*
X108585000Y-130950000D03*
X111735000Y-130950000D03*
D17*
X117551400Y-79946800D03*
X120051400Y-79946800D03*
X150723800Y-122669600D03*
X150723800Y-120129600D03*
X150723800Y-117589600D03*
X150723800Y-115049600D03*
X150723800Y-112509600D03*
X150723800Y-109969600D03*
X150723800Y-107429600D03*
X150723800Y-104889600D03*
X150723800Y-102349600D03*
X149707800Y-95872600D03*
X147167800Y-95872600D03*
X144627800Y-95872600D03*
X142087800Y-95872600D03*
X139547800Y-95872600D03*
X137007800Y-95872600D03*
D18*
X178333600Y-103516200D03*
X178333600Y-106466200D03*
D35*
X180568800Y-57655100D03*
D24*
X180568800Y-60195100D03*
X183108800Y-57655100D03*
X183108800Y-60195100D03*
X185648800Y-57655100D03*
X185648800Y-60195100D03*
X188188800Y-57655100D03*
X188188800Y-60195100D03*
X190728800Y-57655100D03*
X190728800Y-60195100D03*
D30*
X190068400Y-101333600D03*
D24*
X192608400Y-101333600D03*
X190068400Y-98793600D03*
X192608400Y-98793600D03*
X190068400Y-96253600D03*
X192608400Y-96253600D03*
X190068400Y-93713600D03*
X192608400Y-93713600D03*
X190068400Y-91173600D03*
X192608400Y-91173600D03*
D17*
X192942200Y-121247200D03*
X190442200Y-121247200D03*
X187942200Y-121247200D03*
D36*
X192573500Y-69558200D03*
D24*
X190033500Y-69558200D03*
X192573500Y-72098200D03*
X190033500Y-72098200D03*
X192573500Y-74638200D03*
X190033500Y-74638200D03*
X192573500Y-77178200D03*
X190033500Y-77178200D03*
X192573500Y-79718200D03*
X190033500Y-79718200D03*
D37*
X112700000Y-108090000D03*
D24*
X112700000Y-105550000D03*
X110160000Y-108090000D03*
X110160000Y-105550000D03*
X107620000Y-108090000D03*
X107620000Y-105550000D03*
X105080000Y-108090000D03*
X105080000Y-105550000D03*
X102540000Y-108090000D03*
X102540000Y-105550000D03*
%LPD*%
M02*
