G04 #@! TF.GenerationSoftware,KiCad,Pcbnew,8.0.4*
G04 #@! TF.CreationDate,2024-09-01T18:39:43-04:00*
G04 #@! TF.ProjectId,t41_2_main_board,7434315f-325f-46d6-9169-6e5f626f6172,1.0*
G04 #@! TF.SameCoordinates,Original*
G04 #@! TF.FileFunction,Legend,Bot*
G04 #@! TF.FilePolarity,Positive*
%FSLAX46Y46*%
G04 Gerber Fmt 4.6, Leading zero omitted, Abs format (unit mm)*
G04 Created by KiCad (PCBNEW 8.0.4) date 2024-09-01 18:39:43*
%MOMM*%
%LPD*%
G01*
G04 APERTURE LIST*
G04 Aperture macros list*
%AMRoundRect*
0 Rectangle with rounded corners*
0 $1 Rounding radius*
0 $2 $3 $4 $5 $6 $7 $8 $9 X,Y pos of 4 corners*
0 Add a 4 corners polygon primitive as box body*
4,1,4,$2,$3,$4,$5,$6,$7,$8,$9,$2,$3,0*
0 Add four circle primitives for the rounded corners*
1,1,$1+$1,$2,$3*
1,1,$1+$1,$4,$5*
1,1,$1+$1,$6,$7*
1,1,$1+$1,$8,$9*
0 Add four rect primitives between the rounded corners*
20,1,$1+$1,$2,$3,$4,$5,0*
20,1,$1+$1,$4,$5,$6,$7,0*
20,1,$1+$1,$6,$7,$8,$9,0*
20,1,$1+$1,$8,$9,$2,$3,0*%
G04 Aperture macros list end*
%ADD10C,0.150000*%
%ADD11C,0.120000*%
%ADD12C,0.100000*%
%ADD13C,2.100000*%
%ADD14C,1.700000*%
%ADD15RoundRect,0.250000X-0.600000X-0.600000X0.600000X-0.600000X0.600000X0.600000X-0.600000X0.600000X0*%
%ADD16R,1.600000X1.600000*%
%ADD17C,1.600000*%
%ADD18R,1.300000X1.300000*%
%ADD19C,1.300000*%
%ADD20RoundRect,0.250000X0.275000X0.700000X-0.275000X0.700000X-0.275000X-0.700000X0.275000X-0.700000X0*%
%ADD21RoundRect,0.250000X-0.325000X-0.650000X0.325000X-0.650000X0.325000X0.650000X-0.325000X0.650000X0*%
%ADD22RoundRect,0.250000X-0.600000X0.600000X-0.600000X-0.600000X0.600000X-0.600000X0.600000X0.600000X0*%
%ADD23RoundRect,0.250000X-0.275000X-0.700000X0.275000X-0.700000X0.275000X0.700000X-0.275000X0.700000X0*%
%ADD24RoundRect,0.250000X0.600000X0.600000X-0.600000X0.600000X-0.600000X-0.600000X0.600000X-0.600000X0*%
%ADD25RoundRect,0.250000X0.325000X0.650000X-0.325000X0.650000X-0.325000X-0.650000X0.325000X-0.650000X0*%
%ADD26RoundRect,0.250000X0.600000X-0.600000X0.600000X0.600000X-0.600000X0.600000X-0.600000X-0.600000X0*%
G04 APERTURE END LIST*
D10*
X173904287Y-58414009D02*
X174237620Y-58414009D01*
X174237620Y-58937819D02*
X174237620Y-57937819D01*
X174237620Y-57937819D02*
X173761430Y-57937819D01*
X173380477Y-58937819D02*
X173380477Y-57937819D01*
X172428097Y-58937819D02*
X172904287Y-58937819D01*
X172904287Y-58937819D02*
X172904287Y-57937819D01*
X172237620Y-57937819D02*
X171666192Y-57937819D01*
X171951906Y-58937819D02*
X171951906Y-57937819D01*
X171332858Y-58414009D02*
X170999525Y-58414009D01*
X170856668Y-58937819D02*
X171332858Y-58937819D01*
X171332858Y-58937819D02*
X171332858Y-57937819D01*
X171332858Y-57937819D02*
X170856668Y-57937819D01*
X169856668Y-58937819D02*
X170190001Y-58461628D01*
X170428096Y-58937819D02*
X170428096Y-57937819D01*
X170428096Y-57937819D02*
X170047144Y-57937819D01*
X170047144Y-57937819D02*
X169951906Y-57985438D01*
X169951906Y-57985438D02*
X169904287Y-58033057D01*
X169904287Y-58033057D02*
X169856668Y-58128295D01*
X169856668Y-58128295D02*
X169856668Y-58271152D01*
X169856668Y-58271152D02*
X169904287Y-58366390D01*
X169904287Y-58366390D02*
X169951906Y-58414009D01*
X169951906Y-58414009D02*
X170047144Y-58461628D01*
X170047144Y-58461628D02*
X170428096Y-58461628D01*
X174278877Y-56261419D02*
X173707449Y-56261419D01*
X173993163Y-57261419D02*
X173993163Y-56261419D01*
X173374115Y-56261419D02*
X173374115Y-57070942D01*
X173374115Y-57070942D02*
X173326496Y-57166180D01*
X173326496Y-57166180D02*
X173278877Y-57213800D01*
X173278877Y-57213800D02*
X173183639Y-57261419D01*
X173183639Y-57261419D02*
X172993163Y-57261419D01*
X172993163Y-57261419D02*
X172897925Y-57213800D01*
X172897925Y-57213800D02*
X172850306Y-57166180D01*
X172850306Y-57166180D02*
X172802687Y-57070942D01*
X172802687Y-57070942D02*
X172802687Y-56261419D01*
X172326496Y-57261419D02*
X172326496Y-56261419D01*
X172326496Y-56261419D02*
X171755068Y-57261419D01*
X171755068Y-57261419D02*
X171755068Y-56261419D01*
X171278877Y-56737609D02*
X170945544Y-56737609D01*
X170802687Y-57261419D02*
X171278877Y-57261419D01*
X171278877Y-57261419D02*
X171278877Y-56261419D01*
X171278877Y-56261419D02*
X170802687Y-56261419D01*
X185435887Y-81680409D02*
X185769220Y-81680409D01*
X185769220Y-82204219D02*
X185769220Y-81204219D01*
X185769220Y-81204219D02*
X185293030Y-81204219D01*
X184912077Y-82204219D02*
X184912077Y-81204219D01*
X184435887Y-82204219D02*
X184435887Y-81204219D01*
X184435887Y-81204219D02*
X183864459Y-82204219D01*
X183864459Y-82204219D02*
X183864459Y-81204219D01*
X183388268Y-81680409D02*
X183054935Y-81680409D01*
X182912078Y-82204219D02*
X183388268Y-82204219D01*
X183388268Y-82204219D02*
X183388268Y-81204219D01*
X183388268Y-81204219D02*
X182912078Y-81204219D01*
X181864458Y-81204219D02*
X181293030Y-81204219D01*
X181578744Y-82204219D02*
X181578744Y-81204219D01*
X180959696Y-81204219D02*
X180959696Y-82013742D01*
X180959696Y-82013742D02*
X180912077Y-82108980D01*
X180912077Y-82108980D02*
X180864458Y-82156600D01*
X180864458Y-82156600D02*
X180769220Y-82204219D01*
X180769220Y-82204219D02*
X180578744Y-82204219D01*
X180578744Y-82204219D02*
X180483506Y-82156600D01*
X180483506Y-82156600D02*
X180435887Y-82108980D01*
X180435887Y-82108980D02*
X180388268Y-82013742D01*
X180388268Y-82013742D02*
X180388268Y-81204219D01*
X179912077Y-82204219D02*
X179912077Y-81204219D01*
X179912077Y-81204219D02*
X179340649Y-82204219D01*
X179340649Y-82204219D02*
X179340649Y-81204219D01*
X178864458Y-81680409D02*
X178531125Y-81680409D01*
X178388268Y-82204219D02*
X178864458Y-82204219D01*
X178864458Y-82204219D02*
X178864458Y-81204219D01*
X178864458Y-81204219D02*
X178388268Y-81204219D01*
X185912077Y-79731019D02*
X185578744Y-80731019D01*
X185578744Y-80731019D02*
X185245411Y-79731019D01*
X184721601Y-79731019D02*
X184531125Y-79731019D01*
X184531125Y-79731019D02*
X184435887Y-79778638D01*
X184435887Y-79778638D02*
X184340649Y-79873876D01*
X184340649Y-79873876D02*
X184293030Y-80064352D01*
X184293030Y-80064352D02*
X184293030Y-80397685D01*
X184293030Y-80397685D02*
X184340649Y-80588161D01*
X184340649Y-80588161D02*
X184435887Y-80683400D01*
X184435887Y-80683400D02*
X184531125Y-80731019D01*
X184531125Y-80731019D02*
X184721601Y-80731019D01*
X184721601Y-80731019D02*
X184816839Y-80683400D01*
X184816839Y-80683400D02*
X184912077Y-80588161D01*
X184912077Y-80588161D02*
X184959696Y-80397685D01*
X184959696Y-80397685D02*
X184959696Y-80064352D01*
X184959696Y-80064352D02*
X184912077Y-79873876D01*
X184912077Y-79873876D02*
X184816839Y-79778638D01*
X184816839Y-79778638D02*
X184721601Y-79731019D01*
X183388268Y-80731019D02*
X183864458Y-80731019D01*
X183864458Y-80731019D02*
X183864458Y-79731019D01*
X183054934Y-79731019D02*
X183054934Y-80540542D01*
X183054934Y-80540542D02*
X183007315Y-80635780D01*
X183007315Y-80635780D02*
X182959696Y-80683400D01*
X182959696Y-80683400D02*
X182864458Y-80731019D01*
X182864458Y-80731019D02*
X182673982Y-80731019D01*
X182673982Y-80731019D02*
X182578744Y-80683400D01*
X182578744Y-80683400D02*
X182531125Y-80635780D01*
X182531125Y-80635780D02*
X182483506Y-80540542D01*
X182483506Y-80540542D02*
X182483506Y-79731019D01*
X182007315Y-80731019D02*
X182007315Y-79731019D01*
X182007315Y-79731019D02*
X181673982Y-80445304D01*
X181673982Y-80445304D02*
X181340649Y-79731019D01*
X181340649Y-79731019D02*
X181340649Y-80731019D01*
X180864458Y-80207209D02*
X180531125Y-80207209D01*
X180388268Y-80731019D02*
X180864458Y-80731019D01*
X180864458Y-80731019D02*
X180864458Y-79731019D01*
X180864458Y-79731019D02*
X180388268Y-79731019D01*
X186107373Y-89966228D02*
X186107373Y-88466228D01*
X186107373Y-88466228D02*
X185750230Y-88466228D01*
X185750230Y-88466228D02*
X185535944Y-88537657D01*
X185535944Y-88537657D02*
X185393087Y-88680514D01*
X185393087Y-88680514D02*
X185321658Y-88823371D01*
X185321658Y-88823371D02*
X185250230Y-89109085D01*
X185250230Y-89109085D02*
X185250230Y-89323371D01*
X185250230Y-89323371D02*
X185321658Y-89609085D01*
X185321658Y-89609085D02*
X185393087Y-89751942D01*
X185393087Y-89751942D02*
X185535944Y-89894800D01*
X185535944Y-89894800D02*
X185750230Y-89966228D01*
X185750230Y-89966228D02*
X186107373Y-89966228D01*
X184607373Y-89966228D02*
X184607373Y-88466228D01*
X183964515Y-89894800D02*
X183750230Y-89966228D01*
X183750230Y-89966228D02*
X183393087Y-89966228D01*
X183393087Y-89966228D02*
X183250230Y-89894800D01*
X183250230Y-89894800D02*
X183178801Y-89823371D01*
X183178801Y-89823371D02*
X183107372Y-89680514D01*
X183107372Y-89680514D02*
X183107372Y-89537657D01*
X183107372Y-89537657D02*
X183178801Y-89394800D01*
X183178801Y-89394800D02*
X183250230Y-89323371D01*
X183250230Y-89323371D02*
X183393087Y-89251942D01*
X183393087Y-89251942D02*
X183678801Y-89180514D01*
X183678801Y-89180514D02*
X183821658Y-89109085D01*
X183821658Y-89109085D02*
X183893087Y-89037657D01*
X183893087Y-89037657D02*
X183964515Y-88894800D01*
X183964515Y-88894800D02*
X183964515Y-88751942D01*
X183964515Y-88751942D02*
X183893087Y-88609085D01*
X183893087Y-88609085D02*
X183821658Y-88537657D01*
X183821658Y-88537657D02*
X183678801Y-88466228D01*
X183678801Y-88466228D02*
X183321658Y-88466228D01*
X183321658Y-88466228D02*
X183107372Y-88537657D01*
X182464516Y-89966228D02*
X182464516Y-88466228D01*
X182464516Y-88466228D02*
X181893087Y-88466228D01*
X181893087Y-88466228D02*
X181750230Y-88537657D01*
X181750230Y-88537657D02*
X181678801Y-88609085D01*
X181678801Y-88609085D02*
X181607373Y-88751942D01*
X181607373Y-88751942D02*
X181607373Y-88966228D01*
X181607373Y-88966228D02*
X181678801Y-89109085D01*
X181678801Y-89109085D02*
X181750230Y-89180514D01*
X181750230Y-89180514D02*
X181893087Y-89251942D01*
X181893087Y-89251942D02*
X182464516Y-89251942D01*
X180250230Y-89966228D02*
X180964516Y-89966228D01*
X180964516Y-89966228D02*
X180964516Y-88466228D01*
X179821658Y-89537657D02*
X179107373Y-89537657D01*
X179964515Y-89966228D02*
X179464515Y-88466228D01*
X179464515Y-88466228D02*
X178964515Y-89966228D01*
X178178801Y-89251942D02*
X178178801Y-89966228D01*
X178678801Y-88466228D02*
X178178801Y-89251942D01*
X178178801Y-89251942D02*
X177678801Y-88466228D01*
X192373220Y-116138619D02*
X192373220Y-115138619D01*
X192373220Y-115138619D02*
X192039887Y-115852904D01*
X192039887Y-115852904D02*
X191706554Y-115138619D01*
X191706554Y-115138619D02*
X191706554Y-116138619D01*
X191277982Y-115852904D02*
X190801792Y-115852904D01*
X191373220Y-116138619D02*
X191039887Y-115138619D01*
X191039887Y-115138619D02*
X190706554Y-116138619D01*
X190516077Y-115138619D02*
X189944649Y-115138619D01*
X190230363Y-116138619D02*
X190230363Y-115138619D01*
X189039887Y-116138619D02*
X189373220Y-115662428D01*
X189611315Y-116138619D02*
X189611315Y-115138619D01*
X189611315Y-115138619D02*
X189230363Y-115138619D01*
X189230363Y-115138619D02*
X189135125Y-115186238D01*
X189135125Y-115186238D02*
X189087506Y-115233857D01*
X189087506Y-115233857D02*
X189039887Y-115329095D01*
X189039887Y-115329095D02*
X189039887Y-115471952D01*
X189039887Y-115471952D02*
X189087506Y-115567190D01*
X189087506Y-115567190D02*
X189135125Y-115614809D01*
X189135125Y-115614809D02*
X189230363Y-115662428D01*
X189230363Y-115662428D02*
X189611315Y-115662428D01*
X188611315Y-116138619D02*
X188611315Y-115138619D01*
X188230363Y-115138619D02*
X187563697Y-116138619D01*
X187563697Y-115138619D02*
X188230363Y-116138619D01*
X192471639Y-114567000D02*
X192328782Y-114614619D01*
X192328782Y-114614619D02*
X192090687Y-114614619D01*
X192090687Y-114614619D02*
X191995449Y-114567000D01*
X191995449Y-114567000D02*
X191947830Y-114519380D01*
X191947830Y-114519380D02*
X191900211Y-114424142D01*
X191900211Y-114424142D02*
X191900211Y-114328904D01*
X191900211Y-114328904D02*
X191947830Y-114233666D01*
X191947830Y-114233666D02*
X191995449Y-114186047D01*
X191995449Y-114186047D02*
X192090687Y-114138428D01*
X192090687Y-114138428D02*
X192281163Y-114090809D01*
X192281163Y-114090809D02*
X192376401Y-114043190D01*
X192376401Y-114043190D02*
X192424020Y-113995571D01*
X192424020Y-113995571D02*
X192471639Y-113900333D01*
X192471639Y-113900333D02*
X192471639Y-113805095D01*
X192471639Y-113805095D02*
X192424020Y-113709857D01*
X192424020Y-113709857D02*
X192376401Y-113662238D01*
X192376401Y-113662238D02*
X192281163Y-113614619D01*
X192281163Y-113614619D02*
X192043068Y-113614619D01*
X192043068Y-113614619D02*
X191900211Y-113662238D01*
X191566877Y-113614619D02*
X191328782Y-114614619D01*
X191328782Y-114614619D02*
X191138306Y-113900333D01*
X191138306Y-113900333D02*
X190947830Y-114614619D01*
X190947830Y-114614619D02*
X190709735Y-113614619D01*
X190328782Y-114614619D02*
X190328782Y-113614619D01*
X189995449Y-113614619D02*
X189424021Y-113614619D01*
X189709735Y-114614619D02*
X189709735Y-113614619D01*
X188519259Y-114519380D02*
X188566878Y-114567000D01*
X188566878Y-114567000D02*
X188709735Y-114614619D01*
X188709735Y-114614619D02*
X188804973Y-114614619D01*
X188804973Y-114614619D02*
X188947830Y-114567000D01*
X188947830Y-114567000D02*
X189043068Y-114471761D01*
X189043068Y-114471761D02*
X189090687Y-114376523D01*
X189090687Y-114376523D02*
X189138306Y-114186047D01*
X189138306Y-114186047D02*
X189138306Y-114043190D01*
X189138306Y-114043190D02*
X189090687Y-113852714D01*
X189090687Y-113852714D02*
X189043068Y-113757476D01*
X189043068Y-113757476D02*
X188947830Y-113662238D01*
X188947830Y-113662238D02*
X188804973Y-113614619D01*
X188804973Y-113614619D02*
X188709735Y-113614619D01*
X188709735Y-113614619D02*
X188566878Y-113662238D01*
X188566878Y-113662238D02*
X188519259Y-113709857D01*
X188090687Y-114614619D02*
X188090687Y-113614619D01*
X188090687Y-114090809D02*
X187519259Y-114090809D01*
X187519259Y-114614619D02*
X187519259Y-113614619D01*
X107083392Y-70080314D02*
X107273868Y-69985076D01*
X107273868Y-69985076D02*
X107464344Y-69794600D01*
X107464344Y-69794600D02*
X107750058Y-69508885D01*
X107750058Y-69508885D02*
X107940535Y-69413647D01*
X107940535Y-69413647D02*
X108131011Y-69413647D01*
X108035773Y-69889838D02*
X108226249Y-69794600D01*
X108226249Y-69794600D02*
X108416725Y-69604123D01*
X108416725Y-69604123D02*
X108511963Y-69223171D01*
X108511963Y-69223171D02*
X108511963Y-68556504D01*
X108511963Y-68556504D02*
X108416725Y-68175552D01*
X108416725Y-68175552D02*
X108226249Y-67985076D01*
X108226249Y-67985076D02*
X108035773Y-67889838D01*
X108035773Y-67889838D02*
X107654820Y-67889838D01*
X107654820Y-67889838D02*
X107464344Y-67985076D01*
X107464344Y-67985076D02*
X107273868Y-68175552D01*
X107273868Y-68175552D02*
X107178630Y-68556504D01*
X107178630Y-68556504D02*
X107178630Y-69223171D01*
X107178630Y-69223171D02*
X107273868Y-69604123D01*
X107273868Y-69604123D02*
X107464344Y-69794600D01*
X107464344Y-69794600D02*
X107654820Y-69889838D01*
X107654820Y-69889838D02*
X108035773Y-69889838D01*
X106416725Y-69794600D02*
X106131011Y-69889838D01*
X106131011Y-69889838D02*
X105654820Y-69889838D01*
X105654820Y-69889838D02*
X105464344Y-69794600D01*
X105464344Y-69794600D02*
X105369106Y-69699361D01*
X105369106Y-69699361D02*
X105273868Y-69508885D01*
X105273868Y-69508885D02*
X105273868Y-69318409D01*
X105273868Y-69318409D02*
X105369106Y-69127933D01*
X105369106Y-69127933D02*
X105464344Y-69032695D01*
X105464344Y-69032695D02*
X105654820Y-68937457D01*
X105654820Y-68937457D02*
X106035773Y-68842219D01*
X106035773Y-68842219D02*
X106226249Y-68746980D01*
X106226249Y-68746980D02*
X106321487Y-68651742D01*
X106321487Y-68651742D02*
X106416725Y-68461266D01*
X106416725Y-68461266D02*
X106416725Y-68270790D01*
X106416725Y-68270790D02*
X106321487Y-68080314D01*
X106321487Y-68080314D02*
X106226249Y-67985076D01*
X106226249Y-67985076D02*
X106035773Y-67889838D01*
X106035773Y-67889838D02*
X105559582Y-67889838D01*
X105559582Y-67889838D02*
X105273868Y-67985076D01*
X104416725Y-68842219D02*
X103750058Y-68842219D01*
X103464344Y-69889838D02*
X104416725Y-69889838D01*
X104416725Y-69889838D02*
X104416725Y-67889838D01*
X104416725Y-67889838D02*
X103464344Y-67889838D01*
X108010325Y-92953038D02*
X108010325Y-90953038D01*
X106867468Y-92953038D02*
X107724611Y-91810180D01*
X106867468Y-90953038D02*
X108010325Y-92095895D01*
X106010325Y-91905419D02*
X105343658Y-91905419D01*
X105057944Y-92953038D02*
X106010325Y-92953038D01*
X106010325Y-92953038D02*
X106010325Y-90953038D01*
X106010325Y-90953038D02*
X105057944Y-90953038D01*
X103819849Y-92000657D02*
X103819849Y-92953038D01*
X104486515Y-90953038D02*
X103819849Y-92000657D01*
X103819849Y-92000657D02*
X103153182Y-90953038D01*
X107083392Y-58650314D02*
X107273868Y-58555076D01*
X107273868Y-58555076D02*
X107464344Y-58364600D01*
X107464344Y-58364600D02*
X107750058Y-58078885D01*
X107750058Y-58078885D02*
X107940535Y-57983647D01*
X107940535Y-57983647D02*
X108131011Y-57983647D01*
X108035773Y-58459838D02*
X108226249Y-58364600D01*
X108226249Y-58364600D02*
X108416725Y-58174123D01*
X108416725Y-58174123D02*
X108511963Y-57793171D01*
X108511963Y-57793171D02*
X108511963Y-57126504D01*
X108511963Y-57126504D02*
X108416725Y-56745552D01*
X108416725Y-56745552D02*
X108226249Y-56555076D01*
X108226249Y-56555076D02*
X108035773Y-56459838D01*
X108035773Y-56459838D02*
X107654820Y-56459838D01*
X107654820Y-56459838D02*
X107464344Y-56555076D01*
X107464344Y-56555076D02*
X107273868Y-56745552D01*
X107273868Y-56745552D02*
X107178630Y-57126504D01*
X107178630Y-57126504D02*
X107178630Y-57793171D01*
X107178630Y-57793171D02*
X107273868Y-58174123D01*
X107273868Y-58174123D02*
X107464344Y-58364600D01*
X107464344Y-58364600D02*
X107654820Y-58459838D01*
X107654820Y-58459838D02*
X108035773Y-58459838D01*
X106416725Y-58364600D02*
X106131011Y-58459838D01*
X106131011Y-58459838D02*
X105654820Y-58459838D01*
X105654820Y-58459838D02*
X105464344Y-58364600D01*
X105464344Y-58364600D02*
X105369106Y-58269361D01*
X105369106Y-58269361D02*
X105273868Y-58078885D01*
X105273868Y-58078885D02*
X105273868Y-57888409D01*
X105273868Y-57888409D02*
X105369106Y-57697933D01*
X105369106Y-57697933D02*
X105464344Y-57602695D01*
X105464344Y-57602695D02*
X105654820Y-57507457D01*
X105654820Y-57507457D02*
X106035773Y-57412219D01*
X106035773Y-57412219D02*
X106226249Y-57316980D01*
X106226249Y-57316980D02*
X106321487Y-57221742D01*
X106321487Y-57221742D02*
X106416725Y-57031266D01*
X106416725Y-57031266D02*
X106416725Y-56840790D01*
X106416725Y-56840790D02*
X106321487Y-56650314D01*
X106321487Y-56650314D02*
X106226249Y-56555076D01*
X106226249Y-56555076D02*
X106035773Y-56459838D01*
X106035773Y-56459838D02*
X105559582Y-56459838D01*
X105559582Y-56459838D02*
X105273868Y-56555076D01*
X104416725Y-58459838D02*
X104416725Y-56459838D01*
X104416725Y-56459838D02*
X103940535Y-56459838D01*
X103940535Y-56459838D02*
X103654820Y-56555076D01*
X103654820Y-56555076D02*
X103464344Y-56745552D01*
X103464344Y-56745552D02*
X103369106Y-56936028D01*
X103369106Y-56936028D02*
X103273868Y-57316980D01*
X103273868Y-57316980D02*
X103273868Y-57602695D01*
X103273868Y-57602695D02*
X103369106Y-57983647D01*
X103369106Y-57983647D02*
X103464344Y-58174123D01*
X103464344Y-58174123D02*
X103654820Y-58364600D01*
X103654820Y-58364600D02*
X103940535Y-58459838D01*
X103940535Y-58459838D02*
X104416725Y-58459838D01*
X107807125Y-81421438D02*
X107807125Y-79421438D01*
X107807125Y-79421438D02*
X107140458Y-80850009D01*
X107140458Y-80850009D02*
X106473792Y-79421438D01*
X106473792Y-79421438D02*
X106473792Y-81421438D01*
X105521411Y-81421438D02*
X105521411Y-79421438D01*
X103426173Y-81230961D02*
X103521411Y-81326200D01*
X103521411Y-81326200D02*
X103807125Y-81421438D01*
X103807125Y-81421438D02*
X103997601Y-81421438D01*
X103997601Y-81421438D02*
X104283316Y-81326200D01*
X104283316Y-81326200D02*
X104473792Y-81135723D01*
X104473792Y-81135723D02*
X104569030Y-80945247D01*
X104569030Y-80945247D02*
X104664268Y-80564295D01*
X104664268Y-80564295D02*
X104664268Y-80278580D01*
X104664268Y-80278580D02*
X104569030Y-79897628D01*
X104569030Y-79897628D02*
X104473792Y-79707152D01*
X104473792Y-79707152D02*
X104283316Y-79516676D01*
X104283316Y-79516676D02*
X103997601Y-79421438D01*
X103997601Y-79421438D02*
X103807125Y-79421438D01*
X103807125Y-79421438D02*
X103521411Y-79516676D01*
X103521411Y-79516676D02*
X103426173Y-79611914D01*
X122372333Y-103581009D02*
X122705666Y-103581009D01*
X122705666Y-104104819D02*
X122705666Y-103104819D01*
X122705666Y-103104819D02*
X122229476Y-103104819D01*
X121515190Y-103581009D02*
X121372333Y-103628628D01*
X121372333Y-103628628D02*
X121324714Y-103676247D01*
X121324714Y-103676247D02*
X121277095Y-103771485D01*
X121277095Y-103771485D02*
X121277095Y-103914342D01*
X121277095Y-103914342D02*
X121324714Y-104009580D01*
X121324714Y-104009580D02*
X121372333Y-104057200D01*
X121372333Y-104057200D02*
X121467571Y-104104819D01*
X121467571Y-104104819D02*
X121848523Y-104104819D01*
X121848523Y-104104819D02*
X121848523Y-103104819D01*
X121848523Y-103104819D02*
X121515190Y-103104819D01*
X121515190Y-103104819D02*
X121419952Y-103152438D01*
X121419952Y-103152438D02*
X121372333Y-103200057D01*
X121372333Y-103200057D02*
X121324714Y-103295295D01*
X121324714Y-103295295D02*
X121324714Y-103390533D01*
X121324714Y-103390533D02*
X121372333Y-103485771D01*
X121372333Y-103485771D02*
X121419952Y-103533390D01*
X121419952Y-103533390D02*
X121515190Y-103581009D01*
X121515190Y-103581009D02*
X121848523Y-103581009D01*
X120800904Y-104104819D02*
X120610428Y-104104819D01*
X120610428Y-104104819D02*
X120515190Y-104057200D01*
X120515190Y-104057200D02*
X120467571Y-104009580D01*
X120467571Y-104009580D02*
X120372333Y-103866723D01*
X120372333Y-103866723D02*
X120324714Y-103676247D01*
X120324714Y-103676247D02*
X120324714Y-103295295D01*
X120324714Y-103295295D02*
X120372333Y-103200057D01*
X120372333Y-103200057D02*
X120419952Y-103152438D01*
X120419952Y-103152438D02*
X120515190Y-103104819D01*
X120515190Y-103104819D02*
X120705666Y-103104819D01*
X120705666Y-103104819D02*
X120800904Y-103152438D01*
X120800904Y-103152438D02*
X120848523Y-103200057D01*
X120848523Y-103200057D02*
X120896142Y-103295295D01*
X120896142Y-103295295D02*
X120896142Y-103533390D01*
X120896142Y-103533390D02*
X120848523Y-103628628D01*
X120848523Y-103628628D02*
X120800904Y-103676247D01*
X120800904Y-103676247D02*
X120705666Y-103723866D01*
X120705666Y-103723866D02*
X120515190Y-103723866D01*
X120515190Y-103723866D02*
X120419952Y-103676247D01*
X120419952Y-103676247D02*
X120372333Y-103628628D01*
X120372333Y-103628628D02*
X120324714Y-103533390D01*
X122423333Y-107391009D02*
X122756666Y-107391009D01*
X122756666Y-107914819D02*
X122756666Y-106914819D01*
X122756666Y-106914819D02*
X122280476Y-106914819D01*
X121566190Y-107391009D02*
X121423333Y-107438628D01*
X121423333Y-107438628D02*
X121375714Y-107486247D01*
X121375714Y-107486247D02*
X121328095Y-107581485D01*
X121328095Y-107581485D02*
X121328095Y-107724342D01*
X121328095Y-107724342D02*
X121375714Y-107819580D01*
X121375714Y-107819580D02*
X121423333Y-107867200D01*
X121423333Y-107867200D02*
X121518571Y-107914819D01*
X121518571Y-107914819D02*
X121899523Y-107914819D01*
X121899523Y-107914819D02*
X121899523Y-106914819D01*
X121899523Y-106914819D02*
X121566190Y-106914819D01*
X121566190Y-106914819D02*
X121470952Y-106962438D01*
X121470952Y-106962438D02*
X121423333Y-107010057D01*
X121423333Y-107010057D02*
X121375714Y-107105295D01*
X121375714Y-107105295D02*
X121375714Y-107200533D01*
X121375714Y-107200533D02*
X121423333Y-107295771D01*
X121423333Y-107295771D02*
X121470952Y-107343390D01*
X121470952Y-107343390D02*
X121566190Y-107391009D01*
X121566190Y-107391009D02*
X121899523Y-107391009D01*
X120994761Y-106914819D02*
X120328095Y-106914819D01*
X120328095Y-106914819D02*
X120756666Y-107914819D01*
X122310857Y-114871580D02*
X122358476Y-114919200D01*
X122358476Y-114919200D02*
X122501333Y-114966819D01*
X122501333Y-114966819D02*
X122596571Y-114966819D01*
X122596571Y-114966819D02*
X122739428Y-114919200D01*
X122739428Y-114919200D02*
X122834666Y-114823961D01*
X122834666Y-114823961D02*
X122882285Y-114728723D01*
X122882285Y-114728723D02*
X122929904Y-114538247D01*
X122929904Y-114538247D02*
X122929904Y-114395390D01*
X122929904Y-114395390D02*
X122882285Y-114204914D01*
X122882285Y-114204914D02*
X122834666Y-114109676D01*
X122834666Y-114109676D02*
X122739428Y-114014438D01*
X122739428Y-114014438D02*
X122596571Y-113966819D01*
X122596571Y-113966819D02*
X122501333Y-113966819D01*
X122501333Y-113966819D02*
X122358476Y-114014438D01*
X122358476Y-114014438D02*
X122310857Y-114062057D01*
X121358476Y-114966819D02*
X121929904Y-114966819D01*
X121644190Y-114966819D02*
X121644190Y-113966819D01*
X121644190Y-113966819D02*
X121739428Y-114109676D01*
X121739428Y-114109676D02*
X121834666Y-114204914D01*
X121834666Y-114204914D02*
X121929904Y-114252533D01*
X120406095Y-114966819D02*
X120977523Y-114966819D01*
X120691809Y-114966819D02*
X120691809Y-113966819D01*
X120691809Y-113966819D02*
X120787047Y-114109676D01*
X120787047Y-114109676D02*
X120882285Y-114204914D01*
X120882285Y-114204914D02*
X120977523Y-114252533D01*
X180902133Y-64120319D02*
X180902133Y-64834604D01*
X180902133Y-64834604D02*
X180949752Y-64977461D01*
X180949752Y-64977461D02*
X181044990Y-65072700D01*
X181044990Y-65072700D02*
X181187847Y-65120319D01*
X181187847Y-65120319D02*
X181283085Y-65120319D01*
X179997371Y-64453652D02*
X179997371Y-65120319D01*
X180235466Y-64072700D02*
X180473561Y-64786985D01*
X180473561Y-64786985D02*
X179854514Y-64786985D01*
X191671733Y-106888419D02*
X191671733Y-107602704D01*
X191671733Y-107602704D02*
X191719352Y-107745561D01*
X191719352Y-107745561D02*
X191814590Y-107840800D01*
X191814590Y-107840800D02*
X191957447Y-107888419D01*
X191957447Y-107888419D02*
X192052685Y-107888419D01*
X190719352Y-106888419D02*
X191195542Y-106888419D01*
X191195542Y-106888419D02*
X191243161Y-107364609D01*
X191243161Y-107364609D02*
X191195542Y-107316990D01*
X191195542Y-107316990D02*
X191100304Y-107269371D01*
X191100304Y-107269371D02*
X190862209Y-107269371D01*
X190862209Y-107269371D02*
X190766971Y-107316990D01*
X190766971Y-107316990D02*
X190719352Y-107364609D01*
X190719352Y-107364609D02*
X190671733Y-107459847D01*
X190671733Y-107459847D02*
X190671733Y-107697942D01*
X190671733Y-107697942D02*
X190719352Y-107793180D01*
X190719352Y-107793180D02*
X190766971Y-107840800D01*
X190766971Y-107840800D02*
X190862209Y-107888419D01*
X190862209Y-107888419D02*
X191100304Y-107888419D01*
X191100304Y-107888419D02*
X191195542Y-107840800D01*
X191195542Y-107840800D02*
X191243161Y-107793180D01*
X109945523Y-100401009D02*
X110278856Y-100401009D01*
X110278856Y-100924819D02*
X110278856Y-99924819D01*
X110278856Y-99924819D02*
X109802666Y-99924819D01*
X109088380Y-100401009D02*
X108945523Y-100448628D01*
X108945523Y-100448628D02*
X108897904Y-100496247D01*
X108897904Y-100496247D02*
X108850285Y-100591485D01*
X108850285Y-100591485D02*
X108850285Y-100734342D01*
X108850285Y-100734342D02*
X108897904Y-100829580D01*
X108897904Y-100829580D02*
X108945523Y-100877200D01*
X108945523Y-100877200D02*
X109040761Y-100924819D01*
X109040761Y-100924819D02*
X109421713Y-100924819D01*
X109421713Y-100924819D02*
X109421713Y-99924819D01*
X109421713Y-99924819D02*
X109088380Y-99924819D01*
X109088380Y-99924819D02*
X108993142Y-99972438D01*
X108993142Y-99972438D02*
X108945523Y-100020057D01*
X108945523Y-100020057D02*
X108897904Y-100115295D01*
X108897904Y-100115295D02*
X108897904Y-100210533D01*
X108897904Y-100210533D02*
X108945523Y-100305771D01*
X108945523Y-100305771D02*
X108993142Y-100353390D01*
X108993142Y-100353390D02*
X109088380Y-100401009D01*
X109088380Y-100401009D02*
X109421713Y-100401009D01*
X107897904Y-100924819D02*
X108469332Y-100924819D01*
X108183618Y-100924819D02*
X108183618Y-99924819D01*
X108183618Y-99924819D02*
X108278856Y-100067676D01*
X108278856Y-100067676D02*
X108374094Y-100162914D01*
X108374094Y-100162914D02*
X108469332Y-100210533D01*
X107278856Y-99924819D02*
X107183618Y-99924819D01*
X107183618Y-99924819D02*
X107088380Y-99972438D01*
X107088380Y-99972438D02*
X107040761Y-100020057D01*
X107040761Y-100020057D02*
X106993142Y-100115295D01*
X106993142Y-100115295D02*
X106945523Y-100305771D01*
X106945523Y-100305771D02*
X106945523Y-100543866D01*
X106945523Y-100543866D02*
X106993142Y-100734342D01*
X106993142Y-100734342D02*
X107040761Y-100829580D01*
X107040761Y-100829580D02*
X107088380Y-100877200D01*
X107088380Y-100877200D02*
X107183618Y-100924819D01*
X107183618Y-100924819D02*
X107278856Y-100924819D01*
X107278856Y-100924819D02*
X107374094Y-100877200D01*
X107374094Y-100877200D02*
X107421713Y-100829580D01*
X107421713Y-100829580D02*
X107469332Y-100734342D01*
X107469332Y-100734342D02*
X107516951Y-100543866D01*
X107516951Y-100543866D02*
X107516951Y-100305771D01*
X107516951Y-100305771D02*
X107469332Y-100115295D01*
X107469332Y-100115295D02*
X107421713Y-100020057D01*
X107421713Y-100020057D02*
X107374094Y-99972438D01*
X107374094Y-99972438D02*
X107278856Y-99924819D01*
X190951723Y-116702019D02*
X190951723Y-117416304D01*
X190951723Y-117416304D02*
X190999342Y-117559161D01*
X190999342Y-117559161D02*
X191094580Y-117654400D01*
X191094580Y-117654400D02*
X191237437Y-117702019D01*
X191237437Y-117702019D02*
X191332675Y-117702019D01*
X189951723Y-117702019D02*
X190523151Y-117702019D01*
X190237437Y-117702019D02*
X190237437Y-116702019D01*
X190237437Y-116702019D02*
X190332675Y-116844876D01*
X190332675Y-116844876D02*
X190427913Y-116940114D01*
X190427913Y-116940114D02*
X190523151Y-116987733D01*
X189618389Y-116702019D02*
X188999342Y-116702019D01*
X188999342Y-116702019D02*
X189332675Y-117082971D01*
X189332675Y-117082971D02*
X189189818Y-117082971D01*
X189189818Y-117082971D02*
X189094580Y-117130590D01*
X189094580Y-117130590D02*
X189046961Y-117178209D01*
X189046961Y-117178209D02*
X188999342Y-117273447D01*
X188999342Y-117273447D02*
X188999342Y-117511542D01*
X188999342Y-117511542D02*
X189046961Y-117606780D01*
X189046961Y-117606780D02*
X189094580Y-117654400D01*
X189094580Y-117654400D02*
X189189818Y-117702019D01*
X189189818Y-117702019D02*
X189475532Y-117702019D01*
X189475532Y-117702019D02*
X189570770Y-117654400D01*
X189570770Y-117654400D02*
X189618389Y-117606780D01*
X185043319Y-69250266D02*
X185757604Y-69250266D01*
X185757604Y-69250266D02*
X185900461Y-69202647D01*
X185900461Y-69202647D02*
X185995700Y-69107409D01*
X185995700Y-69107409D02*
X186043319Y-68964552D01*
X186043319Y-68964552D02*
X186043319Y-68869314D01*
X185138557Y-69678838D02*
X185090938Y-69726457D01*
X185090938Y-69726457D02*
X185043319Y-69821695D01*
X185043319Y-69821695D02*
X185043319Y-70059790D01*
X185043319Y-70059790D02*
X185090938Y-70155028D01*
X185090938Y-70155028D02*
X185138557Y-70202647D01*
X185138557Y-70202647D02*
X185233795Y-70250266D01*
X185233795Y-70250266D02*
X185329033Y-70250266D01*
X185329033Y-70250266D02*
X185471890Y-70202647D01*
X185471890Y-70202647D02*
X186043319Y-69631219D01*
X186043319Y-69631219D02*
X186043319Y-70250266D01*
X125382457Y-100169180D02*
X125430076Y-100216800D01*
X125430076Y-100216800D02*
X125572933Y-100264419D01*
X125572933Y-100264419D02*
X125668171Y-100264419D01*
X125668171Y-100264419D02*
X125811028Y-100216800D01*
X125811028Y-100216800D02*
X125906266Y-100121561D01*
X125906266Y-100121561D02*
X125953885Y-100026323D01*
X125953885Y-100026323D02*
X126001504Y-99835847D01*
X126001504Y-99835847D02*
X126001504Y-99692990D01*
X126001504Y-99692990D02*
X125953885Y-99502514D01*
X125953885Y-99502514D02*
X125906266Y-99407276D01*
X125906266Y-99407276D02*
X125811028Y-99312038D01*
X125811028Y-99312038D02*
X125668171Y-99264419D01*
X125668171Y-99264419D02*
X125572933Y-99264419D01*
X125572933Y-99264419D02*
X125430076Y-99312038D01*
X125430076Y-99312038D02*
X125382457Y-99359657D01*
X124430076Y-100264419D02*
X125001504Y-100264419D01*
X124715790Y-100264419D02*
X124715790Y-99264419D01*
X124715790Y-99264419D02*
X124811028Y-99407276D01*
X124811028Y-99407276D02*
X124906266Y-99502514D01*
X124906266Y-99502514D02*
X125001504Y-99550133D01*
X124096742Y-99264419D02*
X123477695Y-99264419D01*
X123477695Y-99264419D02*
X123811028Y-99645371D01*
X123811028Y-99645371D02*
X123668171Y-99645371D01*
X123668171Y-99645371D02*
X123572933Y-99692990D01*
X123572933Y-99692990D02*
X123525314Y-99740609D01*
X123525314Y-99740609D02*
X123477695Y-99835847D01*
X123477695Y-99835847D02*
X123477695Y-100073942D01*
X123477695Y-100073942D02*
X123525314Y-100169180D01*
X123525314Y-100169180D02*
X123572933Y-100216800D01*
X123572933Y-100216800D02*
X123668171Y-100264419D01*
X123668171Y-100264419D02*
X123953885Y-100264419D01*
X123953885Y-100264419D02*
X124049123Y-100216800D01*
X124049123Y-100216800D02*
X124096742Y-100169180D01*
X108770857Y-96562380D02*
X108818476Y-96610000D01*
X108818476Y-96610000D02*
X108961333Y-96657619D01*
X108961333Y-96657619D02*
X109056571Y-96657619D01*
X109056571Y-96657619D02*
X109199428Y-96610000D01*
X109199428Y-96610000D02*
X109294666Y-96514761D01*
X109294666Y-96514761D02*
X109342285Y-96419523D01*
X109342285Y-96419523D02*
X109389904Y-96229047D01*
X109389904Y-96229047D02*
X109389904Y-96086190D01*
X109389904Y-96086190D02*
X109342285Y-95895714D01*
X109342285Y-95895714D02*
X109294666Y-95800476D01*
X109294666Y-95800476D02*
X109199428Y-95705238D01*
X109199428Y-95705238D02*
X109056571Y-95657619D01*
X109056571Y-95657619D02*
X108961333Y-95657619D01*
X108961333Y-95657619D02*
X108818476Y-95705238D01*
X108818476Y-95705238D02*
X108770857Y-95752857D01*
X107818476Y-96657619D02*
X108389904Y-96657619D01*
X108104190Y-96657619D02*
X108104190Y-95657619D01*
X108104190Y-95657619D02*
X108199428Y-95800476D01*
X108199428Y-95800476D02*
X108294666Y-95895714D01*
X108294666Y-95895714D02*
X108389904Y-95943333D01*
X106913714Y-95657619D02*
X107389904Y-95657619D01*
X107389904Y-95657619D02*
X107437523Y-96133809D01*
X107437523Y-96133809D02*
X107389904Y-96086190D01*
X107389904Y-96086190D02*
X107294666Y-96038571D01*
X107294666Y-96038571D02*
X107056571Y-96038571D01*
X107056571Y-96038571D02*
X106961333Y-96086190D01*
X106961333Y-96086190D02*
X106913714Y-96133809D01*
X106913714Y-96133809D02*
X106866095Y-96229047D01*
X106866095Y-96229047D02*
X106866095Y-96467142D01*
X106866095Y-96467142D02*
X106913714Y-96562380D01*
X106913714Y-96562380D02*
X106961333Y-96610000D01*
X106961333Y-96610000D02*
X107056571Y-96657619D01*
X107056571Y-96657619D02*
X107294666Y-96657619D01*
X107294666Y-96657619D02*
X107389904Y-96610000D01*
X107389904Y-96610000D02*
X107437523Y-96562380D01*
X115166933Y-100686819D02*
X115166933Y-101401104D01*
X115166933Y-101401104D02*
X115214552Y-101543961D01*
X115214552Y-101543961D02*
X115309790Y-101639200D01*
X115309790Y-101639200D02*
X115452647Y-101686819D01*
X115452647Y-101686819D02*
X115547885Y-101686819D01*
X114785980Y-100686819D02*
X114166933Y-100686819D01*
X114166933Y-100686819D02*
X114500266Y-101067771D01*
X114500266Y-101067771D02*
X114357409Y-101067771D01*
X114357409Y-101067771D02*
X114262171Y-101115390D01*
X114262171Y-101115390D02*
X114214552Y-101163009D01*
X114214552Y-101163009D02*
X114166933Y-101258247D01*
X114166933Y-101258247D02*
X114166933Y-101496342D01*
X114166933Y-101496342D02*
X114214552Y-101591580D01*
X114214552Y-101591580D02*
X114262171Y-101639200D01*
X114262171Y-101639200D02*
X114357409Y-101686819D01*
X114357409Y-101686819D02*
X114643123Y-101686819D01*
X114643123Y-101686819D02*
X114738361Y-101639200D01*
X114738361Y-101639200D02*
X114785980Y-101591580D01*
D11*
X120703758Y-104640000D02*
X122374242Y-104640000D01*
X120703758Y-106460000D02*
X122374242Y-106460000D01*
X120754758Y-108450000D02*
X122425242Y-108450000D01*
X120754758Y-110270000D02*
X122425242Y-110270000D01*
X122379252Y-111752000D02*
X120956748Y-111752000D01*
X122379252Y-113572000D02*
X120956748Y-113572000D01*
X175358800Y-54365100D02*
X195938800Y-54365100D01*
X175358800Y-63485100D02*
X175358800Y-54365100D01*
X176658800Y-55675100D02*
X183598800Y-55675100D01*
X176658800Y-62175100D02*
X176658800Y-55675100D01*
X183598800Y-55675100D02*
X183598800Y-54365100D01*
X187698800Y-54365100D02*
X187698800Y-55675100D01*
X187698800Y-55675100D02*
X187698800Y-55675100D01*
X187698800Y-55675100D02*
X194638800Y-55675100D01*
X194638800Y-55675100D02*
X194638800Y-62175100D01*
X194638800Y-62175100D02*
X176658800Y-62175100D01*
X195938800Y-54365100D02*
X195938800Y-63485100D01*
X195938800Y-63485100D02*
X175358800Y-63485100D01*
X185388400Y-100833600D02*
X185388400Y-101833600D01*
X185388400Y-101833600D02*
X186388400Y-101333600D01*
X186388400Y-101333600D02*
X185388400Y-100833600D01*
X186778400Y-85963600D02*
X195898400Y-85963600D01*
X186778400Y-94203600D02*
X188088400Y-94203600D01*
X186778400Y-106543600D02*
X186778400Y-85963600D01*
X188088400Y-87263600D02*
X194588400Y-87263600D01*
X188088400Y-94203600D02*
X188088400Y-87263600D01*
X188088400Y-94203600D02*
X188088400Y-94203600D01*
X188088400Y-98303600D02*
X186778400Y-98303600D01*
X188088400Y-105243600D02*
X188088400Y-98303600D01*
X194588400Y-87263600D02*
X194588400Y-105243600D01*
X194588400Y-105243600D02*
X188088400Y-105243600D01*
X195898400Y-85963600D02*
X195898400Y-106543600D01*
X195898400Y-106543600D02*
X186778400Y-106543600D01*
X104899242Y-99560000D02*
X103228758Y-99560000D01*
X104899242Y-101380000D02*
X103228758Y-101380000D01*
D12*
X185342200Y-118747200D02*
X185342200Y-118247200D01*
X185342200Y-123747200D02*
X185342200Y-124247200D01*
X185842200Y-118247200D02*
X185342200Y-118247200D01*
X185842200Y-124247200D02*
X185342200Y-124247200D01*
X195042200Y-118247200D02*
X195542200Y-118247200D01*
X195042200Y-124247200D02*
X195542200Y-124247200D01*
X195542200Y-118747200D02*
X195542200Y-118247200D01*
X195542200Y-123747200D02*
X195542200Y-124247200D01*
D11*
X186743500Y-64348200D02*
X195863500Y-64348200D01*
X186743500Y-84928200D02*
X186743500Y-64348200D01*
X188053500Y-65648200D02*
X194553500Y-65648200D01*
X188053500Y-83628200D02*
X188053500Y-65648200D01*
X194553500Y-65648200D02*
X194553500Y-72588200D01*
X194553500Y-72588200D02*
X195863500Y-72588200D01*
X194553500Y-76688200D02*
X194553500Y-76688200D01*
X194553500Y-76688200D02*
X194553500Y-83628200D01*
X194553500Y-83628200D02*
X188053500Y-83628200D01*
X195863500Y-64348200D02*
X195863500Y-84928200D01*
X195863500Y-76688200D02*
X194553500Y-76688200D01*
X195863500Y-84928200D02*
X186743500Y-84928200D01*
X120878748Y-101070000D02*
X122301252Y-101070000D01*
X120878748Y-102890000D02*
X122301252Y-102890000D01*
X103430748Y-96004000D02*
X104853252Y-96004000D01*
X103430748Y-97824000D02*
X104853252Y-97824000D01*
X97330000Y-102260000D02*
X117910000Y-102260000D01*
X97330000Y-111380000D02*
X97330000Y-102260000D01*
X98630000Y-103570000D02*
X116610000Y-103570000D01*
X98630000Y-110070000D02*
X98630000Y-103570000D01*
X105570000Y-110070000D02*
X98630000Y-110070000D01*
X105570000Y-110070000D02*
X105570000Y-110070000D01*
X105570000Y-111380000D02*
X105570000Y-110070000D01*
X109670000Y-110070000D02*
X109670000Y-111380000D01*
X112200000Y-112770000D02*
X113200000Y-112770000D01*
X112700000Y-111770000D02*
X112200000Y-112770000D01*
X113200000Y-112770000D02*
X112700000Y-111770000D01*
X116610000Y-103570000D02*
X116610000Y-110070000D01*
X116610000Y-110070000D02*
X109670000Y-110070000D01*
X117910000Y-102260000D02*
X117910000Y-111380000D01*
X117910000Y-111380000D02*
X97330000Y-111380000D01*
%LPC*%
D13*
X131399400Y-134618400D03*
X131399400Y-132118400D03*
X131399400Y-129618400D03*
D14*
X100611400Y-71251400D03*
X107611400Y-71251400D03*
X100620000Y-94120000D03*
X107620000Y-94120000D03*
X192765700Y-134836200D03*
X185765700Y-134836200D03*
X100611400Y-59821400D03*
X107611400Y-59821400D03*
D13*
X125323800Y-67348400D03*
X125323800Y-69888400D03*
X125323800Y-72428400D03*
X125323800Y-74968400D03*
X125323800Y-77508400D03*
X125323800Y-80048400D03*
X150723800Y-80048400D03*
X150723800Y-77508400D03*
X150723800Y-74968400D03*
X150723800Y-72428400D03*
X150723800Y-69888400D03*
X150723800Y-67348400D03*
X140563800Y-57696400D03*
X138023800Y-57696400D03*
X135483800Y-57696400D03*
D14*
X100611400Y-82681400D03*
X107611400Y-82681400D03*
D13*
X139988800Y-131564600D03*
X142488800Y-131564600D03*
X144988800Y-131564600D03*
X147488800Y-131564600D03*
X181148000Y-70496600D03*
X181148000Y-72996600D03*
X118415000Y-72958000D03*
X118415000Y-70458000D03*
X118415000Y-67958000D03*
D15*
X100000000Y-120790000D03*
D14*
X102540000Y-120790000D03*
X100000000Y-123330000D03*
X102540000Y-123330000D03*
X100000000Y-125870000D03*
X102540000Y-125870000D03*
X100000000Y-128410000D03*
X102540000Y-128410000D03*
X100000000Y-130950000D03*
X102540000Y-130950000D03*
X100000000Y-133490000D03*
X102540000Y-133490000D03*
X100000000Y-136030000D03*
X102540000Y-136030000D03*
X100000000Y-138570000D03*
X102540000Y-138570000D03*
D16*
X172288400Y-126124000D03*
D17*
X172288400Y-123584000D03*
X172288400Y-121044000D03*
X172288400Y-118504000D03*
X172288400Y-115964000D03*
X172288400Y-113424000D03*
X172288400Y-110884000D03*
X172288400Y-108344000D03*
X172288400Y-105804000D03*
X172288400Y-103264000D03*
X172288400Y-100724000D03*
X172288400Y-98184000D03*
X172288400Y-95644000D03*
X172288400Y-93104000D03*
X172288400Y-90564000D03*
X172288400Y-88024000D03*
X172288400Y-85484000D03*
X172288400Y-82944000D03*
X172288400Y-80404000D03*
X172288400Y-77864000D03*
X172288400Y-75324000D03*
X172288400Y-72784000D03*
X172288400Y-70244000D03*
X172288400Y-67704000D03*
X157048400Y-67704000D03*
X157048400Y-70244000D03*
X157048400Y-72784000D03*
X157048400Y-75324000D03*
X157048400Y-77864000D03*
X157048400Y-80404000D03*
X157048400Y-82944000D03*
X157048400Y-85484000D03*
X157048400Y-88024000D03*
X157048400Y-90564000D03*
X157048400Y-93104000D03*
X157048400Y-95644000D03*
X157048400Y-98184000D03*
X157048400Y-100724000D03*
X157048400Y-103264000D03*
X157048400Y-105804000D03*
X157048400Y-108344000D03*
X157048400Y-110884000D03*
X157048400Y-113424000D03*
X157048400Y-115964000D03*
X157048400Y-118504000D03*
X157048400Y-121044000D03*
X157048400Y-123584000D03*
X157048400Y-126124000D03*
X159588400Y-123584000D03*
X169748400Y-80404000D03*
X167208400Y-80404000D03*
X164668400Y-80404000D03*
X162128400Y-80404000D03*
X159588400Y-80404000D03*
D16*
X169237600Y-119824800D03*
D17*
X169237600Y-117284800D03*
X169237600Y-114744800D03*
X169237600Y-112204800D03*
X169237600Y-109664800D03*
D18*
X159486800Y-113154000D03*
D19*
X161486800Y-113154000D03*
X163486800Y-113154000D03*
X163486800Y-111154000D03*
X161486800Y-111154000D03*
X159486800Y-111154000D03*
X163398400Y-125394000D03*
X165938400Y-125394000D03*
D13*
X117551400Y-79946800D03*
X120051400Y-79946800D03*
X150723800Y-122669600D03*
X150723800Y-120129600D03*
X150723800Y-117589600D03*
X150723800Y-115049600D03*
X150723800Y-112509600D03*
X150723800Y-109969600D03*
X150723800Y-107429600D03*
X150723800Y-104889600D03*
X150723800Y-102349600D03*
X149707800Y-95872600D03*
X147167800Y-95872600D03*
X144627800Y-95872600D03*
X142087800Y-95872600D03*
X139547800Y-95872600D03*
X137007800Y-95872600D03*
D20*
X123114000Y-105550000D03*
X119964000Y-105550000D03*
X123165000Y-109360000D03*
X120015000Y-109360000D03*
D21*
X120193000Y-112662000D03*
X123143000Y-112662000D03*
D22*
X180568800Y-57655100D03*
D14*
X180568800Y-60195100D03*
X183108800Y-57655100D03*
X183108800Y-60195100D03*
X185648800Y-57655100D03*
X185648800Y-60195100D03*
X188188800Y-57655100D03*
X188188800Y-60195100D03*
X190728800Y-57655100D03*
X190728800Y-60195100D03*
D15*
X190068400Y-101333600D03*
D14*
X192608400Y-101333600D03*
X190068400Y-98793600D03*
X192608400Y-98793600D03*
X190068400Y-96253600D03*
X192608400Y-96253600D03*
X190068400Y-93713600D03*
X192608400Y-93713600D03*
X190068400Y-91173600D03*
X192608400Y-91173600D03*
D23*
X102489000Y-100470000D03*
X105639000Y-100470000D03*
D13*
X192942200Y-121247200D03*
X190442200Y-121247200D03*
X187942200Y-121247200D03*
D24*
X192573500Y-69558200D03*
D14*
X190033500Y-69558200D03*
X192573500Y-72098200D03*
X190033500Y-72098200D03*
X192573500Y-74638200D03*
X190033500Y-74638200D03*
X192573500Y-77178200D03*
X190033500Y-77178200D03*
X192573500Y-79718200D03*
X190033500Y-79718200D03*
D25*
X123065000Y-101980000D03*
X120115000Y-101980000D03*
X105617000Y-96914000D03*
X102667000Y-96914000D03*
D26*
X112700000Y-108090000D03*
D14*
X112700000Y-105550000D03*
X110160000Y-108090000D03*
X110160000Y-105550000D03*
X107620000Y-108090000D03*
X107620000Y-105550000D03*
X105080000Y-108090000D03*
X105080000Y-105550000D03*
X102540000Y-108090000D03*
X102540000Y-105550000D03*
%LPD*%
M02*
