G04 #@! TF.GenerationSoftware,KiCad,Pcbnew,8.0.5*
G04 #@! TF.CreationDate,2024-09-11T06:58:09-04:00*
G04 #@! TF.ProjectId,t41_2_main_board,7434315f-325f-46d6-9169-6e5f626f6172,1.0*
G04 #@! TF.SameCoordinates,Original*
G04 #@! TF.FileFunction,Legend,Top*
G04 #@! TF.FilePolarity,Positive*
%FSLAX46Y46*%
G04 Gerber Fmt 4.6, Leading zero omitted, Abs format (unit mm)*
G04 Created by KiCad (PCBNEW 8.0.5) date 2024-09-11 06:58:09*
%MOMM*%
%LPD*%
G01*
G04 APERTURE LIST*
G04 Aperture macros list*
%AMRoundRect*
0 Rectangle with rounded corners*
0 $1 Rounding radius*
0 $2 $3 $4 $5 $6 $7 $8 $9 X,Y pos of 4 corners*
0 Add a 4 corners polygon primitive as box body*
4,1,4,$2,$3,$4,$5,$6,$7,$8,$9,$2,$3,0*
0 Add four circle primitives for the rounded corners*
1,1,$1+$1,$2,$3*
1,1,$1+$1,$4,$5*
1,1,$1+$1,$6,$7*
1,1,$1+$1,$8,$9*
0 Add four rect primitives between the rounded corners*
20,1,$1+$1,$2,$3,$4,$5,0*
20,1,$1+$1,$4,$5,$6,$7,0*
20,1,$1+$1,$6,$7,$8,$9,0*
20,1,$1+$1,$8,$9,$2,$3,0*%
G04 Aperture macros list end*
%ADD10C,0.187500*%
%ADD11C,0.150000*%
%ADD12C,0.200000*%
%ADD13C,0.100000*%
%ADD14C,0.120000*%
%ADD15C,0.127000*%
%ADD16RoundRect,0.250000X0.275000X0.700000X-0.275000X0.700000X-0.275000X-0.700000X0.275000X-0.700000X0*%
%ADD17RoundRect,0.250000X0.312500X0.625000X-0.312500X0.625000X-0.312500X-0.625000X0.312500X-0.625000X0*%
%ADD18RoundRect,0.250000X-0.650000X0.325000X-0.650000X-0.325000X0.650000X-0.325000X0.650000X0.325000X0*%
%ADD19RoundRect,0.250000X-0.325000X-0.650000X0.325000X-0.650000X0.325000X0.650000X-0.325000X0.650000X0*%
%ADD20RoundRect,0.250000X0.325000X0.650000X-0.325000X0.650000X-0.325000X-0.650000X0.325000X-0.650000X0*%
%ADD21RoundRect,0.250000X-0.275000X-0.700000X0.275000X-0.700000X0.275000X0.700000X-0.275000X0.700000X0*%
%ADD22RoundRect,0.250000X-0.312500X-0.625000X0.312500X-0.625000X0.312500X0.625000X-0.312500X0.625000X0*%
%ADD23C,1.700000*%
%ADD24R,2.200000X2.800000*%
%ADD25R,2.800000X2.800000*%
%ADD26R,2.600000X2.800000*%
%ADD27RoundRect,0.150000X0.825000X0.150000X-0.825000X0.150000X-0.825000X-0.150000X0.825000X-0.150000X0*%
%ADD28RoundRect,0.250000X0.650000X-0.325000X0.650000X0.325000X-0.650000X0.325000X-0.650000X-0.325000X0*%
%ADD29RoundRect,0.250000X-0.625000X0.312500X-0.625000X-0.312500X0.625000X-0.312500X0.625000X0.312500X0*%
%ADD30C,2.100000*%
%ADD31RoundRect,0.150000X-0.825000X-0.150000X0.825000X-0.150000X0.825000X0.150000X-0.825000X0.150000X0*%
%ADD32RoundRect,0.250000X-0.600000X-0.600000X0.600000X-0.600000X0.600000X0.600000X-0.600000X0.600000X0*%
%ADD33R,1.600000X1.600000*%
%ADD34C,1.600000*%
%ADD35R,1.300000X1.300000*%
%ADD36C,1.300000*%
%ADD37RoundRect,0.250000X-0.600000X0.600000X-0.600000X-0.600000X0.600000X-0.600000X0.600000X0.600000X0*%
%ADD38RoundRect,0.250000X0.600000X0.600000X-0.600000X0.600000X-0.600000X-0.600000X0.600000X-0.600000X0*%
%ADD39RoundRect,0.250000X0.600000X-0.600000X0.600000X0.600000X-0.600000X0.600000X-0.600000X-0.600000X0*%
G04 APERTURE END LIST*
D10*
X129344440Y-137740278D02*
X130273012Y-137740278D01*
X130273012Y-137740278D02*
X129773012Y-138311707D01*
X129773012Y-138311707D02*
X129987297Y-138311707D01*
X129987297Y-138311707D02*
X130130155Y-138383135D01*
X130130155Y-138383135D02*
X130201583Y-138454564D01*
X130201583Y-138454564D02*
X130273012Y-138597421D01*
X130273012Y-138597421D02*
X130273012Y-138954564D01*
X130273012Y-138954564D02*
X130201583Y-139097421D01*
X130201583Y-139097421D02*
X130130155Y-139168850D01*
X130130155Y-139168850D02*
X129987297Y-139240278D01*
X129987297Y-139240278D02*
X129558726Y-139240278D01*
X129558726Y-139240278D02*
X129415869Y-139168850D01*
X129415869Y-139168850D02*
X129344440Y-139097421D01*
X130915868Y-139097421D02*
X130987297Y-139168850D01*
X130987297Y-139168850D02*
X130915868Y-139240278D01*
X130915868Y-139240278D02*
X130844440Y-139168850D01*
X130844440Y-139168850D02*
X130915868Y-139097421D01*
X130915868Y-139097421D02*
X130915868Y-139240278D01*
X131487297Y-137740278D02*
X132415869Y-137740278D01*
X132415869Y-137740278D02*
X131915869Y-138311707D01*
X131915869Y-138311707D02*
X132130154Y-138311707D01*
X132130154Y-138311707D02*
X132273012Y-138383135D01*
X132273012Y-138383135D02*
X132344440Y-138454564D01*
X132344440Y-138454564D02*
X132415869Y-138597421D01*
X132415869Y-138597421D02*
X132415869Y-138954564D01*
X132415869Y-138954564D02*
X132344440Y-139097421D01*
X132344440Y-139097421D02*
X132273012Y-139168850D01*
X132273012Y-139168850D02*
X132130154Y-139240278D01*
X132130154Y-139240278D02*
X131701583Y-139240278D01*
X131701583Y-139240278D02*
X131558726Y-139168850D01*
X131558726Y-139168850D02*
X131487297Y-139097421D01*
X132844440Y-137740278D02*
X133344440Y-139240278D01*
X133344440Y-139240278D02*
X133844440Y-137740278D01*
D11*
X138023198Y-127944657D02*
X138737484Y-127944657D01*
X137880341Y-128373228D02*
X138380341Y-126873228D01*
X138380341Y-126873228D02*
X138880341Y-128373228D01*
X139380340Y-126873228D02*
X139380340Y-128087514D01*
X139380340Y-128087514D02*
X139451769Y-128230371D01*
X139451769Y-128230371D02*
X139523198Y-128301800D01*
X139523198Y-128301800D02*
X139666055Y-128373228D01*
X139666055Y-128373228D02*
X139951769Y-128373228D01*
X139951769Y-128373228D02*
X140094626Y-128301800D01*
X140094626Y-128301800D02*
X140166055Y-128230371D01*
X140166055Y-128230371D02*
X140237483Y-128087514D01*
X140237483Y-128087514D02*
X140237483Y-126873228D01*
X140951769Y-128373228D02*
X140951769Y-126873228D01*
X140951769Y-126873228D02*
X141308912Y-126873228D01*
X141308912Y-126873228D02*
X141523198Y-126944657D01*
X141523198Y-126944657D02*
X141666055Y-127087514D01*
X141666055Y-127087514D02*
X141737484Y-127230371D01*
X141737484Y-127230371D02*
X141808912Y-127516085D01*
X141808912Y-127516085D02*
X141808912Y-127730371D01*
X141808912Y-127730371D02*
X141737484Y-128016085D01*
X141737484Y-128016085D02*
X141666055Y-128158942D01*
X141666055Y-128158942D02*
X141523198Y-128301800D01*
X141523198Y-128301800D02*
X141308912Y-128373228D01*
X141308912Y-128373228D02*
X140951769Y-128373228D01*
X142451769Y-128373228D02*
X142451769Y-126873228D01*
X143451770Y-126873228D02*
X143737484Y-126873228D01*
X143737484Y-126873228D02*
X143880341Y-126944657D01*
X143880341Y-126944657D02*
X144023198Y-127087514D01*
X144023198Y-127087514D02*
X144094627Y-127373228D01*
X144094627Y-127373228D02*
X144094627Y-127873228D01*
X144094627Y-127873228D02*
X144023198Y-128158942D01*
X144023198Y-128158942D02*
X143880341Y-128301800D01*
X143880341Y-128301800D02*
X143737484Y-128373228D01*
X143737484Y-128373228D02*
X143451770Y-128373228D01*
X143451770Y-128373228D02*
X143308913Y-128301800D01*
X143308913Y-128301800D02*
X143166055Y-128158942D01*
X143166055Y-128158942D02*
X143094627Y-127873228D01*
X143094627Y-127873228D02*
X143094627Y-127373228D01*
X143094627Y-127373228D02*
X143166055Y-127087514D01*
X143166055Y-127087514D02*
X143308913Y-126944657D01*
X143308913Y-126944657D02*
X143451770Y-126873228D01*
X146166056Y-126873228D02*
X146451770Y-126873228D01*
X146451770Y-126873228D02*
X146594627Y-126944657D01*
X146594627Y-126944657D02*
X146737484Y-127087514D01*
X146737484Y-127087514D02*
X146808913Y-127373228D01*
X146808913Y-127373228D02*
X146808913Y-127873228D01*
X146808913Y-127873228D02*
X146737484Y-128158942D01*
X146737484Y-128158942D02*
X146594627Y-128301800D01*
X146594627Y-128301800D02*
X146451770Y-128373228D01*
X146451770Y-128373228D02*
X146166056Y-128373228D01*
X146166056Y-128373228D02*
X146023199Y-128301800D01*
X146023199Y-128301800D02*
X145880341Y-128158942D01*
X145880341Y-128158942D02*
X145808913Y-127873228D01*
X145808913Y-127873228D02*
X145808913Y-127373228D01*
X145808913Y-127373228D02*
X145880341Y-127087514D01*
X145880341Y-127087514D02*
X146023199Y-126944657D01*
X146023199Y-126944657D02*
X146166056Y-126873228D01*
X147451770Y-126873228D02*
X147451770Y-128087514D01*
X147451770Y-128087514D02*
X147523199Y-128230371D01*
X147523199Y-128230371D02*
X147594628Y-128301800D01*
X147594628Y-128301800D02*
X147737485Y-128373228D01*
X147737485Y-128373228D02*
X148023199Y-128373228D01*
X148023199Y-128373228D02*
X148166056Y-128301800D01*
X148166056Y-128301800D02*
X148237485Y-128230371D01*
X148237485Y-128230371D02*
X148308913Y-128087514D01*
X148308913Y-128087514D02*
X148308913Y-126873228D01*
X148808914Y-126873228D02*
X149666057Y-126873228D01*
X149237485Y-128373228D02*
X149237485Y-126873228D01*
X164963874Y-135675838D02*
X164963874Y-133675838D01*
X166106731Y-135675838D02*
X165249588Y-134532980D01*
X166106731Y-133675838D02*
X164963874Y-134818695D01*
X167630541Y-134628219D02*
X166963874Y-134628219D01*
X166963874Y-135675838D02*
X166963874Y-133675838D01*
X166963874Y-133675838D02*
X167916255Y-133675838D01*
X169630541Y-133675838D02*
X168678160Y-133675838D01*
X168678160Y-133675838D02*
X168582922Y-134628219D01*
X168582922Y-134628219D02*
X168678160Y-134532980D01*
X168678160Y-134532980D02*
X168868636Y-134437742D01*
X168868636Y-134437742D02*
X169344827Y-134437742D01*
X169344827Y-134437742D02*
X169535303Y-134532980D01*
X169535303Y-134532980D02*
X169630541Y-134628219D01*
X169630541Y-134628219D02*
X169725779Y-134818695D01*
X169725779Y-134818695D02*
X169725779Y-135294885D01*
X169725779Y-135294885D02*
X169630541Y-135485361D01*
X169630541Y-135485361D02*
X169535303Y-135580600D01*
X169535303Y-135580600D02*
X169344827Y-135675838D01*
X169344827Y-135675838D02*
X168868636Y-135675838D01*
X168868636Y-135675838D02*
X168678160Y-135580600D01*
X168678160Y-135580600D02*
X168582922Y-135485361D01*
X170582922Y-135675838D02*
X170582922Y-133675838D01*
X170582922Y-133675838D02*
X171725779Y-135675838D01*
X171725779Y-135675838D02*
X171725779Y-133675838D01*
D10*
X131014383Y-125192678D02*
X130300097Y-125192678D01*
X130300097Y-125192678D02*
X130228669Y-125906964D01*
X130228669Y-125906964D02*
X130300097Y-125835535D01*
X130300097Y-125835535D02*
X130442955Y-125764107D01*
X130442955Y-125764107D02*
X130800097Y-125764107D01*
X130800097Y-125764107D02*
X130942955Y-125835535D01*
X130942955Y-125835535D02*
X131014383Y-125906964D01*
X131014383Y-125906964D02*
X131085812Y-126049821D01*
X131085812Y-126049821D02*
X131085812Y-126406964D01*
X131085812Y-126406964D02*
X131014383Y-126549821D01*
X131014383Y-126549821D02*
X130942955Y-126621250D01*
X130942955Y-126621250D02*
X130800097Y-126692678D01*
X130800097Y-126692678D02*
X130442955Y-126692678D01*
X130442955Y-126692678D02*
X130300097Y-126621250D01*
X130300097Y-126621250D02*
X130228669Y-126549821D01*
X131514383Y-125192678D02*
X132014383Y-126692678D01*
X132014383Y-126692678D02*
X132514383Y-125192678D01*
D11*
X158483741Y-63955228D02*
X159340884Y-63955228D01*
X158912312Y-65455228D02*
X158912312Y-63955228D01*
X159840883Y-64669514D02*
X160340883Y-64669514D01*
X160555169Y-65455228D02*
X159840883Y-65455228D01*
X159840883Y-65455228D02*
X159840883Y-63955228D01*
X159840883Y-63955228D02*
X160555169Y-63955228D01*
X161198026Y-64669514D02*
X161698026Y-64669514D01*
X161912312Y-65455228D02*
X161198026Y-65455228D01*
X161198026Y-65455228D02*
X161198026Y-63955228D01*
X161198026Y-63955228D02*
X161912312Y-63955228D01*
X162555169Y-65455228D02*
X162555169Y-63955228D01*
X162555169Y-63955228D02*
X163412312Y-65455228D01*
X163412312Y-65455228D02*
X163412312Y-63955228D01*
X164055170Y-65383800D02*
X164269456Y-65455228D01*
X164269456Y-65455228D02*
X164626598Y-65455228D01*
X164626598Y-65455228D02*
X164769456Y-65383800D01*
X164769456Y-65383800D02*
X164840884Y-65312371D01*
X164840884Y-65312371D02*
X164912313Y-65169514D01*
X164912313Y-65169514D02*
X164912313Y-65026657D01*
X164912313Y-65026657D02*
X164840884Y-64883800D01*
X164840884Y-64883800D02*
X164769456Y-64812371D01*
X164769456Y-64812371D02*
X164626598Y-64740942D01*
X164626598Y-64740942D02*
X164340884Y-64669514D01*
X164340884Y-64669514D02*
X164198027Y-64598085D01*
X164198027Y-64598085D02*
X164126598Y-64526657D01*
X164126598Y-64526657D02*
X164055170Y-64383800D01*
X164055170Y-64383800D02*
X164055170Y-64240942D01*
X164055170Y-64240942D02*
X164126598Y-64098085D01*
X164126598Y-64098085D02*
X164198027Y-64026657D01*
X164198027Y-64026657D02*
X164340884Y-63955228D01*
X164340884Y-63955228D02*
X164698027Y-63955228D01*
X164698027Y-63955228D02*
X164912313Y-64026657D01*
X165840884Y-64740942D02*
X165840884Y-65455228D01*
X165340884Y-63955228D02*
X165840884Y-64740942D01*
X165840884Y-64740942D02*
X166340884Y-63955228D01*
X168626598Y-64455228D02*
X168626598Y-65455228D01*
X168269455Y-63883800D02*
X167912312Y-64955228D01*
X167912312Y-64955228D02*
X168840883Y-64955228D01*
X169412311Y-65312371D02*
X169483740Y-65383800D01*
X169483740Y-65383800D02*
X169412311Y-65455228D01*
X169412311Y-65455228D02*
X169340883Y-65383800D01*
X169340883Y-65383800D02*
X169412311Y-65312371D01*
X169412311Y-65312371D02*
X169412311Y-65455228D01*
X170912312Y-65455228D02*
X170055169Y-65455228D01*
X170483740Y-65455228D02*
X170483740Y-63955228D01*
X170483740Y-63955228D02*
X170340883Y-64169514D01*
X170340883Y-64169514D02*
X170198026Y-64312371D01*
X170198026Y-64312371D02*
X170055169Y-64383800D01*
D12*
X129379654Y-141521838D02*
X130522511Y-141521838D01*
X129951082Y-143521838D02*
X129951082Y-141521838D01*
X132046321Y-142188504D02*
X132046321Y-143521838D01*
X131570130Y-141426600D02*
X131093940Y-142855171D01*
X131093940Y-142855171D02*
X132332035Y-142855171D01*
X134141559Y-143521838D02*
X132998702Y-143521838D01*
X133570130Y-143521838D02*
X133570130Y-141521838D01*
X133570130Y-141521838D02*
X133379654Y-141807552D01*
X133379654Y-141807552D02*
X133189178Y-141998028D01*
X133189178Y-141998028D02*
X132998702Y-142093266D01*
X134998702Y-142759933D02*
X136522512Y-142759933D01*
X137379654Y-141712314D02*
X137474892Y-141617076D01*
X137474892Y-141617076D02*
X137665368Y-141521838D01*
X137665368Y-141521838D02*
X138141559Y-141521838D01*
X138141559Y-141521838D02*
X138332035Y-141617076D01*
X138332035Y-141617076D02*
X138427273Y-141712314D01*
X138427273Y-141712314D02*
X138522511Y-141902790D01*
X138522511Y-141902790D02*
X138522511Y-142093266D01*
X138522511Y-142093266D02*
X138427273Y-142378980D01*
X138427273Y-142378980D02*
X137284416Y-143521838D01*
X137284416Y-143521838D02*
X138522511Y-143521838D01*
X140903464Y-143521838D02*
X140903464Y-141521838D01*
X140903464Y-141521838D02*
X141570131Y-142950409D01*
X141570131Y-142950409D02*
X142236797Y-141521838D01*
X142236797Y-141521838D02*
X142236797Y-143521838D01*
X143093940Y-142950409D02*
X144046321Y-142950409D01*
X142903464Y-143521838D02*
X143570130Y-141521838D01*
X143570130Y-141521838D02*
X144236797Y-143521838D01*
X144903464Y-143521838D02*
X144903464Y-141521838D01*
X145855845Y-143521838D02*
X145855845Y-141521838D01*
X145855845Y-141521838D02*
X146998702Y-143521838D01*
X146998702Y-143521838D02*
X146998702Y-141521838D01*
X150141560Y-142474219D02*
X150427274Y-142569457D01*
X150427274Y-142569457D02*
X150522512Y-142664695D01*
X150522512Y-142664695D02*
X150617750Y-142855171D01*
X150617750Y-142855171D02*
X150617750Y-143140885D01*
X150617750Y-143140885D02*
X150522512Y-143331361D01*
X150522512Y-143331361D02*
X150427274Y-143426600D01*
X150427274Y-143426600D02*
X150236798Y-143521838D01*
X150236798Y-143521838D02*
X149474893Y-143521838D01*
X149474893Y-143521838D02*
X149474893Y-141521838D01*
X149474893Y-141521838D02*
X150141560Y-141521838D01*
X150141560Y-141521838D02*
X150332036Y-141617076D01*
X150332036Y-141617076D02*
X150427274Y-141712314D01*
X150427274Y-141712314D02*
X150522512Y-141902790D01*
X150522512Y-141902790D02*
X150522512Y-142093266D01*
X150522512Y-142093266D02*
X150427274Y-142283742D01*
X150427274Y-142283742D02*
X150332036Y-142378980D01*
X150332036Y-142378980D02*
X150141560Y-142474219D01*
X150141560Y-142474219D02*
X149474893Y-142474219D01*
X151855845Y-141521838D02*
X152236798Y-141521838D01*
X152236798Y-141521838D02*
X152427274Y-141617076D01*
X152427274Y-141617076D02*
X152617750Y-141807552D01*
X152617750Y-141807552D02*
X152712988Y-142188504D01*
X152712988Y-142188504D02*
X152712988Y-142855171D01*
X152712988Y-142855171D02*
X152617750Y-143236123D01*
X152617750Y-143236123D02*
X152427274Y-143426600D01*
X152427274Y-143426600D02*
X152236798Y-143521838D01*
X152236798Y-143521838D02*
X151855845Y-143521838D01*
X151855845Y-143521838D02*
X151665369Y-143426600D01*
X151665369Y-143426600D02*
X151474893Y-143236123D01*
X151474893Y-143236123D02*
X151379655Y-142855171D01*
X151379655Y-142855171D02*
X151379655Y-142188504D01*
X151379655Y-142188504D02*
X151474893Y-141807552D01*
X151474893Y-141807552D02*
X151665369Y-141617076D01*
X151665369Y-141617076D02*
X151855845Y-141521838D01*
X153474893Y-142950409D02*
X154427274Y-142950409D01*
X153284417Y-143521838D02*
X153951083Y-141521838D01*
X153951083Y-141521838D02*
X154617750Y-143521838D01*
X156427274Y-143521838D02*
X155760607Y-142569457D01*
X155284417Y-143521838D02*
X155284417Y-141521838D01*
X155284417Y-141521838D02*
X156046322Y-141521838D01*
X156046322Y-141521838D02*
X156236798Y-141617076D01*
X156236798Y-141617076D02*
X156332036Y-141712314D01*
X156332036Y-141712314D02*
X156427274Y-141902790D01*
X156427274Y-141902790D02*
X156427274Y-142188504D01*
X156427274Y-142188504D02*
X156332036Y-142378980D01*
X156332036Y-142378980D02*
X156236798Y-142474219D01*
X156236798Y-142474219D02*
X156046322Y-142569457D01*
X156046322Y-142569457D02*
X155284417Y-142569457D01*
X157284417Y-143521838D02*
X157284417Y-141521838D01*
X157284417Y-141521838D02*
X157760607Y-141521838D01*
X157760607Y-141521838D02*
X158046322Y-141617076D01*
X158046322Y-141617076D02*
X158236798Y-141807552D01*
X158236798Y-141807552D02*
X158332036Y-141998028D01*
X158332036Y-141998028D02*
X158427274Y-142378980D01*
X158427274Y-142378980D02*
X158427274Y-142664695D01*
X158427274Y-142664695D02*
X158332036Y-143045647D01*
X158332036Y-143045647D02*
X158236798Y-143236123D01*
X158236798Y-143236123D02*
X158046322Y-143426600D01*
X158046322Y-143426600D02*
X157760607Y-143521838D01*
X157760607Y-143521838D02*
X157284417Y-143521838D01*
X160522513Y-141521838D02*
X161189179Y-143521838D01*
X161189179Y-143521838D02*
X161855846Y-141521838D01*
X163570132Y-143521838D02*
X162427275Y-143521838D01*
X162998703Y-143521838D02*
X162998703Y-141521838D01*
X162998703Y-141521838D02*
X162808227Y-141807552D01*
X162808227Y-141807552D02*
X162617751Y-141998028D01*
X162617751Y-141998028D02*
X162427275Y-142093266D01*
X164427275Y-143331361D02*
X164522513Y-143426600D01*
X164522513Y-143426600D02*
X164427275Y-143521838D01*
X164427275Y-143521838D02*
X164332037Y-143426600D01*
X164332037Y-143426600D02*
X164427275Y-143331361D01*
X164427275Y-143331361D02*
X164427275Y-143521838D01*
X166427275Y-143521838D02*
X165284418Y-143521838D01*
X165855846Y-143521838D02*
X165855846Y-141521838D01*
X165855846Y-141521838D02*
X165665370Y-141807552D01*
X165665370Y-141807552D02*
X165474894Y-141998028D01*
X165474894Y-141998028D02*
X165284418Y-142093266D01*
D11*
X114508266Y-84805409D02*
X114174933Y-84805409D01*
X114174933Y-85329219D02*
X114174933Y-84329219D01*
X114174933Y-84329219D02*
X114651123Y-84329219D01*
X115365409Y-84805409D02*
X115508266Y-84853028D01*
X115508266Y-84853028D02*
X115555885Y-84900647D01*
X115555885Y-84900647D02*
X115603504Y-84995885D01*
X115603504Y-84995885D02*
X115603504Y-85138742D01*
X115603504Y-85138742D02*
X115555885Y-85233980D01*
X115555885Y-85233980D02*
X115508266Y-85281600D01*
X115508266Y-85281600D02*
X115413028Y-85329219D01*
X115413028Y-85329219D02*
X115032076Y-85329219D01*
X115032076Y-85329219D02*
X115032076Y-84329219D01*
X115032076Y-84329219D02*
X115365409Y-84329219D01*
X115365409Y-84329219D02*
X115460647Y-84376838D01*
X115460647Y-84376838D02*
X115508266Y-84424457D01*
X115508266Y-84424457D02*
X115555885Y-84519695D01*
X115555885Y-84519695D02*
X115555885Y-84614933D01*
X115555885Y-84614933D02*
X115508266Y-84710171D01*
X115508266Y-84710171D02*
X115460647Y-84757790D01*
X115460647Y-84757790D02*
X115365409Y-84805409D01*
X115365409Y-84805409D02*
X115032076Y-84805409D01*
X116508266Y-84329219D02*
X116032076Y-84329219D01*
X116032076Y-84329219D02*
X115984457Y-84805409D01*
X115984457Y-84805409D02*
X116032076Y-84757790D01*
X116032076Y-84757790D02*
X116127314Y-84710171D01*
X116127314Y-84710171D02*
X116365409Y-84710171D01*
X116365409Y-84710171D02*
X116460647Y-84757790D01*
X116460647Y-84757790D02*
X116508266Y-84805409D01*
X116508266Y-84805409D02*
X116555885Y-84900647D01*
X116555885Y-84900647D02*
X116555885Y-85138742D01*
X116555885Y-85138742D02*
X116508266Y-85233980D01*
X116508266Y-85233980D02*
X116460647Y-85281600D01*
X116460647Y-85281600D02*
X116365409Y-85329219D01*
X116365409Y-85329219D02*
X116127314Y-85329219D01*
X116127314Y-85329219D02*
X116032076Y-85281600D01*
X116032076Y-85281600D02*
X115984457Y-85233980D01*
X145807333Y-64602819D02*
X145474000Y-64126628D01*
X145235905Y-64602819D02*
X145235905Y-63602819D01*
X145235905Y-63602819D02*
X145616857Y-63602819D01*
X145616857Y-63602819D02*
X145712095Y-63650438D01*
X145712095Y-63650438D02*
X145759714Y-63698057D01*
X145759714Y-63698057D02*
X145807333Y-63793295D01*
X145807333Y-63793295D02*
X145807333Y-63936152D01*
X145807333Y-63936152D02*
X145759714Y-64031390D01*
X145759714Y-64031390D02*
X145712095Y-64079009D01*
X145712095Y-64079009D02*
X145616857Y-64126628D01*
X145616857Y-64126628D02*
X145235905Y-64126628D01*
X146664476Y-63936152D02*
X146664476Y-64602819D01*
X146426381Y-63555200D02*
X146188286Y-64269485D01*
X146188286Y-64269485D02*
X146807333Y-64269485D01*
X145307333Y-65872819D02*
X144735905Y-65872819D01*
X145021619Y-65872819D02*
X145021619Y-64872819D01*
X145021619Y-64872819D02*
X144926381Y-65015676D01*
X144926381Y-65015676D02*
X144831143Y-65110914D01*
X144831143Y-65110914D02*
X144735905Y-65158533D01*
X145926381Y-64872819D02*
X146021619Y-64872819D01*
X146021619Y-64872819D02*
X146116857Y-64920438D01*
X146116857Y-64920438D02*
X146164476Y-64968057D01*
X146164476Y-64968057D02*
X146212095Y-65063295D01*
X146212095Y-65063295D02*
X146259714Y-65253771D01*
X146259714Y-65253771D02*
X146259714Y-65491866D01*
X146259714Y-65491866D02*
X146212095Y-65682342D01*
X146212095Y-65682342D02*
X146164476Y-65777580D01*
X146164476Y-65777580D02*
X146116857Y-65825200D01*
X146116857Y-65825200D02*
X146021619Y-65872819D01*
X146021619Y-65872819D02*
X145926381Y-65872819D01*
X145926381Y-65872819D02*
X145831143Y-65825200D01*
X145831143Y-65825200D02*
X145783524Y-65777580D01*
X145783524Y-65777580D02*
X145735905Y-65682342D01*
X145735905Y-65682342D02*
X145688286Y-65491866D01*
X145688286Y-65491866D02*
X145688286Y-65253771D01*
X145688286Y-65253771D02*
X145735905Y-65063295D01*
X145735905Y-65063295D02*
X145783524Y-64968057D01*
X145783524Y-64968057D02*
X145831143Y-64920438D01*
X145831143Y-64920438D02*
X145926381Y-64872819D01*
X146878762Y-64872819D02*
X146974000Y-64872819D01*
X146974000Y-64872819D02*
X147069238Y-64920438D01*
X147069238Y-64920438D02*
X147116857Y-64968057D01*
X147116857Y-64968057D02*
X147164476Y-65063295D01*
X147164476Y-65063295D02*
X147212095Y-65253771D01*
X147212095Y-65253771D02*
X147212095Y-65491866D01*
X147212095Y-65491866D02*
X147164476Y-65682342D01*
X147164476Y-65682342D02*
X147116857Y-65777580D01*
X147116857Y-65777580D02*
X147069238Y-65825200D01*
X147069238Y-65825200D02*
X146974000Y-65872819D01*
X146974000Y-65872819D02*
X146878762Y-65872819D01*
X146878762Y-65872819D02*
X146783524Y-65825200D01*
X146783524Y-65825200D02*
X146735905Y-65777580D01*
X146735905Y-65777580D02*
X146688286Y-65682342D01*
X146688286Y-65682342D02*
X146640667Y-65491866D01*
X146640667Y-65491866D02*
X146640667Y-65253771D01*
X146640667Y-65253771D02*
X146688286Y-65063295D01*
X146688286Y-65063295D02*
X146735905Y-64968057D01*
X146735905Y-64968057D02*
X146783524Y-64920438D01*
X146783524Y-64920438D02*
X146878762Y-64872819D01*
X156202342Y-135576780D02*
X156154723Y-135624400D01*
X156154723Y-135624400D02*
X156011866Y-135672019D01*
X156011866Y-135672019D02*
X155916628Y-135672019D01*
X155916628Y-135672019D02*
X155773771Y-135624400D01*
X155773771Y-135624400D02*
X155678533Y-135529161D01*
X155678533Y-135529161D02*
X155630914Y-135433923D01*
X155630914Y-135433923D02*
X155583295Y-135243447D01*
X155583295Y-135243447D02*
X155583295Y-135100590D01*
X155583295Y-135100590D02*
X155630914Y-134910114D01*
X155630914Y-134910114D02*
X155678533Y-134814876D01*
X155678533Y-134814876D02*
X155773771Y-134719638D01*
X155773771Y-134719638D02*
X155916628Y-134672019D01*
X155916628Y-134672019D02*
X156011866Y-134672019D01*
X156011866Y-134672019D02*
X156154723Y-134719638D01*
X156154723Y-134719638D02*
X156202342Y-134767257D01*
X157154723Y-135672019D02*
X156583295Y-135672019D01*
X156869009Y-135672019D02*
X156869009Y-134672019D01*
X156869009Y-134672019D02*
X156773771Y-134814876D01*
X156773771Y-134814876D02*
X156678533Y-134910114D01*
X156678533Y-134910114D02*
X156583295Y-134957733D01*
X158011866Y-135005352D02*
X158011866Y-135672019D01*
X157773771Y-134624400D02*
X157535676Y-135338685D01*
X157535676Y-135338685D02*
X158154723Y-135338685D01*
X155675448Y-136240457D02*
X155723067Y-136192838D01*
X155723067Y-136192838D02*
X155818305Y-136145219D01*
X155818305Y-136145219D02*
X156056400Y-136145219D01*
X156056400Y-136145219D02*
X156151638Y-136192838D01*
X156151638Y-136192838D02*
X156199257Y-136240457D01*
X156199257Y-136240457D02*
X156246876Y-136335695D01*
X156246876Y-136335695D02*
X156246876Y-136430933D01*
X156246876Y-136430933D02*
X156199257Y-136573790D01*
X156199257Y-136573790D02*
X155627829Y-137145219D01*
X155627829Y-137145219D02*
X156246876Y-137145219D01*
X156675448Y-137049980D02*
X156723067Y-137097600D01*
X156723067Y-137097600D02*
X156675448Y-137145219D01*
X156675448Y-137145219D02*
X156627829Y-137097600D01*
X156627829Y-137097600D02*
X156675448Y-137049980D01*
X156675448Y-137049980D02*
X156675448Y-137145219D01*
X157104019Y-136240457D02*
X157151638Y-136192838D01*
X157151638Y-136192838D02*
X157246876Y-136145219D01*
X157246876Y-136145219D02*
X157484971Y-136145219D01*
X157484971Y-136145219D02*
X157580209Y-136192838D01*
X157580209Y-136192838D02*
X157627828Y-136240457D01*
X157627828Y-136240457D02*
X157675447Y-136335695D01*
X157675447Y-136335695D02*
X157675447Y-136430933D01*
X157675447Y-136430933D02*
X157627828Y-136573790D01*
X157627828Y-136573790D02*
X157056400Y-137145219D01*
X157056400Y-137145219D02*
X157675447Y-137145219D01*
X158104019Y-136478552D02*
X158104019Y-137145219D01*
X158104019Y-136573790D02*
X158151638Y-136526171D01*
X158151638Y-136526171D02*
X158246876Y-136478552D01*
X158246876Y-136478552D02*
X158389733Y-136478552D01*
X158389733Y-136478552D02*
X158484971Y-136526171D01*
X158484971Y-136526171D02*
X158532590Y-136621409D01*
X158532590Y-136621409D02*
X158532590Y-137145219D01*
X159342114Y-136621409D02*
X159008781Y-136621409D01*
X159008781Y-137145219D02*
X159008781Y-136145219D01*
X159008781Y-136145219D02*
X159484971Y-136145219D01*
X109288542Y-116907780D02*
X109240923Y-116955400D01*
X109240923Y-116955400D02*
X109098066Y-117003019D01*
X109098066Y-117003019D02*
X109002828Y-117003019D01*
X109002828Y-117003019D02*
X108859971Y-116955400D01*
X108859971Y-116955400D02*
X108764733Y-116860161D01*
X108764733Y-116860161D02*
X108717114Y-116764923D01*
X108717114Y-116764923D02*
X108669495Y-116574447D01*
X108669495Y-116574447D02*
X108669495Y-116431590D01*
X108669495Y-116431590D02*
X108717114Y-116241114D01*
X108717114Y-116241114D02*
X108764733Y-116145876D01*
X108764733Y-116145876D02*
X108859971Y-116050638D01*
X108859971Y-116050638D02*
X109002828Y-116003019D01*
X109002828Y-116003019D02*
X109098066Y-116003019D01*
X109098066Y-116003019D02*
X109240923Y-116050638D01*
X109240923Y-116050638D02*
X109288542Y-116098257D01*
X110240923Y-117003019D02*
X109669495Y-117003019D01*
X109955209Y-117003019D02*
X109955209Y-116003019D01*
X109955209Y-116003019D02*
X109859971Y-116145876D01*
X109859971Y-116145876D02*
X109764733Y-116241114D01*
X109764733Y-116241114D02*
X109669495Y-116288733D01*
X110859971Y-116003019D02*
X110955209Y-116003019D01*
X110955209Y-116003019D02*
X111050447Y-116050638D01*
X111050447Y-116050638D02*
X111098066Y-116098257D01*
X111098066Y-116098257D02*
X111145685Y-116193495D01*
X111145685Y-116193495D02*
X111193304Y-116383971D01*
X111193304Y-116383971D02*
X111193304Y-116622066D01*
X111193304Y-116622066D02*
X111145685Y-116812542D01*
X111145685Y-116812542D02*
X111098066Y-116907780D01*
X111098066Y-116907780D02*
X111050447Y-116955400D01*
X111050447Y-116955400D02*
X110955209Y-117003019D01*
X110955209Y-117003019D02*
X110859971Y-117003019D01*
X110859971Y-117003019D02*
X110764733Y-116955400D01*
X110764733Y-116955400D02*
X110717114Y-116907780D01*
X110717114Y-116907780D02*
X110669495Y-116812542D01*
X110669495Y-116812542D02*
X110621876Y-116622066D01*
X110621876Y-116622066D02*
X110621876Y-116383971D01*
X110621876Y-116383971D02*
X110669495Y-116193495D01*
X110669495Y-116193495D02*
X110717114Y-116098257D01*
X110717114Y-116098257D02*
X110764733Y-116050638D01*
X110764733Y-116050638D02*
X110859971Y-116003019D01*
X107780542Y-117758752D02*
X107780542Y-118425419D01*
X107542447Y-117377800D02*
X107304352Y-118092085D01*
X107304352Y-118092085D02*
X107923399Y-118092085D01*
X108209114Y-117425419D02*
X108875780Y-117425419D01*
X108875780Y-117425419D02*
X108447209Y-118425419D01*
X109447209Y-117425419D02*
X109542447Y-117425419D01*
X109542447Y-117425419D02*
X109637685Y-117473038D01*
X109637685Y-117473038D02*
X109685304Y-117520657D01*
X109685304Y-117520657D02*
X109732923Y-117615895D01*
X109732923Y-117615895D02*
X109780542Y-117806371D01*
X109780542Y-117806371D02*
X109780542Y-118044466D01*
X109780542Y-118044466D02*
X109732923Y-118234942D01*
X109732923Y-118234942D02*
X109685304Y-118330180D01*
X109685304Y-118330180D02*
X109637685Y-118377800D01*
X109637685Y-118377800D02*
X109542447Y-118425419D01*
X109542447Y-118425419D02*
X109447209Y-118425419D01*
X109447209Y-118425419D02*
X109351971Y-118377800D01*
X109351971Y-118377800D02*
X109304352Y-118330180D01*
X109304352Y-118330180D02*
X109256733Y-118234942D01*
X109256733Y-118234942D02*
X109209114Y-118044466D01*
X109209114Y-118044466D02*
X109209114Y-117806371D01*
X109209114Y-117806371D02*
X109256733Y-117615895D01*
X109256733Y-117615895D02*
X109304352Y-117520657D01*
X109304352Y-117520657D02*
X109351971Y-117473038D01*
X109351971Y-117473038D02*
X109447209Y-117425419D01*
X110209114Y-117758752D02*
X110209114Y-118758752D01*
X110209114Y-117806371D02*
X110304352Y-117758752D01*
X110304352Y-117758752D02*
X110494828Y-117758752D01*
X110494828Y-117758752D02*
X110590066Y-117806371D01*
X110590066Y-117806371D02*
X110637685Y-117853990D01*
X110637685Y-117853990D02*
X110685304Y-117949228D01*
X110685304Y-117949228D02*
X110685304Y-118234942D01*
X110685304Y-118234942D02*
X110637685Y-118330180D01*
X110637685Y-118330180D02*
X110590066Y-118377800D01*
X110590066Y-118377800D02*
X110494828Y-118425419D01*
X110494828Y-118425419D02*
X110304352Y-118425419D01*
X110304352Y-118425419D02*
X110209114Y-118377800D01*
X111447209Y-117901609D02*
X111113876Y-117901609D01*
X111113876Y-118425419D02*
X111113876Y-117425419D01*
X111113876Y-117425419D02*
X111590066Y-117425419D01*
X117918133Y-84827580D02*
X117870514Y-84875200D01*
X117870514Y-84875200D02*
X117727657Y-84922819D01*
X117727657Y-84922819D02*
X117632419Y-84922819D01*
X117632419Y-84922819D02*
X117489562Y-84875200D01*
X117489562Y-84875200D02*
X117394324Y-84779961D01*
X117394324Y-84779961D02*
X117346705Y-84684723D01*
X117346705Y-84684723D02*
X117299086Y-84494247D01*
X117299086Y-84494247D02*
X117299086Y-84351390D01*
X117299086Y-84351390D02*
X117346705Y-84160914D01*
X117346705Y-84160914D02*
X117394324Y-84065676D01*
X117394324Y-84065676D02*
X117489562Y-83970438D01*
X117489562Y-83970438D02*
X117632419Y-83922819D01*
X117632419Y-83922819D02*
X117727657Y-83922819D01*
X117727657Y-83922819D02*
X117870514Y-83970438D01*
X117870514Y-83970438D02*
X117918133Y-84018057D01*
X118489562Y-84351390D02*
X118394324Y-84303771D01*
X118394324Y-84303771D02*
X118346705Y-84256152D01*
X118346705Y-84256152D02*
X118299086Y-84160914D01*
X118299086Y-84160914D02*
X118299086Y-84113295D01*
X118299086Y-84113295D02*
X118346705Y-84018057D01*
X118346705Y-84018057D02*
X118394324Y-83970438D01*
X118394324Y-83970438D02*
X118489562Y-83922819D01*
X118489562Y-83922819D02*
X118680038Y-83922819D01*
X118680038Y-83922819D02*
X118775276Y-83970438D01*
X118775276Y-83970438D02*
X118822895Y-84018057D01*
X118822895Y-84018057D02*
X118870514Y-84113295D01*
X118870514Y-84113295D02*
X118870514Y-84160914D01*
X118870514Y-84160914D02*
X118822895Y-84256152D01*
X118822895Y-84256152D02*
X118775276Y-84303771D01*
X118775276Y-84303771D02*
X118680038Y-84351390D01*
X118680038Y-84351390D02*
X118489562Y-84351390D01*
X118489562Y-84351390D02*
X118394324Y-84399009D01*
X118394324Y-84399009D02*
X118346705Y-84446628D01*
X118346705Y-84446628D02*
X118299086Y-84541866D01*
X118299086Y-84541866D02*
X118299086Y-84732342D01*
X118299086Y-84732342D02*
X118346705Y-84827580D01*
X118346705Y-84827580D02*
X118394324Y-84875200D01*
X118394324Y-84875200D02*
X118489562Y-84922819D01*
X118489562Y-84922819D02*
X118680038Y-84922819D01*
X118680038Y-84922819D02*
X118775276Y-84875200D01*
X118775276Y-84875200D02*
X118822895Y-84827580D01*
X118822895Y-84827580D02*
X118870514Y-84732342D01*
X118870514Y-84732342D02*
X118870514Y-84541866D01*
X118870514Y-84541866D02*
X118822895Y-84446628D01*
X118822895Y-84446628D02*
X118775276Y-84399009D01*
X118775276Y-84399009D02*
X118680038Y-84351390D01*
X119947142Y-84306952D02*
X119947142Y-84973619D01*
X119709047Y-83926000D02*
X119470952Y-84640285D01*
X119470952Y-84640285D02*
X120089999Y-84640285D01*
X120375714Y-83973619D02*
X121042380Y-83973619D01*
X121042380Y-83973619D02*
X120613809Y-84973619D01*
X121613809Y-83973619D02*
X121709047Y-83973619D01*
X121709047Y-83973619D02*
X121804285Y-84021238D01*
X121804285Y-84021238D02*
X121851904Y-84068857D01*
X121851904Y-84068857D02*
X121899523Y-84164095D01*
X121899523Y-84164095D02*
X121947142Y-84354571D01*
X121947142Y-84354571D02*
X121947142Y-84592666D01*
X121947142Y-84592666D02*
X121899523Y-84783142D01*
X121899523Y-84783142D02*
X121851904Y-84878380D01*
X121851904Y-84878380D02*
X121804285Y-84926000D01*
X121804285Y-84926000D02*
X121709047Y-84973619D01*
X121709047Y-84973619D02*
X121613809Y-84973619D01*
X121613809Y-84973619D02*
X121518571Y-84926000D01*
X121518571Y-84926000D02*
X121470952Y-84878380D01*
X121470952Y-84878380D02*
X121423333Y-84783142D01*
X121423333Y-84783142D02*
X121375714Y-84592666D01*
X121375714Y-84592666D02*
X121375714Y-84354571D01*
X121375714Y-84354571D02*
X121423333Y-84164095D01*
X121423333Y-84164095D02*
X121470952Y-84068857D01*
X121470952Y-84068857D02*
X121518571Y-84021238D01*
X121518571Y-84021238D02*
X121613809Y-83973619D01*
X122375714Y-84306952D02*
X122375714Y-85306952D01*
X122375714Y-84354571D02*
X122470952Y-84306952D01*
X122470952Y-84306952D02*
X122661428Y-84306952D01*
X122661428Y-84306952D02*
X122756666Y-84354571D01*
X122756666Y-84354571D02*
X122804285Y-84402190D01*
X122804285Y-84402190D02*
X122851904Y-84497428D01*
X122851904Y-84497428D02*
X122851904Y-84783142D01*
X122851904Y-84783142D02*
X122804285Y-84878380D01*
X122804285Y-84878380D02*
X122756666Y-84926000D01*
X122756666Y-84926000D02*
X122661428Y-84973619D01*
X122661428Y-84973619D02*
X122470952Y-84973619D01*
X122470952Y-84973619D02*
X122375714Y-84926000D01*
X123613809Y-84449809D02*
X123280476Y-84449809D01*
X123280476Y-84973619D02*
X123280476Y-83973619D01*
X123280476Y-83973619D02*
X123756666Y-83973619D01*
X109377666Y-134061009D02*
X109044333Y-134061009D01*
X109044333Y-134584819D02*
X109044333Y-133584819D01*
X109044333Y-133584819D02*
X109520523Y-133584819D01*
X110234809Y-134061009D02*
X110377666Y-134108628D01*
X110377666Y-134108628D02*
X110425285Y-134156247D01*
X110425285Y-134156247D02*
X110472904Y-134251485D01*
X110472904Y-134251485D02*
X110472904Y-134394342D01*
X110472904Y-134394342D02*
X110425285Y-134489580D01*
X110425285Y-134489580D02*
X110377666Y-134537200D01*
X110377666Y-134537200D02*
X110282428Y-134584819D01*
X110282428Y-134584819D02*
X109901476Y-134584819D01*
X109901476Y-134584819D02*
X109901476Y-133584819D01*
X109901476Y-133584819D02*
X110234809Y-133584819D01*
X110234809Y-133584819D02*
X110330047Y-133632438D01*
X110330047Y-133632438D02*
X110377666Y-133680057D01*
X110377666Y-133680057D02*
X110425285Y-133775295D01*
X110425285Y-133775295D02*
X110425285Y-133870533D01*
X110425285Y-133870533D02*
X110377666Y-133965771D01*
X110377666Y-133965771D02*
X110330047Y-134013390D01*
X110330047Y-134013390D02*
X110234809Y-134061009D01*
X110234809Y-134061009D02*
X109901476Y-134061009D01*
X110806238Y-133584819D02*
X111425285Y-133584819D01*
X111425285Y-133584819D02*
X111091952Y-133965771D01*
X111091952Y-133965771D02*
X111234809Y-133965771D01*
X111234809Y-133965771D02*
X111330047Y-134013390D01*
X111330047Y-134013390D02*
X111377666Y-134061009D01*
X111377666Y-134061009D02*
X111425285Y-134156247D01*
X111425285Y-134156247D02*
X111425285Y-134394342D01*
X111425285Y-134394342D02*
X111377666Y-134489580D01*
X111377666Y-134489580D02*
X111330047Y-134537200D01*
X111330047Y-134537200D02*
X111234809Y-134584819D01*
X111234809Y-134584819D02*
X110949095Y-134584819D01*
X110949095Y-134584819D02*
X110853857Y-134537200D01*
X110853857Y-134537200D02*
X110806238Y-134489580D01*
X143978533Y-138853380D02*
X143930914Y-138901000D01*
X143930914Y-138901000D02*
X143788057Y-138948619D01*
X143788057Y-138948619D02*
X143692819Y-138948619D01*
X143692819Y-138948619D02*
X143549962Y-138901000D01*
X143549962Y-138901000D02*
X143454724Y-138805761D01*
X143454724Y-138805761D02*
X143407105Y-138710523D01*
X143407105Y-138710523D02*
X143359486Y-138520047D01*
X143359486Y-138520047D02*
X143359486Y-138377190D01*
X143359486Y-138377190D02*
X143407105Y-138186714D01*
X143407105Y-138186714D02*
X143454724Y-138091476D01*
X143454724Y-138091476D02*
X143549962Y-137996238D01*
X143549962Y-137996238D02*
X143692819Y-137948619D01*
X143692819Y-137948619D02*
X143788057Y-137948619D01*
X143788057Y-137948619D02*
X143930914Y-137996238D01*
X143930914Y-137996238D02*
X143978533Y-138043857D01*
X144454724Y-138948619D02*
X144645200Y-138948619D01*
X144645200Y-138948619D02*
X144740438Y-138901000D01*
X144740438Y-138901000D02*
X144788057Y-138853380D01*
X144788057Y-138853380D02*
X144883295Y-138710523D01*
X144883295Y-138710523D02*
X144930914Y-138520047D01*
X144930914Y-138520047D02*
X144930914Y-138139095D01*
X144930914Y-138139095D02*
X144883295Y-138043857D01*
X144883295Y-138043857D02*
X144835676Y-137996238D01*
X144835676Y-137996238D02*
X144740438Y-137948619D01*
X144740438Y-137948619D02*
X144549962Y-137948619D01*
X144549962Y-137948619D02*
X144454724Y-137996238D01*
X144454724Y-137996238D02*
X144407105Y-138043857D01*
X144407105Y-138043857D02*
X144359486Y-138139095D01*
X144359486Y-138139095D02*
X144359486Y-138377190D01*
X144359486Y-138377190D02*
X144407105Y-138472428D01*
X144407105Y-138472428D02*
X144454724Y-138520047D01*
X144454724Y-138520047D02*
X144549962Y-138567666D01*
X144549962Y-138567666D02*
X144740438Y-138567666D01*
X144740438Y-138567666D02*
X144835676Y-138520047D01*
X144835676Y-138520047D02*
X144883295Y-138472428D01*
X144883295Y-138472428D02*
X144930914Y-138377190D01*
X142502342Y-139729752D02*
X142502342Y-140396419D01*
X142264247Y-139348800D02*
X142026152Y-140063085D01*
X142026152Y-140063085D02*
X142645199Y-140063085D01*
X142930914Y-139396419D02*
X143597580Y-139396419D01*
X143597580Y-139396419D02*
X143169009Y-140396419D01*
X144169009Y-139396419D02*
X144264247Y-139396419D01*
X144264247Y-139396419D02*
X144359485Y-139444038D01*
X144359485Y-139444038D02*
X144407104Y-139491657D01*
X144407104Y-139491657D02*
X144454723Y-139586895D01*
X144454723Y-139586895D02*
X144502342Y-139777371D01*
X144502342Y-139777371D02*
X144502342Y-140015466D01*
X144502342Y-140015466D02*
X144454723Y-140205942D01*
X144454723Y-140205942D02*
X144407104Y-140301180D01*
X144407104Y-140301180D02*
X144359485Y-140348800D01*
X144359485Y-140348800D02*
X144264247Y-140396419D01*
X144264247Y-140396419D02*
X144169009Y-140396419D01*
X144169009Y-140396419D02*
X144073771Y-140348800D01*
X144073771Y-140348800D02*
X144026152Y-140301180D01*
X144026152Y-140301180D02*
X143978533Y-140205942D01*
X143978533Y-140205942D02*
X143930914Y-140015466D01*
X143930914Y-140015466D02*
X143930914Y-139777371D01*
X143930914Y-139777371D02*
X143978533Y-139586895D01*
X143978533Y-139586895D02*
X144026152Y-139491657D01*
X144026152Y-139491657D02*
X144073771Y-139444038D01*
X144073771Y-139444038D02*
X144169009Y-139396419D01*
X144930914Y-139729752D02*
X144930914Y-140729752D01*
X144930914Y-139777371D02*
X145026152Y-139729752D01*
X145026152Y-139729752D02*
X145216628Y-139729752D01*
X145216628Y-139729752D02*
X145311866Y-139777371D01*
X145311866Y-139777371D02*
X145359485Y-139824990D01*
X145359485Y-139824990D02*
X145407104Y-139920228D01*
X145407104Y-139920228D02*
X145407104Y-140205942D01*
X145407104Y-140205942D02*
X145359485Y-140301180D01*
X145359485Y-140301180D02*
X145311866Y-140348800D01*
X145311866Y-140348800D02*
X145216628Y-140396419D01*
X145216628Y-140396419D02*
X145026152Y-140396419D01*
X145026152Y-140396419D02*
X144930914Y-140348800D01*
X146169009Y-139872609D02*
X145835676Y-139872609D01*
X145835676Y-140396419D02*
X145835676Y-139396419D01*
X145835676Y-139396419D02*
X146311866Y-139396419D01*
X114863866Y-100807409D02*
X114530533Y-100807409D01*
X114530533Y-101331219D02*
X114530533Y-100331219D01*
X114530533Y-100331219D02*
X115006723Y-100331219D01*
X115721009Y-100807409D02*
X115863866Y-100855028D01*
X115863866Y-100855028D02*
X115911485Y-100902647D01*
X115911485Y-100902647D02*
X115959104Y-100997885D01*
X115959104Y-100997885D02*
X115959104Y-101140742D01*
X115959104Y-101140742D02*
X115911485Y-101235980D01*
X115911485Y-101235980D02*
X115863866Y-101283600D01*
X115863866Y-101283600D02*
X115768628Y-101331219D01*
X115768628Y-101331219D02*
X115387676Y-101331219D01*
X115387676Y-101331219D02*
X115387676Y-100331219D01*
X115387676Y-100331219D02*
X115721009Y-100331219D01*
X115721009Y-100331219D02*
X115816247Y-100378838D01*
X115816247Y-100378838D02*
X115863866Y-100426457D01*
X115863866Y-100426457D02*
X115911485Y-100521695D01*
X115911485Y-100521695D02*
X115911485Y-100616933D01*
X115911485Y-100616933D02*
X115863866Y-100712171D01*
X115863866Y-100712171D02*
X115816247Y-100759790D01*
X115816247Y-100759790D02*
X115721009Y-100807409D01*
X115721009Y-100807409D02*
X115387676Y-100807409D01*
X116530533Y-100759790D02*
X116435295Y-100712171D01*
X116435295Y-100712171D02*
X116387676Y-100664552D01*
X116387676Y-100664552D02*
X116340057Y-100569314D01*
X116340057Y-100569314D02*
X116340057Y-100521695D01*
X116340057Y-100521695D02*
X116387676Y-100426457D01*
X116387676Y-100426457D02*
X116435295Y-100378838D01*
X116435295Y-100378838D02*
X116530533Y-100331219D01*
X116530533Y-100331219D02*
X116721009Y-100331219D01*
X116721009Y-100331219D02*
X116816247Y-100378838D01*
X116816247Y-100378838D02*
X116863866Y-100426457D01*
X116863866Y-100426457D02*
X116911485Y-100521695D01*
X116911485Y-100521695D02*
X116911485Y-100569314D01*
X116911485Y-100569314D02*
X116863866Y-100664552D01*
X116863866Y-100664552D02*
X116816247Y-100712171D01*
X116816247Y-100712171D02*
X116721009Y-100759790D01*
X116721009Y-100759790D02*
X116530533Y-100759790D01*
X116530533Y-100759790D02*
X116435295Y-100807409D01*
X116435295Y-100807409D02*
X116387676Y-100855028D01*
X116387676Y-100855028D02*
X116340057Y-100950266D01*
X116340057Y-100950266D02*
X116340057Y-101140742D01*
X116340057Y-101140742D02*
X116387676Y-101235980D01*
X116387676Y-101235980D02*
X116435295Y-101283600D01*
X116435295Y-101283600D02*
X116530533Y-101331219D01*
X116530533Y-101331219D02*
X116721009Y-101331219D01*
X116721009Y-101331219D02*
X116816247Y-101283600D01*
X116816247Y-101283600D02*
X116863866Y-101235980D01*
X116863866Y-101235980D02*
X116911485Y-101140742D01*
X116911485Y-101140742D02*
X116911485Y-100950266D01*
X116911485Y-100950266D02*
X116863866Y-100855028D01*
X116863866Y-100855028D02*
X116816247Y-100807409D01*
X116816247Y-100807409D02*
X116721009Y-100759790D01*
X142439833Y-121752819D02*
X142106500Y-121276628D01*
X141868405Y-121752819D02*
X141868405Y-120752819D01*
X141868405Y-120752819D02*
X142249357Y-120752819D01*
X142249357Y-120752819D02*
X142344595Y-120800438D01*
X142344595Y-120800438D02*
X142392214Y-120848057D01*
X142392214Y-120848057D02*
X142439833Y-120943295D01*
X142439833Y-120943295D02*
X142439833Y-121086152D01*
X142439833Y-121086152D02*
X142392214Y-121181390D01*
X142392214Y-121181390D02*
X142344595Y-121229009D01*
X142344595Y-121229009D02*
X142249357Y-121276628D01*
X142249357Y-121276628D02*
X141868405Y-121276628D01*
X143296976Y-120752819D02*
X143106500Y-120752819D01*
X143106500Y-120752819D02*
X143011262Y-120800438D01*
X143011262Y-120800438D02*
X142963643Y-120848057D01*
X142963643Y-120848057D02*
X142868405Y-120990914D01*
X142868405Y-120990914D02*
X142820786Y-121181390D01*
X142820786Y-121181390D02*
X142820786Y-121562342D01*
X142820786Y-121562342D02*
X142868405Y-121657580D01*
X142868405Y-121657580D02*
X142916024Y-121705200D01*
X142916024Y-121705200D02*
X143011262Y-121752819D01*
X143011262Y-121752819D02*
X143201738Y-121752819D01*
X143201738Y-121752819D02*
X143296976Y-121705200D01*
X143296976Y-121705200D02*
X143344595Y-121657580D01*
X143344595Y-121657580D02*
X143392214Y-121562342D01*
X143392214Y-121562342D02*
X143392214Y-121324247D01*
X143392214Y-121324247D02*
X143344595Y-121229009D01*
X143344595Y-121229009D02*
X143296976Y-121181390D01*
X143296976Y-121181390D02*
X143201738Y-121133771D01*
X143201738Y-121133771D02*
X143011262Y-121133771D01*
X143011262Y-121133771D02*
X142916024Y-121181390D01*
X142916024Y-121181390D02*
X142868405Y-121229009D01*
X142868405Y-121229009D02*
X142820786Y-121324247D01*
X141677928Y-122406952D02*
X141677928Y-123073619D01*
X141439833Y-122026000D02*
X141201738Y-122740285D01*
X141201738Y-122740285D02*
X141820785Y-122740285D01*
X142201738Y-122978380D02*
X142249357Y-123026000D01*
X142249357Y-123026000D02*
X142201738Y-123073619D01*
X142201738Y-123073619D02*
X142154119Y-123026000D01*
X142154119Y-123026000D02*
X142201738Y-122978380D01*
X142201738Y-122978380D02*
X142201738Y-123073619D01*
X142582690Y-122073619D02*
X143249356Y-122073619D01*
X143249356Y-122073619D02*
X142820785Y-123073619D01*
X143630309Y-123073619D02*
X143630309Y-122073619D01*
X143725547Y-122692666D02*
X144011261Y-123073619D01*
X144011261Y-122406952D02*
X143630309Y-122787904D01*
X112493102Y-72872909D02*
X112493102Y-73588404D01*
X112493102Y-73588404D02*
X112445402Y-73731503D01*
X112445402Y-73731503D02*
X112350003Y-73826903D01*
X112350003Y-73826903D02*
X112206904Y-73874602D01*
X112206904Y-73874602D02*
X112111505Y-73874602D01*
X112874700Y-72872909D02*
X113542495Y-72872909D01*
X113542495Y-72872909D02*
X113113198Y-73874602D01*
X117181533Y-136999180D02*
X117133914Y-137046800D01*
X117133914Y-137046800D02*
X116991057Y-137094419D01*
X116991057Y-137094419D02*
X116895819Y-137094419D01*
X116895819Y-137094419D02*
X116752962Y-137046800D01*
X116752962Y-137046800D02*
X116657724Y-136951561D01*
X116657724Y-136951561D02*
X116610105Y-136856323D01*
X116610105Y-136856323D02*
X116562486Y-136665847D01*
X116562486Y-136665847D02*
X116562486Y-136522990D01*
X116562486Y-136522990D02*
X116610105Y-136332514D01*
X116610105Y-136332514D02*
X116657724Y-136237276D01*
X116657724Y-136237276D02*
X116752962Y-136142038D01*
X116752962Y-136142038D02*
X116895819Y-136094419D01*
X116895819Y-136094419D02*
X116991057Y-136094419D01*
X116991057Y-136094419D02*
X117133914Y-136142038D01*
X117133914Y-136142038D02*
X117181533Y-136189657D01*
X118038676Y-136094419D02*
X117848200Y-136094419D01*
X117848200Y-136094419D02*
X117752962Y-136142038D01*
X117752962Y-136142038D02*
X117705343Y-136189657D01*
X117705343Y-136189657D02*
X117610105Y-136332514D01*
X117610105Y-136332514D02*
X117562486Y-136522990D01*
X117562486Y-136522990D02*
X117562486Y-136903942D01*
X117562486Y-136903942D02*
X117610105Y-136999180D01*
X117610105Y-136999180D02*
X117657724Y-137046800D01*
X117657724Y-137046800D02*
X117752962Y-137094419D01*
X117752962Y-137094419D02*
X117943438Y-137094419D01*
X117943438Y-137094419D02*
X118038676Y-137046800D01*
X118038676Y-137046800D02*
X118086295Y-136999180D01*
X118086295Y-136999180D02*
X118133914Y-136903942D01*
X118133914Y-136903942D02*
X118133914Y-136665847D01*
X118133914Y-136665847D02*
X118086295Y-136570609D01*
X118086295Y-136570609D02*
X118038676Y-136522990D01*
X118038676Y-136522990D02*
X117943438Y-136475371D01*
X117943438Y-136475371D02*
X117752962Y-136475371D01*
X117752962Y-136475371D02*
X117657724Y-136522990D01*
X117657724Y-136522990D02*
X117610105Y-136570609D01*
X117610105Y-136570609D02*
X117562486Y-136665847D01*
X116848343Y-137466019D02*
X116943581Y-137466019D01*
X116943581Y-137466019D02*
X117038819Y-137513638D01*
X117038819Y-137513638D02*
X117086438Y-137561257D01*
X117086438Y-137561257D02*
X117134057Y-137656495D01*
X117134057Y-137656495D02*
X117181676Y-137846971D01*
X117181676Y-137846971D02*
X117181676Y-138085066D01*
X117181676Y-138085066D02*
X117134057Y-138275542D01*
X117134057Y-138275542D02*
X117086438Y-138370780D01*
X117086438Y-138370780D02*
X117038819Y-138418400D01*
X117038819Y-138418400D02*
X116943581Y-138466019D01*
X116943581Y-138466019D02*
X116848343Y-138466019D01*
X116848343Y-138466019D02*
X116753105Y-138418400D01*
X116753105Y-138418400D02*
X116705486Y-138370780D01*
X116705486Y-138370780D02*
X116657867Y-138275542D01*
X116657867Y-138275542D02*
X116610248Y-138085066D01*
X116610248Y-138085066D02*
X116610248Y-137846971D01*
X116610248Y-137846971D02*
X116657867Y-137656495D01*
X116657867Y-137656495D02*
X116705486Y-137561257D01*
X116705486Y-137561257D02*
X116753105Y-137513638D01*
X116753105Y-137513638D02*
X116848343Y-137466019D01*
X117610248Y-138370780D02*
X117657867Y-138418400D01*
X117657867Y-138418400D02*
X117610248Y-138466019D01*
X117610248Y-138466019D02*
X117562629Y-138418400D01*
X117562629Y-138418400D02*
X117610248Y-138370780D01*
X117610248Y-138370780D02*
X117610248Y-138466019D01*
X118610247Y-138466019D02*
X118038819Y-138466019D01*
X118324533Y-138466019D02*
X118324533Y-137466019D01*
X118324533Y-137466019D02*
X118229295Y-137608876D01*
X118229295Y-137608876D02*
X118134057Y-137704114D01*
X118134057Y-137704114D02*
X118038819Y-137751733D01*
X119467390Y-137799352D02*
X119467390Y-138466019D01*
X119038819Y-137799352D02*
X119038819Y-138323161D01*
X119038819Y-138323161D02*
X119086438Y-138418400D01*
X119086438Y-138418400D02*
X119181676Y-138466019D01*
X119181676Y-138466019D02*
X119324533Y-138466019D01*
X119324533Y-138466019D02*
X119419771Y-138418400D01*
X119419771Y-138418400D02*
X119467390Y-138370780D01*
X120276914Y-137942209D02*
X119943581Y-137942209D01*
X119943581Y-138466019D02*
X119943581Y-137466019D01*
X119943581Y-137466019D02*
X120419771Y-137466019D01*
X109479066Y-113888409D02*
X109145733Y-113888409D01*
X109145733Y-114412219D02*
X109145733Y-113412219D01*
X109145733Y-113412219D02*
X109621923Y-113412219D01*
X110336209Y-113888409D02*
X110479066Y-113936028D01*
X110479066Y-113936028D02*
X110526685Y-113983647D01*
X110526685Y-113983647D02*
X110574304Y-114078885D01*
X110574304Y-114078885D02*
X110574304Y-114221742D01*
X110574304Y-114221742D02*
X110526685Y-114316980D01*
X110526685Y-114316980D02*
X110479066Y-114364600D01*
X110479066Y-114364600D02*
X110383828Y-114412219D01*
X110383828Y-114412219D02*
X110002876Y-114412219D01*
X110002876Y-114412219D02*
X110002876Y-113412219D01*
X110002876Y-113412219D02*
X110336209Y-113412219D01*
X110336209Y-113412219D02*
X110431447Y-113459838D01*
X110431447Y-113459838D02*
X110479066Y-113507457D01*
X110479066Y-113507457D02*
X110526685Y-113602695D01*
X110526685Y-113602695D02*
X110526685Y-113697933D01*
X110526685Y-113697933D02*
X110479066Y-113793171D01*
X110479066Y-113793171D02*
X110431447Y-113840790D01*
X110431447Y-113840790D02*
X110336209Y-113888409D01*
X110336209Y-113888409D02*
X110002876Y-113888409D01*
X111431447Y-113412219D02*
X111240971Y-113412219D01*
X111240971Y-113412219D02*
X111145733Y-113459838D01*
X111145733Y-113459838D02*
X111098114Y-113507457D01*
X111098114Y-113507457D02*
X111002876Y-113650314D01*
X111002876Y-113650314D02*
X110955257Y-113840790D01*
X110955257Y-113840790D02*
X110955257Y-114221742D01*
X110955257Y-114221742D02*
X111002876Y-114316980D01*
X111002876Y-114316980D02*
X111050495Y-114364600D01*
X111050495Y-114364600D02*
X111145733Y-114412219D01*
X111145733Y-114412219D02*
X111336209Y-114412219D01*
X111336209Y-114412219D02*
X111431447Y-114364600D01*
X111431447Y-114364600D02*
X111479066Y-114316980D01*
X111479066Y-114316980D02*
X111526685Y-114221742D01*
X111526685Y-114221742D02*
X111526685Y-113983647D01*
X111526685Y-113983647D02*
X111479066Y-113888409D01*
X111479066Y-113888409D02*
X111431447Y-113840790D01*
X111431447Y-113840790D02*
X111336209Y-113793171D01*
X111336209Y-113793171D02*
X111145733Y-113793171D01*
X111145733Y-113793171D02*
X111050495Y-113840790D01*
X111050495Y-113840790D02*
X111002876Y-113888409D01*
X111002876Y-113888409D02*
X110955257Y-113983647D01*
X179821210Y-103233019D02*
X179821210Y-102233019D01*
X180868828Y-103137780D02*
X180821209Y-103185400D01*
X180821209Y-103185400D02*
X180678352Y-103233019D01*
X180678352Y-103233019D02*
X180583114Y-103233019D01*
X180583114Y-103233019D02*
X180440257Y-103185400D01*
X180440257Y-103185400D02*
X180345019Y-103090161D01*
X180345019Y-103090161D02*
X180297400Y-102994923D01*
X180297400Y-102994923D02*
X180249781Y-102804447D01*
X180249781Y-102804447D02*
X180249781Y-102661590D01*
X180249781Y-102661590D02*
X180297400Y-102471114D01*
X180297400Y-102471114D02*
X180345019Y-102375876D01*
X180345019Y-102375876D02*
X180440257Y-102280638D01*
X180440257Y-102280638D02*
X180583114Y-102233019D01*
X180583114Y-102233019D02*
X180678352Y-102233019D01*
X180678352Y-102233019D02*
X180821209Y-102280638D01*
X180821209Y-102280638D02*
X180868828Y-102328257D01*
X181821209Y-103233019D02*
X181249781Y-103233019D01*
X181535495Y-103233019D02*
X181535495Y-102233019D01*
X181535495Y-102233019D02*
X181440257Y-102375876D01*
X181440257Y-102375876D02*
X181345019Y-102471114D01*
X181345019Y-102471114D02*
X181249781Y-102518733D01*
X117130733Y-123638780D02*
X117083114Y-123686400D01*
X117083114Y-123686400D02*
X116940257Y-123734019D01*
X116940257Y-123734019D02*
X116845019Y-123734019D01*
X116845019Y-123734019D02*
X116702162Y-123686400D01*
X116702162Y-123686400D02*
X116606924Y-123591161D01*
X116606924Y-123591161D02*
X116559305Y-123495923D01*
X116559305Y-123495923D02*
X116511686Y-123305447D01*
X116511686Y-123305447D02*
X116511686Y-123162590D01*
X116511686Y-123162590D02*
X116559305Y-122972114D01*
X116559305Y-122972114D02*
X116606924Y-122876876D01*
X116606924Y-122876876D02*
X116702162Y-122781638D01*
X116702162Y-122781638D02*
X116845019Y-122734019D01*
X116845019Y-122734019D02*
X116940257Y-122734019D01*
X116940257Y-122734019D02*
X117083114Y-122781638D01*
X117083114Y-122781638D02*
X117130733Y-122829257D01*
X117987876Y-123067352D02*
X117987876Y-123734019D01*
X117749781Y-122686400D02*
X117511686Y-123400685D01*
X117511686Y-123400685D02*
X118130733Y-123400685D01*
X116822943Y-124207219D02*
X116918181Y-124207219D01*
X116918181Y-124207219D02*
X117013419Y-124254838D01*
X117013419Y-124254838D02*
X117061038Y-124302457D01*
X117061038Y-124302457D02*
X117108657Y-124397695D01*
X117108657Y-124397695D02*
X117156276Y-124588171D01*
X117156276Y-124588171D02*
X117156276Y-124826266D01*
X117156276Y-124826266D02*
X117108657Y-125016742D01*
X117108657Y-125016742D02*
X117061038Y-125111980D01*
X117061038Y-125111980D02*
X117013419Y-125159600D01*
X117013419Y-125159600D02*
X116918181Y-125207219D01*
X116918181Y-125207219D02*
X116822943Y-125207219D01*
X116822943Y-125207219D02*
X116727705Y-125159600D01*
X116727705Y-125159600D02*
X116680086Y-125111980D01*
X116680086Y-125111980D02*
X116632467Y-125016742D01*
X116632467Y-125016742D02*
X116584848Y-124826266D01*
X116584848Y-124826266D02*
X116584848Y-124588171D01*
X116584848Y-124588171D02*
X116632467Y-124397695D01*
X116632467Y-124397695D02*
X116680086Y-124302457D01*
X116680086Y-124302457D02*
X116727705Y-124254838D01*
X116727705Y-124254838D02*
X116822943Y-124207219D01*
X117584848Y-125111980D02*
X117632467Y-125159600D01*
X117632467Y-125159600D02*
X117584848Y-125207219D01*
X117584848Y-125207219D02*
X117537229Y-125159600D01*
X117537229Y-125159600D02*
X117584848Y-125111980D01*
X117584848Y-125111980D02*
X117584848Y-125207219D01*
X118584847Y-125207219D02*
X118013419Y-125207219D01*
X118299133Y-125207219D02*
X118299133Y-124207219D01*
X118299133Y-124207219D02*
X118203895Y-124350076D01*
X118203895Y-124350076D02*
X118108657Y-124445314D01*
X118108657Y-124445314D02*
X118013419Y-124492933D01*
X119441990Y-124540552D02*
X119441990Y-125207219D01*
X119013419Y-124540552D02*
X119013419Y-125064361D01*
X119013419Y-125064361D02*
X119061038Y-125159600D01*
X119061038Y-125159600D02*
X119156276Y-125207219D01*
X119156276Y-125207219D02*
X119299133Y-125207219D01*
X119299133Y-125207219D02*
X119394371Y-125159600D01*
X119394371Y-125159600D02*
X119441990Y-125111980D01*
X120251514Y-124683409D02*
X119918181Y-124683409D01*
X119918181Y-125207219D02*
X119918181Y-124207219D01*
X119918181Y-124207219D02*
X120394371Y-124207219D01*
X112397106Y-95605909D02*
X112397106Y-96321404D01*
X112397106Y-96321404D02*
X112349406Y-96464503D01*
X112349406Y-96464503D02*
X112254007Y-96559903D01*
X112254007Y-96559903D02*
X112110908Y-96607602D01*
X112110908Y-96607602D02*
X112015509Y-96607602D01*
X113398799Y-96607602D02*
X112826403Y-96607602D01*
X113112601Y-96607602D02*
X113112601Y-95605909D01*
X113112601Y-95605909D02*
X113017202Y-95749008D01*
X113017202Y-95749008D02*
X112921803Y-95844408D01*
X112921803Y-95844408D02*
X112826403Y-95892107D01*
X114018895Y-95605909D02*
X114114294Y-95605909D01*
X114114294Y-95605909D02*
X114209693Y-95653609D01*
X114209693Y-95653609D02*
X114257393Y-95701309D01*
X114257393Y-95701309D02*
X114305093Y-95796708D01*
X114305093Y-95796708D02*
X114352792Y-95987507D01*
X114352792Y-95987507D02*
X114352792Y-96226005D01*
X114352792Y-96226005D02*
X114305093Y-96416804D01*
X114305093Y-96416804D02*
X114257393Y-96512203D01*
X114257393Y-96512203D02*
X114209693Y-96559903D01*
X114209693Y-96559903D02*
X114114294Y-96607602D01*
X114114294Y-96607602D02*
X114018895Y-96607602D01*
X114018895Y-96607602D02*
X113923495Y-96559903D01*
X113923495Y-96559903D02*
X113875796Y-96512203D01*
X113875796Y-96512203D02*
X113828096Y-96416804D01*
X113828096Y-96416804D02*
X113780396Y-96226005D01*
X113780396Y-96226005D02*
X113780396Y-95987507D01*
X113780396Y-95987507D02*
X113828096Y-95796708D01*
X113828096Y-95796708D02*
X113875796Y-95701309D01*
X113875796Y-95701309D02*
X113923495Y-95653609D01*
X113923495Y-95653609D02*
X114018895Y-95605909D01*
X140327342Y-108982980D02*
X140279723Y-109030600D01*
X140279723Y-109030600D02*
X140136866Y-109078219D01*
X140136866Y-109078219D02*
X140041628Y-109078219D01*
X140041628Y-109078219D02*
X139898771Y-109030600D01*
X139898771Y-109030600D02*
X139803533Y-108935361D01*
X139803533Y-108935361D02*
X139755914Y-108840123D01*
X139755914Y-108840123D02*
X139708295Y-108649647D01*
X139708295Y-108649647D02*
X139708295Y-108506790D01*
X139708295Y-108506790D02*
X139755914Y-108316314D01*
X139755914Y-108316314D02*
X139803533Y-108221076D01*
X139803533Y-108221076D02*
X139898771Y-108125838D01*
X139898771Y-108125838D02*
X140041628Y-108078219D01*
X140041628Y-108078219D02*
X140136866Y-108078219D01*
X140136866Y-108078219D02*
X140279723Y-108125838D01*
X140279723Y-108125838D02*
X140327342Y-108173457D01*
X141279723Y-109078219D02*
X140708295Y-109078219D01*
X140994009Y-109078219D02*
X140994009Y-108078219D01*
X140994009Y-108078219D02*
X140898771Y-108221076D01*
X140898771Y-108221076D02*
X140803533Y-108316314D01*
X140803533Y-108316314D02*
X140708295Y-108363933D01*
X141613057Y-108078219D02*
X142279723Y-108078219D01*
X142279723Y-108078219D02*
X141851152Y-109078219D01*
X139987743Y-109500619D02*
X140082981Y-109500619D01*
X140082981Y-109500619D02*
X140178219Y-109548238D01*
X140178219Y-109548238D02*
X140225838Y-109595857D01*
X140225838Y-109595857D02*
X140273457Y-109691095D01*
X140273457Y-109691095D02*
X140321076Y-109881571D01*
X140321076Y-109881571D02*
X140321076Y-110119666D01*
X140321076Y-110119666D02*
X140273457Y-110310142D01*
X140273457Y-110310142D02*
X140225838Y-110405380D01*
X140225838Y-110405380D02*
X140178219Y-110453000D01*
X140178219Y-110453000D02*
X140082981Y-110500619D01*
X140082981Y-110500619D02*
X139987743Y-110500619D01*
X139987743Y-110500619D02*
X139892505Y-110453000D01*
X139892505Y-110453000D02*
X139844886Y-110405380D01*
X139844886Y-110405380D02*
X139797267Y-110310142D01*
X139797267Y-110310142D02*
X139749648Y-110119666D01*
X139749648Y-110119666D02*
X139749648Y-109881571D01*
X139749648Y-109881571D02*
X139797267Y-109691095D01*
X139797267Y-109691095D02*
X139844886Y-109595857D01*
X139844886Y-109595857D02*
X139892505Y-109548238D01*
X139892505Y-109548238D02*
X139987743Y-109500619D01*
X140749648Y-110405380D02*
X140797267Y-110453000D01*
X140797267Y-110453000D02*
X140749648Y-110500619D01*
X140749648Y-110500619D02*
X140702029Y-110453000D01*
X140702029Y-110453000D02*
X140749648Y-110405380D01*
X140749648Y-110405380D02*
X140749648Y-110500619D01*
X141749647Y-110500619D02*
X141178219Y-110500619D01*
X141463933Y-110500619D02*
X141463933Y-109500619D01*
X141463933Y-109500619D02*
X141368695Y-109643476D01*
X141368695Y-109643476D02*
X141273457Y-109738714D01*
X141273457Y-109738714D02*
X141178219Y-109786333D01*
X142606790Y-109833952D02*
X142606790Y-110500619D01*
X142178219Y-109833952D02*
X142178219Y-110357761D01*
X142178219Y-110357761D02*
X142225838Y-110453000D01*
X142225838Y-110453000D02*
X142321076Y-110500619D01*
X142321076Y-110500619D02*
X142463933Y-110500619D01*
X142463933Y-110500619D02*
X142559171Y-110453000D01*
X142559171Y-110453000D02*
X142606790Y-110405380D01*
X143416314Y-109976809D02*
X143082981Y-109976809D01*
X143082981Y-110500619D02*
X143082981Y-109500619D01*
X143082981Y-109500619D02*
X143559171Y-109500619D01*
X141743333Y-74762819D02*
X141410000Y-74286628D01*
X141171905Y-74762819D02*
X141171905Y-73762819D01*
X141171905Y-73762819D02*
X141552857Y-73762819D01*
X141552857Y-73762819D02*
X141648095Y-73810438D01*
X141648095Y-73810438D02*
X141695714Y-73858057D01*
X141695714Y-73858057D02*
X141743333Y-73953295D01*
X141743333Y-73953295D02*
X141743333Y-74096152D01*
X141743333Y-74096152D02*
X141695714Y-74191390D01*
X141695714Y-74191390D02*
X141648095Y-74239009D01*
X141648095Y-74239009D02*
X141552857Y-74286628D01*
X141552857Y-74286628D02*
X141171905Y-74286628D01*
X142076667Y-73762819D02*
X142695714Y-73762819D01*
X142695714Y-73762819D02*
X142362381Y-74143771D01*
X142362381Y-74143771D02*
X142505238Y-74143771D01*
X142505238Y-74143771D02*
X142600476Y-74191390D01*
X142600476Y-74191390D02*
X142648095Y-74239009D01*
X142648095Y-74239009D02*
X142695714Y-74334247D01*
X142695714Y-74334247D02*
X142695714Y-74572342D01*
X142695714Y-74572342D02*
X142648095Y-74667580D01*
X142648095Y-74667580D02*
X142600476Y-74715200D01*
X142600476Y-74715200D02*
X142505238Y-74762819D01*
X142505238Y-74762819D02*
X142219524Y-74762819D01*
X142219524Y-74762819D02*
X142124286Y-74715200D01*
X142124286Y-74715200D02*
X142076667Y-74667580D01*
X141243333Y-76159819D02*
X140671905Y-76159819D01*
X140957619Y-76159819D02*
X140957619Y-75159819D01*
X140957619Y-75159819D02*
X140862381Y-75302676D01*
X140862381Y-75302676D02*
X140767143Y-75397914D01*
X140767143Y-75397914D02*
X140671905Y-75445533D01*
X141862381Y-75159819D02*
X141957619Y-75159819D01*
X141957619Y-75159819D02*
X142052857Y-75207438D01*
X142052857Y-75207438D02*
X142100476Y-75255057D01*
X142100476Y-75255057D02*
X142148095Y-75350295D01*
X142148095Y-75350295D02*
X142195714Y-75540771D01*
X142195714Y-75540771D02*
X142195714Y-75778866D01*
X142195714Y-75778866D02*
X142148095Y-75969342D01*
X142148095Y-75969342D02*
X142100476Y-76064580D01*
X142100476Y-76064580D02*
X142052857Y-76112200D01*
X142052857Y-76112200D02*
X141957619Y-76159819D01*
X141957619Y-76159819D02*
X141862381Y-76159819D01*
X141862381Y-76159819D02*
X141767143Y-76112200D01*
X141767143Y-76112200D02*
X141719524Y-76064580D01*
X141719524Y-76064580D02*
X141671905Y-75969342D01*
X141671905Y-75969342D02*
X141624286Y-75778866D01*
X141624286Y-75778866D02*
X141624286Y-75540771D01*
X141624286Y-75540771D02*
X141671905Y-75350295D01*
X141671905Y-75350295D02*
X141719524Y-75255057D01*
X141719524Y-75255057D02*
X141767143Y-75207438D01*
X141767143Y-75207438D02*
X141862381Y-75159819D01*
X142814762Y-75159819D02*
X142910000Y-75159819D01*
X142910000Y-75159819D02*
X143005238Y-75207438D01*
X143005238Y-75207438D02*
X143052857Y-75255057D01*
X143052857Y-75255057D02*
X143100476Y-75350295D01*
X143100476Y-75350295D02*
X143148095Y-75540771D01*
X143148095Y-75540771D02*
X143148095Y-75778866D01*
X143148095Y-75778866D02*
X143100476Y-75969342D01*
X143100476Y-75969342D02*
X143052857Y-76064580D01*
X143052857Y-76064580D02*
X143005238Y-76112200D01*
X143005238Y-76112200D02*
X142910000Y-76159819D01*
X142910000Y-76159819D02*
X142814762Y-76159819D01*
X142814762Y-76159819D02*
X142719524Y-76112200D01*
X142719524Y-76112200D02*
X142671905Y-76064580D01*
X142671905Y-76064580D02*
X142624286Y-75969342D01*
X142624286Y-75969342D02*
X142576667Y-75778866D01*
X142576667Y-75778866D02*
X142576667Y-75540771D01*
X142576667Y-75540771D02*
X142624286Y-75350295D01*
X142624286Y-75350295D02*
X142671905Y-75255057D01*
X142671905Y-75255057D02*
X142719524Y-75207438D01*
X142719524Y-75207438D02*
X142814762Y-75159819D01*
X159167733Y-131506419D02*
X158834400Y-131030228D01*
X158596305Y-131506419D02*
X158596305Y-130506419D01*
X158596305Y-130506419D02*
X158977257Y-130506419D01*
X158977257Y-130506419D02*
X159072495Y-130554038D01*
X159072495Y-130554038D02*
X159120114Y-130601657D01*
X159120114Y-130601657D02*
X159167733Y-130696895D01*
X159167733Y-130696895D02*
X159167733Y-130839752D01*
X159167733Y-130839752D02*
X159120114Y-130934990D01*
X159120114Y-130934990D02*
X159072495Y-130982609D01*
X159072495Y-130982609D02*
X158977257Y-131030228D01*
X158977257Y-131030228D02*
X158596305Y-131030228D01*
X160120114Y-131506419D02*
X159548686Y-131506419D01*
X159834400Y-131506419D02*
X159834400Y-130506419D01*
X159834400Y-130506419D02*
X159739162Y-130649276D01*
X159739162Y-130649276D02*
X159643924Y-130744514D01*
X159643924Y-130744514D02*
X159548686Y-130792133D01*
X158928095Y-132363752D02*
X158928095Y-133030419D01*
X158690000Y-131982800D02*
X158451905Y-132697085D01*
X158451905Y-132697085D02*
X159070952Y-132697085D01*
X159356667Y-132030419D02*
X160023333Y-132030419D01*
X160023333Y-132030419D02*
X159594762Y-133030419D01*
X160594762Y-132030419D02*
X160690000Y-132030419D01*
X160690000Y-132030419D02*
X160785238Y-132078038D01*
X160785238Y-132078038D02*
X160832857Y-132125657D01*
X160832857Y-132125657D02*
X160880476Y-132220895D01*
X160880476Y-132220895D02*
X160928095Y-132411371D01*
X160928095Y-132411371D02*
X160928095Y-132649466D01*
X160928095Y-132649466D02*
X160880476Y-132839942D01*
X160880476Y-132839942D02*
X160832857Y-132935180D01*
X160832857Y-132935180D02*
X160785238Y-132982800D01*
X160785238Y-132982800D02*
X160690000Y-133030419D01*
X160690000Y-133030419D02*
X160594762Y-133030419D01*
X160594762Y-133030419D02*
X160499524Y-132982800D01*
X160499524Y-132982800D02*
X160451905Y-132935180D01*
X160451905Y-132935180D02*
X160404286Y-132839942D01*
X160404286Y-132839942D02*
X160356667Y-132649466D01*
X160356667Y-132649466D02*
X160356667Y-132411371D01*
X160356667Y-132411371D02*
X160404286Y-132220895D01*
X160404286Y-132220895D02*
X160451905Y-132125657D01*
X160451905Y-132125657D02*
X160499524Y-132078038D01*
X160499524Y-132078038D02*
X160594762Y-132030419D01*
X126063676Y-129998419D02*
X126063676Y-130712704D01*
X126063676Y-130712704D02*
X126016057Y-130855561D01*
X126016057Y-130855561D02*
X125920819Y-130950800D01*
X125920819Y-130950800D02*
X125777962Y-130998419D01*
X125777962Y-130998419D02*
X125682724Y-130998419D01*
X127063676Y-130998419D02*
X126492248Y-130998419D01*
X126777962Y-130998419D02*
X126777962Y-129998419D01*
X126777962Y-129998419D02*
X126682724Y-130141276D01*
X126682724Y-130141276D02*
X126587486Y-130236514D01*
X126587486Y-130236514D02*
X126492248Y-130284133D01*
X127920819Y-129998419D02*
X127730343Y-129998419D01*
X127730343Y-129998419D02*
X127635105Y-130046038D01*
X127635105Y-130046038D02*
X127587486Y-130093657D01*
X127587486Y-130093657D02*
X127492248Y-130236514D01*
X127492248Y-130236514D02*
X127444629Y-130426990D01*
X127444629Y-130426990D02*
X127444629Y-130807942D01*
X127444629Y-130807942D02*
X127492248Y-130903180D01*
X127492248Y-130903180D02*
X127539867Y-130950800D01*
X127539867Y-130950800D02*
X127635105Y-130998419D01*
X127635105Y-130998419D02*
X127825581Y-130998419D01*
X127825581Y-130998419D02*
X127920819Y-130950800D01*
X127920819Y-130950800D02*
X127968438Y-130903180D01*
X127968438Y-130903180D02*
X128016057Y-130807942D01*
X128016057Y-130807942D02*
X128016057Y-130569847D01*
X128016057Y-130569847D02*
X127968438Y-130474609D01*
X127968438Y-130474609D02*
X127920819Y-130426990D01*
X127920819Y-130426990D02*
X127825581Y-130379371D01*
X127825581Y-130379371D02*
X127635105Y-130379371D01*
X127635105Y-130379371D02*
X127539867Y-130426990D01*
X127539867Y-130426990D02*
X127492248Y-130474609D01*
X127492248Y-130474609D02*
X127444629Y-130569847D01*
X137919742Y-138929580D02*
X137872123Y-138977200D01*
X137872123Y-138977200D02*
X137729266Y-139024819D01*
X137729266Y-139024819D02*
X137634028Y-139024819D01*
X137634028Y-139024819D02*
X137491171Y-138977200D01*
X137491171Y-138977200D02*
X137395933Y-138881961D01*
X137395933Y-138881961D02*
X137348314Y-138786723D01*
X137348314Y-138786723D02*
X137300695Y-138596247D01*
X137300695Y-138596247D02*
X137300695Y-138453390D01*
X137300695Y-138453390D02*
X137348314Y-138262914D01*
X137348314Y-138262914D02*
X137395933Y-138167676D01*
X137395933Y-138167676D02*
X137491171Y-138072438D01*
X137491171Y-138072438D02*
X137634028Y-138024819D01*
X137634028Y-138024819D02*
X137729266Y-138024819D01*
X137729266Y-138024819D02*
X137872123Y-138072438D01*
X137872123Y-138072438D02*
X137919742Y-138120057D01*
X138872123Y-139024819D02*
X138300695Y-139024819D01*
X138586409Y-139024819D02*
X138586409Y-138024819D01*
X138586409Y-138024819D02*
X138491171Y-138167676D01*
X138491171Y-138167676D02*
X138395933Y-138262914D01*
X138395933Y-138262914D02*
X138300695Y-138310533D01*
X139729266Y-138024819D02*
X139538790Y-138024819D01*
X139538790Y-138024819D02*
X139443552Y-138072438D01*
X139443552Y-138072438D02*
X139395933Y-138120057D01*
X139395933Y-138120057D02*
X139300695Y-138262914D01*
X139300695Y-138262914D02*
X139253076Y-138453390D01*
X139253076Y-138453390D02*
X139253076Y-138834342D01*
X139253076Y-138834342D02*
X139300695Y-138929580D01*
X139300695Y-138929580D02*
X139348314Y-138977200D01*
X139348314Y-138977200D02*
X139443552Y-139024819D01*
X139443552Y-139024819D02*
X139634028Y-139024819D01*
X139634028Y-139024819D02*
X139729266Y-138977200D01*
X139729266Y-138977200D02*
X139776885Y-138929580D01*
X139776885Y-138929580D02*
X139824504Y-138834342D01*
X139824504Y-138834342D02*
X139824504Y-138596247D01*
X139824504Y-138596247D02*
X139776885Y-138501009D01*
X139776885Y-138501009D02*
X139729266Y-138453390D01*
X139729266Y-138453390D02*
X139634028Y-138405771D01*
X139634028Y-138405771D02*
X139443552Y-138405771D01*
X139443552Y-138405771D02*
X139348314Y-138453390D01*
X139348314Y-138453390D02*
X139300695Y-138501009D01*
X139300695Y-138501009D02*
X139253076Y-138596247D01*
X136919742Y-139882152D02*
X136919742Y-140548819D01*
X136681647Y-139501200D02*
X136443552Y-140215485D01*
X136443552Y-140215485D02*
X137062599Y-140215485D01*
X137348314Y-139548819D02*
X138014980Y-139548819D01*
X138014980Y-139548819D02*
X137586409Y-140548819D01*
X138586409Y-139548819D02*
X138681647Y-139548819D01*
X138681647Y-139548819D02*
X138776885Y-139596438D01*
X138776885Y-139596438D02*
X138824504Y-139644057D01*
X138824504Y-139644057D02*
X138872123Y-139739295D01*
X138872123Y-139739295D02*
X138919742Y-139929771D01*
X138919742Y-139929771D02*
X138919742Y-140167866D01*
X138919742Y-140167866D02*
X138872123Y-140358342D01*
X138872123Y-140358342D02*
X138824504Y-140453580D01*
X138824504Y-140453580D02*
X138776885Y-140501200D01*
X138776885Y-140501200D02*
X138681647Y-140548819D01*
X138681647Y-140548819D02*
X138586409Y-140548819D01*
X138586409Y-140548819D02*
X138491171Y-140501200D01*
X138491171Y-140501200D02*
X138443552Y-140453580D01*
X138443552Y-140453580D02*
X138395933Y-140358342D01*
X138395933Y-140358342D02*
X138348314Y-140167866D01*
X138348314Y-140167866D02*
X138348314Y-139929771D01*
X138348314Y-139929771D02*
X138395933Y-139739295D01*
X138395933Y-139739295D02*
X138443552Y-139644057D01*
X138443552Y-139644057D02*
X138491171Y-139596438D01*
X138491171Y-139596438D02*
X138586409Y-139548819D01*
X139348314Y-139882152D02*
X139348314Y-140882152D01*
X139348314Y-139929771D02*
X139443552Y-139882152D01*
X139443552Y-139882152D02*
X139634028Y-139882152D01*
X139634028Y-139882152D02*
X139729266Y-139929771D01*
X139729266Y-139929771D02*
X139776885Y-139977390D01*
X139776885Y-139977390D02*
X139824504Y-140072628D01*
X139824504Y-140072628D02*
X139824504Y-140358342D01*
X139824504Y-140358342D02*
X139776885Y-140453580D01*
X139776885Y-140453580D02*
X139729266Y-140501200D01*
X139729266Y-140501200D02*
X139634028Y-140548819D01*
X139634028Y-140548819D02*
X139443552Y-140548819D01*
X139443552Y-140548819D02*
X139348314Y-140501200D01*
X140586409Y-140025009D02*
X140253076Y-140025009D01*
X140253076Y-140548819D02*
X140253076Y-139548819D01*
X140253076Y-139548819D02*
X140729266Y-139548819D01*
X112620102Y-61442909D02*
X112620102Y-62158404D01*
X112620102Y-62158404D02*
X112572402Y-62301503D01*
X112572402Y-62301503D02*
X112477003Y-62396903D01*
X112477003Y-62396903D02*
X112333904Y-62444602D01*
X112333904Y-62444602D02*
X112238505Y-62444602D01*
X113526396Y-61442909D02*
X113335597Y-61442909D01*
X113335597Y-61442909D02*
X113240198Y-61490609D01*
X113240198Y-61490609D02*
X113192498Y-61538309D01*
X113192498Y-61538309D02*
X113097099Y-61681408D01*
X113097099Y-61681408D02*
X113049399Y-61872206D01*
X113049399Y-61872206D02*
X113049399Y-62253804D01*
X113049399Y-62253804D02*
X113097099Y-62349203D01*
X113097099Y-62349203D02*
X113144799Y-62396903D01*
X113144799Y-62396903D02*
X113240198Y-62444602D01*
X113240198Y-62444602D02*
X113430997Y-62444602D01*
X113430997Y-62444602D02*
X113526396Y-62396903D01*
X113526396Y-62396903D02*
X113574096Y-62349203D01*
X113574096Y-62349203D02*
X113621795Y-62253804D01*
X113621795Y-62253804D02*
X113621795Y-62015305D01*
X113621795Y-62015305D02*
X113574096Y-61919906D01*
X113574096Y-61919906D02*
X113526396Y-61872206D01*
X113526396Y-61872206D02*
X113430997Y-61824507D01*
X113430997Y-61824507D02*
X113240198Y-61824507D01*
X113240198Y-61824507D02*
X113144799Y-61872206D01*
X113144799Y-61872206D02*
X113097099Y-61919906D01*
X113097099Y-61919906D02*
X113049399Y-62015305D01*
D13*
X122047295Y-59185819D02*
X122047295Y-59995342D01*
X122047295Y-59995342D02*
X122094914Y-60090580D01*
X122094914Y-60090580D02*
X122142533Y-60138200D01*
X122142533Y-60138200D02*
X122237771Y-60185819D01*
X122237771Y-60185819D02*
X122428247Y-60185819D01*
X122428247Y-60185819D02*
X122523485Y-60138200D01*
X122523485Y-60138200D02*
X122571104Y-60090580D01*
X122571104Y-60090580D02*
X122618723Y-59995342D01*
X122618723Y-59995342D02*
X122618723Y-59185819D01*
X123047295Y-59281057D02*
X123094914Y-59233438D01*
X123094914Y-59233438D02*
X123190152Y-59185819D01*
X123190152Y-59185819D02*
X123428247Y-59185819D01*
X123428247Y-59185819D02*
X123523485Y-59233438D01*
X123523485Y-59233438D02*
X123571104Y-59281057D01*
X123571104Y-59281057D02*
X123618723Y-59376295D01*
X123618723Y-59376295D02*
X123618723Y-59471533D01*
X123618723Y-59471533D02*
X123571104Y-59614390D01*
X123571104Y-59614390D02*
X122999676Y-60185819D01*
X122999676Y-60185819D02*
X123618723Y-60185819D01*
D11*
X132248674Y-87415838D02*
X132248674Y-85415838D01*
X132248674Y-85415838D02*
X133010579Y-85415838D01*
X133010579Y-85415838D02*
X133201055Y-85511076D01*
X133201055Y-85511076D02*
X133296293Y-85606314D01*
X133296293Y-85606314D02*
X133391531Y-85796790D01*
X133391531Y-85796790D02*
X133391531Y-86082504D01*
X133391531Y-86082504D02*
X133296293Y-86272980D01*
X133296293Y-86272980D02*
X133201055Y-86368219D01*
X133201055Y-86368219D02*
X133010579Y-86463457D01*
X133010579Y-86463457D02*
X132248674Y-86463457D01*
X135391531Y-87225361D02*
X135296293Y-87320600D01*
X135296293Y-87320600D02*
X135010579Y-87415838D01*
X135010579Y-87415838D02*
X134820103Y-87415838D01*
X134820103Y-87415838D02*
X134534388Y-87320600D01*
X134534388Y-87320600D02*
X134343912Y-87130123D01*
X134343912Y-87130123D02*
X134248674Y-86939647D01*
X134248674Y-86939647D02*
X134153436Y-86558695D01*
X134153436Y-86558695D02*
X134153436Y-86272980D01*
X134153436Y-86272980D02*
X134248674Y-85892028D01*
X134248674Y-85892028D02*
X134343912Y-85701552D01*
X134343912Y-85701552D02*
X134534388Y-85511076D01*
X134534388Y-85511076D02*
X134820103Y-85415838D01*
X134820103Y-85415838D02*
X135010579Y-85415838D01*
X135010579Y-85415838D02*
X135296293Y-85511076D01*
X135296293Y-85511076D02*
X135391531Y-85606314D01*
X136248674Y-87415838D02*
X136248674Y-85415838D01*
X136248674Y-85415838D02*
X136915341Y-86844409D01*
X136915341Y-86844409D02*
X137582007Y-85415838D01*
X137582007Y-85415838D02*
X137582007Y-87415838D01*
X139582007Y-87415838D02*
X138439150Y-87415838D01*
X139010578Y-87415838D02*
X139010578Y-85415838D01*
X139010578Y-85415838D02*
X138820102Y-85701552D01*
X138820102Y-85701552D02*
X138629626Y-85892028D01*
X138629626Y-85892028D02*
X138439150Y-85987266D01*
X140724864Y-86272980D02*
X140534388Y-86177742D01*
X140534388Y-86177742D02*
X140439150Y-86082504D01*
X140439150Y-86082504D02*
X140343912Y-85892028D01*
X140343912Y-85892028D02*
X140343912Y-85796790D01*
X140343912Y-85796790D02*
X140439150Y-85606314D01*
X140439150Y-85606314D02*
X140534388Y-85511076D01*
X140534388Y-85511076D02*
X140724864Y-85415838D01*
X140724864Y-85415838D02*
X141105817Y-85415838D01*
X141105817Y-85415838D02*
X141296293Y-85511076D01*
X141296293Y-85511076D02*
X141391531Y-85606314D01*
X141391531Y-85606314D02*
X141486769Y-85796790D01*
X141486769Y-85796790D02*
X141486769Y-85892028D01*
X141486769Y-85892028D02*
X141391531Y-86082504D01*
X141391531Y-86082504D02*
X141296293Y-86177742D01*
X141296293Y-86177742D02*
X141105817Y-86272980D01*
X141105817Y-86272980D02*
X140724864Y-86272980D01*
X140724864Y-86272980D02*
X140534388Y-86368219D01*
X140534388Y-86368219D02*
X140439150Y-86463457D01*
X140439150Y-86463457D02*
X140343912Y-86653933D01*
X140343912Y-86653933D02*
X140343912Y-87034885D01*
X140343912Y-87034885D02*
X140439150Y-87225361D01*
X140439150Y-87225361D02*
X140534388Y-87320600D01*
X140534388Y-87320600D02*
X140724864Y-87415838D01*
X140724864Y-87415838D02*
X141105817Y-87415838D01*
X141105817Y-87415838D02*
X141296293Y-87320600D01*
X141296293Y-87320600D02*
X141391531Y-87225361D01*
X141391531Y-87225361D02*
X141486769Y-87034885D01*
X141486769Y-87034885D02*
X141486769Y-86653933D01*
X141486769Y-86653933D02*
X141391531Y-86463457D01*
X141391531Y-86463457D02*
X141296293Y-86368219D01*
X141296293Y-86368219D02*
X141105817Y-86272980D01*
X142724864Y-85415838D02*
X142915341Y-85415838D01*
X142915341Y-85415838D02*
X143105817Y-85511076D01*
X143105817Y-85511076D02*
X143201055Y-85606314D01*
X143201055Y-85606314D02*
X143296293Y-85796790D01*
X143296293Y-85796790D02*
X143391531Y-86177742D01*
X143391531Y-86177742D02*
X143391531Y-86653933D01*
X143391531Y-86653933D02*
X143296293Y-87034885D01*
X143296293Y-87034885D02*
X143201055Y-87225361D01*
X143201055Y-87225361D02*
X143105817Y-87320600D01*
X143105817Y-87320600D02*
X142915341Y-87415838D01*
X142915341Y-87415838D02*
X142724864Y-87415838D01*
X142724864Y-87415838D02*
X142534388Y-87320600D01*
X142534388Y-87320600D02*
X142439150Y-87225361D01*
X142439150Y-87225361D02*
X142343912Y-87034885D01*
X142343912Y-87034885D02*
X142248674Y-86653933D01*
X142248674Y-86653933D02*
X142248674Y-86177742D01*
X142248674Y-86177742D02*
X142343912Y-85796790D01*
X142343912Y-85796790D02*
X142439150Y-85606314D01*
X142439150Y-85606314D02*
X142534388Y-85511076D01*
X142534388Y-85511076D02*
X142724864Y-85415838D01*
X144534388Y-86272980D02*
X144343912Y-86177742D01*
X144343912Y-86177742D02*
X144248674Y-86082504D01*
X144248674Y-86082504D02*
X144153436Y-85892028D01*
X144153436Y-85892028D02*
X144153436Y-85796790D01*
X144153436Y-85796790D02*
X144248674Y-85606314D01*
X144248674Y-85606314D02*
X144343912Y-85511076D01*
X144343912Y-85511076D02*
X144534388Y-85415838D01*
X144534388Y-85415838D02*
X144915341Y-85415838D01*
X144915341Y-85415838D02*
X145105817Y-85511076D01*
X145105817Y-85511076D02*
X145201055Y-85606314D01*
X145201055Y-85606314D02*
X145296293Y-85796790D01*
X145296293Y-85796790D02*
X145296293Y-85892028D01*
X145296293Y-85892028D02*
X145201055Y-86082504D01*
X145201055Y-86082504D02*
X145105817Y-86177742D01*
X145105817Y-86177742D02*
X144915341Y-86272980D01*
X144915341Y-86272980D02*
X144534388Y-86272980D01*
X144534388Y-86272980D02*
X144343912Y-86368219D01*
X144343912Y-86368219D02*
X144248674Y-86463457D01*
X144248674Y-86463457D02*
X144153436Y-86653933D01*
X144153436Y-86653933D02*
X144153436Y-87034885D01*
X144153436Y-87034885D02*
X144248674Y-87225361D01*
X144248674Y-87225361D02*
X144343912Y-87320600D01*
X144343912Y-87320600D02*
X144534388Y-87415838D01*
X144534388Y-87415838D02*
X144915341Y-87415838D01*
X144915341Y-87415838D02*
X145105817Y-87320600D01*
X145105817Y-87320600D02*
X145201055Y-87225361D01*
X145201055Y-87225361D02*
X145296293Y-87034885D01*
X145296293Y-87034885D02*
X145296293Y-86653933D01*
X145296293Y-86653933D02*
X145201055Y-86463457D01*
X145201055Y-86463457D02*
X145105817Y-86368219D01*
X145105817Y-86368219D02*
X144915341Y-86272980D01*
X185687133Y-124324580D02*
X185639514Y-124372200D01*
X185639514Y-124372200D02*
X185496657Y-124419819D01*
X185496657Y-124419819D02*
X185401419Y-124419819D01*
X185401419Y-124419819D02*
X185258562Y-124372200D01*
X185258562Y-124372200D02*
X185163324Y-124276961D01*
X185163324Y-124276961D02*
X185115705Y-124181723D01*
X185115705Y-124181723D02*
X185068086Y-123991247D01*
X185068086Y-123991247D02*
X185068086Y-123848390D01*
X185068086Y-123848390D02*
X185115705Y-123657914D01*
X185115705Y-123657914D02*
X185163324Y-123562676D01*
X185163324Y-123562676D02*
X185258562Y-123467438D01*
X185258562Y-123467438D02*
X185401419Y-123419819D01*
X185401419Y-123419819D02*
X185496657Y-123419819D01*
X185496657Y-123419819D02*
X185639514Y-123467438D01*
X185639514Y-123467438D02*
X185687133Y-123515057D01*
X186020467Y-123419819D02*
X186639514Y-123419819D01*
X186639514Y-123419819D02*
X186306181Y-123800771D01*
X186306181Y-123800771D02*
X186449038Y-123800771D01*
X186449038Y-123800771D02*
X186544276Y-123848390D01*
X186544276Y-123848390D02*
X186591895Y-123896009D01*
X186591895Y-123896009D02*
X186639514Y-123991247D01*
X186639514Y-123991247D02*
X186639514Y-124229342D01*
X186639514Y-124229342D02*
X186591895Y-124324580D01*
X186591895Y-124324580D02*
X186544276Y-124372200D01*
X186544276Y-124372200D02*
X186449038Y-124419819D01*
X186449038Y-124419819D02*
X186163324Y-124419819D01*
X186163324Y-124419819D02*
X186068086Y-124372200D01*
X186068086Y-124372200D02*
X186020467Y-124324580D01*
X184312542Y-125175552D02*
X184312542Y-125842219D01*
X184074447Y-124794600D02*
X183836352Y-125508885D01*
X183836352Y-125508885D02*
X184455399Y-125508885D01*
X184741114Y-124842219D02*
X185407780Y-124842219D01*
X185407780Y-124842219D02*
X184979209Y-125842219D01*
X185979209Y-124842219D02*
X186074447Y-124842219D01*
X186074447Y-124842219D02*
X186169685Y-124889838D01*
X186169685Y-124889838D02*
X186217304Y-124937457D01*
X186217304Y-124937457D02*
X186264923Y-125032695D01*
X186264923Y-125032695D02*
X186312542Y-125223171D01*
X186312542Y-125223171D02*
X186312542Y-125461266D01*
X186312542Y-125461266D02*
X186264923Y-125651742D01*
X186264923Y-125651742D02*
X186217304Y-125746980D01*
X186217304Y-125746980D02*
X186169685Y-125794600D01*
X186169685Y-125794600D02*
X186074447Y-125842219D01*
X186074447Y-125842219D02*
X185979209Y-125842219D01*
X185979209Y-125842219D02*
X185883971Y-125794600D01*
X185883971Y-125794600D02*
X185836352Y-125746980D01*
X185836352Y-125746980D02*
X185788733Y-125651742D01*
X185788733Y-125651742D02*
X185741114Y-125461266D01*
X185741114Y-125461266D02*
X185741114Y-125223171D01*
X185741114Y-125223171D02*
X185788733Y-125032695D01*
X185788733Y-125032695D02*
X185836352Y-124937457D01*
X185836352Y-124937457D02*
X185883971Y-124889838D01*
X185883971Y-124889838D02*
X185979209Y-124842219D01*
X186741114Y-125175552D02*
X186741114Y-126175552D01*
X186741114Y-125223171D02*
X186836352Y-125175552D01*
X186836352Y-125175552D02*
X187026828Y-125175552D01*
X187026828Y-125175552D02*
X187122066Y-125223171D01*
X187122066Y-125223171D02*
X187169685Y-125270790D01*
X187169685Y-125270790D02*
X187217304Y-125366028D01*
X187217304Y-125366028D02*
X187217304Y-125651742D01*
X187217304Y-125651742D02*
X187169685Y-125746980D01*
X187169685Y-125746980D02*
X187122066Y-125794600D01*
X187122066Y-125794600D02*
X187026828Y-125842219D01*
X187026828Y-125842219D02*
X186836352Y-125842219D01*
X186836352Y-125842219D02*
X186741114Y-125794600D01*
X187979209Y-125318409D02*
X187645876Y-125318409D01*
X187645876Y-125842219D02*
X187645876Y-124842219D01*
X187645876Y-124842219D02*
X188122066Y-124842219D01*
X128546033Y-121667819D02*
X128212700Y-121191628D01*
X127974605Y-121667819D02*
X127974605Y-120667819D01*
X127974605Y-120667819D02*
X128355557Y-120667819D01*
X128355557Y-120667819D02*
X128450795Y-120715438D01*
X128450795Y-120715438D02*
X128498414Y-120763057D01*
X128498414Y-120763057D02*
X128546033Y-120858295D01*
X128546033Y-120858295D02*
X128546033Y-121001152D01*
X128546033Y-121001152D02*
X128498414Y-121096390D01*
X128498414Y-121096390D02*
X128450795Y-121144009D01*
X128450795Y-121144009D02*
X128355557Y-121191628D01*
X128355557Y-121191628D02*
X127974605Y-121191628D01*
X128879367Y-120667819D02*
X129546033Y-120667819D01*
X129546033Y-120667819D02*
X129117462Y-121667819D01*
X127798828Y-122635552D02*
X127798828Y-123302219D01*
X127560733Y-122254600D02*
X127322638Y-122968885D01*
X127322638Y-122968885D02*
X127941685Y-122968885D01*
X128322638Y-123206980D02*
X128370257Y-123254600D01*
X128370257Y-123254600D02*
X128322638Y-123302219D01*
X128322638Y-123302219D02*
X128275019Y-123254600D01*
X128275019Y-123254600D02*
X128322638Y-123206980D01*
X128322638Y-123206980D02*
X128322638Y-123302219D01*
X128703590Y-122302219D02*
X129370256Y-122302219D01*
X129370256Y-122302219D02*
X128941685Y-123302219D01*
X129751209Y-123302219D02*
X129751209Y-122302219D01*
X129846447Y-122921266D02*
X130132161Y-123302219D01*
X130132161Y-122635552D02*
X129751209Y-123016504D01*
X122090142Y-95241580D02*
X122042523Y-95289200D01*
X122042523Y-95289200D02*
X121899666Y-95336819D01*
X121899666Y-95336819D02*
X121804428Y-95336819D01*
X121804428Y-95336819D02*
X121661571Y-95289200D01*
X121661571Y-95289200D02*
X121566333Y-95193961D01*
X121566333Y-95193961D02*
X121518714Y-95098723D01*
X121518714Y-95098723D02*
X121471095Y-94908247D01*
X121471095Y-94908247D02*
X121471095Y-94765390D01*
X121471095Y-94765390D02*
X121518714Y-94574914D01*
X121518714Y-94574914D02*
X121566333Y-94479676D01*
X121566333Y-94479676D02*
X121661571Y-94384438D01*
X121661571Y-94384438D02*
X121804428Y-94336819D01*
X121804428Y-94336819D02*
X121899666Y-94336819D01*
X121899666Y-94336819D02*
X122042523Y-94384438D01*
X122042523Y-94384438D02*
X122090142Y-94432057D01*
X123042523Y-95336819D02*
X122471095Y-95336819D01*
X122756809Y-95336819D02*
X122756809Y-94336819D01*
X122756809Y-94336819D02*
X122661571Y-94479676D01*
X122661571Y-94479676D02*
X122566333Y-94574914D01*
X122566333Y-94574914D02*
X122471095Y-94622533D01*
X123423476Y-94432057D02*
X123471095Y-94384438D01*
X123471095Y-94384438D02*
X123566333Y-94336819D01*
X123566333Y-94336819D02*
X123804428Y-94336819D01*
X123804428Y-94336819D02*
X123899666Y-94384438D01*
X123899666Y-94384438D02*
X123947285Y-94432057D01*
X123947285Y-94432057D02*
X123994904Y-94527295D01*
X123994904Y-94527295D02*
X123994904Y-94622533D01*
X123994904Y-94622533D02*
X123947285Y-94765390D01*
X123947285Y-94765390D02*
X123375857Y-95336819D01*
X123375857Y-95336819D02*
X123994904Y-95336819D01*
X121852142Y-96194152D02*
X121852142Y-96860819D01*
X121614047Y-95813200D02*
X121375952Y-96527485D01*
X121375952Y-96527485D02*
X121994999Y-96527485D01*
X122280714Y-95860819D02*
X122947380Y-95860819D01*
X122947380Y-95860819D02*
X122518809Y-96860819D01*
X123518809Y-95860819D02*
X123614047Y-95860819D01*
X123614047Y-95860819D02*
X123709285Y-95908438D01*
X123709285Y-95908438D02*
X123756904Y-95956057D01*
X123756904Y-95956057D02*
X123804523Y-96051295D01*
X123804523Y-96051295D02*
X123852142Y-96241771D01*
X123852142Y-96241771D02*
X123852142Y-96479866D01*
X123852142Y-96479866D02*
X123804523Y-96670342D01*
X123804523Y-96670342D02*
X123756904Y-96765580D01*
X123756904Y-96765580D02*
X123709285Y-96813200D01*
X123709285Y-96813200D02*
X123614047Y-96860819D01*
X123614047Y-96860819D02*
X123518809Y-96860819D01*
X123518809Y-96860819D02*
X123423571Y-96813200D01*
X123423571Y-96813200D02*
X123375952Y-96765580D01*
X123375952Y-96765580D02*
X123328333Y-96670342D01*
X123328333Y-96670342D02*
X123280714Y-96479866D01*
X123280714Y-96479866D02*
X123280714Y-96241771D01*
X123280714Y-96241771D02*
X123328333Y-96051295D01*
X123328333Y-96051295D02*
X123375952Y-95956057D01*
X123375952Y-95956057D02*
X123423571Y-95908438D01*
X123423571Y-95908438D02*
X123518809Y-95860819D01*
X124280714Y-96194152D02*
X124280714Y-97194152D01*
X124280714Y-96241771D02*
X124375952Y-96194152D01*
X124375952Y-96194152D02*
X124566428Y-96194152D01*
X124566428Y-96194152D02*
X124661666Y-96241771D01*
X124661666Y-96241771D02*
X124709285Y-96289390D01*
X124709285Y-96289390D02*
X124756904Y-96384628D01*
X124756904Y-96384628D02*
X124756904Y-96670342D01*
X124756904Y-96670342D02*
X124709285Y-96765580D01*
X124709285Y-96765580D02*
X124661666Y-96813200D01*
X124661666Y-96813200D02*
X124566428Y-96860819D01*
X124566428Y-96860819D02*
X124375952Y-96860819D01*
X124375952Y-96860819D02*
X124280714Y-96813200D01*
X125518809Y-96337009D02*
X125185476Y-96337009D01*
X125185476Y-96860819D02*
X125185476Y-95860819D01*
X125185476Y-95860819D02*
X125661666Y-95860819D01*
X108632302Y-78232309D02*
X108632302Y-78947804D01*
X108632302Y-78947804D02*
X108584602Y-79090903D01*
X108584602Y-79090903D02*
X108489203Y-79186303D01*
X108489203Y-79186303D02*
X108346104Y-79234002D01*
X108346104Y-79234002D02*
X108250705Y-79234002D01*
X109252398Y-78661606D02*
X109156999Y-78613907D01*
X109156999Y-78613907D02*
X109109299Y-78566207D01*
X109109299Y-78566207D02*
X109061599Y-78470808D01*
X109061599Y-78470808D02*
X109061599Y-78423108D01*
X109061599Y-78423108D02*
X109109299Y-78327709D01*
X109109299Y-78327709D02*
X109156999Y-78280009D01*
X109156999Y-78280009D02*
X109252398Y-78232309D01*
X109252398Y-78232309D02*
X109443197Y-78232309D01*
X109443197Y-78232309D02*
X109538596Y-78280009D01*
X109538596Y-78280009D02*
X109586296Y-78327709D01*
X109586296Y-78327709D02*
X109633995Y-78423108D01*
X109633995Y-78423108D02*
X109633995Y-78470808D01*
X109633995Y-78470808D02*
X109586296Y-78566207D01*
X109586296Y-78566207D02*
X109538596Y-78613907D01*
X109538596Y-78613907D02*
X109443197Y-78661606D01*
X109443197Y-78661606D02*
X109252398Y-78661606D01*
X109252398Y-78661606D02*
X109156999Y-78709306D01*
X109156999Y-78709306D02*
X109109299Y-78757006D01*
X109109299Y-78757006D02*
X109061599Y-78852405D01*
X109061599Y-78852405D02*
X109061599Y-79043204D01*
X109061599Y-79043204D02*
X109109299Y-79138603D01*
X109109299Y-79138603D02*
X109156999Y-79186303D01*
X109156999Y-79186303D02*
X109252398Y-79234002D01*
X109252398Y-79234002D02*
X109443197Y-79234002D01*
X109443197Y-79234002D02*
X109538596Y-79186303D01*
X109538596Y-79186303D02*
X109586296Y-79138603D01*
X109586296Y-79138603D02*
X109633995Y-79043204D01*
X109633995Y-79043204D02*
X109633995Y-78852405D01*
X109633995Y-78852405D02*
X109586296Y-78757006D01*
X109586296Y-78757006D02*
X109538596Y-78709306D01*
X109538596Y-78709306D02*
X109443197Y-78661606D01*
X114965466Y-91942809D02*
X114632133Y-91942809D01*
X114632133Y-92466619D02*
X114632133Y-91466619D01*
X114632133Y-91466619D02*
X115108323Y-91466619D01*
X115822609Y-91942809D02*
X115965466Y-91990428D01*
X115965466Y-91990428D02*
X116013085Y-92038047D01*
X116013085Y-92038047D02*
X116060704Y-92133285D01*
X116060704Y-92133285D02*
X116060704Y-92276142D01*
X116060704Y-92276142D02*
X116013085Y-92371380D01*
X116013085Y-92371380D02*
X115965466Y-92419000D01*
X115965466Y-92419000D02*
X115870228Y-92466619D01*
X115870228Y-92466619D02*
X115489276Y-92466619D01*
X115489276Y-92466619D02*
X115489276Y-91466619D01*
X115489276Y-91466619D02*
X115822609Y-91466619D01*
X115822609Y-91466619D02*
X115917847Y-91514238D01*
X115917847Y-91514238D02*
X115965466Y-91561857D01*
X115965466Y-91561857D02*
X116013085Y-91657095D01*
X116013085Y-91657095D02*
X116013085Y-91752333D01*
X116013085Y-91752333D02*
X115965466Y-91847571D01*
X115965466Y-91847571D02*
X115917847Y-91895190D01*
X115917847Y-91895190D02*
X115822609Y-91942809D01*
X115822609Y-91942809D02*
X115489276Y-91942809D01*
X116917847Y-91799952D02*
X116917847Y-92466619D01*
X116679752Y-91419000D02*
X116441657Y-92133285D01*
X116441657Y-92133285D02*
X117060704Y-92133285D01*
X150935676Y-131070219D02*
X150935676Y-131784504D01*
X150935676Y-131784504D02*
X150888057Y-131927361D01*
X150888057Y-131927361D02*
X150792819Y-132022600D01*
X150792819Y-132022600D02*
X150649962Y-132070219D01*
X150649962Y-132070219D02*
X150554724Y-132070219D01*
X151935676Y-132070219D02*
X151364248Y-132070219D01*
X151649962Y-132070219D02*
X151649962Y-131070219D01*
X151649962Y-131070219D02*
X151554724Y-131213076D01*
X151554724Y-131213076D02*
X151459486Y-131308314D01*
X151459486Y-131308314D02*
X151364248Y-131355933D01*
X152840438Y-131070219D02*
X152364248Y-131070219D01*
X152364248Y-131070219D02*
X152316629Y-131546409D01*
X152316629Y-131546409D02*
X152364248Y-131498790D01*
X152364248Y-131498790D02*
X152459486Y-131451171D01*
X152459486Y-131451171D02*
X152697581Y-131451171D01*
X152697581Y-131451171D02*
X152792819Y-131498790D01*
X152792819Y-131498790D02*
X152840438Y-131546409D01*
X152840438Y-131546409D02*
X152888057Y-131641647D01*
X152888057Y-131641647D02*
X152888057Y-131879742D01*
X152888057Y-131879742D02*
X152840438Y-131974980D01*
X152840438Y-131974980D02*
X152792819Y-132022600D01*
X152792819Y-132022600D02*
X152697581Y-132070219D01*
X152697581Y-132070219D02*
X152459486Y-132070219D01*
X152459486Y-132070219D02*
X152364248Y-132022600D01*
X152364248Y-132022600D02*
X152316629Y-131974980D01*
X109326666Y-123901009D02*
X108993333Y-123901009D01*
X108993333Y-124424819D02*
X108993333Y-123424819D01*
X108993333Y-123424819D02*
X109469523Y-123424819D01*
X110183809Y-123901009D02*
X110326666Y-123948628D01*
X110326666Y-123948628D02*
X110374285Y-123996247D01*
X110374285Y-123996247D02*
X110421904Y-124091485D01*
X110421904Y-124091485D02*
X110421904Y-124234342D01*
X110421904Y-124234342D02*
X110374285Y-124329580D01*
X110374285Y-124329580D02*
X110326666Y-124377200D01*
X110326666Y-124377200D02*
X110231428Y-124424819D01*
X110231428Y-124424819D02*
X109850476Y-124424819D01*
X109850476Y-124424819D02*
X109850476Y-123424819D01*
X109850476Y-123424819D02*
X110183809Y-123424819D01*
X110183809Y-123424819D02*
X110279047Y-123472438D01*
X110279047Y-123472438D02*
X110326666Y-123520057D01*
X110326666Y-123520057D02*
X110374285Y-123615295D01*
X110374285Y-123615295D02*
X110374285Y-123710533D01*
X110374285Y-123710533D02*
X110326666Y-123805771D01*
X110326666Y-123805771D02*
X110279047Y-123853390D01*
X110279047Y-123853390D02*
X110183809Y-123901009D01*
X110183809Y-123901009D02*
X109850476Y-123901009D01*
X111374285Y-124424819D02*
X110802857Y-124424819D01*
X111088571Y-124424819D02*
X111088571Y-123424819D01*
X111088571Y-123424819D02*
X110993333Y-123567676D01*
X110993333Y-123567676D02*
X110898095Y-123662914D01*
X110898095Y-123662914D02*
X110802857Y-123710533D01*
X122185333Y-91050580D02*
X122137714Y-91098200D01*
X122137714Y-91098200D02*
X121994857Y-91145819D01*
X121994857Y-91145819D02*
X121899619Y-91145819D01*
X121899619Y-91145819D02*
X121756762Y-91098200D01*
X121756762Y-91098200D02*
X121661524Y-91002961D01*
X121661524Y-91002961D02*
X121613905Y-90907723D01*
X121613905Y-90907723D02*
X121566286Y-90717247D01*
X121566286Y-90717247D02*
X121566286Y-90574390D01*
X121566286Y-90574390D02*
X121613905Y-90383914D01*
X121613905Y-90383914D02*
X121661524Y-90288676D01*
X121661524Y-90288676D02*
X121756762Y-90193438D01*
X121756762Y-90193438D02*
X121899619Y-90145819D01*
X121899619Y-90145819D02*
X121994857Y-90145819D01*
X121994857Y-90145819D02*
X122137714Y-90193438D01*
X122137714Y-90193438D02*
X122185333Y-90241057D01*
X122518667Y-90145819D02*
X123185333Y-90145819D01*
X123185333Y-90145819D02*
X122756762Y-91145819D01*
X121979142Y-92003152D02*
X121979142Y-92669819D01*
X121741047Y-91622200D02*
X121502952Y-92336485D01*
X121502952Y-92336485D02*
X122121999Y-92336485D01*
X122407714Y-91669819D02*
X123074380Y-91669819D01*
X123074380Y-91669819D02*
X122645809Y-92669819D01*
X123645809Y-91669819D02*
X123741047Y-91669819D01*
X123741047Y-91669819D02*
X123836285Y-91717438D01*
X123836285Y-91717438D02*
X123883904Y-91765057D01*
X123883904Y-91765057D02*
X123931523Y-91860295D01*
X123931523Y-91860295D02*
X123979142Y-92050771D01*
X123979142Y-92050771D02*
X123979142Y-92288866D01*
X123979142Y-92288866D02*
X123931523Y-92479342D01*
X123931523Y-92479342D02*
X123883904Y-92574580D01*
X123883904Y-92574580D02*
X123836285Y-92622200D01*
X123836285Y-92622200D02*
X123741047Y-92669819D01*
X123741047Y-92669819D02*
X123645809Y-92669819D01*
X123645809Y-92669819D02*
X123550571Y-92622200D01*
X123550571Y-92622200D02*
X123502952Y-92574580D01*
X123502952Y-92574580D02*
X123455333Y-92479342D01*
X123455333Y-92479342D02*
X123407714Y-92288866D01*
X123407714Y-92288866D02*
X123407714Y-92050771D01*
X123407714Y-92050771D02*
X123455333Y-91860295D01*
X123455333Y-91860295D02*
X123502952Y-91765057D01*
X123502952Y-91765057D02*
X123550571Y-91717438D01*
X123550571Y-91717438D02*
X123645809Y-91669819D01*
X124407714Y-92003152D02*
X124407714Y-93003152D01*
X124407714Y-92050771D02*
X124502952Y-92003152D01*
X124502952Y-92003152D02*
X124693428Y-92003152D01*
X124693428Y-92003152D02*
X124788666Y-92050771D01*
X124788666Y-92050771D02*
X124836285Y-92098390D01*
X124836285Y-92098390D02*
X124883904Y-92193628D01*
X124883904Y-92193628D02*
X124883904Y-92479342D01*
X124883904Y-92479342D02*
X124836285Y-92574580D01*
X124836285Y-92574580D02*
X124788666Y-92622200D01*
X124788666Y-92622200D02*
X124693428Y-92669819D01*
X124693428Y-92669819D02*
X124502952Y-92669819D01*
X124502952Y-92669819D02*
X124407714Y-92622200D01*
X125645809Y-92146009D02*
X125312476Y-92146009D01*
X125312476Y-92669819D02*
X125312476Y-91669819D01*
X125312476Y-91669819D02*
X125788666Y-91669819D01*
X128865533Y-113497819D02*
X128532200Y-113021628D01*
X128294105Y-113497819D02*
X128294105Y-112497819D01*
X128294105Y-112497819D02*
X128675057Y-112497819D01*
X128675057Y-112497819D02*
X128770295Y-112545438D01*
X128770295Y-112545438D02*
X128817914Y-112593057D01*
X128817914Y-112593057D02*
X128865533Y-112688295D01*
X128865533Y-112688295D02*
X128865533Y-112831152D01*
X128865533Y-112831152D02*
X128817914Y-112926390D01*
X128817914Y-112926390D02*
X128770295Y-112974009D01*
X128770295Y-112974009D02*
X128675057Y-113021628D01*
X128675057Y-113021628D02*
X128294105Y-113021628D01*
X129770295Y-112497819D02*
X129294105Y-112497819D01*
X129294105Y-112497819D02*
X129246486Y-112974009D01*
X129246486Y-112974009D02*
X129294105Y-112926390D01*
X129294105Y-112926390D02*
X129389343Y-112878771D01*
X129389343Y-112878771D02*
X129627438Y-112878771D01*
X129627438Y-112878771D02*
X129722676Y-112926390D01*
X129722676Y-112926390D02*
X129770295Y-112974009D01*
X129770295Y-112974009D02*
X129817914Y-113069247D01*
X129817914Y-113069247D02*
X129817914Y-113307342D01*
X129817914Y-113307342D02*
X129770295Y-113402580D01*
X129770295Y-113402580D02*
X129722676Y-113450200D01*
X129722676Y-113450200D02*
X129627438Y-113497819D01*
X129627438Y-113497819D02*
X129389343Y-113497819D01*
X129389343Y-113497819D02*
X129294105Y-113450200D01*
X129294105Y-113450200D02*
X129246486Y-113402580D01*
X128275066Y-114979819D02*
X127703638Y-114979819D01*
X127989352Y-114979819D02*
X127989352Y-113979819D01*
X127989352Y-113979819D02*
X127894114Y-114122676D01*
X127894114Y-114122676D02*
X127798876Y-114217914D01*
X127798876Y-114217914D02*
X127703638Y-114265533D01*
X128703638Y-114884580D02*
X128751257Y-114932200D01*
X128751257Y-114932200D02*
X128703638Y-114979819D01*
X128703638Y-114979819D02*
X128656019Y-114932200D01*
X128656019Y-114932200D02*
X128703638Y-114884580D01*
X128703638Y-114884580D02*
X128703638Y-114979819D01*
X129370304Y-113979819D02*
X129465542Y-113979819D01*
X129465542Y-113979819D02*
X129560780Y-114027438D01*
X129560780Y-114027438D02*
X129608399Y-114075057D01*
X129608399Y-114075057D02*
X129656018Y-114170295D01*
X129656018Y-114170295D02*
X129703637Y-114360771D01*
X129703637Y-114360771D02*
X129703637Y-114598866D01*
X129703637Y-114598866D02*
X129656018Y-114789342D01*
X129656018Y-114789342D02*
X129608399Y-114884580D01*
X129608399Y-114884580D02*
X129560780Y-114932200D01*
X129560780Y-114932200D02*
X129465542Y-114979819D01*
X129465542Y-114979819D02*
X129370304Y-114979819D01*
X129370304Y-114979819D02*
X129275066Y-114932200D01*
X129275066Y-114932200D02*
X129227447Y-114884580D01*
X129227447Y-114884580D02*
X129179828Y-114789342D01*
X129179828Y-114789342D02*
X129132209Y-114598866D01*
X129132209Y-114598866D02*
X129132209Y-114360771D01*
X129132209Y-114360771D02*
X129179828Y-114170295D01*
X129179828Y-114170295D02*
X129227447Y-114075057D01*
X129227447Y-114075057D02*
X129275066Y-114027438D01*
X129275066Y-114027438D02*
X129370304Y-113979819D01*
X130132209Y-114979819D02*
X130132209Y-113979819D01*
X130227447Y-114598866D02*
X130513161Y-114979819D01*
X130513161Y-114313152D02*
X130132209Y-114694104D01*
X141743333Y-71333819D02*
X141410000Y-70857628D01*
X141171905Y-71333819D02*
X141171905Y-70333819D01*
X141171905Y-70333819D02*
X141552857Y-70333819D01*
X141552857Y-70333819D02*
X141648095Y-70381438D01*
X141648095Y-70381438D02*
X141695714Y-70429057D01*
X141695714Y-70429057D02*
X141743333Y-70524295D01*
X141743333Y-70524295D02*
X141743333Y-70667152D01*
X141743333Y-70667152D02*
X141695714Y-70762390D01*
X141695714Y-70762390D02*
X141648095Y-70810009D01*
X141648095Y-70810009D02*
X141552857Y-70857628D01*
X141552857Y-70857628D02*
X141171905Y-70857628D01*
X142124286Y-70429057D02*
X142171905Y-70381438D01*
X142171905Y-70381438D02*
X142267143Y-70333819D01*
X142267143Y-70333819D02*
X142505238Y-70333819D01*
X142505238Y-70333819D02*
X142600476Y-70381438D01*
X142600476Y-70381438D02*
X142648095Y-70429057D01*
X142648095Y-70429057D02*
X142695714Y-70524295D01*
X142695714Y-70524295D02*
X142695714Y-70619533D01*
X142695714Y-70619533D02*
X142648095Y-70762390D01*
X142648095Y-70762390D02*
X142076667Y-71333819D01*
X142076667Y-71333819D02*
X142695714Y-71333819D01*
X141243333Y-72857819D02*
X140671905Y-72857819D01*
X140957619Y-72857819D02*
X140957619Y-71857819D01*
X140957619Y-71857819D02*
X140862381Y-72000676D01*
X140862381Y-72000676D02*
X140767143Y-72095914D01*
X140767143Y-72095914D02*
X140671905Y-72143533D01*
X141862381Y-71857819D02*
X141957619Y-71857819D01*
X141957619Y-71857819D02*
X142052857Y-71905438D01*
X142052857Y-71905438D02*
X142100476Y-71953057D01*
X142100476Y-71953057D02*
X142148095Y-72048295D01*
X142148095Y-72048295D02*
X142195714Y-72238771D01*
X142195714Y-72238771D02*
X142195714Y-72476866D01*
X142195714Y-72476866D02*
X142148095Y-72667342D01*
X142148095Y-72667342D02*
X142100476Y-72762580D01*
X142100476Y-72762580D02*
X142052857Y-72810200D01*
X142052857Y-72810200D02*
X141957619Y-72857819D01*
X141957619Y-72857819D02*
X141862381Y-72857819D01*
X141862381Y-72857819D02*
X141767143Y-72810200D01*
X141767143Y-72810200D02*
X141719524Y-72762580D01*
X141719524Y-72762580D02*
X141671905Y-72667342D01*
X141671905Y-72667342D02*
X141624286Y-72476866D01*
X141624286Y-72476866D02*
X141624286Y-72238771D01*
X141624286Y-72238771D02*
X141671905Y-72048295D01*
X141671905Y-72048295D02*
X141719524Y-71953057D01*
X141719524Y-71953057D02*
X141767143Y-71905438D01*
X141767143Y-71905438D02*
X141862381Y-71857819D01*
X142814762Y-71857819D02*
X142910000Y-71857819D01*
X142910000Y-71857819D02*
X143005238Y-71905438D01*
X143005238Y-71905438D02*
X143052857Y-71953057D01*
X143052857Y-71953057D02*
X143100476Y-72048295D01*
X143100476Y-72048295D02*
X143148095Y-72238771D01*
X143148095Y-72238771D02*
X143148095Y-72476866D01*
X143148095Y-72476866D02*
X143100476Y-72667342D01*
X143100476Y-72667342D02*
X143052857Y-72762580D01*
X143052857Y-72762580D02*
X143005238Y-72810200D01*
X143005238Y-72810200D02*
X142910000Y-72857819D01*
X142910000Y-72857819D02*
X142814762Y-72857819D01*
X142814762Y-72857819D02*
X142719524Y-72810200D01*
X142719524Y-72810200D02*
X142671905Y-72762580D01*
X142671905Y-72762580D02*
X142624286Y-72667342D01*
X142624286Y-72667342D02*
X142576667Y-72476866D01*
X142576667Y-72476866D02*
X142576667Y-72238771D01*
X142576667Y-72238771D02*
X142624286Y-72048295D01*
X142624286Y-72048295D02*
X142671905Y-71953057D01*
X142671905Y-71953057D02*
X142719524Y-71905438D01*
X142719524Y-71905438D02*
X142814762Y-71857819D01*
X135356895Y-113920219D02*
X135356895Y-114729742D01*
X135356895Y-114729742D02*
X135404514Y-114824980D01*
X135404514Y-114824980D02*
X135452133Y-114872600D01*
X135452133Y-114872600D02*
X135547371Y-114920219D01*
X135547371Y-114920219D02*
X135737847Y-114920219D01*
X135737847Y-114920219D02*
X135833085Y-114872600D01*
X135833085Y-114872600D02*
X135880704Y-114824980D01*
X135880704Y-114824980D02*
X135928323Y-114729742D01*
X135928323Y-114729742D02*
X135928323Y-113920219D01*
X136833085Y-114253552D02*
X136833085Y-114920219D01*
X136594990Y-113872600D02*
X136356895Y-114586885D01*
X136356895Y-114586885D02*
X136975942Y-114586885D01*
X118081666Y-63958419D02*
X118081666Y-64672704D01*
X118081666Y-64672704D02*
X118034047Y-64815561D01*
X118034047Y-64815561D02*
X117938809Y-64910800D01*
X117938809Y-64910800D02*
X117795952Y-64958419D01*
X117795952Y-64958419D02*
X117700714Y-64958419D01*
X118605476Y-64958419D02*
X118795952Y-64958419D01*
X118795952Y-64958419D02*
X118891190Y-64910800D01*
X118891190Y-64910800D02*
X118938809Y-64863180D01*
X118938809Y-64863180D02*
X119034047Y-64720323D01*
X119034047Y-64720323D02*
X119081666Y-64529847D01*
X119081666Y-64529847D02*
X119081666Y-64148895D01*
X119081666Y-64148895D02*
X119034047Y-64053657D01*
X119034047Y-64053657D02*
X118986428Y-64006038D01*
X118986428Y-64006038D02*
X118891190Y-63958419D01*
X118891190Y-63958419D02*
X118700714Y-63958419D01*
X118700714Y-63958419D02*
X118605476Y-64006038D01*
X118605476Y-64006038D02*
X118557857Y-64053657D01*
X118557857Y-64053657D02*
X118510238Y-64148895D01*
X118510238Y-64148895D02*
X118510238Y-64386990D01*
X118510238Y-64386990D02*
X118557857Y-64482228D01*
X118557857Y-64482228D02*
X118605476Y-64529847D01*
X118605476Y-64529847D02*
X118700714Y-64577466D01*
X118700714Y-64577466D02*
X118891190Y-64577466D01*
X118891190Y-64577466D02*
X118986428Y-64529847D01*
X118986428Y-64529847D02*
X119034047Y-64482228D01*
X119034047Y-64482228D02*
X119081666Y-64386990D01*
X117105333Y-129302980D02*
X117057714Y-129350600D01*
X117057714Y-129350600D02*
X116914857Y-129398219D01*
X116914857Y-129398219D02*
X116819619Y-129398219D01*
X116819619Y-129398219D02*
X116676762Y-129350600D01*
X116676762Y-129350600D02*
X116581524Y-129255361D01*
X116581524Y-129255361D02*
X116533905Y-129160123D01*
X116533905Y-129160123D02*
X116486286Y-128969647D01*
X116486286Y-128969647D02*
X116486286Y-128826790D01*
X116486286Y-128826790D02*
X116533905Y-128636314D01*
X116533905Y-128636314D02*
X116581524Y-128541076D01*
X116581524Y-128541076D02*
X116676762Y-128445838D01*
X116676762Y-128445838D02*
X116819619Y-128398219D01*
X116819619Y-128398219D02*
X116914857Y-128398219D01*
X116914857Y-128398219D02*
X117057714Y-128445838D01*
X117057714Y-128445838D02*
X117105333Y-128493457D01*
X118010095Y-128398219D02*
X117533905Y-128398219D01*
X117533905Y-128398219D02*
X117486286Y-128874409D01*
X117486286Y-128874409D02*
X117533905Y-128826790D01*
X117533905Y-128826790D02*
X117629143Y-128779171D01*
X117629143Y-128779171D02*
X117867238Y-128779171D01*
X117867238Y-128779171D02*
X117962476Y-128826790D01*
X117962476Y-128826790D02*
X118010095Y-128874409D01*
X118010095Y-128874409D02*
X118057714Y-128969647D01*
X118057714Y-128969647D02*
X118057714Y-129207742D01*
X118057714Y-129207742D02*
X118010095Y-129302980D01*
X118010095Y-129302980D02*
X117962476Y-129350600D01*
X117962476Y-129350600D02*
X117867238Y-129398219D01*
X117867238Y-129398219D02*
X117629143Y-129398219D01*
X117629143Y-129398219D02*
X117533905Y-129350600D01*
X117533905Y-129350600D02*
X117486286Y-129302980D01*
X116746743Y-129922219D02*
X116841981Y-129922219D01*
X116841981Y-129922219D02*
X116937219Y-129969838D01*
X116937219Y-129969838D02*
X116984838Y-130017457D01*
X116984838Y-130017457D02*
X117032457Y-130112695D01*
X117032457Y-130112695D02*
X117080076Y-130303171D01*
X117080076Y-130303171D02*
X117080076Y-130541266D01*
X117080076Y-130541266D02*
X117032457Y-130731742D01*
X117032457Y-130731742D02*
X116984838Y-130826980D01*
X116984838Y-130826980D02*
X116937219Y-130874600D01*
X116937219Y-130874600D02*
X116841981Y-130922219D01*
X116841981Y-130922219D02*
X116746743Y-130922219D01*
X116746743Y-130922219D02*
X116651505Y-130874600D01*
X116651505Y-130874600D02*
X116603886Y-130826980D01*
X116603886Y-130826980D02*
X116556267Y-130731742D01*
X116556267Y-130731742D02*
X116508648Y-130541266D01*
X116508648Y-130541266D02*
X116508648Y-130303171D01*
X116508648Y-130303171D02*
X116556267Y-130112695D01*
X116556267Y-130112695D02*
X116603886Y-130017457D01*
X116603886Y-130017457D02*
X116651505Y-129969838D01*
X116651505Y-129969838D02*
X116746743Y-129922219D01*
X117508648Y-130826980D02*
X117556267Y-130874600D01*
X117556267Y-130874600D02*
X117508648Y-130922219D01*
X117508648Y-130922219D02*
X117461029Y-130874600D01*
X117461029Y-130874600D02*
X117508648Y-130826980D01*
X117508648Y-130826980D02*
X117508648Y-130922219D01*
X118508647Y-130922219D02*
X117937219Y-130922219D01*
X118222933Y-130922219D02*
X118222933Y-129922219D01*
X118222933Y-129922219D02*
X118127695Y-130065076D01*
X118127695Y-130065076D02*
X118032457Y-130160314D01*
X118032457Y-130160314D02*
X117937219Y-130207933D01*
X119365790Y-130255552D02*
X119365790Y-130922219D01*
X118937219Y-130255552D02*
X118937219Y-130779361D01*
X118937219Y-130779361D02*
X118984838Y-130874600D01*
X118984838Y-130874600D02*
X119080076Y-130922219D01*
X119080076Y-130922219D02*
X119222933Y-130922219D01*
X119222933Y-130922219D02*
X119318171Y-130874600D01*
X119318171Y-130874600D02*
X119365790Y-130826980D01*
X120175314Y-130398409D02*
X119841981Y-130398409D01*
X119841981Y-130922219D02*
X119841981Y-129922219D01*
X119841981Y-129922219D02*
X120318171Y-129922219D01*
X100936666Y-114144819D02*
X100936666Y-114859104D01*
X100936666Y-114859104D02*
X100889047Y-115001961D01*
X100889047Y-115001961D02*
X100793809Y-115097200D01*
X100793809Y-115097200D02*
X100650952Y-115144819D01*
X100650952Y-115144819D02*
X100555714Y-115144819D01*
X101936666Y-115144819D02*
X101365238Y-115144819D01*
X101650952Y-115144819D02*
X101650952Y-114144819D01*
X101650952Y-114144819D02*
X101555714Y-114287676D01*
X101555714Y-114287676D02*
X101460476Y-114382914D01*
X101460476Y-114382914D02*
X101365238Y-114430533D01*
X153797295Y-93270019D02*
X153797295Y-94079542D01*
X153797295Y-94079542D02*
X153844914Y-94174780D01*
X153844914Y-94174780D02*
X153892533Y-94222400D01*
X153892533Y-94222400D02*
X153987771Y-94270019D01*
X153987771Y-94270019D02*
X154178247Y-94270019D01*
X154178247Y-94270019D02*
X154273485Y-94222400D01*
X154273485Y-94222400D02*
X154321104Y-94174780D01*
X154321104Y-94174780D02*
X154368723Y-94079542D01*
X154368723Y-94079542D02*
X154368723Y-93270019D01*
X155368723Y-94270019D02*
X154797295Y-94270019D01*
X155083009Y-94270019D02*
X155083009Y-93270019D01*
X155083009Y-93270019D02*
X154987771Y-93412876D01*
X154987771Y-93412876D02*
X154892533Y-93508114D01*
X154892533Y-93508114D02*
X154797295Y-93555733D01*
X163406495Y-123038819D02*
X163406495Y-123848342D01*
X163406495Y-123848342D02*
X163454114Y-123943580D01*
X163454114Y-123943580D02*
X163501733Y-123991200D01*
X163501733Y-123991200D02*
X163596971Y-124038819D01*
X163596971Y-124038819D02*
X163787447Y-124038819D01*
X163787447Y-124038819D02*
X163882685Y-123991200D01*
X163882685Y-123991200D02*
X163930304Y-123943580D01*
X163930304Y-123943580D02*
X163977923Y-123848342D01*
X163977923Y-123848342D02*
X163977923Y-123038819D01*
X164406495Y-123991200D02*
X164549352Y-124038819D01*
X164549352Y-124038819D02*
X164787447Y-124038819D01*
X164787447Y-124038819D02*
X164882685Y-123991200D01*
X164882685Y-123991200D02*
X164930304Y-123943580D01*
X164930304Y-123943580D02*
X164977923Y-123848342D01*
X164977923Y-123848342D02*
X164977923Y-123753104D01*
X164977923Y-123753104D02*
X164930304Y-123657866D01*
X164930304Y-123657866D02*
X164882685Y-123610247D01*
X164882685Y-123610247D02*
X164787447Y-123562628D01*
X164787447Y-123562628D02*
X164596971Y-123515009D01*
X164596971Y-123515009D02*
X164501733Y-123467390D01*
X164501733Y-123467390D02*
X164454114Y-123419771D01*
X164454114Y-123419771D02*
X164406495Y-123324533D01*
X164406495Y-123324533D02*
X164406495Y-123229295D01*
X164406495Y-123229295D02*
X164454114Y-123134057D01*
X164454114Y-123134057D02*
X164501733Y-123086438D01*
X164501733Y-123086438D02*
X164596971Y-123038819D01*
X164596971Y-123038819D02*
X164835066Y-123038819D01*
X164835066Y-123038819D02*
X164977923Y-123086438D01*
X165739828Y-123515009D02*
X165882685Y-123562628D01*
X165882685Y-123562628D02*
X165930304Y-123610247D01*
X165930304Y-123610247D02*
X165977923Y-123705485D01*
X165977923Y-123705485D02*
X165977923Y-123848342D01*
X165977923Y-123848342D02*
X165930304Y-123943580D01*
X165930304Y-123943580D02*
X165882685Y-123991200D01*
X165882685Y-123991200D02*
X165787447Y-124038819D01*
X165787447Y-124038819D02*
X165406495Y-124038819D01*
X165406495Y-124038819D02*
X165406495Y-123038819D01*
X165406495Y-123038819D02*
X165739828Y-123038819D01*
X165739828Y-123038819D02*
X165835066Y-123086438D01*
X165835066Y-123086438D02*
X165882685Y-123134057D01*
X165882685Y-123134057D02*
X165930304Y-123229295D01*
X165930304Y-123229295D02*
X165930304Y-123324533D01*
X165930304Y-123324533D02*
X165882685Y-123419771D01*
X165882685Y-123419771D02*
X165835066Y-123467390D01*
X165835066Y-123467390D02*
X165739828Y-123515009D01*
X165739828Y-123515009D02*
X165406495Y-123515009D01*
X158534656Y-108910009D02*
X158867989Y-108910009D01*
X159010846Y-109433819D02*
X158534656Y-109433819D01*
X158534656Y-109433819D02*
X158534656Y-108433819D01*
X158534656Y-108433819D02*
X159010846Y-108433819D01*
X159296561Y-108767152D02*
X159677513Y-108767152D01*
X159439418Y-108433819D02*
X159439418Y-109290961D01*
X159439418Y-109290961D02*
X159487037Y-109386200D01*
X159487037Y-109386200D02*
X159582275Y-109433819D01*
X159582275Y-109433819D02*
X159677513Y-109433819D01*
X160010847Y-109433819D02*
X160010847Y-108433819D01*
X160439418Y-109433819D02*
X160439418Y-108910009D01*
X160439418Y-108910009D02*
X160391799Y-108814771D01*
X160391799Y-108814771D02*
X160296561Y-108767152D01*
X160296561Y-108767152D02*
X160153704Y-108767152D01*
X160153704Y-108767152D02*
X160058466Y-108814771D01*
X160058466Y-108814771D02*
X160010847Y-108862390D01*
X161296561Y-109386200D02*
X161201323Y-109433819D01*
X161201323Y-109433819D02*
X161010847Y-109433819D01*
X161010847Y-109433819D02*
X160915609Y-109386200D01*
X160915609Y-109386200D02*
X160867990Y-109290961D01*
X160867990Y-109290961D02*
X160867990Y-108910009D01*
X160867990Y-108910009D02*
X160915609Y-108814771D01*
X160915609Y-108814771D02*
X161010847Y-108767152D01*
X161010847Y-108767152D02*
X161201323Y-108767152D01*
X161201323Y-108767152D02*
X161296561Y-108814771D01*
X161296561Y-108814771D02*
X161344180Y-108910009D01*
X161344180Y-108910009D02*
X161344180Y-109005247D01*
X161344180Y-109005247D02*
X160867990Y-109100485D01*
X161772752Y-109433819D02*
X161772752Y-108767152D01*
X161772752Y-108957628D02*
X161820371Y-108862390D01*
X161820371Y-108862390D02*
X161867990Y-108814771D01*
X161867990Y-108814771D02*
X161963228Y-108767152D01*
X161963228Y-108767152D02*
X162058466Y-108767152D01*
X162391800Y-108767152D02*
X162391800Y-109433819D01*
X162391800Y-108862390D02*
X162439419Y-108814771D01*
X162439419Y-108814771D02*
X162534657Y-108767152D01*
X162534657Y-108767152D02*
X162677514Y-108767152D01*
X162677514Y-108767152D02*
X162772752Y-108814771D01*
X162772752Y-108814771D02*
X162820371Y-108910009D01*
X162820371Y-108910009D02*
X162820371Y-109433819D01*
X163677514Y-109386200D02*
X163582276Y-109433819D01*
X163582276Y-109433819D02*
X163391800Y-109433819D01*
X163391800Y-109433819D02*
X163296562Y-109386200D01*
X163296562Y-109386200D02*
X163248943Y-109290961D01*
X163248943Y-109290961D02*
X163248943Y-108910009D01*
X163248943Y-108910009D02*
X163296562Y-108814771D01*
X163296562Y-108814771D02*
X163391800Y-108767152D01*
X163391800Y-108767152D02*
X163582276Y-108767152D01*
X163582276Y-108767152D02*
X163677514Y-108814771D01*
X163677514Y-108814771D02*
X163725133Y-108910009D01*
X163725133Y-108910009D02*
X163725133Y-109005247D01*
X163725133Y-109005247D02*
X163248943Y-109100485D01*
X164010848Y-108767152D02*
X164391800Y-108767152D01*
X164153705Y-108433819D02*
X164153705Y-109290961D01*
X164153705Y-109290961D02*
X164201324Y-109386200D01*
X164201324Y-109386200D02*
X164296562Y-109433819D01*
X164296562Y-109433819D02*
X164391800Y-109433819D01*
X166612419Y-118689323D02*
X167421942Y-118689323D01*
X167421942Y-118689323D02*
X167517180Y-118641704D01*
X167517180Y-118641704D02*
X167564800Y-118594085D01*
X167564800Y-118594085D02*
X167612419Y-118498847D01*
X167612419Y-118498847D02*
X167612419Y-118308371D01*
X167612419Y-118308371D02*
X167564800Y-118213133D01*
X167564800Y-118213133D02*
X167517180Y-118165514D01*
X167517180Y-118165514D02*
X167421942Y-118117895D01*
X167421942Y-118117895D02*
X166612419Y-118117895D01*
X167564800Y-117689323D02*
X167612419Y-117546466D01*
X167612419Y-117546466D02*
X167612419Y-117308371D01*
X167612419Y-117308371D02*
X167564800Y-117213133D01*
X167564800Y-117213133D02*
X167517180Y-117165514D01*
X167517180Y-117165514D02*
X167421942Y-117117895D01*
X167421942Y-117117895D02*
X167326704Y-117117895D01*
X167326704Y-117117895D02*
X167231466Y-117165514D01*
X167231466Y-117165514D02*
X167183847Y-117213133D01*
X167183847Y-117213133D02*
X167136228Y-117308371D01*
X167136228Y-117308371D02*
X167088609Y-117498847D01*
X167088609Y-117498847D02*
X167040990Y-117594085D01*
X167040990Y-117594085D02*
X166993371Y-117641704D01*
X166993371Y-117641704D02*
X166898133Y-117689323D01*
X166898133Y-117689323D02*
X166802895Y-117689323D01*
X166802895Y-117689323D02*
X166707657Y-117641704D01*
X166707657Y-117641704D02*
X166660038Y-117594085D01*
X166660038Y-117594085D02*
X166612419Y-117498847D01*
X166612419Y-117498847D02*
X166612419Y-117260752D01*
X166612419Y-117260752D02*
X166660038Y-117117895D01*
X167088609Y-116355990D02*
X167136228Y-116213133D01*
X167136228Y-116213133D02*
X167183847Y-116165514D01*
X167183847Y-116165514D02*
X167279085Y-116117895D01*
X167279085Y-116117895D02*
X167421942Y-116117895D01*
X167421942Y-116117895D02*
X167517180Y-116165514D01*
X167517180Y-116165514D02*
X167564800Y-116213133D01*
X167564800Y-116213133D02*
X167612419Y-116308371D01*
X167612419Y-116308371D02*
X167612419Y-116689323D01*
X167612419Y-116689323D02*
X166612419Y-116689323D01*
X166612419Y-116689323D02*
X166612419Y-116355990D01*
X166612419Y-116355990D02*
X166660038Y-116260752D01*
X166660038Y-116260752D02*
X166707657Y-116213133D01*
X166707657Y-116213133D02*
X166802895Y-116165514D01*
X166802895Y-116165514D02*
X166898133Y-116165514D01*
X166898133Y-116165514D02*
X166993371Y-116213133D01*
X166993371Y-116213133D02*
X167040990Y-116260752D01*
X167040990Y-116260752D02*
X167088609Y-116355990D01*
X167088609Y-116355990D02*
X167088609Y-116689323D01*
X167612419Y-114927418D02*
X166612419Y-114927418D01*
X167088609Y-114927418D02*
X167088609Y-114355990D01*
X167612419Y-114355990D02*
X166612419Y-114355990D01*
X167612419Y-113736942D02*
X167564800Y-113832180D01*
X167564800Y-113832180D02*
X167517180Y-113879799D01*
X167517180Y-113879799D02*
X167421942Y-113927418D01*
X167421942Y-113927418D02*
X167136228Y-113927418D01*
X167136228Y-113927418D02*
X167040990Y-113879799D01*
X167040990Y-113879799D02*
X166993371Y-113832180D01*
X166993371Y-113832180D02*
X166945752Y-113736942D01*
X166945752Y-113736942D02*
X166945752Y-113594085D01*
X166945752Y-113594085D02*
X166993371Y-113498847D01*
X166993371Y-113498847D02*
X167040990Y-113451228D01*
X167040990Y-113451228D02*
X167136228Y-113403609D01*
X167136228Y-113403609D02*
X167421942Y-113403609D01*
X167421942Y-113403609D02*
X167517180Y-113451228D01*
X167517180Y-113451228D02*
X167564800Y-113498847D01*
X167564800Y-113498847D02*
X167612419Y-113594085D01*
X167612419Y-113594085D02*
X167612419Y-113736942D01*
X167564800Y-113022656D02*
X167612419Y-112927418D01*
X167612419Y-112927418D02*
X167612419Y-112736942D01*
X167612419Y-112736942D02*
X167564800Y-112641704D01*
X167564800Y-112641704D02*
X167469561Y-112594085D01*
X167469561Y-112594085D02*
X167421942Y-112594085D01*
X167421942Y-112594085D02*
X167326704Y-112641704D01*
X167326704Y-112641704D02*
X167279085Y-112736942D01*
X167279085Y-112736942D02*
X167279085Y-112879799D01*
X167279085Y-112879799D02*
X167231466Y-112975037D01*
X167231466Y-112975037D02*
X167136228Y-113022656D01*
X167136228Y-113022656D02*
X167088609Y-113022656D01*
X167088609Y-113022656D02*
X166993371Y-112975037D01*
X166993371Y-112975037D02*
X166945752Y-112879799D01*
X166945752Y-112879799D02*
X166945752Y-112736942D01*
X166945752Y-112736942D02*
X166993371Y-112641704D01*
X166945752Y-112308370D02*
X166945752Y-111927418D01*
X166612419Y-112165513D02*
X167469561Y-112165513D01*
X167469561Y-112165513D02*
X167564800Y-112117894D01*
X167564800Y-112117894D02*
X167612419Y-112022656D01*
X167612419Y-112022656D02*
X167612419Y-111927418D01*
X165123219Y-75903047D02*
X164123219Y-75903047D01*
X164123219Y-75903047D02*
X164837504Y-75569714D01*
X164837504Y-75569714D02*
X164123219Y-75236381D01*
X164123219Y-75236381D02*
X165123219Y-75236381D01*
X165123219Y-74760190D02*
X164456552Y-74760190D01*
X164123219Y-74760190D02*
X164170838Y-74807809D01*
X164170838Y-74807809D02*
X164218457Y-74760190D01*
X164218457Y-74760190D02*
X164170838Y-74712571D01*
X164170838Y-74712571D02*
X164123219Y-74760190D01*
X164123219Y-74760190D02*
X164218457Y-74760190D01*
X165075600Y-73855429D02*
X165123219Y-73950667D01*
X165123219Y-73950667D02*
X165123219Y-74141143D01*
X165123219Y-74141143D02*
X165075600Y-74236381D01*
X165075600Y-74236381D02*
X165027980Y-74284000D01*
X165027980Y-74284000D02*
X164932742Y-74331619D01*
X164932742Y-74331619D02*
X164647028Y-74331619D01*
X164647028Y-74331619D02*
X164551790Y-74284000D01*
X164551790Y-74284000D02*
X164504171Y-74236381D01*
X164504171Y-74236381D02*
X164456552Y-74141143D01*
X164456552Y-74141143D02*
X164456552Y-73950667D01*
X164456552Y-73950667D02*
X164504171Y-73855429D01*
X165123219Y-73426857D02*
X164456552Y-73426857D01*
X164647028Y-73426857D02*
X164551790Y-73379238D01*
X164551790Y-73379238D02*
X164504171Y-73331619D01*
X164504171Y-73331619D02*
X164456552Y-73236381D01*
X164456552Y-73236381D02*
X164456552Y-73141143D01*
X165123219Y-72664952D02*
X165075600Y-72760190D01*
X165075600Y-72760190D02*
X165027980Y-72807809D01*
X165027980Y-72807809D02*
X164932742Y-72855428D01*
X164932742Y-72855428D02*
X164647028Y-72855428D01*
X164647028Y-72855428D02*
X164551790Y-72807809D01*
X164551790Y-72807809D02*
X164504171Y-72760190D01*
X164504171Y-72760190D02*
X164456552Y-72664952D01*
X164456552Y-72664952D02*
X164456552Y-72522095D01*
X164456552Y-72522095D02*
X164504171Y-72426857D01*
X164504171Y-72426857D02*
X164551790Y-72379238D01*
X164551790Y-72379238D02*
X164647028Y-72331619D01*
X164647028Y-72331619D02*
X164932742Y-72331619D01*
X164932742Y-72331619D02*
X165027980Y-72379238D01*
X165027980Y-72379238D02*
X165075600Y-72426857D01*
X165075600Y-72426857D02*
X165123219Y-72522095D01*
X165123219Y-72522095D02*
X165123219Y-72664952D01*
X165075600Y-71188761D02*
X165123219Y-71045904D01*
X165123219Y-71045904D02*
X165123219Y-70807809D01*
X165123219Y-70807809D02*
X165075600Y-70712571D01*
X165075600Y-70712571D02*
X165027980Y-70664952D01*
X165027980Y-70664952D02*
X164932742Y-70617333D01*
X164932742Y-70617333D02*
X164837504Y-70617333D01*
X164837504Y-70617333D02*
X164742266Y-70664952D01*
X164742266Y-70664952D02*
X164694647Y-70712571D01*
X164694647Y-70712571D02*
X164647028Y-70807809D01*
X164647028Y-70807809D02*
X164599409Y-70998285D01*
X164599409Y-70998285D02*
X164551790Y-71093523D01*
X164551790Y-71093523D02*
X164504171Y-71141142D01*
X164504171Y-71141142D02*
X164408933Y-71188761D01*
X164408933Y-71188761D02*
X164313695Y-71188761D01*
X164313695Y-71188761D02*
X164218457Y-71141142D01*
X164218457Y-71141142D02*
X164170838Y-71093523D01*
X164170838Y-71093523D02*
X164123219Y-70998285D01*
X164123219Y-70998285D02*
X164123219Y-70760190D01*
X164123219Y-70760190D02*
X164170838Y-70617333D01*
X165123219Y-70188761D02*
X164123219Y-70188761D01*
X164123219Y-70188761D02*
X164123219Y-69950666D01*
X164123219Y-69950666D02*
X164170838Y-69807809D01*
X164170838Y-69807809D02*
X164266076Y-69712571D01*
X164266076Y-69712571D02*
X164361314Y-69664952D01*
X164361314Y-69664952D02*
X164551790Y-69617333D01*
X164551790Y-69617333D02*
X164694647Y-69617333D01*
X164694647Y-69617333D02*
X164885123Y-69664952D01*
X164885123Y-69664952D02*
X164980361Y-69712571D01*
X164980361Y-69712571D02*
X165075600Y-69807809D01*
X165075600Y-69807809D02*
X165123219Y-69950666D01*
X165123219Y-69950666D02*
X165123219Y-70188761D01*
X149568333Y-138904180D02*
X149520714Y-138951800D01*
X149520714Y-138951800D02*
X149377857Y-138999419D01*
X149377857Y-138999419D02*
X149282619Y-138999419D01*
X149282619Y-138999419D02*
X149139762Y-138951800D01*
X149139762Y-138951800D02*
X149044524Y-138856561D01*
X149044524Y-138856561D02*
X148996905Y-138761323D01*
X148996905Y-138761323D02*
X148949286Y-138570847D01*
X148949286Y-138570847D02*
X148949286Y-138427990D01*
X148949286Y-138427990D02*
X148996905Y-138237514D01*
X148996905Y-138237514D02*
X149044524Y-138142276D01*
X149044524Y-138142276D02*
X149139762Y-138047038D01*
X149139762Y-138047038D02*
X149282619Y-137999419D01*
X149282619Y-137999419D02*
X149377857Y-137999419D01*
X149377857Y-137999419D02*
X149520714Y-138047038D01*
X149520714Y-138047038D02*
X149568333Y-138094657D01*
X149949286Y-138094657D02*
X149996905Y-138047038D01*
X149996905Y-138047038D02*
X150092143Y-137999419D01*
X150092143Y-137999419D02*
X150330238Y-137999419D01*
X150330238Y-137999419D02*
X150425476Y-138047038D01*
X150425476Y-138047038D02*
X150473095Y-138094657D01*
X150473095Y-138094657D02*
X150520714Y-138189895D01*
X150520714Y-138189895D02*
X150520714Y-138285133D01*
X150520714Y-138285133D02*
X150473095Y-138427990D01*
X150473095Y-138427990D02*
X149901667Y-138999419D01*
X149901667Y-138999419D02*
X150520714Y-138999419D01*
X148661771Y-140371019D02*
X148090343Y-140371019D01*
X148376057Y-140371019D02*
X148376057Y-139371019D01*
X148376057Y-139371019D02*
X148280819Y-139513876D01*
X148280819Y-139513876D02*
X148185581Y-139609114D01*
X148185581Y-139609114D02*
X148090343Y-139656733D01*
X149280819Y-139371019D02*
X149376057Y-139371019D01*
X149376057Y-139371019D02*
X149471295Y-139418638D01*
X149471295Y-139418638D02*
X149518914Y-139466257D01*
X149518914Y-139466257D02*
X149566533Y-139561495D01*
X149566533Y-139561495D02*
X149614152Y-139751971D01*
X149614152Y-139751971D02*
X149614152Y-139990066D01*
X149614152Y-139990066D02*
X149566533Y-140180542D01*
X149566533Y-140180542D02*
X149518914Y-140275780D01*
X149518914Y-140275780D02*
X149471295Y-140323400D01*
X149471295Y-140323400D02*
X149376057Y-140371019D01*
X149376057Y-140371019D02*
X149280819Y-140371019D01*
X149280819Y-140371019D02*
X149185581Y-140323400D01*
X149185581Y-140323400D02*
X149137962Y-140275780D01*
X149137962Y-140275780D02*
X149090343Y-140180542D01*
X149090343Y-140180542D02*
X149042724Y-139990066D01*
X149042724Y-139990066D02*
X149042724Y-139751971D01*
X149042724Y-139751971D02*
X149090343Y-139561495D01*
X149090343Y-139561495D02*
X149137962Y-139466257D01*
X149137962Y-139466257D02*
X149185581Y-139418638D01*
X149185581Y-139418638D02*
X149280819Y-139371019D01*
X150471295Y-139704352D02*
X150471295Y-140371019D01*
X150042724Y-139704352D02*
X150042724Y-140228161D01*
X150042724Y-140228161D02*
X150090343Y-140323400D01*
X150090343Y-140323400D02*
X150185581Y-140371019D01*
X150185581Y-140371019D02*
X150328438Y-140371019D01*
X150328438Y-140371019D02*
X150423676Y-140323400D01*
X150423676Y-140323400D02*
X150471295Y-140275780D01*
X151280819Y-139847209D02*
X150947486Y-139847209D01*
X150947486Y-140371019D02*
X150947486Y-139371019D01*
X150947486Y-139371019D02*
X151423676Y-139371019D01*
X142443833Y-113497819D02*
X142110500Y-113021628D01*
X141872405Y-113497819D02*
X141872405Y-112497819D01*
X141872405Y-112497819D02*
X142253357Y-112497819D01*
X142253357Y-112497819D02*
X142348595Y-112545438D01*
X142348595Y-112545438D02*
X142396214Y-112593057D01*
X142396214Y-112593057D02*
X142443833Y-112688295D01*
X142443833Y-112688295D02*
X142443833Y-112831152D01*
X142443833Y-112831152D02*
X142396214Y-112926390D01*
X142396214Y-112926390D02*
X142348595Y-112974009D01*
X142348595Y-112974009D02*
X142253357Y-113021628D01*
X142253357Y-113021628D02*
X141872405Y-113021628D01*
X143015262Y-112926390D02*
X142920024Y-112878771D01*
X142920024Y-112878771D02*
X142872405Y-112831152D01*
X142872405Y-112831152D02*
X142824786Y-112735914D01*
X142824786Y-112735914D02*
X142824786Y-112688295D01*
X142824786Y-112688295D02*
X142872405Y-112593057D01*
X142872405Y-112593057D02*
X142920024Y-112545438D01*
X142920024Y-112545438D02*
X143015262Y-112497819D01*
X143015262Y-112497819D02*
X143205738Y-112497819D01*
X143205738Y-112497819D02*
X143300976Y-112545438D01*
X143300976Y-112545438D02*
X143348595Y-112593057D01*
X143348595Y-112593057D02*
X143396214Y-112688295D01*
X143396214Y-112688295D02*
X143396214Y-112735914D01*
X143396214Y-112735914D02*
X143348595Y-112831152D01*
X143348595Y-112831152D02*
X143300976Y-112878771D01*
X143300976Y-112878771D02*
X143205738Y-112926390D01*
X143205738Y-112926390D02*
X143015262Y-112926390D01*
X143015262Y-112926390D02*
X142920024Y-112974009D01*
X142920024Y-112974009D02*
X142872405Y-113021628D01*
X142872405Y-113021628D02*
X142824786Y-113116866D01*
X142824786Y-113116866D02*
X142824786Y-113307342D01*
X142824786Y-113307342D02*
X142872405Y-113402580D01*
X142872405Y-113402580D02*
X142920024Y-113450200D01*
X142920024Y-113450200D02*
X143015262Y-113497819D01*
X143015262Y-113497819D02*
X143205738Y-113497819D01*
X143205738Y-113497819D02*
X143300976Y-113450200D01*
X143300976Y-113450200D02*
X143348595Y-113402580D01*
X143348595Y-113402580D02*
X143396214Y-113307342D01*
X143396214Y-113307342D02*
X143396214Y-113116866D01*
X143396214Y-113116866D02*
X143348595Y-113021628D01*
X143348595Y-113021628D02*
X143300976Y-112974009D01*
X143300976Y-112974009D02*
X143205738Y-112926390D01*
X141762466Y-114971019D02*
X141191038Y-114971019D01*
X141476752Y-114971019D02*
X141476752Y-113971019D01*
X141476752Y-113971019D02*
X141381514Y-114113876D01*
X141381514Y-114113876D02*
X141286276Y-114209114D01*
X141286276Y-114209114D02*
X141191038Y-114256733D01*
X142191038Y-114875780D02*
X142238657Y-114923400D01*
X142238657Y-114923400D02*
X142191038Y-114971019D01*
X142191038Y-114971019D02*
X142143419Y-114923400D01*
X142143419Y-114923400D02*
X142191038Y-114875780D01*
X142191038Y-114875780D02*
X142191038Y-114971019D01*
X142857704Y-113971019D02*
X142952942Y-113971019D01*
X142952942Y-113971019D02*
X143048180Y-114018638D01*
X143048180Y-114018638D02*
X143095799Y-114066257D01*
X143095799Y-114066257D02*
X143143418Y-114161495D01*
X143143418Y-114161495D02*
X143191037Y-114351971D01*
X143191037Y-114351971D02*
X143191037Y-114590066D01*
X143191037Y-114590066D02*
X143143418Y-114780542D01*
X143143418Y-114780542D02*
X143095799Y-114875780D01*
X143095799Y-114875780D02*
X143048180Y-114923400D01*
X143048180Y-114923400D02*
X142952942Y-114971019D01*
X142952942Y-114971019D02*
X142857704Y-114971019D01*
X142857704Y-114971019D02*
X142762466Y-114923400D01*
X142762466Y-114923400D02*
X142714847Y-114875780D01*
X142714847Y-114875780D02*
X142667228Y-114780542D01*
X142667228Y-114780542D02*
X142619609Y-114590066D01*
X142619609Y-114590066D02*
X142619609Y-114351971D01*
X142619609Y-114351971D02*
X142667228Y-114161495D01*
X142667228Y-114161495D02*
X142714847Y-114066257D01*
X142714847Y-114066257D02*
X142762466Y-114018638D01*
X142762466Y-114018638D02*
X142857704Y-113971019D01*
X143619609Y-114971019D02*
X143619609Y-113971019D01*
X143714847Y-114590066D02*
X144000561Y-114971019D01*
X144000561Y-114304352D02*
X143619609Y-114685304D01*
X183608942Y-89780580D02*
X183561323Y-89828200D01*
X183561323Y-89828200D02*
X183418466Y-89875819D01*
X183418466Y-89875819D02*
X183323228Y-89875819D01*
X183323228Y-89875819D02*
X183180371Y-89828200D01*
X183180371Y-89828200D02*
X183085133Y-89732961D01*
X183085133Y-89732961D02*
X183037514Y-89637723D01*
X183037514Y-89637723D02*
X182989895Y-89447247D01*
X182989895Y-89447247D02*
X182989895Y-89304390D01*
X182989895Y-89304390D02*
X183037514Y-89113914D01*
X183037514Y-89113914D02*
X183085133Y-89018676D01*
X183085133Y-89018676D02*
X183180371Y-88923438D01*
X183180371Y-88923438D02*
X183323228Y-88875819D01*
X183323228Y-88875819D02*
X183418466Y-88875819D01*
X183418466Y-88875819D02*
X183561323Y-88923438D01*
X183561323Y-88923438D02*
X183608942Y-88971057D01*
X184561323Y-89875819D02*
X183989895Y-89875819D01*
X184275609Y-89875819D02*
X184275609Y-88875819D01*
X184275609Y-88875819D02*
X184180371Y-89018676D01*
X184180371Y-89018676D02*
X184085133Y-89113914D01*
X184085133Y-89113914D02*
X183989895Y-89161533D01*
X185132752Y-89304390D02*
X185037514Y-89256771D01*
X185037514Y-89256771D02*
X184989895Y-89209152D01*
X184989895Y-89209152D02*
X184942276Y-89113914D01*
X184942276Y-89113914D02*
X184942276Y-89066295D01*
X184942276Y-89066295D02*
X184989895Y-88971057D01*
X184989895Y-88971057D02*
X185037514Y-88923438D01*
X185037514Y-88923438D02*
X185132752Y-88875819D01*
X185132752Y-88875819D02*
X185323228Y-88875819D01*
X185323228Y-88875819D02*
X185418466Y-88923438D01*
X185418466Y-88923438D02*
X185466085Y-88971057D01*
X185466085Y-88971057D02*
X185513704Y-89066295D01*
X185513704Y-89066295D02*
X185513704Y-89113914D01*
X185513704Y-89113914D02*
X185466085Y-89209152D01*
X185466085Y-89209152D02*
X185418466Y-89256771D01*
X185418466Y-89256771D02*
X185323228Y-89304390D01*
X185323228Y-89304390D02*
X185132752Y-89304390D01*
X185132752Y-89304390D02*
X185037514Y-89352009D01*
X185037514Y-89352009D02*
X184989895Y-89399628D01*
X184989895Y-89399628D02*
X184942276Y-89494866D01*
X184942276Y-89494866D02*
X184942276Y-89685342D01*
X184942276Y-89685342D02*
X184989895Y-89780580D01*
X184989895Y-89780580D02*
X185037514Y-89828200D01*
X185037514Y-89828200D02*
X185132752Y-89875819D01*
X185132752Y-89875819D02*
X185323228Y-89875819D01*
X185323228Y-89875819D02*
X185418466Y-89828200D01*
X185418466Y-89828200D02*
X185466085Y-89780580D01*
X185466085Y-89780580D02*
X185513704Y-89685342D01*
X185513704Y-89685342D02*
X185513704Y-89494866D01*
X185513704Y-89494866D02*
X185466085Y-89399628D01*
X185466085Y-89399628D02*
X185418466Y-89352009D01*
X185418466Y-89352009D02*
X185323228Y-89304390D01*
X181923143Y-90196619D02*
X182018381Y-90196619D01*
X182018381Y-90196619D02*
X182113619Y-90244238D01*
X182113619Y-90244238D02*
X182161238Y-90291857D01*
X182161238Y-90291857D02*
X182208857Y-90387095D01*
X182208857Y-90387095D02*
X182256476Y-90577571D01*
X182256476Y-90577571D02*
X182256476Y-90815666D01*
X182256476Y-90815666D02*
X182208857Y-91006142D01*
X182208857Y-91006142D02*
X182161238Y-91101380D01*
X182161238Y-91101380D02*
X182113619Y-91149000D01*
X182113619Y-91149000D02*
X182018381Y-91196619D01*
X182018381Y-91196619D02*
X181923143Y-91196619D01*
X181923143Y-91196619D02*
X181827905Y-91149000D01*
X181827905Y-91149000D02*
X181780286Y-91101380D01*
X181780286Y-91101380D02*
X181732667Y-91006142D01*
X181732667Y-91006142D02*
X181685048Y-90815666D01*
X181685048Y-90815666D02*
X181685048Y-90577571D01*
X181685048Y-90577571D02*
X181732667Y-90387095D01*
X181732667Y-90387095D02*
X181780286Y-90291857D01*
X181780286Y-90291857D02*
X181827905Y-90244238D01*
X181827905Y-90244238D02*
X181923143Y-90196619D01*
X182685048Y-91101380D02*
X182732667Y-91149000D01*
X182732667Y-91149000D02*
X182685048Y-91196619D01*
X182685048Y-91196619D02*
X182637429Y-91149000D01*
X182637429Y-91149000D02*
X182685048Y-91101380D01*
X182685048Y-91101380D02*
X182685048Y-91196619D01*
X183685047Y-91196619D02*
X183113619Y-91196619D01*
X183399333Y-91196619D02*
X183399333Y-90196619D01*
X183399333Y-90196619D02*
X183304095Y-90339476D01*
X183304095Y-90339476D02*
X183208857Y-90434714D01*
X183208857Y-90434714D02*
X183113619Y-90482333D01*
X184542190Y-90529952D02*
X184542190Y-91196619D01*
X184113619Y-90529952D02*
X184113619Y-91053761D01*
X184113619Y-91053761D02*
X184161238Y-91149000D01*
X184161238Y-91149000D02*
X184256476Y-91196619D01*
X184256476Y-91196619D02*
X184399333Y-91196619D01*
X184399333Y-91196619D02*
X184494571Y-91149000D01*
X184494571Y-91149000D02*
X184542190Y-91101380D01*
X185351714Y-90672809D02*
X185018381Y-90672809D01*
X185018381Y-91196619D02*
X185018381Y-90196619D01*
X185018381Y-90196619D02*
X185494571Y-90196619D01*
X109326666Y-128981009D02*
X108993333Y-128981009D01*
X108993333Y-129504819D02*
X108993333Y-128504819D01*
X108993333Y-128504819D02*
X109469523Y-128504819D01*
X110183809Y-128981009D02*
X110326666Y-129028628D01*
X110326666Y-129028628D02*
X110374285Y-129076247D01*
X110374285Y-129076247D02*
X110421904Y-129171485D01*
X110421904Y-129171485D02*
X110421904Y-129314342D01*
X110421904Y-129314342D02*
X110374285Y-129409580D01*
X110374285Y-129409580D02*
X110326666Y-129457200D01*
X110326666Y-129457200D02*
X110231428Y-129504819D01*
X110231428Y-129504819D02*
X109850476Y-129504819D01*
X109850476Y-129504819D02*
X109850476Y-128504819D01*
X109850476Y-128504819D02*
X110183809Y-128504819D01*
X110183809Y-128504819D02*
X110279047Y-128552438D01*
X110279047Y-128552438D02*
X110326666Y-128600057D01*
X110326666Y-128600057D02*
X110374285Y-128695295D01*
X110374285Y-128695295D02*
X110374285Y-128790533D01*
X110374285Y-128790533D02*
X110326666Y-128885771D01*
X110326666Y-128885771D02*
X110279047Y-128933390D01*
X110279047Y-128933390D02*
X110183809Y-128981009D01*
X110183809Y-128981009D02*
X109850476Y-128981009D01*
X110802857Y-128600057D02*
X110850476Y-128552438D01*
X110850476Y-128552438D02*
X110945714Y-128504819D01*
X110945714Y-128504819D02*
X111183809Y-128504819D01*
X111183809Y-128504819D02*
X111279047Y-128552438D01*
X111279047Y-128552438D02*
X111326666Y-128600057D01*
X111326666Y-128600057D02*
X111374285Y-128695295D01*
X111374285Y-128695295D02*
X111374285Y-128790533D01*
X111374285Y-128790533D02*
X111326666Y-128933390D01*
X111326666Y-128933390D02*
X110755238Y-129504819D01*
X110755238Y-129504819D02*
X111374285Y-129504819D01*
X112601676Y-78360219D02*
X112601676Y-79074504D01*
X112601676Y-79074504D02*
X112554057Y-79217361D01*
X112554057Y-79217361D02*
X112458819Y-79312600D01*
X112458819Y-79312600D02*
X112315962Y-79360219D01*
X112315962Y-79360219D02*
X112220724Y-79360219D01*
X113601676Y-79360219D02*
X113030248Y-79360219D01*
X113315962Y-79360219D02*
X113315962Y-78360219D01*
X113315962Y-78360219D02*
X113220724Y-78503076D01*
X113220724Y-78503076D02*
X113125486Y-78598314D01*
X113125486Y-78598314D02*
X113030248Y-78645933D01*
X114554057Y-79360219D02*
X113982629Y-79360219D01*
X114268343Y-79360219D02*
X114268343Y-78360219D01*
X114268343Y-78360219D02*
X114173105Y-78503076D01*
X114173105Y-78503076D02*
X114077867Y-78598314D01*
X114077867Y-78598314D02*
X113982629Y-78645933D01*
D13*
X132512095Y-109503219D02*
X132512095Y-110312742D01*
X132512095Y-110312742D02*
X132559714Y-110407980D01*
X132559714Y-110407980D02*
X132607333Y-110455600D01*
X132607333Y-110455600D02*
X132702571Y-110503219D01*
X132702571Y-110503219D02*
X132893047Y-110503219D01*
X132893047Y-110503219D02*
X132988285Y-110455600D01*
X132988285Y-110455600D02*
X133035904Y-110407980D01*
X133035904Y-110407980D02*
X133083523Y-110312742D01*
X133083523Y-110312742D02*
X133083523Y-109503219D01*
X133464476Y-109503219D02*
X134083523Y-109503219D01*
X134083523Y-109503219D02*
X133750190Y-109884171D01*
X133750190Y-109884171D02*
X133893047Y-109884171D01*
X133893047Y-109884171D02*
X133988285Y-109931790D01*
X133988285Y-109931790D02*
X134035904Y-109979409D01*
X134035904Y-109979409D02*
X134083523Y-110074647D01*
X134083523Y-110074647D02*
X134083523Y-110312742D01*
X134083523Y-110312742D02*
X134035904Y-110407980D01*
X134035904Y-110407980D02*
X133988285Y-110455600D01*
X133988285Y-110455600D02*
X133893047Y-110503219D01*
X133893047Y-110503219D02*
X133607333Y-110503219D01*
X133607333Y-110503219D02*
X133512095Y-110455600D01*
X133512095Y-110455600D02*
X133464476Y-110407980D01*
D11*
X147880438Y-117573525D02*
X145880438Y-117573525D01*
X145880438Y-117573525D02*
X145880438Y-116811620D01*
X145880438Y-116811620D02*
X145975676Y-116621144D01*
X145975676Y-116621144D02*
X146070914Y-116525906D01*
X146070914Y-116525906D02*
X146261390Y-116430668D01*
X146261390Y-116430668D02*
X146547104Y-116430668D01*
X146547104Y-116430668D02*
X146737580Y-116525906D01*
X146737580Y-116525906D02*
X146832819Y-116621144D01*
X146832819Y-116621144D02*
X146928057Y-116811620D01*
X146928057Y-116811620D02*
X146928057Y-117573525D01*
X147689961Y-114430668D02*
X147785200Y-114525906D01*
X147785200Y-114525906D02*
X147880438Y-114811620D01*
X147880438Y-114811620D02*
X147880438Y-115002096D01*
X147880438Y-115002096D02*
X147785200Y-115287811D01*
X147785200Y-115287811D02*
X147594723Y-115478287D01*
X147594723Y-115478287D02*
X147404247Y-115573525D01*
X147404247Y-115573525D02*
X147023295Y-115668763D01*
X147023295Y-115668763D02*
X146737580Y-115668763D01*
X146737580Y-115668763D02*
X146356628Y-115573525D01*
X146356628Y-115573525D02*
X146166152Y-115478287D01*
X146166152Y-115478287D02*
X145975676Y-115287811D01*
X145975676Y-115287811D02*
X145880438Y-115002096D01*
X145880438Y-115002096D02*
X145880438Y-114811620D01*
X145880438Y-114811620D02*
X145975676Y-114525906D01*
X145975676Y-114525906D02*
X146070914Y-114430668D01*
X147880438Y-113573525D02*
X145880438Y-113573525D01*
X145880438Y-113573525D02*
X147309009Y-112906858D01*
X147309009Y-112906858D02*
X145880438Y-112240192D01*
X145880438Y-112240192D02*
X147880438Y-112240192D01*
X145880438Y-110335430D02*
X145880438Y-111287811D01*
X145880438Y-111287811D02*
X146832819Y-111383049D01*
X146832819Y-111383049D02*
X146737580Y-111287811D01*
X146737580Y-111287811D02*
X146642342Y-111097335D01*
X146642342Y-111097335D02*
X146642342Y-110621144D01*
X146642342Y-110621144D02*
X146737580Y-110430668D01*
X146737580Y-110430668D02*
X146832819Y-110335430D01*
X146832819Y-110335430D02*
X147023295Y-110240192D01*
X147023295Y-110240192D02*
X147499485Y-110240192D01*
X147499485Y-110240192D02*
X147689961Y-110335430D01*
X147689961Y-110335430D02*
X147785200Y-110430668D01*
X147785200Y-110430668D02*
X147880438Y-110621144D01*
X147880438Y-110621144D02*
X147880438Y-111097335D01*
X147880438Y-111097335D02*
X147785200Y-111287811D01*
X147785200Y-111287811D02*
X147689961Y-111383049D01*
X147880438Y-108335430D02*
X147880438Y-109478287D01*
X147880438Y-108906859D02*
X145880438Y-108906859D01*
X145880438Y-108906859D02*
X146166152Y-109097335D01*
X146166152Y-109097335D02*
X146356628Y-109287811D01*
X146356628Y-109287811D02*
X146451866Y-109478287D01*
X145880438Y-107097335D02*
X145880438Y-106906858D01*
X145880438Y-106906858D02*
X145975676Y-106716382D01*
X145975676Y-106716382D02*
X146070914Y-106621144D01*
X146070914Y-106621144D02*
X146261390Y-106525906D01*
X146261390Y-106525906D02*
X146642342Y-106430668D01*
X146642342Y-106430668D02*
X147118533Y-106430668D01*
X147118533Y-106430668D02*
X147499485Y-106525906D01*
X147499485Y-106525906D02*
X147689961Y-106621144D01*
X147689961Y-106621144D02*
X147785200Y-106716382D01*
X147785200Y-106716382D02*
X147880438Y-106906858D01*
X147880438Y-106906858D02*
X147880438Y-107097335D01*
X147880438Y-107097335D02*
X147785200Y-107287811D01*
X147785200Y-107287811D02*
X147689961Y-107383049D01*
X147689961Y-107383049D02*
X147499485Y-107478287D01*
X147499485Y-107478287D02*
X147118533Y-107573525D01*
X147118533Y-107573525D02*
X146642342Y-107573525D01*
X146642342Y-107573525D02*
X146261390Y-107478287D01*
X146261390Y-107478287D02*
X146070914Y-107383049D01*
X146070914Y-107383049D02*
X145975676Y-107287811D01*
X145975676Y-107287811D02*
X145880438Y-107097335D01*
X146070914Y-105668763D02*
X145975676Y-105573525D01*
X145975676Y-105573525D02*
X145880438Y-105383049D01*
X145880438Y-105383049D02*
X145880438Y-104906858D01*
X145880438Y-104906858D02*
X145975676Y-104716382D01*
X145975676Y-104716382D02*
X146070914Y-104621144D01*
X146070914Y-104621144D02*
X146261390Y-104525906D01*
X146261390Y-104525906D02*
X146451866Y-104525906D01*
X146451866Y-104525906D02*
X146737580Y-104621144D01*
X146737580Y-104621144D02*
X147880438Y-105764001D01*
X147880438Y-105764001D02*
X147880438Y-104525906D01*
X180351333Y-104995180D02*
X180303714Y-105042800D01*
X180303714Y-105042800D02*
X180160857Y-105090419D01*
X180160857Y-105090419D02*
X180065619Y-105090419D01*
X180065619Y-105090419D02*
X179922762Y-105042800D01*
X179922762Y-105042800D02*
X179827524Y-104947561D01*
X179827524Y-104947561D02*
X179779905Y-104852323D01*
X179779905Y-104852323D02*
X179732286Y-104661847D01*
X179732286Y-104661847D02*
X179732286Y-104518990D01*
X179732286Y-104518990D02*
X179779905Y-104328514D01*
X179779905Y-104328514D02*
X179827524Y-104233276D01*
X179827524Y-104233276D02*
X179922762Y-104138038D01*
X179922762Y-104138038D02*
X180065619Y-104090419D01*
X180065619Y-104090419D02*
X180160857Y-104090419D01*
X180160857Y-104090419D02*
X180303714Y-104138038D01*
X180303714Y-104138038D02*
X180351333Y-104185657D01*
X181303714Y-105090419D02*
X180732286Y-105090419D01*
X181018000Y-105090419D02*
X181018000Y-104090419D01*
X181018000Y-104090419D02*
X180922762Y-104233276D01*
X180922762Y-104233276D02*
X180827524Y-104328514D01*
X180827524Y-104328514D02*
X180732286Y-104376133D01*
X180018143Y-105436619D02*
X180113381Y-105436619D01*
X180113381Y-105436619D02*
X180208619Y-105484238D01*
X180208619Y-105484238D02*
X180256238Y-105531857D01*
X180256238Y-105531857D02*
X180303857Y-105627095D01*
X180303857Y-105627095D02*
X180351476Y-105817571D01*
X180351476Y-105817571D02*
X180351476Y-106055666D01*
X180351476Y-106055666D02*
X180303857Y-106246142D01*
X180303857Y-106246142D02*
X180256238Y-106341380D01*
X180256238Y-106341380D02*
X180208619Y-106389000D01*
X180208619Y-106389000D02*
X180113381Y-106436619D01*
X180113381Y-106436619D02*
X180018143Y-106436619D01*
X180018143Y-106436619D02*
X179922905Y-106389000D01*
X179922905Y-106389000D02*
X179875286Y-106341380D01*
X179875286Y-106341380D02*
X179827667Y-106246142D01*
X179827667Y-106246142D02*
X179780048Y-106055666D01*
X179780048Y-106055666D02*
X179780048Y-105817571D01*
X179780048Y-105817571D02*
X179827667Y-105627095D01*
X179827667Y-105627095D02*
X179875286Y-105531857D01*
X179875286Y-105531857D02*
X179922905Y-105484238D01*
X179922905Y-105484238D02*
X180018143Y-105436619D01*
X180780048Y-106341380D02*
X180827667Y-106389000D01*
X180827667Y-106389000D02*
X180780048Y-106436619D01*
X180780048Y-106436619D02*
X180732429Y-106389000D01*
X180732429Y-106389000D02*
X180780048Y-106341380D01*
X180780048Y-106341380D02*
X180780048Y-106436619D01*
X181780047Y-106436619D02*
X181208619Y-106436619D01*
X181494333Y-106436619D02*
X181494333Y-105436619D01*
X181494333Y-105436619D02*
X181399095Y-105579476D01*
X181399095Y-105579476D02*
X181303857Y-105674714D01*
X181303857Y-105674714D02*
X181208619Y-105722333D01*
X182637190Y-105769952D02*
X182637190Y-106436619D01*
X182208619Y-105769952D02*
X182208619Y-106293761D01*
X182208619Y-106293761D02*
X182256238Y-106389000D01*
X182256238Y-106389000D02*
X182351476Y-106436619D01*
X182351476Y-106436619D02*
X182494333Y-106436619D01*
X182494333Y-106436619D02*
X182589571Y-106389000D01*
X182589571Y-106389000D02*
X182637190Y-106341380D01*
X183446714Y-105912809D02*
X183113381Y-105912809D01*
X183113381Y-106436619D02*
X183113381Y-105436619D01*
X183113381Y-105436619D02*
X183589571Y-105436619D01*
D14*
X116456242Y-85844000D02*
X114785758Y-85844000D01*
X116456242Y-87664000D02*
X114785758Y-87664000D01*
X146686364Y-66413000D02*
X145232236Y-66413000D01*
X146686364Y-68233000D02*
X145232236Y-68233000D01*
X155012000Y-134351748D02*
X155012000Y-135774252D01*
X153192000Y-134351748D02*
X153192000Y-135774252D01*
X113512748Y-116324000D02*
X114935252Y-116324000D01*
X113512748Y-118144000D02*
X114935252Y-118144000D01*
X121744252Y-85844000D02*
X120321748Y-85844000D01*
X121744252Y-87664000D02*
X120321748Y-87664000D01*
X109375758Y-135120000D02*
X111046242Y-135120000D01*
X109375758Y-136940000D02*
X111046242Y-136940000D01*
X143435748Y-137448000D02*
X144858252Y-137448000D01*
X143435748Y-135628000D02*
X144858252Y-135628000D01*
X114861758Y-98036000D02*
X116532242Y-98036000D01*
X114861758Y-99856000D02*
X116532242Y-99856000D01*
X141879436Y-118483000D02*
X143333564Y-118483000D01*
X141879436Y-120303000D02*
X143333564Y-120303000D01*
D15*
X97111400Y-68251400D02*
X100211400Y-68251400D01*
X97111400Y-68751400D02*
X97111400Y-68251400D01*
X97111400Y-73751400D02*
X97111400Y-68751400D01*
X97111400Y-74251400D02*
X97111400Y-73751400D01*
X97111400Y-74251400D02*
X98211400Y-74251400D01*
X100811400Y-74251400D02*
X107311400Y-74251400D01*
X102811400Y-68251400D02*
X111611400Y-68251400D01*
X110511400Y-74251400D02*
X111611400Y-74251400D01*
D14*
X111611400Y-68251400D02*
X111609600Y-68914600D01*
X111611400Y-74251400D02*
X111609600Y-72115000D01*
X114076000Y-136793748D02*
X114076000Y-138216252D01*
X115896000Y-136793748D02*
X115896000Y-138216252D01*
X115110242Y-113022000D02*
X113439758Y-113022000D01*
X115110242Y-114842000D02*
X113439758Y-114842000D01*
X180797400Y-93063200D02*
X178847400Y-93063200D01*
X180797400Y-93063200D02*
X182747400Y-93063200D01*
X180797400Y-101933200D02*
X178847400Y-101933200D01*
X180797400Y-101933200D02*
X182747400Y-101933200D01*
X183737400Y-102198200D02*
X183257400Y-102198200D01*
X183497400Y-101868200D01*
X183737400Y-102198200D01*
G36*
X183737400Y-102198200D02*
G01*
X183257400Y-102198200D01*
X183497400Y-101868200D01*
X183737400Y-102198200D01*
G37*
X114076000Y-124852252D02*
X114076000Y-123429748D01*
X115896000Y-124852252D02*
X115896000Y-123429748D01*
D15*
X97120000Y-91120000D02*
X100220000Y-91120000D01*
X97120000Y-91620000D02*
X97120000Y-91120000D01*
X97120000Y-96620000D02*
X97120000Y-91620000D01*
X97120000Y-97120000D02*
X97120000Y-96620000D01*
X97120000Y-97120000D02*
X98220000Y-97120000D01*
X100820000Y-97120000D02*
X107320000Y-97120000D01*
X102820000Y-91120000D02*
X111620000Y-91120000D01*
X110520000Y-97120000D02*
X111620000Y-97120000D01*
D14*
X111620000Y-91120000D02*
X111618200Y-91783200D01*
X111620000Y-97120000D02*
X111618200Y-94983600D01*
X137190000Y-112105052D02*
X137190000Y-110682548D01*
X139010000Y-112105052D02*
X139010000Y-110682548D01*
X146741164Y-74490200D02*
X145287036Y-74490200D01*
X146741164Y-76310200D02*
X145287036Y-76310200D01*
X156087600Y-131228236D02*
X156087600Y-132682364D01*
X157907600Y-131228236D02*
X157907600Y-132682364D01*
D13*
X128399400Y-127018400D02*
X128399400Y-127518400D01*
X128399400Y-127018400D02*
X128899400Y-127018400D01*
X128399400Y-137218400D02*
X128399400Y-136718400D01*
X128399400Y-137218400D02*
X128899400Y-137218400D01*
X134399400Y-127018400D02*
X133899400Y-127018400D01*
X134399400Y-127018400D02*
X134399400Y-127518400D01*
X134399400Y-137218400D02*
X133899400Y-137218400D01*
X134399400Y-137218400D02*
X134399400Y-136718400D01*
D14*
X137851348Y-135582200D02*
X139273852Y-135582200D01*
X137851348Y-137402200D02*
X139273852Y-137402200D01*
D15*
X97111400Y-56821400D02*
X100211400Y-56821400D01*
X97111400Y-57321400D02*
X97111400Y-56821400D01*
X97111400Y-62321400D02*
X97111400Y-57321400D01*
X97111400Y-62821400D02*
X97111400Y-62321400D01*
X97111400Y-62821400D02*
X98211400Y-62821400D01*
X100811400Y-62821400D02*
X107311400Y-62821400D01*
X102811400Y-56821400D02*
X111611400Y-56821400D01*
X110511400Y-62821400D02*
X111611400Y-62821400D01*
D14*
X111611400Y-56821400D02*
X111609600Y-57484600D01*
X111611400Y-62821400D02*
X111609600Y-60685000D01*
D11*
X124023800Y-56298400D02*
X152023800Y-56298400D01*
X152023800Y-91148400D01*
X124023800Y-91148400D01*
X124023800Y-56298400D01*
D14*
X191313052Y-123893200D02*
X189890548Y-123893200D01*
X191313052Y-125713200D02*
X189890548Y-125713200D01*
X129439764Y-118483000D02*
X127985636Y-118483000D01*
X129439764Y-120303000D02*
X127985636Y-120303000D01*
X119458252Y-94861000D02*
X118035748Y-94861000D01*
X119458252Y-96681000D02*
X118035748Y-96681000D01*
D15*
X97111400Y-79681400D02*
X100211400Y-79681400D01*
X97111400Y-80181400D02*
X97111400Y-79681400D01*
X97111400Y-85181400D02*
X97111400Y-80181400D01*
X97111400Y-85681400D02*
X97111400Y-85181400D01*
X97111400Y-85681400D02*
X98211400Y-85681400D01*
X100811400Y-85681400D02*
X107311400Y-85681400D01*
X102811400Y-79681400D02*
X111611400Y-79681400D01*
X110511400Y-85681400D02*
X111611400Y-85681400D01*
D14*
X111611400Y-79681400D02*
X111609600Y-80344600D01*
X111611400Y-85681400D02*
X111609600Y-83545000D01*
X116380242Y-89146000D02*
X114709758Y-89146000D01*
X116380242Y-90966000D02*
X114709758Y-90966000D01*
D13*
X137388800Y-128564600D02*
X137388800Y-129064600D01*
X137388800Y-128564600D02*
X137888800Y-128564600D01*
X137388800Y-134564600D02*
X137388800Y-134064600D01*
X137388800Y-134564600D02*
X137888800Y-134564600D01*
X150088800Y-128564600D02*
X149588800Y-128564600D01*
X150088800Y-128564600D02*
X150088800Y-129064600D01*
X150088800Y-134564600D02*
X149588800Y-134564600D01*
X150088800Y-134564600D02*
X150088800Y-134064600D01*
D14*
X109324758Y-124960000D02*
X110995242Y-124960000D01*
X109324758Y-126780000D02*
X110995242Y-126780000D01*
X119283000Y-92213252D02*
X119283000Y-90790748D01*
X121103000Y-92213252D02*
X121103000Y-90790748D01*
X129439764Y-115435000D02*
X127985636Y-115435000D01*
X129439764Y-117255000D02*
X127985636Y-117255000D01*
X146741164Y-71213600D02*
X145287036Y-71213600D01*
X146741164Y-73033600D02*
X145287036Y-73033600D01*
X135625000Y-115309000D02*
X133675000Y-115309000D01*
X135625000Y-115309000D02*
X137575000Y-115309000D01*
X135625000Y-120429000D02*
X133675000Y-120429000D01*
X135625000Y-120429000D02*
X137575000Y-120429000D01*
X132925000Y-115404000D02*
X132685000Y-115074000D01*
X133165000Y-115074000D01*
X132925000Y-115404000D01*
G36*
X132925000Y-115404000D02*
G01*
X132685000Y-115074000D01*
X133165000Y-115074000D01*
X132925000Y-115404000D01*
G37*
D13*
X115415000Y-65358000D02*
X115415000Y-65858000D01*
X115415000Y-65358000D02*
X115915000Y-65358000D01*
X115415000Y-75558000D02*
X115415000Y-75058000D01*
X115415000Y-75558000D02*
X115915000Y-75558000D01*
X121415000Y-65358000D02*
X120915000Y-65358000D01*
X121415000Y-65358000D02*
X121415000Y-65858000D01*
X121415000Y-75558000D02*
X120915000Y-75558000D01*
X121415000Y-75558000D02*
X121415000Y-75058000D01*
D14*
X114076000Y-130342252D02*
X114076000Y-128919748D01*
X115896000Y-130342252D02*
X115896000Y-128919748D01*
X96710000Y-115580000D02*
X105830000Y-115580000D01*
X96710000Y-127630000D02*
X98020000Y-127630000D01*
X96710000Y-143780000D02*
X96710000Y-115580000D01*
X98020000Y-116880000D02*
X104520000Y-116880000D01*
X98020000Y-127630000D02*
X98020000Y-116880000D01*
X98020000Y-131730000D02*
X96710000Y-131730000D01*
X98020000Y-131730000D02*
X98020000Y-131730000D01*
X98020000Y-142480000D02*
X98020000Y-131730000D01*
X99500000Y-118393000D02*
X100000000Y-119393000D01*
X100000000Y-119393000D02*
X100500000Y-118393000D01*
X100500000Y-118393000D02*
X99500000Y-118393000D01*
X104520000Y-116880000D02*
X104520000Y-142480000D01*
X104520000Y-142480000D02*
X98020000Y-142480000D01*
X105830000Y-115580000D02*
X105830000Y-143780000D01*
X105830000Y-143780000D02*
X96710000Y-143780000D01*
D11*
X155778400Y-66434000D02*
X173558400Y-66434000D01*
X155778400Y-127394000D02*
X155778400Y-66434000D01*
X158316800Y-110164000D02*
X158316800Y-114164000D01*
X158316800Y-114164000D02*
X158566800Y-114164000D01*
X158318400Y-66434000D02*
X158318400Y-79134000D01*
X158318400Y-79134000D02*
X171018400Y-79134000D01*
X158318400Y-91834000D02*
X158318400Y-104534000D01*
X158318400Y-104534000D02*
X171018400Y-104534000D01*
X158566800Y-114164000D02*
X164566800Y-114164000D01*
X159588400Y-66434000D02*
X159588400Y-67704000D01*
X159588400Y-67704000D02*
X169748400Y-67704000D01*
X160858400Y-122314000D02*
X160858400Y-127394000D01*
X160858400Y-128664000D02*
X160858400Y-127394000D01*
X163398400Y-82944000D02*
X165938400Y-82944000D01*
X163398400Y-86754000D02*
X163398400Y-82944000D01*
X164566800Y-110164000D02*
X158316800Y-110164000D01*
X164566800Y-114164000D02*
X164566800Y-110164000D01*
X165938400Y-82944000D02*
X165938400Y-86754000D01*
X165938400Y-86754000D02*
X163398400Y-86754000D01*
X167967600Y-108394800D02*
X170507600Y-108394800D01*
X167967600Y-118554800D02*
X170507600Y-118554800D01*
X167967600Y-121094800D02*
X167967600Y-108394800D01*
X167967600Y-121094800D02*
X167967600Y-118554800D01*
X168478400Y-122314000D02*
X160858400Y-122314000D01*
X168478400Y-122314000D02*
X168478400Y-127394000D01*
X168478400Y-127394000D02*
X168478400Y-128664000D01*
X168478400Y-128664000D02*
X160858400Y-128664000D01*
X169748400Y-67704000D02*
X169748400Y-66434000D01*
X170507600Y-108394800D02*
X170507600Y-121094800D01*
X170507600Y-121094800D02*
X167967600Y-121094800D01*
X171018400Y-79134000D02*
X171018400Y-66434000D01*
X171018400Y-91834000D02*
X158318400Y-91834000D01*
X171018400Y-104534000D02*
X171018400Y-91834000D01*
X173558400Y-66434000D02*
X173558400Y-127394000D01*
X173558400Y-127394000D02*
X155778400Y-127394000D01*
X165566426Y-84849000D02*
G75*
G02*
X163770374Y-84849000I-898026J0D01*
G01*
X163770374Y-84849000D02*
G75*
G02*
X165566426Y-84849000I898026J0D01*
G01*
D14*
X150446252Y-135628000D02*
X149023748Y-135628000D01*
X150446252Y-137448000D02*
X149023748Y-137448000D01*
X141883436Y-115435000D02*
X143337564Y-115435000D01*
X141883436Y-117255000D02*
X143337564Y-117255000D01*
X185958000Y-92953452D02*
X185958000Y-91530948D01*
X187778000Y-92953452D02*
X187778000Y-91530948D01*
X109324758Y-130040000D02*
X110995242Y-130040000D01*
X109324758Y-131860000D02*
X110995242Y-131860000D01*
D13*
X114951400Y-76946800D02*
X114951400Y-77446800D01*
X114951400Y-76946800D02*
X115451400Y-76946800D01*
X114951400Y-82946800D02*
X114951400Y-82446800D01*
X114951400Y-82946800D02*
X115451400Y-82946800D01*
X123151400Y-76946800D02*
X122651400Y-76946800D01*
X123151400Y-76946800D02*
X123151400Y-77446800D01*
X123151400Y-82946800D02*
X122651400Y-82946800D01*
X123151400Y-82946800D02*
X123151400Y-82446800D01*
X134721800Y-94604600D02*
X151993800Y-94604600D01*
X151993800Y-126350600D01*
X134721800Y-126350600D01*
X134721800Y-94604600D01*
D14*
X177423600Y-104279948D02*
X177423600Y-105702452D01*
X179243600Y-104279948D02*
X179243600Y-105702452D01*
%LPC*%
D16*
X117196000Y-86754000D03*
X114046000Y-86754000D03*
D17*
X147421800Y-67323000D03*
X144496800Y-67323000D03*
D18*
X154102000Y-136538000D03*
X154102000Y-133588000D03*
D19*
X112749000Y-117234000D03*
X115699000Y-117234000D03*
D20*
X122508000Y-86754000D03*
X119558000Y-86754000D03*
D21*
X108636000Y-136030000D03*
X111786000Y-136030000D03*
D19*
X142672000Y-136538000D03*
X145622000Y-136538000D03*
D21*
X114122000Y-98946000D03*
X117272000Y-98946000D03*
D22*
X141144000Y-119393000D03*
X144069000Y-119393000D03*
D23*
X100611400Y-71251400D03*
X107611400Y-71251400D03*
D24*
X99511400Y-74951400D03*
D25*
X108911400Y-74951400D03*
D24*
X101511400Y-67551400D03*
D26*
X112911400Y-70501400D03*
D18*
X114986000Y-136030000D03*
X114986000Y-138980000D03*
D16*
X115850000Y-113932000D03*
X112700000Y-113932000D03*
D27*
X183272400Y-101308200D03*
X183272400Y-100038200D03*
X183272400Y-98768200D03*
X183272400Y-97498200D03*
X183272400Y-96228200D03*
X183272400Y-94958200D03*
X183272400Y-93688200D03*
X178322400Y-93688200D03*
X178322400Y-94958200D03*
X178322400Y-96228200D03*
X178322400Y-97498200D03*
X178322400Y-98768200D03*
X178322400Y-100038200D03*
X178322400Y-101308200D03*
D28*
X114986000Y-125616000D03*
X114986000Y-122666000D03*
D23*
X100620000Y-94120000D03*
X107620000Y-94120000D03*
D24*
X99520000Y-97820000D03*
D25*
X108920000Y-97820000D03*
D24*
X101520000Y-90420000D03*
D26*
X112920000Y-93370000D03*
D28*
X138100000Y-112868800D03*
X138100000Y-109918800D03*
D17*
X147476600Y-75400200D03*
X144551600Y-75400200D03*
D29*
X156997600Y-130492800D03*
X156997600Y-133417800D03*
D30*
X131399400Y-134618400D03*
X131399400Y-132118400D03*
X131399400Y-129618400D03*
D19*
X137087600Y-136492200D03*
X140037600Y-136492200D03*
D23*
X100611400Y-59821400D03*
X107611400Y-59821400D03*
D24*
X99511400Y-63521400D03*
D25*
X108911400Y-63521400D03*
D24*
X101511400Y-56121400D03*
D26*
X112911400Y-59071400D03*
D30*
X125323800Y-67348400D03*
X125323800Y-69888400D03*
X125323800Y-72428400D03*
X125323800Y-74968400D03*
X125323800Y-77508400D03*
X125323800Y-80048400D03*
X150723800Y-80048400D03*
X150723800Y-77508400D03*
X150723800Y-74968400D03*
X150723800Y-72428400D03*
X150723800Y-69888400D03*
X150723800Y-67348400D03*
X140563800Y-57696400D03*
X138023800Y-57696400D03*
X135483800Y-57696400D03*
D20*
X192076800Y-124803200D03*
X189126800Y-124803200D03*
D17*
X130175200Y-119393000D03*
X127250200Y-119393000D03*
D20*
X120222000Y-95771000D03*
X117272000Y-95771000D03*
D23*
X100611400Y-82681400D03*
X107611400Y-82681400D03*
D24*
X99511400Y-86381400D03*
D25*
X108911400Y-86381400D03*
D24*
X101511400Y-78981400D03*
D26*
X112911400Y-81931400D03*
D16*
X117120000Y-90056000D03*
X113970000Y-90056000D03*
D30*
X139988800Y-131564600D03*
X142488800Y-131564600D03*
X144988800Y-131564600D03*
X147488800Y-131564600D03*
D21*
X108585000Y-125870000D03*
X111735000Y-125870000D03*
D28*
X120193000Y-92977000D03*
X120193000Y-90027000D03*
D17*
X130175200Y-116345000D03*
X127250200Y-116345000D03*
X147476600Y-72123600D03*
X144551600Y-72123600D03*
D31*
X133150000Y-115964000D03*
X133150000Y-117234000D03*
X133150000Y-118504000D03*
X133150000Y-119774000D03*
X138100000Y-119774000D03*
X138100000Y-118504000D03*
X138100000Y-117234000D03*
X138100000Y-115964000D03*
D30*
X118415000Y-72958000D03*
X118415000Y-70458000D03*
X118415000Y-67958000D03*
D28*
X114986000Y-131106000D03*
X114986000Y-128156000D03*
D32*
X100000000Y-120790000D03*
D23*
X102540000Y-120790000D03*
X100000000Y-123330000D03*
X102540000Y-123330000D03*
X100000000Y-125870000D03*
X102540000Y-125870000D03*
X100000000Y-128410000D03*
X102540000Y-128410000D03*
X100000000Y-130950000D03*
X102540000Y-130950000D03*
X100000000Y-133490000D03*
X102540000Y-133490000D03*
X100000000Y-136030000D03*
X102540000Y-136030000D03*
X100000000Y-138570000D03*
X102540000Y-138570000D03*
D33*
X172288400Y-126124000D03*
D34*
X172288400Y-123584000D03*
X172288400Y-121044000D03*
X172288400Y-118504000D03*
X172288400Y-115964000D03*
X172288400Y-113424000D03*
X172288400Y-110884000D03*
X172288400Y-108344000D03*
X172288400Y-105804000D03*
X172288400Y-103264000D03*
X172288400Y-100724000D03*
X172288400Y-98184000D03*
X172288400Y-95644000D03*
X172288400Y-93104000D03*
X172288400Y-90564000D03*
X172288400Y-88024000D03*
X172288400Y-85484000D03*
X172288400Y-82944000D03*
X172288400Y-80404000D03*
X172288400Y-77864000D03*
X172288400Y-75324000D03*
X172288400Y-72784000D03*
X172288400Y-70244000D03*
X172288400Y-67704000D03*
X157048400Y-67704000D03*
X157048400Y-70244000D03*
X157048400Y-72784000D03*
X157048400Y-75324000D03*
X157048400Y-77864000D03*
X157048400Y-80404000D03*
X157048400Y-82944000D03*
X157048400Y-85484000D03*
X157048400Y-88024000D03*
X157048400Y-90564000D03*
X157048400Y-93104000D03*
X157048400Y-95644000D03*
X157048400Y-98184000D03*
X157048400Y-100724000D03*
X157048400Y-103264000D03*
X157048400Y-105804000D03*
X157048400Y-108344000D03*
X157048400Y-110884000D03*
X157048400Y-113424000D03*
X157048400Y-115964000D03*
X157048400Y-118504000D03*
X157048400Y-121044000D03*
X157048400Y-123584000D03*
X157048400Y-126124000D03*
X159588400Y-123584000D03*
X169748400Y-80404000D03*
X167208400Y-80404000D03*
X164668400Y-80404000D03*
X162128400Y-80404000D03*
X159588400Y-80404000D03*
D33*
X169237600Y-119824800D03*
D34*
X169237600Y-117284800D03*
X169237600Y-114744800D03*
X169237600Y-112204800D03*
X169237600Y-109664800D03*
D35*
X159486800Y-113154000D03*
D36*
X161486800Y-113154000D03*
X163486800Y-113154000D03*
X163486800Y-111154000D03*
X161486800Y-111154000D03*
X159486800Y-111154000D03*
X163398400Y-125394000D03*
X165938400Y-125394000D03*
D20*
X151210000Y-136538000D03*
X148260000Y-136538000D03*
D22*
X141148000Y-116345000D03*
X144073000Y-116345000D03*
D28*
X186868000Y-93717200D03*
X186868000Y-90767200D03*
D21*
X108585000Y-130950000D03*
X111735000Y-130950000D03*
D30*
X117551400Y-79946800D03*
X120051400Y-79946800D03*
X150723800Y-122669600D03*
X150723800Y-120129600D03*
X150723800Y-117589600D03*
X150723800Y-115049600D03*
X150723800Y-112509600D03*
X150723800Y-109969600D03*
X150723800Y-107429600D03*
X150723800Y-104889600D03*
X150723800Y-102349600D03*
X149707800Y-95872600D03*
X147167800Y-95872600D03*
X144627800Y-95872600D03*
X142087800Y-95872600D03*
X139547800Y-95872600D03*
X137007800Y-95872600D03*
D18*
X178333600Y-103516200D03*
X178333600Y-106466200D03*
D37*
X180568800Y-57655100D03*
D23*
X180568800Y-60195100D03*
X183108800Y-57655100D03*
X183108800Y-60195100D03*
X185648800Y-57655100D03*
X185648800Y-60195100D03*
X188188800Y-57655100D03*
X188188800Y-60195100D03*
X190728800Y-57655100D03*
X190728800Y-60195100D03*
D32*
X190068400Y-101333600D03*
D23*
X192608400Y-101333600D03*
X190068400Y-98793600D03*
X192608400Y-98793600D03*
X190068400Y-96253600D03*
X192608400Y-96253600D03*
X190068400Y-93713600D03*
X192608400Y-93713600D03*
X190068400Y-91173600D03*
X192608400Y-91173600D03*
D30*
X192075000Y-121247200D03*
X189575000Y-121247200D03*
X187075000Y-121247200D03*
D38*
X192573500Y-69558200D03*
D23*
X190033500Y-69558200D03*
X192573500Y-72098200D03*
X190033500Y-72098200D03*
X192573500Y-74638200D03*
X190033500Y-74638200D03*
X192573500Y-77178200D03*
X190033500Y-77178200D03*
X192573500Y-79718200D03*
X190033500Y-79718200D03*
D39*
X112700000Y-108090000D03*
D23*
X112700000Y-105550000D03*
X110160000Y-108090000D03*
X110160000Y-105550000D03*
X107620000Y-108090000D03*
X107620000Y-105550000D03*
X105080000Y-108090000D03*
X105080000Y-105550000D03*
X102540000Y-108090000D03*
X102540000Y-105550000D03*
%LPD*%
M02*
