M48
; DRILL file {KiCad 8.0.5} date 2024-09-19T13:37:49-0400
; FORMAT={-:-/ absolute / metric / decimal}
; #@! TF.CreationDate,2024-09-19T13:37:49-04:00
; #@! TF.GenerationSoftware,Kicad,Pcbnew,8.0.5
; #@! TF.FileFunction,Plated,1,2,PTH
FMAT,2
METRIC
; #@! TA.AperFunction,Plated,PTH,ViaDrill
T1C0.500
; #@! TA.AperFunction,Plated,PTH,ComponentDrill
T2C0.800
; #@! TA.AperFunction,Plated,PTH,ComponentDrill
T3C1.000
; #@! TA.AperFunction,Plated,PTH,ComponentDrill
T4C1.100
%
G90
G05
T1
X98.07Y-107.099
X98.425Y-55.715
X98.501Y-78.448
X98.527Y-89.624
X98.578Y-66.79
X99.517Y-100.8
X101.778Y-76.213
X102.464Y-63.513
X103.378Y-115.177
X103.48Y-118.987
X103.937Y-113.399
X104.064Y-54.902
X105.639Y-102.908
X107.569Y-119.19
X109.398Y-91.834
X109.931Y-88.964
X110.389Y-70.346
X110.922Y-103.493
X110.973Y-112.713
X111.354Y-95.898
X112.37Y-123.279
X113.868Y-119.19
X114.326Y-132.957
X114.732Y-108.115
X114.935Y-78.499
X114.986Y-105.296
X114.986Y-141.034
X115.596Y-97.143
X116.485Y-111.57
X117.17Y-126.403
X117.272Y-93.104
X117.551Y-75.654
X117.907Y-115.456
X118.313Y-131.661
X119.558Y-99.835
X120.041Y-82.309
X121.615Y-111.011
X122.622Y-64.721
X123.952Y-127.496
X124.054Y-122.085
X124.206Y-114.491
X125.4Y-88.684
X125.591Y-116.345
X125.591Y-119.393
X125.591Y-133.09
X126.06Y-83.884
X126.137Y-62.243
X127.051Y-111.29
X127.051Y-114.288
X127.076Y-122.085
X127.102Y-104.661
X127.229Y-127.496
X127.407Y-95.593
X129.159Y-98.362
X129.159Y-132.703
X130.099Y-86.779
X130.658Y-83.198
X130.734Y-62.116
X130.988Y-57.366
X131.369Y-91.58
X131.399Y-127.168
X131.471Y-100.14
X132.639Y-136.462
X133.172Y-121.349
X133.503Y-111.29
X133.858Y-114.364
X134.087Y-124.448
X134.265Y-88.761
X134.442Y-106.083
X134.519Y-97.219
X134.519Y-128.867
X134.925Y-92.698
X135.027Y-112.865
X135.941Y-117.234
X136.297Y-134.074
X136.474Y-63.513
X137.363Y-121.349
X138.862Y-101.613
X139.472Y-83.274
X140.589Y-99.403
X140.589Y-102.146
X141.021Y-123.406
X141.199Y-111.417
X141.834Y-105.271
X142.469Y-78.524
X142.57Y-102.248
X142.621Y-65.977
X142.621Y-90.462
X142.647Y-114.186
X142.774Y-84.493
X142.774Y-57.569
X144.043Y-73.707
X144.602Y-128.867
X145.415Y-89.65
X145.575Y-73.465
X145.593Y-78.524
X145.745Y-84.265
X146.078Y-71.174
X146.939Y-123.025
X148.285Y-86.703
X150.546Y-84.417
X152.705Y-57.62
X152.984Y-87.16
X153.416Y-141.237
X154.102Y-55.131
X154.102Y-131.61
X154.275Y-101.898
X155.016Y-67.856
X155.296Y-128.359
X155.855Y-137.859
X157.003Y-128.549
X157.556Y-62.395
X158.699Y-119.622
X158.953Y-82.258
X158.953Y-129.604
X159.055Y-70.422
X159.106Y-87.973
X159.334Y-76.111
X159.436Y-125.514
X159.842Y-100.953
X160.223Y-97.879
X161.239Y-116.116
X161.265Y-62.395
X161.773Y-78.524
X161.976Y-126.607
X162.078Y-105.931
X162.713Y-67.78
X163.957Y-120.866
X164.821Y-93.104
X165.253Y-70.32
X166.294Y-109.614
X166.675Y-67.882
X166.726Y-72.657
X167.158Y-82.461
X168.072Y-86.779
X168.123Y-78.423
X169.698Y-74.486
X170.231Y-95.644
X170.256Y-103.366
X170.333Y-71.463
X170.333Y-87.668
X170.561Y-137.935
X170.561Y-141.262
X170.637Y-106.972
X172.466Y-131.56
X173.406Y-128.969
X174.219Y-91.199
X174.295Y-84.544
X174.295Y-120.942
X175.133Y-77.94
X175.159Y-72.251
X176.2Y-110.249
X176.225Y-106.464
X179.019Y-91.631
X179.832Y-108.039
X180.315Y-97.366
X180.315Y-99.403
X182.22Y-106.795
X182.22Y-110.325
X182.525Y-135.598
X182.906Y-63.284
X183.642Y-91.885
X183.998Y-108.598
X184.074Y-86.703
X184.43Y-66.561
X184.988Y-138.011
X185.903Y-100.114
X186.817Y-88.862
X186.919Y-67.933
X186.919Y-62.065
X187.986Y-77.331
X189.179Y-81.623
X190.399Y-84.824
X191.262Y-126.886
X193.116Y-103.289
X193.218Y-117.742
X193.701Y-82.665
X193.751Y-56.553
X194.844Y-146.8
X194.869Y-137.656
X195.174Y-127.953
T2
X159.487Y-111.154
X159.487Y-113.154
X161.487Y-111.154
X161.487Y-113.154
X163.398Y-125.394
X163.487Y-111.154
X163.487Y-113.154
X165.938Y-125.394
T3
X100.0Y-120.79
X100.0Y-123.33
X100.0Y-125.87
X100.0Y-128.41
X100.0Y-130.95
X100.0Y-133.49
X100.0Y-136.03
X100.0Y-138.57
X102.54Y-105.55
X102.54Y-108.09
X102.54Y-120.79
X102.54Y-123.33
X102.54Y-125.87
X102.54Y-128.41
X102.54Y-130.95
X102.54Y-133.49
X102.54Y-136.03
X102.54Y-138.57
X105.08Y-105.55
X105.08Y-108.09
X107.62Y-105.55
X107.62Y-108.09
X110.16Y-105.55
X110.16Y-108.09
X112.7Y-105.55
X112.7Y-108.09
X180.569Y-57.655
X180.569Y-60.195
X183.109Y-57.655
X183.109Y-60.195
X185.649Y-57.655
X185.649Y-60.195
X188.189Y-57.655
X188.189Y-60.195
X190.034Y-69.558
X190.034Y-72.098
X190.034Y-74.638
X190.034Y-77.178
X190.034Y-79.718
X190.068Y-91.174
X190.068Y-93.714
X190.068Y-96.254
X190.068Y-98.794
X190.068Y-101.334
X190.729Y-57.655
X190.729Y-60.195
X192.573Y-69.558
X192.573Y-72.098
X192.573Y-74.638
X192.573Y-77.178
X192.573Y-79.718
X192.608Y-91.174
X192.608Y-93.714
X192.608Y-96.254
X192.608Y-98.794
X192.608Y-101.334
T4
X117.551Y-79.947
X118.415Y-67.958
X118.415Y-70.458
X118.415Y-72.958
X120.051Y-79.947
X125.324Y-67.348
X125.324Y-69.888
X125.324Y-72.428
X125.324Y-74.968
X125.324Y-77.508
X125.324Y-80.048
X131.399Y-129.618
X131.399Y-132.118
X131.399Y-134.618
X135.484Y-57.696
X137.008Y-95.873
X138.024Y-57.696
X139.548Y-95.873
X139.989Y-131.565
X140.564Y-57.696
X142.088Y-95.873
X142.489Y-131.565
X144.628Y-95.873
X144.989Y-131.565
X147.168Y-95.873
X147.489Y-131.565
X149.708Y-95.873
X150.724Y-67.348
X150.724Y-69.888
X150.724Y-72.428
X150.724Y-74.968
X150.724Y-77.508
X150.724Y-80.048
X150.724Y-102.35
X150.724Y-104.89
X150.724Y-107.43
X150.724Y-109.97
X150.724Y-112.51
X150.724Y-115.05
X150.724Y-117.59
X150.724Y-120.13
X150.724Y-122.67
X157.048Y-67.704
X157.048Y-70.244
X157.048Y-72.784
X157.048Y-75.324
X157.048Y-77.864
X157.048Y-80.404
X157.048Y-82.944
X157.048Y-85.484
X157.048Y-88.024
X157.048Y-90.564
X157.048Y-93.104
X157.048Y-95.644
X157.048Y-98.184
X157.048Y-100.724
X157.048Y-103.264
X157.048Y-105.804
X157.048Y-108.344
X157.048Y-110.884
X157.048Y-113.424
X157.048Y-115.964
X157.048Y-118.504
X157.048Y-121.044
X157.048Y-123.584
X157.048Y-126.124
X159.588Y-80.404
X159.588Y-123.584
X162.128Y-80.404
X164.668Y-80.404
X167.208Y-80.404
X169.238Y-109.665
X169.238Y-112.205
X169.238Y-114.745
X169.238Y-117.285
X169.238Y-119.825
X169.748Y-80.404
X172.288Y-67.704
X172.288Y-70.244
X172.288Y-72.784
X172.288Y-75.324
X172.288Y-77.864
X172.288Y-80.404
X172.288Y-82.944
X172.288Y-85.484
X172.288Y-88.024
X172.288Y-90.564
X172.288Y-93.104
X172.288Y-95.644
X172.288Y-98.184
X172.288Y-100.724
X172.288Y-103.264
X172.288Y-105.804
X172.288Y-108.344
X172.288Y-110.884
X172.288Y-113.424
X172.288Y-115.964
X172.288Y-118.504
X172.288Y-121.044
X172.288Y-123.584
X172.288Y-126.124
X187.075Y-121.247
X189.575Y-121.247
X192.075Y-121.247
M30
